<?xml version="1.0" encoding="utf-8"?>
<!-- Generator: Adobe Illustrator 23.0.1, SVG Export Plug-In . SVG Version: 6.00 Build 0)  -->
<svg version="1.1" id="Layer_1" xmlns="http://www.w3.org/2000/svg" xmlns:xlink="http://www.w3.org/1999/xlink" x="0px" y="0px"
	 viewBox="0 0 1000 1000" style="enable-background:new 0 0 1000 1000;" xml:space="preserve">
<style type="text/css">
	.st0{fill-rule:evenodd;clip-rule:evenodd;fill:#E25325;}
	.st1{fill-rule:evenodd;clip-rule:evenodd;fill:#FFFFFF;}
	.st2{fill-rule:evenodd;clip-rule:evenodd;}
</style>
<g>
	<path class="st0" d="M442.6,858.3c-85.3,0-165.2-30.9-219.1-85.3c-48.4-48.4-73.8-113.8-74.4-188.8l-24.2,4.2l-1.2-4.2
		c-0.6-3-17.6-76.9,63.5-142.2c-21.8-50.8-42.4-144,42.4-216.1c9.1-9.1,15.1-12.7,19.4-16.3c2.4-1.8,4.2-3,6.1-4.2
		c4.8-13.3,14.5-25.4,19.4-30.3c26.6-27.8,60.5-32.1,61.7-32.7c4.8-0.6,9.7-1.2,14.5-1.2c26,0,41.2,10.9,47.8,15.7
		c0.6,0.6,0.6,0.6,1.2,0.6c3,0.6,6.7,1.2,11.5,1.2c4.8,0,11.5,0.6,20,1.2c47.8,6.1,88.4,28.4,121,65.4c10.9-1.2,54.5-7.3,76.3-12.1
		l33.3-7.3c53.3-11.5,103.5-22.4,139.8-22.4c5.4,0,10.3,0,14.5,0.6h0.6c26,4.8,46,18.8,54.5,39.3c18.2,43.6,6.7,77.5-39.3,114.4
		C776.7,382,698.1,405,653.3,415.3c0.6,3.6,1.8,10.3,4.8,21.2c10.9-1.2,22.4-1.2,33.3-1.2c89.6,0,147.1,32.7,150.7,64.8
		c0.6,10.9-7.3,23.6-26,29.1c-80.5,21.2-96.8,60.5-118,152.5c-12.7,54.5-44.8,99.9-94.4,131.3C559.5,842.6,502,858.3,442.6,858.3"/>
	<path class="st1" d="M350.6,145.9c26.6,0,41.8,12.7,47.2,16.3c7.3,2.4,15.1,0.6,32.7,3c30.3,4.2,78.1,16.9,119.8,66
		c0,0,53.9-7.3,79.3-12.1c64.2-13.3,128.9-29.1,171.9-29.1c4.8,0,9.7,0,13.9,0.6c27.2,4.8,44.2,20,50.8,36.9
		c18.8,44.8,3.6,75.7-37.5,108.9c-51.4,41.2-126.5,65.4-180.4,78.1c0,0,0.6,8.5,6.7,29.7c12.7-1.2,24.8-1.8,36.3-1.8
		c87.2,0,142.8,31.5,145.9,60.5c0.6,8.5-6.1,19.4-23,24.2c-82.9,21.8-100.5,63.5-121.7,156.2c-26,113.8-136.2,171.9-250.6,171.9
		c-142.2,0-289.9-89.6-289.3-274.8l-25.4,4.2c0,0-18.2-75.1,64.8-139.8c-15.1-33.9-52.7-135.6,39.3-213.7
		c14.5-13.9,20-15.7,26.6-21.2c4.2-12.7,13.3-24.8,18.8-29.7c26-26.6,58.7-30.9,58.7-30.9C341.6,146.5,346.4,145.9,350.6,145.9
		 M350.6,136.9c-4.8,0-10.3,0.6-15.1,1.2c-3,0.6-36.9,5.4-64.2,33.9c-4.8,4.8-14.5,16.9-20,30.9c-1.2,1.2-3,2.4-4.8,3.6
		c-4.8,3-10.3,7.3-20,16.3c-41.8,35.1-62.9,78.7-62.9,130.1c0,27.8,6.1,57.5,18.2,87.8c-41.2,33.9-56.3,69.6-61.7,95
		c-6.1,28.4-1.2,49-1.2,49.6l1.8,8.5l8.5-1.2l15.1-2.4c1.8,73.8,27.8,138,76.3,186.4c55.1,55.1,136.2,86.5,222.1,86.5
		c59.9,0,118-15.7,163.4-44.8c50.2-32.1,83.5-78.7,96.2-134.4c21.2-92,36.3-128.9,114.4-148.9c21.8-6.1,30.9-21.2,29.7-33.9
		c-1.8-18.2-19.4-35.7-47.2-48.4c-20-9.1-55.7-20-108.3-20c-9.7,0-19.4,0.6-29.7,1.2c-1.2-5.4-2.4-9.1-3-12.7
		c46-10.9,121.7-34.5,175.5-77.5c47.8-38.1,59.9-73.8,40.6-119.8c-9.1-21.8-30.3-37.5-58.1-42.4h-1.2c-4.8-0.6-9.7-0.6-15.1-0.6
		c-36.9,0-87.2,10.9-140.4,22.4l-33.3,7.3c-20.6,4.2-59.9,9.7-73.2,11.5c-31.5-38.1-72.6-59.9-121-66.6c-8.5-1.2-15.1-1.2-20.6-1.2
		c-4.2,0-7.3,0-9.7-0.6c0,0-0.6,0-0.6-0.6C394.2,148.4,377.9,136.9,350.6,136.9"/>
	<path class="st2" d="M730.1,501.8c-89.6,49.6-83.5,113.8-184,140.4c-113.8,29.7-205.8-46.6-139.2-61.7c15.7-3,17.6-12.7,0.6-9.7
		c-39.9,2.4-91.4,23-43,102.9c0,0,6.7,3,9.7,0c0,0-18.2-40.6-4.2-52.1c64.2,61.1,207,72,296.6-47.2c30.3-39.9,65.4-62.9,99.3-76.9
		c-54.5-13.3-116.2-14.5-150.1-4.2c-4.2-53.9-7.3-69-17.6-92c-4.8-10.3-5.4-16.3,18.2-23c14.5-4.2,75.1-18.2,127.1-41.8
		c36.9-16.9,62.3-35.7,69-42.4c5.4-4.8,24.8-26.6,17.6-44.2s-24.8-18.8-46-16.9c-18.2,1.8-26.6,2.4-139.8,27.2
		c-59.3,12.1-93.2,12.7-114.4,19.4c0,0-27.8-67.8-120.4-70.8c-12.1,0-31.5-2.4-41.2-12.1c-10.3-7.9-28.4-6.7-43.6,1.8
		c-11.5,6.1-21.2,15.7-23,24.8c-4.2,15.7-9.7,14.5-31.5,32.7c-27.2,22.4-89.6,72-20.6,198.5c-62.9,36.3-72,78.7-72,78.7l29.1-1.8
		c-4.2,7.9-7.9,33.9-7.9,45.4c-0.6,66,19.4,120.4,59.9,161.6c44.2,44.8,111.4,70.8,182.8,70.8c50.2,0,98.7-13.3,136.2-36.9
		c16.9-10.9,32.1-24.2,43.6-39.3c-144,89.6-276,13.3-302.6-62.9c-26-74.4,20.6-131.9,79.9-118c82.9,20,126.5,8.5,139.2-31.5
		c10.3,3.6,33.9,3,48.4-4.2C607.8,506.7,658.1,488.5,730.1,501.8"/>
	<path class="st1" d="M542.8,390.3c-2.6-0.2-5.1,0.1-7.6,0.8c-20,5.4-29.1,36.3-21.2,69c9.1,32.7,32.1,55.1,52.1,49.6
		c20-5.4,29.1-36.3,20.6-69C579.3,412.1,560.7,391.4,542.8,390.3L542.8,390.3L542.8,390.3z M336.7,409.2c-49,23-96.2,28.4-96.2,28.4
		l8.5,17.6L336.7,409.2L336.7,409.2z M458.2,423.7c-2.6,0-5.1,0.4-7.7,1.2c-19.4,6.1-26.6,37.5-16.3,69.6
		c10.3,32.1,35.1,53.3,54.5,46.6c19.4-6.1,26.6-37.5,16.3-69.6C496,443.5,476.3,423.8,458.2,423.7L458.2,423.7z"/>
	<path class="st2" d="M523.1,438.4c-1.2,0.2-2.5,0.5-3.6,1c-9.7,4.8-11.5,20-4.8,33.9c6.7,14.5,20,21.8,29.1,17.6
		c9.7-4.8,11.5-20,4.8-33.9C542.7,444.8,531.8,437.3,523.1,438.4L523.1,438.4z M445.8,467.3c-2.9-0.2-5.6,0.4-8,1.8
		c-9.7,5.4-11.5,22.4-3,36.9c8.5,14.5,23,22.4,32.7,17c9.7-5.4,11.5-22.4,3-36.9C464.1,474.7,454.4,467.8,445.8,467.3L445.8,467.3z"
		/>
	<path class="st0" d="M341.2,210.8c-8.9,0.3-18.2,5.9-23.2,24.7l45.4-16.9C363.4,218.6,352.6,210.3,341.2,210.8z M431.1,230.7
		c-6.1,0.6-11.5,3-14.5,7.9c-3.6,4.8-4.8,12.1-2.4,18.2c-5.4,13.3-4.8,29-1.2,41.2c4.2,12.7,10.3,21.8,18.8,26
		c4.8,3,10.9,3,15.1,1.8c6.1-1.8,10.3-6.1,13.3-12.7c6.7-13.9,5.4-34.5,0.6-48.4c2.4-1.8,5.4-6,6.7-9.7l-4.2-1.2
		c-1.2,2.4-2.4,4.8-4.2,6.7C451.7,240.3,441.4,230.1,431.1,230.7L431.1,230.7z M431.8,239.7c7.3,0,13.9,13.9,17.5,26
		c-5.4,2.4-9.7,2.4-13.9,0.6c-4.8-1.8-9.1-6.1-11.5-10.9c-1.8-4.2-1.8-9.1,0.6-12.7C425.7,240.9,428.7,239.7,431.8,239.7
		L431.8,239.7z M806.3,257.6c-10-0.9-116.8,73.6-116.8,73.6c70.8-23.6,127.7-59.3,117.4-73.2C806.8,257.7,806.6,257.6,806.3,257.6
		L806.3,257.6L806.3,257.6z M760.4,259.7c0,0-115.6,25.4-188.2,34.5c-78.1,9.1-147.7,62.9-147.7,62.9c-29.7,19.4,0.6,19.4,46.6,25.4
		c70.8,1.8,115.6-13.3,176.7-49.6C704.1,293.6,760.4,259.7,760.4,259.7L760.4,259.7z M474.7,260.3c-0.6,0-1.2,1.2-1.8,2.4
		c-1.2,2.4-1.8,6-0.6,7.9c0,0.6,1.2,0.6,3,0c0.6,0,1.2-0.6,1.2-1.2c1.2-1.2,1.2-3.6,0.6-4.8c-0.6-0.6-1.2-0.6-2.4-0.6
		c0-1.2,0-1.8,0.6-3.6L474.7,260.3L474.7,260.3z M485.6,266.4l-4.9,3.6c-0.6,1.8-1.2,5.4-1.2,8.5l-0.6,9.7
		c-0.6,6.1-1.8,10.9-4.8,12.7l-1.2,5.4h0.6c3.6-1.8,6.1-5.4,7.9-11.5l0.6-5.5l0.6-4.8v-1.2l0.6-4.8l0.6-3.6v-0.6l0.6,0.6
		c1.2,1.8,4.8,4.8,6.7,6.1l0.6,0.6H491c-6.1,2.4-7.3,6.7-6.1,8.5c0.6,1.2,1.8,2.4,2.4,3c1.2,0.6,3,0.6,4.8-0.6c3.6-1.8,6-6,4.8-10.3
		v-0.6l-0.6-1.8c-0.6-1.8-1.2-3-3-4.8l-4.2-3.6L488,270c-1.2-0.6-1.8-1.8-1.8-3v-0.6L485.6,266.4L485.6,266.4L485.6,266.4z
		 M422.6,270c9.1,5.4,17.5,5.4,27.8,0c1.8,6.7,3.6,15.7,3.6,23c0,6.1-0.6,13.9-3.6,18.8c-1.8,3-3.6,4.2-6.7,4.8
		c-9.7,1.8-18.2-12.7-21.2-23.6C420.8,285.7,420.8,277.3,422.6,270L422.6,270z M492.2,282.1h0.6c0,0,0,0.6,0.6,0.6
		c0,1.8,0,3.6-0.6,4.2c-0.6,1.2-1.2,1.8-2.4,2.4c-1.2,0.6-2.4,0-3-0.6c-1.2-0.6-1.2-1.8-0.6-3C487.4,284.5,489.2,283.3,492.2,282.1
		L492.2,282.1z"/>
</g>
</svg>
