<svg id="Layer_1" data-name="Layer 1" xmlns="http://www.w3.org/2000/svg" viewBox="0 0 280 300"><defs><style>.cls-1{fill:#010101;}.cls-2{fill:#ef5327;}.cls-3{fill:#fff;}</style></defs><title>orioles logo</title><path class="cls-1" d="M199.14,165.56h-.67v1.81H198v-1.81h-.66v-.39h1.78m3,2.2h-.45v-1.75h0l-.64,1.75h-.43l-.62-1.75h0v1.75h-.45v-2.2h.78l.51,1.44h0l.54-1.44h.77Z"/><path class="cls-1" d="M174.93,134.84a11,11,0,0,1,4.95-3.41,5.56,5.56,0,0,1,1.41-.18,5.83,5.83,0,0,1,5.72,5.84,20.82,20.82,0,0,1-.75,4.33c-.74,3.06-4.53,8.07-6.87,9.26a1.71,1.71,0,0,0,1.21-.05c2.9-1.34,3.93-4.07,6.05-7.9,0,0,2.19-4.3,2.79-5.67a41.64,41.64,0,0,1,4.12-7.8c.48-.52,7.51-1.92,7.51-1.92l-.59,2.59a2.68,2.68,0,0,0,.3,2.06c.13.3,3.77,6.59,4,9.21,3.45,1.47,5.18,3.7,5.18,6.77,0,6-4.35,10-9.26,12.39-1.49.74-9.44,3.88-19.48,7.92l-.13.05c-20.72,8.33-54.7,22.8-57.34,24l-2.37,1.12c-6.74,3.16-14,6-18.54,10.66l-1.05,1.1-1.25-.87c-3.47-2.42-6.57-3.5-16.46-4l-.86-.05-1.79-2.64,1.2-2.55c4.68-1.7,24-8.45,44.37-15.72l4.75-1.69c28.63-10.22,57.68-20.61,62.26-22.31,1.28-.48,9.61-3.84,9.91-5.68.08-.45-.63-1.24-.92-1.64-1.42,3-3.95,5.48-7.43,5.92a6.67,6.67,0,0,1-1.09,0c-3.11-.31-3.45-1.15-4.33-2a8.46,8.46,0,0,1-1.14-2.38c-.28.48-.56.94-.85,1.38-3.41,5.09-6.7,8.15-10.26,8.31-.15,0-1.09,0-1.24-.05a8.4,8.4,0,0,1-5.82-2.75c-3.19,4.41-7.92,9-11.91,9.12h-.24a5.62,5.62,0,0,1-4-1.58,6.88,6.88,0,0,1-2-4.26c0-.37,0-.79,0-1.24a23.73,23.73,0,0,1-3.55,7.79c-1.82,2.68-5.48,5.4-9.57,5.4l-.69,0a8.14,8.14,0,0,1-4.95-2.56c-3.22,4.44-7.43,7.64-11.54,7.84a4.59,4.59,0,0,1-4.12-1.92,28.41,28.41,0,0,1-4.94,4.65,9.31,9.31,0,0,1-4.68,1.49,5.7,5.7,0,0,1-2-.34c-3.3-1.27-3-4.71-3-5.91,0-3.88,2.62-11,5.74-16.67-.11.2-1.13-.08-1.34-.13a13.39,13.39,0,0,1-5.61,4.74c-.68,7.57-5.47,17.71-10.67,22.78a12.89,12.89,0,0,1-9.17,3.86c-.31,0-.61,0-.92,0a11.49,11.49,0,0,1-8.15-4.59c-3.17-4.18-4-9.94-3.41-17.15.62-7.44,4.08-15.64,9-20.74a12.25,12.25,0,0,1,5.36-9,10.85,10.85,0,0,1,5.77-2,16.93,16.93,0,0,1,4.93.92c3.9,1.4,7.74,6.21,7.64,18.51a5.76,5.76,0,0,0,1.39-1.17,38.72,38.72,0,0,0,1.16-3.93,2.75,2.75,0,0,1,2.88-2.18,6.89,6.89,0,0,1,1.5.19,11.84,11.84,0,0,0,2.56.32,5.64,5.64,0,0,0,3.81-1.31c.54-.46.61-.73,1.25-.73a1.5,1.5,0,0,1,.37,0,2,2,0,0,1,1.59,1.1,7.86,7.86,0,0,0,2,2.4c.95.94.35,4-.91,5.12-4.73,4.24-9,15.83-6.94,15.74.74,0,4-2.93,5.19-5.13.93-1.65,1.34-3.49,2.37-6.5C122.69,154.86,124.8,149,126,146c0,0,.56-.68.37-.94-.84-1.11-.46-2.64,0-4.2.8-2.71,3.11-5.56,5.6-5.56a3,3,0,0,1,2.77,1.19c.83,1.11.74,2.92.28,4.48a6.67,6.67,0,0,1-.71,1.59l.62-.18-1.29,3.35c-2.28,5.93-5.7,15.83-6.55,19.33-.09.36-.3,1.47.1,1.69,1.21.67,3.51-1.32,4.75-3.4a26.38,26.38,0,0,1,.12-5.47c.27-3.31,2.4-7.77,3.69-10.12.44-2.13,1.41-5.95,3.68-7.54a9.83,9.83,0,0,1,5.61-1.88,8,8,0,0,1,2.71.47,8.3,8.3,0,0,1,4.76,4.77,18.17,18.17,0,0,1,1.08,4.38c.23-.17.85-.71,1.08-.89.48-2.12.77-3.08,1.45-5.31,1.85-6.09,6.4-15.77,11.78-19a9.53,9.53,0,0,1,3.08-1,3.64,3.64,0,0,1,2.49.61c1.09.91,2.12,2.64,1.78,5.85a24.12,24.12,0,0,1-1.43,5.91,53.52,53.52,0,0,1-4.84,9.16,37.38,37.38,0,0,1-6.8,7.1,9.73,9.73,0,0,0-.37,4.31c.06.44.77,1.21,2,.47a20.46,20.46,0,0,0,5.37-5.42,15.38,15.38,0,0,1,1.15-6.16C171.22,141.33,172.88,137.06,174.93,134.84Zm-93.3,24.63A18.88,18.88,0,0,0,79.11,168c-.28,5,.61,10.21,4,11.93a3.54,3.54,0,0,0,1.46.25,3.88,3.88,0,0,0,2-.79c1.64-1.1,2.83-2.37,4.45-5.79a38.37,38.37,0,0,0,2.56-9.25l-1,.06A14.59,14.59,0,0,1,81.63,159.47Zm57.87-3.05c-.12.53-.27,2.28-.27,2.28-.12,2.6.57,4.32,1.77,4.63.23.06.75-.24.87-.32,1.2-.78,1.78-2,2.66-5.15A15.7,15.7,0,0,1,139.5,156.42Zm-49.1-11a3,3,0,0,0-1.6.36c-1.18.79-1.52,1.39-1.52,3.3,0,2.08,1.32,4.14,3.06,6a5.47,5.47,0,0,0,3.9,1.77c.56-6.55-.84-10.4-2.7-11.17A3,3,0,0,0,90.4,145.46Zm53.81.4a2.73,2.73,0,0,0-.7,0c-.42.07-1,.34-1,1.38a3.14,3.14,0,0,0,1.1,2.16,4.14,4.14,0,0,0,2.34,1.18c.09-2.54-.58-3.72-1.17-4.4A1,1,0,0,0,144.21,145.86Zm53,.64c-1,.05-2.17-.16-2.35.4-.07.23.49.44.8.44C196.32,147.34,197.09,147.12,197.17,146.5Zm-16.74-6.88c-1,.42-2.32,2-3.13,4.79,2.3-1.47,3.73-2.23,3.95-4C181.38,139.3,180.58,139.55,180.43,139.62Zm13.77-1c-.41.81-.83,1.7-1.24,2.58a9.5,9.5,0,0,1,2.15-.62C194.8,140,194.49,139.3,194.2,138.62ZM169.41,130c-1-.52-5.35,10-4.92,10C165.26,140,170.54,130.56,169.41,130Z"/><path class="cls-2" d="M81.12,146.77A31.34,31.34,0,0,0,72.4,166c-.55,6.73.69,12.31,3.57,16.11a10,10,0,0,0,7,3.79,11.84,11.84,0,0,0,8.83-3.26c5.85-5.12,9.58-15.31,10-22.72,2.64-.79,6.23-3.52,7-5.83,1.5,1,3.65.46,5.62.09-5.48,5.47-8.54,15-8.32,18.76.1,1.72.5,3.75,2.42,4.49a5.92,5.92,0,0,0,4.83-.83,24,24,0,0,0,6.68-6.76c.33,3.45,2.33,3.57,3.61,3.57,3.4,0,8.66-3.79,11.57-9.2a5.25,5.25,0,0,0,4.65,3.77c3.55.27,7-2.13,8.61-4.58A21.92,21.92,0,0,0,152.26,153s2.18-1.34,3.69-2.53a24.06,24.06,0,0,0-.74,7.25,4.94,4.94,0,0,0,1.45,3.12,3.8,3.8,0,0,0,2.88,1.07c3.82-.15,9.9-5.45,12.42-10.21a6.42,6.42,0,0,0,5.93,3.92c3.51.16,6.66-2.08,9.78-6.73a63,63,0,0,0,4.19-8.16c1.4-3,2.78-6.1,4.11-7.37,0,2.11,2.35,6.58,3.21,7.82-5.66-.37-7.75,3-7.87,4.78a4.22,4.22,0,0,0,1.11,3.09,4.88,4.88,0,0,0,3.88,1.26,8,8,0,0,0,7-6.69c2.53,1.27,3.09,3,3.06,3.91-.1,2.7-2.64,4.59-4.55,5.76a34.27,34.27,0,0,1-5.74,2.61c-4.83,1.79-38,13.62-67.24,24.06-21.18,7.56-39.77,14.2-44.33,15.85l.62.88c9.53.51,13.72,1.74,17.76,4.56,5.25-5.48,13.67-9.08,21-12.55,2.79-1.32,37.56-15.72,57.91-23.9,10-4,17.95-7.22,19.43-7.9,4-1.83,7.65-4.21,7.65-9.15,0-3.2-2.75-5-5.36-5.81.39-1.65-2-6.2-3-8.13-.32-.61-.58-1.09-.73-1.42a5.09,5.09,0,0,1-.27-3.51l-4.95,1.23a29.87,29.87,0,0,0-3.35,6.26c-.87,2-2.29,4.78-3.48,7.13-2.69,5.31-4.83,8.26-7.83,8.39-1.81.08-2.76-.9-3.75-2.86a17.65,17.65,0,0,0,7.56-5.45,9.35,9.35,0,0,0,2-7.92,4.29,4.29,0,0,0-5-3.09c-2.46.64-4.76,2.62-6.46,5.47a19.13,19.13,0,0,0-2.81,10.84c-1.33,2-4.07,5.58-6.17,6.9-1.21.76-2.45,1.16-3.22.75a2.34,2.34,0,0,1-1.27-2c-.23-1.59.1-3.66.74-6.65,8.21-6.26,12-13.31,12.73-20.24a4.69,4.69,0,0,0-1.34-4.29c-.7-.59-2.24-.41-2.94-.15C165,125,160,134.53,158.09,140.77c-.8,2.62-1.3,4.57-1.76,6.64,0,0-2.84,2.29-3.83,2.53a14.17,14.17,0,0,0-1.34-6.41,6.29,6.29,0,0,0-3.89-3.61,7.32,7.32,0,0,0-6.65,1.19,6,6,0,0,0-2.65,5.74,19.08,19.08,0,0,0-3.75,9.5,21.09,21.09,0,0,0,.16,5.56c-1,1.83-3.78,5.69-6,6a2.13,2.13,0,0,1-2.07-.53A2.67,2.67,0,0,1,126,165c.87-3.59,4.77-15,7-20.93-.65.19-4.9,1.55-5.61,1.76-2,4.87-5.23,15.08-7.09,20.16a18,18,0,0,1-5.52,5.72c-1.2.71-2.82.77-2.81-1.83,0-5.79,5-14.08,8.49-17.64a1.07,1.07,0,0,0,0-1.46,19.74,19.74,0,0,1-2.27-2.7.52.52,0,0,0-.36-.27,1,1,0,0,0-.75.29c-2,1.68-4.52,2.11-7.86,1.35-1.92-.43-2.09.17-2.26.75s-.31,2.08-.44,2.8c-.35,1.89-2.72,3.56-4.7,4.42.43-11-2.22-17.69-7.34-19.53a9.61,9.61,0,0,0-8.57.75,10.49,10.49,0,0,0-4.83,8.12m88.09-19.86c2.36-2.26,2.94.21,2.22,2.53-1.63,5.23-5.46,11.88-9.46,15,1.06-5.13,5.34-15.74,7.24-17.56M82.8,155c3.2,4.55,7.3,6.21,13.21,5.55a45.3,45.3,0,0,1-3,11.7c-1.15,2.77-3,6.41-5.48,8.05a4.7,4.7,0,0,1-4.1.86c-5.1-1.07-5.92-9.66-5.23-15.35A21.66,21.66,0,0,1,82.8,155m13.5,3.21a8.28,8.28,0,0,1-6.84-2.43,10.57,10.57,0,0,1-3.22-7.28,7,7,0,0,1,2.74-5.9,4.36,4.36,0,0,1,4.23-.37c3.56,1.49,3.84,9.6,3.09,16m50.88-4.08c-.76,4-2.58,8.5-4.7,9.89a2.46,2.46,0,0,1-1.74.37c-2.68-.56-2.92-5.17-2.39-7.94a16.25,16.25,0,0,1,1.24-4.48,10.16,10.16,0,0,0,7.59,2.16m.47-2.63a4.51,4.51,0,0,1-5-1.43,4.73,4.73,0,0,1-1.33-3.47,4.81,4.81,0,0,1,2.09-3.94,2.88,2.88,0,0,1,3.18.14c1.74,1.23,2,5,1,8.7M176,146.36c0-4.76,3-9,4.35-9.93.79-.52,1.85-.82,2.45-.32s.79,1.41.56,2.68c-.64,3.56-2.86,5.74-7.36,7.57m23.36-3.46a5,5,0,0,1-1.09,4.44,3.2,3.2,0,0,1-2.58,1.07c-2.31,0-3.28-2.69-1.5-4.39,1.06-1,2.9-1.36,5.17-1.12"/><path class="cls-1" d="M143.5,108.05h0S143.46,108,143.5,108.05Z"/><path class="cls-1" d="M165.62,98.52c-1.84-.59-6.42-1.52-6.42-1.52a7.51,7.51,0,0,0-8-1.83,12.49,12.49,0,0,0-1.93.78,12.82,12.82,0,0,0-1.36.82c-3.41,2.52-5.94,5.59-8.65,7.69s-9.51,2.87-14.41,4.65c-1.76.64-4.54,1.54-5.91,2a24.42,24.42,0,0,0-5.08,2.24,10.2,10.2,0,0,0-1,.72c-1,.83-3,.69-4.54,1a38.86,38.86,0,0,1-4.61.75l.06,0c-4.78.14-12.84-.64-15.91-.69-2.27,0-2.6-.16-3.59.75,0,0-.61,0-1.32,1-.35.09-2,.32-.82,1.07-6.31.8-2.23,1.86-1.12,2.2,0,0,.32.69,2.54.81,0,0,.19.42,2.22.36,0,0,.21,1.79,5.74,1.33,4.66-.62,9.78-.78,12.07-1.13h0a9.07,9.07,0,0,1,2.54-.14c1.44.7,3.3,2,4.66,2.53,0,0-4.24.87-6.17,3.68-.6.87-1.12,1.59,4.6,1.66a15.66,15.66,0,0,0,2.24,0l2.66-.05a82.94,82.94,0,0,0,9.14.77c.75,0,.84.31.41.8s.4,2,5.42,4c1.44.6,5.85,2.23,5.85,2.23-.14-1.92-7-3.89-6.8-5.73.05-.48.9-2.36,4.86-1.84,7.46,1,12.53-1.08,15.54-3,3.23-2.11,4.21-4.72,5.34-7.4a5.8,5.8,0,0,0,.5-1.69,12.47,12.47,0,0,0,.2-2.61,15.86,15.86,0,0,1,2-7.88c.56-1,3-2.15,3.7-5.88a10.26,10.26,0,0,1,3.38-1.76C164.4,98.81,165.62,98.52,165.62,98.52Z"/><path class="cls-2" d="M101.32,117.27c1.29.14,3.84.6,3.84.6-.23,0-3,.1-3,.1.59,0,5.37,1.25,5.37,1.25-.23.09-3.18,0-3.18,0a34.32,34.32,0,0,1,5.32,1.1c-.19,0-3,.27-3,.27.33-.08,4.37,2.47,4.37,2.47a11.19,11.19,0,0,1,2.24-2.1c.42-1.25,2.7-2.37,2.7-2.37,3.39-4,11.2-5.44,11.2-5.44-.72-.84-3.44-1.08-3.44-1.08.05-.2.63-1.86.63-1.86a29.34,29.34,0,0,0-11.08,4.18c-1.35,1-3.35,1.36-6.22,2-1,.21-4.78.33-4.78.33l1.63.51"/><path class="cls-3" d="M139.59,123.25a5.85,5.85,0,0,0,3.75-3.45,3.76,3.76,0,0,0,.79-.38,10.42,10.42,0,0,0,2.75-3.27s-3.49,4.79-5.79,3.23l-.06,0a1.74,1.74,0,0,0,1.59.6c-.76,2.28-3.58,2.85-3.58,2.85-.71,2-8.34,4-13.45,5.19,5.44-1.09,13.32-2.83,14-4.74"/><path class="cls-3" d="M155,98.89a.87.87,0,0,0-1.15-.49.72.72,0,0,1,.76.57"/><path class="cls-3" d="M127.55,116s-3,.35-4.11,1.68c0,0,2.25,1.08,7.11-.4,0,0-4.62,1-6.13.23,0,0,.65-.85,3.13-1.51"/><path class="cls-3" d="M121.44,117.73a5.19,5.19,0,0,0-2.55,1.5,23.36,23.36,0,0,0,6.77.13,7.46,7.46,0,0,0-1.36.92,16.39,16.39,0,0,0,9.18-1.12c-5.54,1.48-8.15.85-8.15.85l1.3-1s-5.4.67-6.47-.2a3.39,3.39,0,0,1,1.28-1.06"/><path class="cls-3" d="M129,121.69h0"/><path class="cls-3" d="M134.89,119.84a10.68,10.68,0,0,1-5.86,1.85s5.08.11,5.86-1.85"/><path class="cls-3" d="M132.34,122.55s2.89.4,4.18-1.89a6.36,6.36,0,0,1-4.18,1.89"/><path class="cls-3" d="M138.49,121.23a8,8,0,0,1-3.65,2s2,.51,3.65-2"/><path class="cls-3" d="M112.92,125.06a4,4,0,0,0-1.64,1s1.89.55,6.54-.1c9.6-1.35,11.88-2.79,11.88-2.79-11.66,3.67-17.58,2.6-17.58,2.6,0-.28.8-.72.8-.72"/><path class="cls-3" d="M117.16,120.68a4.13,4.13,0,0,0-1.46,1.13s2.13,1.12,9.89-.52c0,0-7.34,1.14-8.86.24,0,0-.27-.28.43-.85"/><path class="cls-3" d="M113.29,124c.39,0,2.55.82,14-1.5,0,0-15.05,2.53-12.63.15,0,0-1.15.68-1.34,1.35"/><path class="cls-2" d="M104.32,119.78H104c-2.28.07-16.86.54-21.11.49a18,18,0,0,0,3.45.33c1.07-.07,10.8-.18,17.68-.8l.31,0"/><path class="cls-2" d="M103.2,121c-1.25.1-3.2.25-6.06.43,1.75-.09,3.76-.23,6.06-.43"/><path class="cls-2" d="M86.62,121.46c.45.6,3.25.39,3.25.39l7.27-.45c-8,.45-10.52.06-10.52.06"/><path class="cls-2" d="M103.2,121c1.35-.1,1.9-.16,1.9-.16l-1.9.16"/><path class="cls-2" d="M79.59,119a6.8,6.8,0,0,0,2.79.51c1.66,0,13.93-.12,20.22-.38,0,0-18.37,0-23-.13"/><path class="cls-2" d="M100.26,117.19s-13.79-.39-16.39-.08c-.75.09-.54.35-.54.35,1.11-.19,16.93-.27,16.93-.27"/><path class="cls-2" d="M89.26,115.55c-2.39-.08-2.5.16-2.5.16,2.26-.06,14.73.73,14.73.73s-9.85-.82-12.23-.89"/><path class="cls-2" d="M84.61,116.49c1.92-.23,16,.27,16,.27s-8.71-.49-11.92-.59c-4.67-.15-4.08.32-4.08.32"/><path class="cls-2" d="M143.5,108.05h0S143.46,108,143.5,108.05Z"/><path class="cls-2" d="M153.35,112h0a1.42,1.42,0,0,0-.32-.5s.73,1.65-2.25,3.82l.43.25-.38.28a4.47,4.47,0,0,0-1.59-1.51,6.65,6.65,0,0,1,2.06.25,16.39,16.39,0,0,0-4.06-3.06l1.69-.24a16.18,16.18,0,0,1-4.34-2c.47.53.47.53,0,0l-1.08-1.21c-.71,1.46-.22,1.31-.22,1.31s.92.74,1.26,1.08c1.2,1.21,1.27,1.58,1.27,1.58-1-1-5.08-1.88-5.08-1.88l1.58,1a18.75,18.75,0,0,0-4.06-.92l.88.63c-5-.33-6,1.1-6,1.1h0s2.91.31,3.16.39l-.41-.49h0l-.21-.26h0l.21.26a5.62,5.62,0,0,1,3,.28l-.45-.49a8.66,8.66,0,0,1,3,.9l-.49-.61-.15-.3h0l.15.3s3.29.86,4.45,2.09a5.58,5.58,0,0,1,.71.44,2.55,2.55,0,0,0-.26-.38,2.55,2.55,0,0,1,.26.38,5.85,5.85,0,0,0-.7-.44,7.75,7.75,0,0,0-6.16-.37l.62-.76a17.08,17.08,0,0,0-4.2,1.19l.54-.57s-2.45.8-2.92,2a.71.71,0,0,0-.06.31c1,1.94,4.35-1,4.35-1a8.85,8.85,0,0,1-2.34,1.68,3.23,3.23,0,0,1-.46.19v.08c1,1.89,4.72-1.55,4.72-1.55a9.43,9.43,0,0,1-2.57,2.17,2,2,0,0,1-.54.23l0,.07c1.37,2,5.59-2.05,5.59-2.05a16.4,16.4,0,0,1-3.25,2.74,3.47,3.47,0,0,1-.36.15l.07.1a1.8,1.8,0,0,0,.19.2.7.7,0,0,0,.17.13c1.74,1.14,5.23-2.86,5.23-2.86a7.69,7.69,0,0,1-2.5,2.81,5,5,0,0,1-.56.33l.08.07c2.3,1.56,5.79-3.23,5.79-3.23a10.42,10.42,0,0,1-2.75,3.27,3.54,3.54,0,0,1-.79.38,5.85,5.85,0,0,1-3.75,3.45c-.68,1.91-8.56,3.65-14,4.74l-.86.17h-.1l-1.69.34-1.2.24-.46.1h0a3.07,3.07,0,0,0-.83.23c-.12.1,0,.3.18.33l1,.1h0l.15,0a12.06,12.06,0,0,1,2,.07c.29.1.85.65.77.95s-.51.22-.48.37c.22,1.06,4.69,2.91,6.41,3.56,1.26.48,4,1.44,4.21,3.41a3.44,3.44,0,0,1-.12,1.29,2.17,2.17,0,0,0,.56-1.22c.05-1.09-1.43-2.47-2.94-3.17s-4.32-2-4.5-3.14a2,2,0,0,1,1.1-2.21,5.74,5.74,0,0,1,1.27-.35l.72-.08c.82-.09,1.63-.07,2.74-.09a18.6,18.6,0,0,0,9-.82c5.29-1.76,8.06-4,9.5-6.92h0a6.35,6.35,0,0,0,.57-1C154.22,115.92,154.09,113.63,153.35,112Zm-14.92-.32h0l-.22-.34s.16,0,.41,0c-.25,0-.41,0-.41,0Zm1.36-.16a6.64,6.64,0,0,1,.63.21A6.64,6.64,0,0,0,139.79,111.52Z"/><path class="cls-3" d="M144.07,116.17s-3.49,4-5.23,2.86a.7.7,0,0,1-.17-.13,1.29,1.29,0,0,1-.19-.21l-.07-.07a1.7,1.7,0,0,0,2.6.69,5,5,0,0,0,.56-.33,7.69,7.69,0,0,0,2.5-2.81"/><path class="cls-3" d="M137.57,114.89s-3.34,2.93-4.35,1h0v0h0a1.08,1.08,0,0,0,1.55.84,2.28,2.28,0,0,0,.46-.18,8.85,8.85,0,0,0,2.34-1.68"/><path class="cls-3" d="M139.5,115.29s-3.69,3.44-4.72,1.55l0,0a1.22,1.22,0,0,0,1.64.9,2,2,0,0,0,.54-.23,9.43,9.43,0,0,0,2.57-2.17"/><path class="cls-3" d="M142,115.71s-4.22,4.07-5.59,2.05l0-.05a1.47,1.47,0,0,0,2,.89,2.22,2.22,0,0,0,.36-.16,16.14,16.14,0,0,0,3.25-2.73"/><path class="cls-3" d="M163.77,98.59a1.12,1.12,0,0,0-.25-.15,15.59,15.59,0,0,0-4.17-.81,2.88,2.88,0,0,1-.72-.26s-.7-.46-.79-.48l.35,1.21A8.39,8.39,0,0,0,157,99.53a29.08,29.08,0,0,1,6.77-.94m-4.87-.66c.74.07,1,.12,1,.12l-1.51.34S158.16,97.87,158.9,97.93Z"/><path class="cls-3" d="M157.1,100l1.19,0-.24.85a19.73,19.73,0,0,1,5.45-2,61,61,0,0,0-6.4,1.22"/><path class="cls-3" d="M154.25,100.63a1.88,1.88,0,0,1-1.64-1.08c0-.13.09-1.74,1.57-1.89l.23,0a3.83,3.83,0,0,1,1.79.57.38.38,0,0,1,.14.08h-.05a2.2,2.2,0,0,0-.52.13,2.13,2.13,0,0,0-1.14-.69,1.58,1.58,0,0,0-.38,0h-.09a1.39,1.39,0,0,0-1,.58,1.44,1.44,0,0,0-.18,1.23,1.29,1.29,0,0,0,1.24,1,1,1,0,0,0,.26,0,2.5,2.5,0,0,0,.85-.42,1.52,1.52,0,0,1-.88.56l-.12,0Z"/><path class="cls-2" d="M130.22,142.93a4.57,4.57,0,0,0,3.9-3.33c.54-1.83-.33-3.32-2-3.32a4.56,4.56,0,0,0-3.89,3.32c-.54,1.84.33,3.33,1.94,3.33"/></svg>