<?xml version="1.0" encoding="utf-8"?>
<!-- Generator: Adobe Illustrator 24.2.0, SVG Export Plug-In . SVG Version: 6.00 Build 0)  -->
<svg version="1.1" id="katman_1" xmlns="http://www.w3.org/2000/svg" xmlns:xlink="http://www.w3.org/1999/xlink" x="0px" y="0px"
	 viewBox="0 0 1000 1000" style="enable-background:new 0 0 1000 1000;" xml:space="preserve">
<style type="text/css">
	.st0{fill-rule:evenodd;clip-rule:evenodd;fill:#FFFFFF;}
	.st1{clip-path:url(#SVGID_2_);fill:none;stroke:#FFFFFF;stroke-width:0.1617;}
	.st2{fill-rule:evenodd;clip-rule:evenodd;fill:#AE111A;}
	.st3{fill:none;stroke:#003563;stroke-width:0.15;stroke-linejoin:round;}
	.st4{fill:none;stroke:#003563;stroke-width:0.15;stroke-linecap:round;stroke-linejoin:round;}
	.st5{fill:none;stroke:#AD111A;stroke-width:0.15;stroke-linecap:round;stroke-linejoin:round;}
	.st6{fill-rule:evenodd;clip-rule:evenodd;fill:#003563;}
</style>
<g>
	<path class="st0" d="M499.9,891.1c216.5,0,391.9-175.5,391.9-391.9c0-216.5-175.5-391.9-391.9-391.9S108,282.8,108,499.2
		C108,715.7,283.4,891.1,499.9,891.1L499.9,891.1z M499.9,891.1"/>
	<g>
		<defs>
			<rect id="SVGID_1_" x="107.8" y="106.9" width="784.4" height="786.1"/>
		</defs>
		<clipPath id="SVGID_2_">
			<use xlink:href="#SVGID_1_"  style="overflow:visible;"/>
		</clipPath>
		<path class="st1" d="M499.9,891.1c216.5,0,391.9-175.5,391.9-391.9c0-216.5-175.5-391.9-391.9-391.9S108,282.8,108,499.2
			C108,715.7,283.4,891.1,499.9,891.1L499.9,891.1z M499.9,891.1"/>
	</g>
	<path class="st0" d="M499.8,717.9c120.3,0,217.9-97.6,217.9-217.9c0-120.3-97.6-217.9-217.9-217.9c-120.3,0-217.9,97.6-217.9,217.9
		C281.8,620.3,379.4,717.9,499.8,717.9L499.8,717.9z M499.8,717.9"/>
	<path class="st2" d="M500.1,874.5c206.8,0,374.4-167.6,374.4-374.4c0-206.8-167.6-374.4-374.4-374.4
		c-206.8,0-374.4,167.6-374.4,374.4C125.7,706.9,293.3,874.5,500.1,874.5L500.1,874.5z M500.1,874.5"/>
	<path class="st0" d="M499.9,837.3c186.1,0,337-150.9,337-337c0-186.1-150.9-337-337-337s-337,150.9-337,337
		C162.9,686.5,313.8,837.3,499.9,837.3L499.9,837.3z M499.9,837.3"/>
	<path class="st2" d="M359.9,758.9c-0.9-8.1-11.2-15.2-18.1-5.6c-6.9,9.7,0.1,20.9,15.3,18.3c10.3-1.7,6.7,4,0.4,13.6
		c-3.2,4.8-2.6,8.9-5.6,14.3c-4.4-7.3-8.2-14.6-16.5-15.4c-10.9-1.1-15.8-4.1-22.9-14.6c-9.5-1.8-13.2-6-14.1-11.7
		c13.5-6.2,19-11.5,24.1-18.6c5.1-7.2,6.1-17.3,8.1-22.5c5.9-2.5,13.3-5.9,17.7-12c4.3-6.1,7.7-14.9,9-21.5
		c5.2,3.3,13.1,6.8,14.5,12.4c1.4,5.6,11.9,4.7,14.5,6.5c2.8,2,2.7,4.4,6,9.7c3.3,5.3,8.5,7.3,13.8,4c-2.4,5.8-3,8.3-6.4,9.6
		c-3.4,1.3-2.1,7.7-3.6,10.3c-2.3,4.1-13.4,7.1-14.6-7.5c-1.3-14.6-17-12.9-22.5-5.2c-5.5,7.7,1,23.8,13.2,14.2
		c-0.4,3.5-0.9,8.9-3.9,10.5c-3,1.6-3.1,1.6-2.9,4.4C365.4,755.5,362.3,757.8,359.9,758.9L359.9,758.9z M359.9,758.9"/>
	<path class="st3" d="M359.9,758.9c-0.9-8.1-11.2-15.2-18.1-5.6c-6.9,9.7,0.1,20.9,15.3,18.3c10.3-1.7,6.7,4,0.4,13.6
		c-3.2,4.8-2.6,8.9-5.6,14.3c-4.4-7.3-8.2-14.6-16.5-15.4c-10.9-1.1-15.8-4.1-22.9-14.6c-9.5-1.8-13.2-6-14.1-11.7
		c13.5-6.2,19-11.5,24.1-18.6c5.1-7.2,6.1-17.3,8.1-22.5c5.9-2.5,13.3-5.9,17.7-12c4.3-6.1,7.7-14.9,9-21.5
		c5.2,3.3,13.1,6.8,14.5,12.4c1.4,5.6,11.9,4.7,14.5,6.5c2.8,2,2.7,4.4,6,9.7c3.3,5.3,8.5,7.3,13.8,4c-2.4,5.8-3,8.3-6.4,9.6
		c-3.4,1.3-2.1,7.7-3.6,10.3c-2.3,4.1-13.4,7.1-14.6-7.5c-1.3-14.6-17-12.9-22.5-5.2c-5.5,7.7,1,23.8,13.2,14.2
		c-0.4,3.5-0.9,8.9-3.9,10.5c-3,1.6-3.1,1.6-2.9,4.4C365.4,755.5,362.3,757.8,359.9,758.9L359.9,758.9z M359.9,758.9"/>
	<path class="st2" d="M620.2,764.1c-2.2-3.9-6.6-4.9-8.6-5.2c0.8-1.9,2.3-6.2,0.1-10c-5.4-11-22.9-35.6,5.7-51.7
		c28.7-16.1,45,19.7,46.8,23c2.2,3.9,7.5,4.4,9.5,4.7c-0.8,1.9-3.2,6.6-1,10.5c9.3,16.6,20.6,38.4-4.2,52.4
		C643.7,801.7,627.8,777.7,620.2,764.1L620.2,764.1z M657.1,742.7c-2.2-3.9-6.6-4.9-8.6-5.2c0.8-1.9,2.3-6.2,0.1-10
		c-7.6-13.6-12.5-15-19.6-11c-7.1,4-1.2,14.2,2.4,20.7c2.2,3.9,5.7,5.4,7.7,5.7c-0.8,1.9-2.6,6.3-0.4,10.2
		c5.1,9.1,10.7,21.5,21.1,15.7C670.1,762.9,658.9,745.9,657.1,742.7L657.1,742.7z M657.1,742.7"/>
	<path class="st3" d="M620.2,764.1c-2.2-3.9-6.6-4.9-8.6-5.2c0.8-1.9,2.3-6.2,0.1-10c-5.4-11-22.9-35.6,5.7-51.7
		c28.7-16.1,45,19.7,46.8,23c2.2,3.9,7.5,4.4,9.5,4.7c-0.8,1.9-3.2,6.6-1,10.5c9.3,16.6,20.6,38.4-4.2,52.4
		C643.7,801.7,627.8,777.7,620.2,764.1L620.2,764.1z M657.1,742.7c-2.2-3.9-6.6-4.9-8.6-5.2c0.8-1.9,2.3-6.2,0.1-10
		c-7.6-13.6-12.5-15-19.6-11c-7.1,4-1.2,14.2,2.4,20.7c2.2,3.9,5.7,5.4,7.7,5.7c-0.8,1.9-2.6,6.3-0.4,10.2
		c5.1,9.2,10.7,21.5,21.1,15.7C670.1,762.9,658.9,745.9,657.1,742.7L657.1,742.7z M657.1,742.7"/>
	<path class="st2" d="M723.4,702.4c13.1-6.6,25.1,6.3,28.3,11.3c6.9-7,3.5-5.5,7.8-14.2c4.5-0.3,9.1-3,14-10
		c-8.9,1.8-28.3-0.2-32.4-8.1c-6.2,0.5-18.2,0.2-23.8-5.3c-5.6-5.5-3-15.3-1.7-23.5c-10.1-7.6-8.1-18.4-6.6-34.4
		c-5.7,2-7.8,11.3-13,17.2c-7.4,5.6-9.5,4.9-13.6,7.6c6.8,7.6,13.2,9.8,8.1,27.1c-17.2,5.4-22.7-4-24.4-10.4
		c-3.1,4.1-4.7,7.7-7.3,13.7c-5.7,3.9-10.2,7-12.1,12.8c14.9-0.6,21.6-1.7,29.3,8.3c8.1-1.5,13.9-4,19.4,1.5
		c5.6,5.5,5.2,20.8,4.8,27c9.4,5.4,8.4,25.3,6.8,34.2c6.9-5.1,11.4-11.6,11.6-16.2c8.6-4.4,9.8-3.7,16.7-10.7
		C730.3,727.4,717.1,715.7,723.4,702.4L723.4,702.4z M723.4,702.4"/>
	<path class="st3" d="M723.4,702.4c13.1-6.6,25.1,6.3,28.3,11.3c6.9-7,3.5-5.5,7.8-14.2c4.5-0.3,9.1-3,14-10
		c-8.9,1.8-28.3-0.2-32.4-8.1c-6.2,0.5-18.2,0.2-23.8-5.3c-5.6-5.5-3-15.3-1.7-23.5c-10.1-7.6-8.1-18.4-6.6-34.4
		c-5.7,2-7.8,11.3-13,17.2c-7.4,5.6-9.5,4.9-13.6,7.6c6.8,7.6,13.2,9.8,8.1,27.1c-17.2,5.4-22.7-4-24.4-10.4
		c-3.1,4.1-4.7,7.7-7.3,13.7c-5.7,3.9-10.2,7.1-12.1,12.8c14.9-0.6,21.6-1.7,29.3,8.3c8.1-1.5,13.9-4,19.4,1.5
		c5.6,5.5,5.2,20.8,4.8,27c9.4,5.4,8.4,25.3,6.8,34.2c6.9-5.1,11.4-11.6,11.6-16.2c8.6-4.4,9.8-3.7,16.7-10.7
		C730.3,727.4,717.1,715.7,723.4,702.4L723.4,702.4z M723.4,702.4"/>
	<path class="st2" d="M585.5,759.7c-4.4,1.9-6,3.4-9.6,3.7c-9.3,0.8-16.4-17.7-3-21.3c11.1-3,15.8,3.8,20.3,8.9
		c2.7-2.9,3-8.2-1.7-12.9c-4.8-4.7-4-5.6-2.7-8.7c1.3-3.2,0.5-5.8-5.4-10.8c-2.5,3.8-1.9,5.8-8.5,7.6c-6.5,1.8-6.7-3.8-18.1-0.7
		c-11.4,3.1-20.4,11.7-17.5,31.1c0.9,5.7,7.4,13.1,17.7,17.3c5.8,2.4,8.1,5.2,10.1,7.4c4.4-1.9,5.2-2.1,8.8-2.4
		c9.3-0.8,16.4,19.1,3,22.7c-11.1,3-24.2-6.4-28.8-11.5c-2.7,2.9-6.5,8.4-1.7,13.1c4.8,4.7,2.6,8.4,1.4,11.6
		c-1.2,3.1-0.8,6.2,5.2,11.2c2.5-3.8,4.3-8.9,10.8-10.7c6.5-1.8,11.9,4.8,23.3,1.7c11.5-3.1,24.2-10.9,21.2-30.4
		c-0.9-5.7-4.3-15.7-14.6-19.9C590,764.4,587.5,762,585.5,759.7L585.5,759.7z M585.5,759.7"/>
	<path class="st3" d="M585.5,759.7c-4.4,1.9-6,3.4-9.6,3.7c-9.3,0.8-16.4-17.7-3-21.3c11.1-3,15.8,3.8,20.3,8.9
		c2.7-2.9,3-8.2-1.7-12.9c-4.8-4.7-4-5.6-2.7-8.7c1.3-3.2,0.5-5.8-5.4-10.8c-2.5,3.8-1.9,5.8-8.5,7.6c-6.5,1.8-6.7-3.8-18.1-0.7
		c-11.4,3.1-20.4,11.7-17.5,31.1c0.9,5.7,7.4,13.1,17.7,17.3c5.8,2.4,8.1,5.2,10.1,7.4c4.4-1.9,5.2-2.1,8.8-2.4
		c9.3-0.8,16.4,19.1,3,22.7c-11.1,3-24.2-6.4-28.8-11.5c-2.7,2.9-6.5,8.4-1.7,13.1c4.8,4.7,2.6,8.4,1.4,11.6
		c-1.2,3.1-0.8,6.2,5.2,11.2c2.5-3.8,4.3-8.9,10.8-10.7c6.5-1.8,11.9,4.8,23.3,1.7c11.5-3.1,24.2-10.9,21.2-30.4
		c-0.9-5.7-4.3-15.7-14.6-19.9C590,764.4,587.5,762,585.5,759.7L585.5,759.7z M585.5,759.7"/>
	<path class="st2" d="M461.8,780.4c-4.8,0.2-6.5,9.9-10.1,14.3C441.1,820,426.3,823.2,416,819s-13.3-13.8-20.2-16.5
		c-6.1-2.4-7.2-0.3-16.8-1.3c6.5-7.1,24.2-32,17.5-47.1c15.3-6.3,21.1-32.4,21.6-37.4c7.1-0.1,7.4,5.5,13.4,8
		c6.9,2.8,11.5-2.7,21.9,1.5c10.4,4.2,18,16,8.1,41.6C461,773.4,458.5,776.9,461.8,780.4L461.8,780.4z M439.5,779.4
		c1.3-4-1.5-7.9-2.9-9.6c2.1-0.5,6.6-1.9,7.8-5.9c4.4-13.9,1.6-18.5-7.1-21.5c-8.7-3-11.9,7.5-14,14.2c-1.3,4,0.4,7.5,1.8,9.2
		c-2.1,0.5-6.9,1.8-8.2,5.8c-3,9.3-8,20.9,4.7,25.3C434.3,801.3,438.4,782.7,439.5,779.4L439.5,779.4z M439.5,779.4"/>
	<path class="st3" d="M461.8,780.4c-4.8,0.2-6.5,9.9-10.1,14.3C441.1,820,426.3,823.2,416,819s-13.3-13.8-20.2-16.5
		c-6.1-2.4-7.2-0.3-16.8-1.3c6.5-7.1,24.2-32,17.5-47.1c15.3-6.3,21.1-32.4,21.6-37.4c7.1-0.1,7.4,5.5,13.4,8
		c6.9,2.8,11.5-2.7,21.9,1.5c10.4,4.2,18,16,8.1,41.6C461,773.4,458.5,776.9,461.8,780.4L461.8,780.4z M439.5,779.4
		c1.3-4-1.5-7.9-2.9-9.6c2.1-0.5,6.6-1.9,7.8-5.9c4.4-13.9,1.6-18.5-7.1-21.5c-8.7-3-11.9,7.5-14,14.2c-1.3,4,0.4,7.5,1.8,9.2
		c-2.1,0.5-6.9,1.8-8.2,5.8c-3,9.3-8,20.9,4.7,25.3C434.3,801.3,438.4,782.7,439.5,779.4L439.5,779.4z M439.5,779.4"/>
	<path class="st2" d="M301.8,629.5c6.1,4.4,8.4,8.3,10.8,15.9c5.7,1.2,24.2,6.6,21.7,23.8c-2.5,17.2-7,21.3-4.8,26.2
		c-1.7-0.3-8.1-0.7-9.8,1.4c-3,3.7-9.4,7.1-15,7.2c-1.8,3.5-2.7,9-5.2,11.3c-2.5,2.3-3.7,8-1.4,11c-1.9,0.9-11.5,8-2.5,15.3
		c-2.4,1.3-17.9,5.1-24.4-1.8c-6.5-7,0-21.3-1.1-29.1c6.6,2.2,19.4-6,9.9-16.2c-8.1-8.7-20.8-1.5-30.4,18.1
		c-3.8-1.1-8.2-5.3-10.5-14.8c-3-2.3-5.4-2.8-10.9-10.2c5.8-1.7,17.7-5.8,24.2-11.8c6.4-6,13.9-12.9,15.1-20.5
		c5-0.5,17.7-4.9,22.9-10.2C295.8,639.7,301,634,301.8,629.5L301.8,629.5z M288.9,685c4.9,5.2,14.8,4.3,20.5-0.9
		c5.6-5.2,5.3-13.3,0.4-18.5c-4.9-5.2-12.9-6.2-18.5-1C285.7,669.9,284,679.8,288.9,685L288.9,685z M288.9,685"/>
	<path class="st3" d="M301.8,629.5c6.1,4.4,8.4,8.3,10.8,15.9c5.7,1.2,24.2,6.6,21.7,23.8c-2.5,17.2-7,21.3-4.8,26.2
		c-1.7-0.3-8.1-0.7-9.8,1.4c-3,3.7-9.4,7.1-15,7.2c-1.8,3.5-2.7,9-5.2,11.3c-2.5,2.3-3.7,8-1.4,11c-1.9,0.9-11.5,8-2.5,15.3
		c-2.4,1.3-17.9,5.1-24.4-1.8c-6.5-7,0-21.3-1.1-29.1c6.6,2.2,19.4-6,9.9-16.2c-8.1-8.7-20.8-1.5-30.4,18.1
		c-3.8-1.1-8.2-5.3-10.5-14.8c-3-2.3-5.4-2.8-10.9-10.2c5.8-1.7,17.7-5.8,24.2-11.8c6.4-6,13.9-12.9,15.1-20.5
		c5-0.5,17.7-4.9,22.9-10.2C295.8,639.7,301,634,301.8,629.5L301.8,629.5z M288.9,685c4.9,5.2,14.8,4.3,20.5-0.9
		c5.6-5.2,5.3-13.3,0.4-18.5c-4.9-5.2-12.9-6.2-18.5-1C285.7,669.9,284,679.8,288.9,685L288.9,685z M288.9,685"/>
	<path class="st4" d="M499.8,731c127.5,0,230.8-103.3,230.8-230.8c0-127.5-103.3-230.8-230.8-230.8C372.3,269.3,269,372.7,269,500.2
		C269,627.7,372.3,731,499.8,731L499.8,731z M499.8,731"/>
	<path class="st0" d="M470.9,388.7c1.2-2.9,3.4-10.6,5.1-13c1.6-2.3,0.4-5.4-2-1.4c-2.3,4-5.2,12.6-6.3,16.2
		c-1.1,3.6-2.2,5.6-2.5,7.2s0.6,3.9,2,1.1C468.9,395.2,470.2,390.5,470.9,388.7L470.9,388.7z M470.9,388.7"/>
	<path class="st0" d="M481.2,380.1c-0.8,1.9-5.7,16.3-6.7,18.9c-1,2.7-0.2,5.5,1.3,1.7c1.5-3.9,5.5-16.6,6.8-19.3
		C485.6,375.4,483.9,373.7,481.2,380.1L481.2,380.1z M481.2,380.1"/>
	<path class="st0" d="M488.7,393.1c1.5-4.1,2.6-6.9,3.9-9c2.2-3.6,0.4-6.5-2.1-1.8c-2.5,4.7-7.6,17.9-8.7,21.6
		c-1.1,3.6,0.4,6,2.5,1.2C486.5,400.1,487.5,396.2,488.7,393.1L488.7,393.1z M488.7,393.1"/>
	<path class="st0" d="M502.5,387.7c1.2-2.9-1.6-5.2-3.2-1.8c-1.6,3.4-7.1,20.2-8.5,23.3c-1.6,3.5,1.4,5.9,3.2,1.3
		C496.1,405.3,500.8,391.8,502.5,387.7L502.5,387.7z M502.5,387.7"/>
	<path class="st0" d="M510.1,390.6c-1.2,1.9-8.9,17.6-10.2,22.8c-0.1,0.9,0.5,1.9,2-2.2c2.1-5.5,1.9-6.1,4.5-10.2
		c2.6-4.1,4.7-7.8,5.2-9.4C512.2,390.1,511.6,388.3,510.1,390.6L510.1,390.6z M510.1,390.6"/>
	<path class="st5" d="M588,460.8l-17.4,31.2 M570.5,492.1c0,0,19.8,14.8,20.1,15.1 M614.2,453.8l-22.8,28.9l19.5,16.1 M634.6,450.8
		l-24.1,25.8l17.1,16.8 M657.1,449.1l-26.8,22.5l15.4,17.1 M696,451.5l-21.5,15.1l11.7,17.1 M552.4,501.5l12.4-31.5 M711.5,458.8
		l-15.1,8.7l9.1,16.1 M667.3,485.8L653.5,468l21.2-18.1 M452.5,694.9l-19.1,10.2L417.2,692 M455.8,677.1l-21.4,13.2l-16.9-17.8
		 M459.7,661l-23.5,10.8l-15.6-23.2 M467.4,638.8l-27.5,12.5l-14.9-22.5 M351.5,486.7l12.1-28.2 M363.5,458.5
		c0,0-21.5-14.4-21.8-14.8 M465.7,328.8l28.9-10.5l14.9,22.5 M473.8,311.1l26.8-12.2l14.9,25.5 M481.1,292.9l23.5-10.8l15.6,23.2
		 M375.5,477.4l10-29 M385.6,448.4c0,0-22.4-12.9-22.8-13.2 M393,466.7l10-29 M403,437.7c0,0-22.4-12.9-22.8-13.2 M330.2,491.5
		l12.4-24.7 M342.7,466.8c0,0-20.5-15.7-20.8-16.1 M308.2,495l16.2-22.4 M324.4,472.6c0,0-16.4-16.8-16.7-17.2 M286.7,497.7
		l18.3-20.8 M305,476.9c0,0-13.2-17.7-13.4-18.1"/>
	<path class="st4" d="M504.8,281.7C483.9,388.7,393.5,471,282.5,479.4 M433.1,709.5c1.4-134.5,110.9-243.1,245.8-243.1
		c13.7,0,27.2,1.1,40.3,3.3 M499.8,717.9c120.3,0,217.9-97.6,217.9-217.9c0-120.3-97.6-217.9-217.9-217.9
		c-120.3,0-217.9,97.6-217.9,217.9C281.8,620.3,379.4,717.9,499.8,717.9L499.8,717.9z M499.8,717.9"/>
	<path class="st2" d="M265.8,396.5c1.9-2.9,1.3-5-1.9-7.2L247,378l-16.9-11.3c-3.2-2.2-5.4-1.9-7.3,1l-2.4,3.6l-18.1-12
		c3.8-5.6,28.3-42.4,32.6-48.9c19-28.4,47.4-5.4,48.6,8c14-6.9,51.2,13.7,32.2,42.2c-4.3,6.5-30.5,45.8-34.3,51.4l-18-12
		L265.8,396.5z M283.7,365.7c0,0,5.1-7.6,6.6-9.9c1.5-2.3,3.1-6.1-1.7-9.3c-4.8-3.2-7.8-0.3-9.3,2c-1.5,2.3-6.6,9.9-6.6,9.9
		L283.7,365.7z M254.4,346.2c0,0,4.3-6.5,5.8-8.7c1.5-2.3,3-6.1-1.7-9.3c-4.8-3.2-7.7-0.3-9.2,2c-1.5,2.3-5.8,8.7-5.8,8.7
		L254.4,346.2z M254.4,346.2"/>
	<path class="st6" d="M271.1,395.7c1.7-2.6,0.5-6-2.4-7.9l-19.6-13.1L229,361.2c-2.9-2-6-1.4-7.7,1.2l-2.1,3.2l-11.2-7.5
		c3.4-5.1,26.2-39.3,30.1-45.1c17.1-25.6,41.5-2.4,42.7,9.8c12.7-6.2,48.3,10.6,31.2,36.2c-3.9,5.8-28.2,42.3-31.6,47.4l-11.3-7.5
		L271.1,395.7z M285.1,371.3c0,0,7.7-11.6,10-15c2.3-3.4,3.5-8.4-3.9-13.3c-7.4-4.9-11.6-1.9-13.8,1.5c-2.3,3.4-10,15-10,15
		L285.1,371.3z M255.6,351.7c0,0,6.6-9.8,8.9-13.3c2.3-3.4,3.9-9-3.5-13.9c-7.3-4.9-11.9-1.3-14.2,2.1c-2.3,3.4-8.8,13.3-8.8,13.3
		L255.6,351.7z M255.6,351.7"/>
	<path class="st2" d="M297.6,302.5c-16.8-21.7-12.9-53,8.9-69.8c21.7-16.8,53-12.8,69.8,8.9c16.8,21.7,12.9,53-8.9,69.8
		C345.7,328.2,314.5,324.2,297.6,302.5L297.6,302.5z M342,253.1c-5.3-6.8-15-8-21.8-2.8c-6.8,5.3-8,15-2.8,21.8l14.9,19.3
		c5.3,6.8,15,8,21.8,2.8c6.8-5.3,8-15,2.8-21.8L342,253.1z M342,253.1"/>
	<path class="st6" d="M301.2,300.1c-15.5-20-11.8-48.8,8.2-64.3c20-15.5,48.8-11.8,64.3,8.2c15.5,20,11.8,48.8-8.2,64.3
		C345.4,323.8,316.7,320.1,301.2,300.1L301.2,300.1z M344.2,249.2c-6-7.8-17.9-8.8-26.5-2.1c-8.6,6.7-10.7,18.4-4.6,26.2l17.2,22.2
		c6.1,7.8,17.9,8.7,26.5,2.1c8.6-6.6,10.7-18.4,4.6-26.2L344.2,249.2z M344.2,249.2"/>
	<path class="st2" d="M430.2,276.9c3.2,0.1,7.9,3,21.2-0.8c14.3-4.1,24.6-16.2,19-34.4c-5.6-18.1-19.6-22.2-41.2-24.1
		c-22.2-0.5-15.6-12.7-9.4-14.5c6.7-1.9,11.4,3.4,13.4,5.6c2,2.2,2.3,2.5,2.3,2.5s13-3.8,15.9-4.6c0,0-7.6-26.3-8.5-29.6l-18.2,5.3
		l0.8,2.9c-3.2-0.1-2.8-2.4-16.1,1.5c-14.3,4.1-25.2,18.9-19.6,37c5.6,18.1,17.9,18.2,39.5,20c22.2,0.5,14.4,13,8.2,14.8
		c-6.7,1.9-13-2.9-15.1-5.2c-2-2.2-2.2-2.5-2.2-2.5s-15.3,4.4-18.2,5.3c0,0,7.7,26.7,8.6,29.9l20.4-5.9L430.2,276.9z M430.2,276.9"
		/>
	<path class="st6" d="M426,277.4l-12.4,3.6c-0.9-3.2-6.4-22.1-6.4-22.1c2.9-0.8,11.5-3.3,11.5-3.3s0.2,0.3,2.3,2.5
		c1.8,2.1,10.7,6.9,16.5,5.3c16.8-4.7,14.9-24.2-7.8-24c-19-2-30.5,0.2-35.7-16.5c-5.1-16.7,4.9-28.9,17.4-32.5
		c13.3-3.8,14.9-0.8,18.1-0.7l-1.2-4.2l11.7-3.4c0.9,3.2,6.3,21.8,6.3,21.8c-2.9,0.8-9.4,2.7-9.4,2.7s-0.2-0.3-2.3-2.5
		c-2-2.2-9.4-6.8-16-4.9c-12.7,2.1-14.6,21.8,4,22.4c19,2,37.9,3.2,43,19.9c5.1,16.7-3.7,27.6-16.2,31.3c-11.6,3.4-19.1,0-21.9-0.2
		l-3-0.5L426,277.4z M426,277.4"/>
	<path class="st2" d="M595.3,233.1c13.4-24,43.7-32.7,67.7-19.3c24,13.4,32.7,43.7,19.3,67.7c-13.4,24-43.7,32.7-67.7,19.3
		C590.6,287.4,581.9,257.1,595.3,233.1L595.3,233.1z M658.2,254.5c4.2-7.5,1.5-17-6-21.1c-7.5-4.2-17-1.5-21.2,6l-11.8,21.3
		c-4.2,7.5-1.5,17,6,21.2c7.5,4.2,17,1.5,21.2-6L658.2,254.5z M658.2,254.5"/>
	<path class="st6" d="M598.9,235.4c12.3-22.1,40.2-30.1,62.3-17.8c22.1,12.3,30.1,40.2,17.8,62.3c-12.3,22.1-40.2,30.1-62.3,17.8
		C594.5,285.4,586.6,257.5,598.9,235.4L598.9,235.4z M662.6,254.9c4.8-8.6,1-19.9-8.5-25.2c-9.5-5.3-21.1-2.6-25.9,6.1l-13.6,24.5
		c-4.8,8.6-1,19.9,8.5,25.2c9.5,5.3,21.1,2.6,25.9-6.1L662.6,254.9z M662.6,254.9"/>
	<path class="st2" d="M697.7,343.8l-17.2,13.4l-23.3-29.9l17.2-13.5l2.7,3.5c2.1,2.7,4.2,3.2,7.2,0.8l29.9-23.4
		c3.1-2.4,3.4-4.7,1.3-7.4l-2.7-3.5l19.4-15.1l21.1,26.9c1.5,1.9-13.7,56.9-15,61.8l17.7-13.8c3.1-2.4,3.5-4.5,1.4-7.3l-2.7-3.5
		l17.1-13.3l23.5,30.1l-17.1,13.3l-2.7-3.5c-2.1-2.7-4.6-3.1-7.6-0.7l-53.5,41.8c-2.7-3.5-12-15.3-13.4-17.2
		c-1.4-1.9,13.8-60.9,15.1-65.9c-1,0.8-18.9,14.8-20,15.6c-3.1,2.4-3.2,4.5-1.1,7.2L697.7,343.8z M697.7,343.8"/>
	<path class="st6" d="M718.6,284.6l12.7-10l17.4,22.3c1.3,1.7-16,65.6-17.2,70l29.3-22.9c2.8-2.1,4-4.7,2.1-7.2l-2.7-3.4l10.7-8.4
		l18.6,23.8l-10.7,8.4l-2.8-3.6c-1.9-2.5-4.9-2.1-7.7,0l-53,41.4c-2.4-3.1-8.8-11.3-10.1-12.9c-1.3-1.7,17.1-71.6,18.3-76
		c-0.9,0.7-32.7,25.6-33.7,26.3c-2.8,2.1-2.2,4.7-0.3,7.2l2.5,3.2l-10.8,8.5L663,328.1l10.8-8.5l2.4,3.1c1.9,2.5,4.4,3.7,7.1,1.5
		l36.3-28.3c2.8-2.1,3.4-5.7,1.5-8.2L718.6,284.6z M718.6,284.6"/>
	<path class="st2" d="M448.6,345.4c-2.7-10.2-1.8-16.1,8.4-15.7c13.3,0.5,24.3-1,36.9-2.2c10.4-1,12.9,0.7,16.8,6.8
		c3.5,5.4,2.5,28.5,8.6,34.3c8.3,7.8,11.4,12.1,13.3,25.7c1.9,13.9,9.5,65.4,13.9,91.9c4.2,25.7,26.1,29.8,65.2,34.4
		c28.1,3.3,51.4,24.2,60.5,49.9c2.8,7.8,3,13.5-0.9,15.9c-8.4,5.1-33.5,15.5-51,13.9C584,596.9,536,581,504.4,578.7
		c-25.8-1.8-49.3-34.9-53.4-41.1c-5.8-8.7,4.5-36,14.4-62.5c3.2-8.5,6.8-16.2,11.6-26.1c1.6-3.3,5.2-8.4,6.3-11.7
		c3-8.8,3.7-19.5,0.5-23.9c-9.2-12.6,12.4-40.9,10.6-45.1c-3.3-5.7-42.4-18.7-44.7-19.3C449.2,347.2,448.6,345.4,448.6,345.4
		L448.6,345.4z M448.6,345.4"/>
	<path class="st0" d="M458.8,526.3c8.3,2.5,24.1,9.3,38.3,11.6c-0.2,10.8-0.8,23.5,1.8,35.2c-10.3,2.1-24.6,4.6-34-4.6
		c-9.6-9.4-9.8-21-9.7-27.4C455.4,533.7,455.7,525.4,458.8,526.3L458.8,526.3z M458.8,526.3"/>
	<path class="st0" d="M616.8,561.9c2.2,4.5,8.7,22.3,10.1,27.4c1.3,4.7,2.6,5.3,10.2,3c10.9-3.2,21.9-6.8,26.8-10.3
		c4.6-3.3,5.4-3.7,1.7-12.6c-6-14.7-14.1-26.5-21.2-23c-8.8,4.5-17.8,10.5-23.3,10.8C615.7,557.5,616,560.1,616.8,561.9L616.8,561.9
		z M616.8,561.9"/>
	<path class="st0" d="M465.7,345.2c0.1,2.1,1.2,11.5,1.5,14.5c0.3,3,2.3,5.3,2,1c-0.4-4.4-1.5-11.8-1.5-14.9
		C467.7,338.8,465.3,338,465.7,345.2L465.7,345.2z M465.7,345.2"/>
	<path class="st0" d="M499.3,354.3c-0.4-4.5-0.5-6.6-0.3-9.1c0.4-4.4-2.5-6.3-2.8-0.8c-0.3,5.5,1.2,11.8,1.1,16.8
		c0,3.9,3,6.9,2.8,1.3C500,357.1,499.6,357.9,499.3,354.3L499.3,354.3z M499.3,354.3"/>
	<path class="st0" d="M479.4,343.6c-0.2-3.3-3.9-4.2-3.9-0.2c0,4,1.9,16.2,2,19.7c0.1,4,3.9,4.9,3.6-0.3
		C480.8,357.1,479.7,348.3,479.4,343.6L479.4,343.6z M479.4,343.6"/>
	<path class="st0" d="M505.7,343.5c-0.3,2.3-0.5,16,0.7,21.5c0.3,0.9,2.2,1.7,1.8-2.8c-0.2-3.1-0.4-4-0.3-7.1c0.1-5,0-9.5-0.2-11.3
		C507.4,342,506,340.6,505.7,343.5L505.7,343.5z M505.7,343.5"/>
	<path class="st0" d="M490.1,354.5c-0.6-4.5-0.8-6.6-0.7-9.1c0.2-4.4-2.8-6.2-2.8-0.7c0,5.6,1,14.3,1.8,18.1
		c0.8,3.9,3.3,5.4,2.9-0.1C491,357.2,490.6,358,490.1,354.5L490.1,354.5z M490.1,354.5"/>
	<path class="st0" d="M456.9,347.1c0.1,2.1,0.5,5.1,0.8,8.1c0.3,3,2.3,5.3,2,1.1c-0.3-4.4-0.8-5.4-0.8-8.5
		C459,340.7,456.6,339.8,456.9,347.1L456.9,347.1z M456.9,347.1"/>
	<path class="st0" d="M449.7,349c12.6,4,26.8,9.1,33.9,12.5c9.4,4.5,13.2,6.3,10.5,11c-2.6,4.7-15.1,28.7-11.8,36.4
		c6,14.2,5.9,22.2-1.4,34.1c-7.3,11.9-23.6,50.9-29.7,77.1c-6.3,27.1,15.1,33.5,44.2,56.8l-3.2-0.5c-29.1-23.4-50.5-29.7-44.2-56.8
		c6.1-26.2,22.3-65.2,29.7-77.1c7.3-11.9,7.5-19.9,1.4-34.1c-3.3-7.7,9.1-31.7,11.8-36.4c2.6-4.7-1.2-5.2-10.6-9.7
		c-6.2-3-18.2-7.1-29.6-10.8L449.7,349z M449.7,349"/>
	<path class="st0" d="M350.3,534.7c7.4,4.4,17.9,11,32.6,15.1c-5.8,7.6-12,33.8-12,43.6c-8.7-0.4-24.7-2.2-31.7-13.7
		c-7-11.5-3.4-23.9-0.9-29.7C340.8,544.1,347.5,533,350.3,534.7L350.3,534.7z M350.3,534.7"/>
	<path class="st0" d="M493.1,621c1,4.9,2.9,23.9,2.9,29.2c0.1,4.9,1.2,5.7,9.1,5.5c11.4-0.4,23.3-1.4,29-3.7
		c5.3-2.1,5.6-5.5,2.2-14.5c-4-10.7-8-23.8-15.7-22.1c-9.7,2.1-16.7,3.2-22.1,2.2C493.1,616.4,492.7,619.1,493.1,621L493.1,621z
		 M493.1,621"/>
	<path class="st2" d="M420.4,359.9c0.8-4.7,4.3-16.6,14-13.6c13.5,4.2,36.4,11.4,45.8,15.9c9.4,4.5,13.2,5,10.6,9.7
		c-2.6,4.7-15.1,28.7-11.8,36.4c6,14.2,5.9,22.2-1.4,34.1c-7.3,11.9-23.6,51-29.7,77.1c-6.3,27.1,15.1,33.5,44.2,56.8
		c34.7,27.9,40.8,28.8,52.3,67.9c2.3,8,0.9,10.6-3.6,12c-8.9,2.2-43.7,9.9-57.1,3.4c-13.4-6.5-71-43-100.9-53.4
		c-25.8-9-50.6-9.7-54.4-38.3c-3.5-26.1,28.4-48,37.3-71.3c8-21.1,27.9-105.8,45.1-110.8C416.5,384.3,419.4,365.7,420.4,359.9
		L420.4,359.9z M420.4,359.9"/>
	<path class="st0" d="M350.3,534.7c7.4,4.4,17.9,11,32.6,15.1c-5.8,7.6-12,33.8-12,43.6c-8.7-0.4-24.7-2.2-31.7-13.7
		c-7-11.5-3.4-23.9-0.9-29.7C340.8,544.1,347.5,533,350.3,534.7L350.3,534.7z M350.3,534.7"/>
	<path class="st0" d="M493.1,621c1,4.9,2.9,23.9,2.9,29.2c0.1,4.9,1.2,5.7,9.1,5.5c11.4-0.4,23.3-1.4,29-3.7
		c5.3-2.1,5.6-5.5,2.2-14.5c-4-10.7-8-23.8-15.7-22.1c-9.7,2.1-16.7,3.2-22.1,2.2C493.1,616.4,492.7,619.1,493.1,621L493.1,621z
		 M493.1,621"/>
	<path class="st0" d="M478.8,374c-1.1,2.1-7.8,19-8.7,24.6c-0.4,1,0.5,2.4,2.3-2.4c1.7-5,2.2-5.6,4.1-10.2c1.9-4.7,3.4-9.2,4-10.9
		C481.3,373,480.1,371.4,478.8,374L478.8,374z M478.8,374"/>
	<path class="st0" d="M447.8,365.5c-0.7,2-4.6,17.4-5.4,20.3c-0.8,2.9,0.3,5.7,1.5,1.7c1.2-4.2,4.4-17.7,5.5-20.6
		C452,360.2,450.1,358.6,447.8,365.5L447.8,365.5z M447.8,365.5"/>
	<path class="st0" d="M426.8,380.4c0.6-5.5,3.8-17.6,4.8-20c3.6-8.8-0.2-7.3-1.8-3.4c-1.6,3.9-2.7,8.9-3.2,13.8
		c-0.5,5-1.3,6.9-2.1,8.7C423.1,382,426.2,385.3,426.8,380.4L426.8,380.4z M426.8,380.4"/>
	<path class="st0" d="M437.9,375.3c1-3.1,2.7-11.4,4.2-13.9c1.5-2.6-0.1-5.7-2.2-1.3c-2.1,4.3-4.4,13.6-5.2,17.4
		c-0.8,3.8-1.8,6-2,7.7c-0.2,1.7,0.9,4,2.2,1C436.4,382.2,437.3,377.2,437.9,375.3L437.9,375.3z M437.9,375.3"/>
	<path class="st0" d="M456.7,378.3c1.2-4.4,2.2-7.4,3.3-9.7c1.9-3.9-0.1-6.8-2.3-1.7c-2.2,5.1-6.4,19.3-7.2,23.1
		c-0.8,3.8,0.9,6.2,2.7,1C455.1,385.8,455.7,381.7,456.7,378.3L456.7,378.3z M456.7,378.3"/>
	<path class="st0" d="M470.6,371.6c0.9-3.1-2.1-5.3-3.5-1.6c-1.4,3.7-5.7,21.6-6.9,24.9c-1.3,3.7,1.9,6,3.5,1
		C465.4,390.4,469.3,376,470.6,371.6L470.6,371.6z M470.6,371.6"/>
	<path class="st2" d="M528.1,272.2c8.4,1.1,21.1,2.8,25.1,3.4c0.5-3.7,2.1-15.6,3.1-22.9l-5.8-0.8c-2.7-0.4-3.5-1.2-3-4.8
		c0.5-3.7,5.5-40.9,6-45c2.1,0.3-0.4-0.1,4.8,0.6c4.3,0.6,6.8,11.3,8.4,15.1l13.5,1.8c0.4-3,3.9-29.4,4.8-35.8
		c-4-0.5-35.8-4.8-44.2-5.9c-8.4-1.1-40.2-5.4-44.2-5.9c-0.9,6.4-4.4,32.8-4.8,35.8l13.5,1.8c2.5-3.2,7.7-12.9,12.1-12.3
		c5.2,0.7,2.7,0.4,4.7,0.7c-0.5,4-5.5,41.3-6,45c-0.5,3.7-1.5,4.2-4.2,3.9l-5.8-0.8c-1,7.4-2.6,19.2-3.1,22.9
		C507,269.4,519.7,271.1,528.1,272.2L528.1,272.2z M528.1,272.2"/>
	<path class="st6" d="M528.6,268.2c8.4,1.1,17,2.3,21,2.8c0.5-3.7,1-7.5,2-14.9l-5.8-0.8c-2.7-0.4-3.5-1.1-3-4.8
		c0.5-3.7,6.6-49,7.1-53c4.4,0.6,6.3,0.9,10.2,1.4c4.4,1.2,6.7,6.5,10.3,15.2l6.3,0.8c0.4-3,2.8-21.3,3.7-27.6
		c-4-0.5-31.8-4.3-40.2-5.4c-8.4-1.1-36.2-4.8-40.2-5.4c-0.9,6.4-3.3,24.6-3.7,27.6l6.3,0.9c5.7-7.5,9.4-12,13.9-12
		c3.9,0.6,5.7,0.8,10.2,1.4c-0.5,4-6.6,49.3-7.1,53c-0.5,3.7-1.5,4.2-4.2,3.9l-5.8-0.8c-1,7.4-1.5,11.2-2,14.9
		C511.6,265.9,520.2,267.1,528.6,268.2L528.6,268.2z M528.6,268.2"/>
	<path class="st6" d="M592.8,623.5h-7.3v19.9h-4.9v-19.9h-7.3v-4.3h19.5V623.5z M625.9,643.4H621v-19.3h-0.1l-7,19.3h-4.8l-6.8-19.3
		h-0.1v19.3h-4.9v-24.2h8.6l5.6,15.8h0.1l5.9-15.8h8.5V643.4z M625.9,643.4"/>
</g>
</svg>
