<svg id="Layer_1" data-name="Layer 1" xmlns="http://www.w3.org/2000/svg" viewBox="0 0 280 300"><defs><style>.cls-1,.cls-2{fill:#fff;}.cls-1{stroke:#fff;stroke-width:0.73px;}.cls-3,.cls-4{fill:#ec1d25;}.cls-4,.cls-7{stroke:#0e1d42;}.cls-4{stroke-width:1.11px;}.cls-5,.cls-6,.cls-7{fill:none;}.cls-6{stroke:#ec1d25;stroke-linecap:round;stroke-linejoin:round;stroke-width:1.11px;}.cls-7{stroke-width:2.1px;}.cls-8{fill:#0e1d42;}</style></defs><title>red sox logo</title><path class="cls-1" d="M140,225.6A75.6,75.6,0,1,0,64.4,150,75.6,75.6,0,0,0,140,225.6Z"/><circle class="cls-2" cx="139.97" cy="150.15" r="42.03" transform="translate(-27.09 269.43) rotate(-82.53)"/><circle class="cls-3" cx="140.04" cy="150.17" r="72.22" transform="translate(-21.62 276.78) rotate(-85.07)"/><circle class="cls-2" cx="140" cy="150.22" r="65" transform="translate(-30.41 264.8) rotate(-80.93)"/><path class="cls-4" d="M113,200.09c-.18-1.57-2.17-2.94-3.49-1.08s0,4,2.94,3.53c2-.33,1.3.77.07,2.62-.62.93-.51,1.72-1.08,2.76-.85-1.41-1.58-2.82-3.18-3-2.09-.21-3-.8-4.41-2.81-1.84-.35-2.54-1.17-2.73-2.26a9.94,9.94,0,0,0,4.64-3.6c1-1.39,1.17-3.34,1.56-4.34a7.72,7.72,0,0,0,3.41-2.31,12.18,12.18,0,0,0,1.74-4.14c1,.63,2.51,1.31,2.79,2.39s2.29.9,2.79,1.26.52.85,1.16,1.86a1.82,1.82,0,0,0,2.66.77c-.46,1.11-.57,1.6-1.23,1.85s-.41,1.47-.69,2c-.45.8-2.58,1.38-2.83-1.44s-3.28-2.49-4.34-1,.19,4.58,2.55,2.73c-.07.67-.18,1.72-.76,2s-.59.3-.56.84A1.48,1.48,0,0,1,113,200.09Z"/><path class="cls-4" d="M163.21,201.1a2.26,2.26,0,0,0-1.66-1,2.25,2.25,0,0,0,0-1.94c-1-2.11-4.42-6.87,1.11-10s8.68,3.81,9,4.43a2.39,2.39,0,0,0,1.83.91,2.31,2.31,0,0,0-.18,2c1.79,3.19,4,7.41-.81,10.1S164.68,203.73,163.21,201.1Zm7.12-4.14a2.24,2.24,0,0,0-1.66-1,2.22,2.22,0,0,0,0-1.94c-1.47-2.62-2.42-2.89-3.79-2.13s-.24,2.74.47,4a2.12,2.12,0,0,0,1.49,1.09,2.22,2.22,0,0,0-.07,2c1,1.77,2.06,4.14,4.06,3S170.68,197.59,170.33,197Z"/><path class="cls-4" d="M183.12,189.2c2.53-1.27,4.84,1.23,5.45,2.19,1.33-1.35.69-1.07,1.5-2.74.88-.06,1.75-.57,2.71-1.92-1.71.34-5.46,0-6.26-1.56-1.2.11-3.51,0-4.58-1s-.59-3-.33-4.52c-2-1.46-1.56-3.54-1.26-6.65-1.11.38-1.51,2.19-2.51,3.31a16.63,16.63,0,0,1-2.62,1.46c1.3,1.47,2.53,1.89,1.55,5.23-3.32,1.05-4.38-.77-4.71-2a11.85,11.85,0,0,0-1.41,2.65,5,5,0,0,0-2.33,2.47c2.87-.12,4.16-.32,5.66,1.61,1.56-.29,2.67-.77,3.74.28s1,4,.93,5.22c1.82,1,1.62,4.88,1.32,6.6a5.06,5.06,0,0,0,2.23-3.12c1.66-.85,1.89-.72,3.21-2.07C184.44,194,181.9,191.76,183.12,189.2Z"/><path class="cls-4" d="M156.52,200.26a5.77,5.77,0,0,1-1.84.7c-1.79.15-3.17-3.41-.58-4.11,2.14-.58,3,.73,3.92,1.71a1.73,1.73,0,0,0-.34-2.48c-.92-.9-.76-1.08-.52-1.69s.1-1.11-1-2.08c-.47.73-.37,1.11-1.63,1.46s-1.28-.74-3.49-.14-3.94,2.26-3.38,6c.17,1.1,1.43,2.52,3.42,3.33a4.57,4.57,0,0,1,1.94,1.44,4.06,4.06,0,0,1,1.71-.47c1.79-.14,3.17,3.68.58,4.38-2.15.59-4.67-1.23-5.55-2.21-.53.55-1.25,1.62-.33,2.52a1.69,1.69,0,0,1,.27,2.24c-.24.6-.15,1.19,1,2.16.48-.74.82-1.71,2.08-2.05s2.29.93,4.5.33,4.65-2.11,4.09-5.86a4.82,4.82,0,0,0-2.81-3.84A4.9,4.9,0,0,1,156.52,200.26Z"/><path class="cls-4" d="M132.66,204.24c-.94,0-1.27,1.91-2,2.76-2,4.88-4.89,5.49-6.89,4.69s-2.56-2.65-3.9-3.19c-1.16-.47-1.38-.06-3.24-.25,1.25-1.36,4.67-6.17,3.37-9.09,3-1.2,4.06-6.24,4.18-7.21,1.37,0,1.42,1.06,2.58,1.53,1.34.54,2.22-.51,4.22.29s3.48,3.09,1.56,8C132.49,202.89,132,203.56,132.66,204.24Zm-4.31-.19a2.14,2.14,0,0,0-.55-1.86,2,2,0,0,0,1.51-1.14c.85-2.68.3-3.56-1.38-4.14s-2.3,1.45-2.71,2.73a1.92,1.92,0,0,0,.34,1.78c-.4.09-1.33.35-1.58,1.12-.57,1.8-1.54,4,.91,4.88S128.15,204.69,128.35,204.05Z"/><path class="cls-4" d="M101.79,175.13a5.12,5.12,0,0,1,2.09,3.06c1.1.22,4.67,1.28,4.18,4.59s-1.35,4.11-.92,5.05c-.32-.05-1.55-.12-1.88.28a4.27,4.27,0,0,1-2.9,1.4c-.35.68-.52,1.74-1,2.19a1.78,1.78,0,0,0-.26,2.11c-.38.17-2.23,1.54-.48,2.95-.47.26-3.46,1-4.7-.36s0-4.11-.22-5.6c1.28.42,3.74-1.16,1.92-3.12-1.56-1.68-4-.29-5.86,3.48-.74-.21-1.58-1-2-2.84a6.73,6.73,0,0,1-2.1-2,13.06,13.06,0,0,0,4.66-2.29c1.24-1.15,2.68-2.49,2.92-4a9.59,9.59,0,0,0,4.42-2C100.63,177.1,101.64,176,101.79,175.13ZM99.3,185.84a3,3,0,0,0,4-.17,2.56,2.56,0,0,0-3.49-3.75C98.68,182.93,98.36,184.83,99.3,185.84Z"/><path class="cls-5" d="M140,105.66a44.53,44.53,0,1,1-44.53,44.53A44.53,44.53,0,0,1,140,105.66Z"/><path class="cls-2" d="M134.41,128.69a20,20,0,0,1,1-2.5c.31-.45.07-1-.38-.28a17.84,17.84,0,0,0-1.22,3.13c-.21.7-.42,1.08-.49,1.39s.12.75.39.21C134,129.94,134.27,129,134.41,128.69Z"/><path class="cls-2" d="M136.39,127c-.16.37-1.1,3.14-1.29,3.65s0,1.07.24.33,1.07-3.2,1.33-3.72C137.24,126.11,136.91,125.79,136.39,127Z"/><path class="cls-2" d="M137.83,129.53a11.8,11.8,0,0,1,.75-1.74c.42-.7.09-1.25-.4-.35a36.09,36.09,0,0,0-1.67,4.16c-.21.69.07,1.16.49.22S137.6,130.14,137.83,129.53Z"/><path class="cls-2" d="M140.49,128.48c.23-.56-.31-1-.62-.35s-1.37,3.9-1.64,4.49.26,1.13.63.25S140.18,129.28,140.49,128.48Z"/><path class="cls-2" d="M142,129.06a30.57,30.57,0,0,0-2,4.4c0,.18.08.36.38-.42a7.67,7.67,0,0,1,.87-2,12.3,12.3,0,0,0,1-1.8C142.37,129,142.25,128.61,142,129.06Z"/><path class="cls-6" d="M157,142.6l-3.36,6s3.82,2.85,3.88,2.91"/><polyline class="cls-6" points="162.04 141.24 157.64 146.81 161.39 149.91"/><polyline class="cls-6" points="165.99 140.66 161.33 145.64 164.63 148.88"/><polyline class="cls-6" points="170.32 140.34 165.15 144.67 168.13 147.97"/><polyline class="cls-6" points="177.83 140.79 173.69 143.7 175.96 147"/><line class="cls-6" x1="150.13" y1="150.43" x2="152.53" y2="144.35"/><polyline class="cls-6" points="180.81 142.21 177.9 143.9 179.64 147"/><polyline class="cls-6" points="172.29 147.41 169.63 143.98 173.71 140.49"/><polyline class="cls-6" points="130.85 187.75 127.17 189.72 124.04 187.19"/><polyline class="cls-6" points="131.5 184.32 127.36 186.87 124.11 183.44"/><polyline class="cls-6" points="132.24 181.21 127.71 183.3 124.7 178.82"/><polyline class="cls-6" points="133.73 176.94 128.42 179.35 125.54 175"/><path class="cls-6" d="M111.37,147.58l2.33-5.43s-4.14-2.78-4.21-2.85"/><polyline class="cls-6" points="133.41 117.13 138.97 115.11 141.85 119.45"/><polyline class="cls-6" points="134.96 113.7 140.13 111.35 143.02 116.28"/><polyline class="cls-6" points="136.38 110.21 140.91 108.12 143.92 112.59"/><path class="cls-6" d="M116,145.79l1.94-5.58s-4.33-2.48-4.4-2.54"/><path class="cls-6" d="M119.37,143.73l1.94-5.59s-4.33-2.49-4.4-2.55"/><path class="cls-6" d="M107.28,148.5l2.39-4.76s-4-3-4-3.11"/><path class="cls-6" d="M103,149.18l3.12-4.32s-3.16-3.24-3.21-3.32"/><path class="cls-6" d="M98.88,149.72l3.52-4s-2.55-3.42-2.59-3.5"/><path class="cls-7" d="M140.94,108a47.43,47.43,0,0,1-42.87,38.16"/><path class="cls-7" d="M127.13,190.55a47.47,47.47,0,0,1,55.18-46.25"/><circle class="cls-7" cx="139.97" cy="150.15" r="42.03" transform="translate(-27.09 269.43) rotate(-82.53)"/><path class="cls-3" d="M94.85,130.18c.37-.55.25-1-.37-1.38l-3.26-2.17L88,124.46c-.62-.42-1-.38-1.42.18l-.46.69L82.59,123c.73-1.08,5.46-8.18,6.3-9.43,3.66-5.49,9.14-1,9.37,1.55,2.7-1.34,9.88,2.65,6.22,8.14-.84,1.25-5.9,8.83-6.62,9.92l-3.47-2.31Zm3.45-5.93,1.27-1.9a1.27,1.27,0,1,0-2.12-1.41l-1.27,1.9Zm-5.65-3.77,1.12-1.68a1.27,1.27,0,1,0-2.12-1.41l-1.12,1.68Z"/><path class="cls-8" d="M95.87,130a1.1,1.1,0,0,0-.46-1.53L91.63,126l-3.88-2.58a1,1,0,0,0-1.49.23l-.4.62-2.17-1.45,5.81-8.7c3.29-5,8-.46,8.23,1.88,2.44-1.2,9.31,2,6,7l-6.1,9.15-2.18-1.46Zm2.7-4.7,1.93-2.89c.44-.66.67-1.62-.75-2.57s-2.23-.37-2.67.29l-1.93,2.89Zm-5.69-3.79L94.59,119a2.07,2.07,0,0,0-3.42-2.28l-1.71,2.56Z"/><path class="cls-3" d="M101,112.05a9.6,9.6,0,1,1,13.47,1.71A9.6,9.6,0,0,1,101,112.05Zm8.56-9.52a3,3,0,1,0-4.74,3.67l2.87,3.72a3,3,0,0,0,4.75-3.67Z"/><path class="cls-8" d="M101.67,111.6a8.84,8.84,0,1,1,12.4,1.57A8.84,8.84,0,0,1,101.67,111.6Zm8.3-9.83a3.81,3.81,0,0,0-6,4.65l3.31,4.28a3.81,3.81,0,0,0,6-4.65Z"/><path class="cls-3" d="M126.55,107.11a7.2,7.2,0,0,0,4.1-.16c2.76-.8,4.73-3.14,3.66-6.63s-3.79-4.29-8-4.65c-4.28-.1-3-2.45-1.81-2.79A2.58,2.58,0,0,1,127.14,94l.44.48,3.08-.88L129,87.85l-3.51,1,.16.57c-.62,0-.54-.46-3.11.28a5.55,5.55,0,0,0-3.79,7.14c1.08,3.5,3.47,3.51,7.63,3.87,4.27.09,2.78,2.51,1.59,2.85a3.16,3.16,0,0,1-2.91-1l-.43-.48-3.51,1,1.67,5.77,3.93-1.14Z"/><path class="cls-8" d="M125.75,107.21l-2.4.69-1.23-4.26,2.23-.64.43.48a4.2,4.2,0,0,0,3.19,1c3.25-.89,2.87-4.66-1.51-4.62-3.65-.38-5.89,0-6.88-3.18A4.81,4.81,0,0,1,123,90.42a5,5,0,0,1,3.49-.13l-.24-.81,2.26-.66L129.67,93l-1.82.52-.44-.48a3.54,3.54,0,0,0-3.09-.95c-2.45.41-2.81,4.2.76,4.32,3.66.38,7.31.62,8.3,3.83s-.72,5.34-3.13,6a8,8,0,0,1-4.23,0l-.58-.1Z"/><path class="cls-3" d="M158.4,98.67a9.6,9.6,0,1,1,3.73,13.06A9.6,9.6,0,0,1,158.4,98.67Zm12.13,4.12a3,3,0,1,0-5.25-2.91L163,104a3,3,0,1,0,5.25,2.91Z"/><path class="cls-8" d="M159.09,99.12a8.83,8.83,0,1,1,3.43,12A8.84,8.84,0,0,1,159.09,99.12Zm12.3,3.76a3.82,3.82,0,0,0-6.64-3.69l-2.62,4.73a3.81,3.81,0,0,0,6.63,3.69Z"/><path class="cls-3" d="M178.16,120l-3.31,2.59-4.49-5.76,3.32-2.6.52.67a.83.83,0,0,0,1.39.15l5.77-4.5c.59-.46.66-.9.25-1.43l-.52-.67,3.73-2.92,4.07,5.18c.28.36-2.65,11-2.9,11.92L189.4,120c.6-.46.69-.88.27-1.4l-.52-.67,3.29-2.58,4.54,5.81-3.29,2.57-.53-.67a.92.92,0,0,0-1.47-.13L181.38,131l-2.59-3.32c-.28-.36,2.65-11.76,2.91-12.71l-3.86,3a.84.84,0,0,0-.2,1.39Z"/><path class="cls-8" d="M182.19,108.6l2.46-1.92L188,111c.25.33-3.09,12.66-3.31,13.51l5.64-4.41c.54-.41.78-.91.4-1.39l-.51-.65,2.07-1.62,3.59,4.59-2.07,1.62-.54-.69c-.37-.47-.95-.41-1.48,0l-10.23,8-1.95-2.5c-.25-.32,3.3-13.8,3.54-14.66l-6.51,5.08c-.53.42-.43.92-.06,1.39l.49.63L175,121.51,171.46,117l2.08-1.63.48.6c.37.47.84.71,1.37.29l7-5.46a1.12,1.12,0,0,0,.28-1.58Z"/><path class="cls-3" d="M130.11,120.33c-.51-2-.35-3.12,1.62-3a51.75,51.75,0,0,0,7.11-.42c2-.19,2.49.13,3.25,1.31s.49,5.51,1.67,6.62a6.76,6.76,0,0,1,2.56,5c.38,2.67,1.83,12.61,2.68,17.73.82,4.95,5,5.74,12.58,6.62a14.52,14.52,0,0,1,11.67,9.64c.53,1.51.58,2.61-.19,3.07-1.61,1-6.45,3-9.83,2.68-7-.66-16.27-3.72-22.36-4.16-5-.35-9.51-6.73-10.31-7.92-1.12-1.68.86-6.94,2.78-12a55,55,0,0,1,2.24-5,23.84,23.84,0,0,0,1.23-2.26c.57-1.7.7-3.75.08-4.6-1.76-2.42,2.39-7.89,2.05-8.7-.63-1.1-8.17-3.61-8.62-3.72Z"/><path class="cls-2" d="M132.07,155.22a52.92,52.92,0,0,0,7.39,2.24,28.61,28.61,0,0,0,.36,6.79c-2,.41-4.75.89-6.57-.89a6.77,6.77,0,0,1-1.86-5.28C131.42,156.66,131.47,155,132.07,155.22Z"/><path class="cls-2" d="M162.55,162.08a56.34,56.34,0,0,1,1.95,5.29c.24.91.5,1,2,.58a20,20,0,0,0,5.17-2c.89-.64,1-.72.34-2.43-1.16-2.83-2.73-5.12-4.09-4.43-1.7.86-3.43,2-4.48,2.08S162.39,161.75,162.55,162.08Z"/><path class="cls-2" d="M133.4,120.3c0,.41.23,2.22.29,2.79s.44,1,.37.2-.29-2.27-.28-2.87C133.79,119.06,133.33,118.91,133.4,120.3Z"/><path class="cls-2" d="M139.89,122.05a8.54,8.54,0,0,1-.06-1.75c.08-.84-.48-1.22-.53-.15s.22,2.27.21,3.25c0,.76.57,1.32.54.25A10.78,10.78,0,0,0,139.89,122.05Z"/><path class="cls-2" d="M136,120c0-.63-.75-.81-.75,0s.37,3.13.38,3.8.75,1,.7,0S136.1,120.88,136,120Z"/><path class="cls-2" d="M141.12,120a22.54,22.54,0,0,0,.12,4.15c.07.18.43.32.36-.55a10.33,10.33,0,0,1-.07-1.36,21.13,21.13,0,0,0,0-2.18C141.45,119.68,141.18,119.4,141.12,120Z"/><path class="cls-2" d="M138.12,122.09a9,9,0,0,1-.13-1.75c0-.85-.53-1.2-.54-.13a22.54,22.54,0,0,0,.34,3.49c.15.75.63,1,.56,0A10.8,10.8,0,0,0,138.12,122.09Z"/><path class="cls-2" d="M131.71,120.66c0,.41.11,1,.16,1.56s.44,1,.38.2-.16-1-.16-1.64C132.11,119.42,131.65,119.26,131.71,120.66Z"/><path class="cls-2" d="M130.32,121a60.51,60.51,0,0,1,6.53,2.41c1.82.87,2.54,1.21,2,2.13s-2.91,5.53-2.28,7c1.17,2.75,1.15,4.28-.27,6.58A69.25,69.25,0,0,0,130.61,154c-1.21,5.23,2.92,6.46,8.53,11l-.63-.09c-5.6-4.51-9.73-5.73-8.52-11a67.89,67.89,0,0,1,5.72-14.87c1.41-2.3,1.44-3.83.27-6.58-.64-1.49,1.76-6.11,2.27-7s-.22-1-2-1.87a55.71,55.71,0,0,0-5.71-2.09Z"/><path class="cls-2" d="M111.14,156.84a24.14,24.14,0,0,0,6.28,2.92c-1.12,1.48-2.32,6.52-2.31,8.42-1.68-.09-4.77-.42-6.11-2.64a6.3,6.3,0,0,1-.17-5.74C109.32,158.67,110.6,156.52,111.14,156.84Z"/><path class="cls-2" d="M138.7,173.49c.19.95.55,4.61.56,5.63s.23,1.11,1.76,1.06a21.38,21.38,0,0,0,5.58-.7c1-.4,1.08-1.07.43-2.8-.77-2.07-1.54-4.6-3-4.27a11.24,11.24,0,0,1-4.27.41C138.7,172.61,138.62,173.13,138.7,173.49Z"/><path class="cls-3" d="M124.67,123.13c.16-.9.83-3.2,2.7-2.62a90.27,90.27,0,0,1,8.84,3.08c1.82.87,2.55,1,2,1.87s-2.91,5.54-2.27,7c1.17,2.75,1.14,4.28-.27,6.58A67.89,67.89,0,0,0,130,153.94c-1.21,5.24,2.92,6.46,8.52,11,6.7,5.38,7.88,5.55,10.09,13.1.45,1.54.16,2.05-.69,2.31-1.71.43-8.44,1.92-11,.67s-13.71-8.29-19.48-10.3c-5-1.74-9.76-1.88-10.49-7.39-.67-5,5.47-9.26,7.19-13.76,1.55-4.06,5.37-20.41,8.69-21.38C123.91,127.84,124.46,124.24,124.67,123.13Z"/><path class="cls-2" d="M111.14,156.84a24.14,24.14,0,0,0,6.28,2.92c-1.12,1.48-2.32,6.52-2.31,8.42-1.68-.09-4.77-.42-6.11-2.64a6.3,6.3,0,0,1-.17-5.74C109.32,158.67,110.6,156.52,111.14,156.84Z"/><path class="cls-2" d="M138.7,173.49c.19.95.55,4.61.56,5.63s.23,1.11,1.76,1.06a21.38,21.38,0,0,0,5.58-.7c1-.4,1.08-1.07.43-2.8-.77-2.07-1.54-4.6-3-4.27a11.24,11.24,0,0,1-4.27.41C138.7,172.61,138.62,173.13,138.7,173.49Z"/><path class="cls-2" d="M135.94,125.85a32,32,0,0,0-1.68,4.74c-.07.2.1.47.44-.47s.43-1.08.78-2,.65-1.78.78-2.1S136.19,125.36,135.94,125.85Z"/><path class="cls-2" d="M130,124.2c-.13.39-.88,3.35-1,3.9s0,1.11.28.33.84-3.42,1.06-4C130.77,123.18,130.4,122.87,130,124.2Z"/><path class="cls-2" d="M125.89,127.07a25.24,25.24,0,0,1,.93-3.86c.7-1.69,0-1.41-.34-.66a10.46,10.46,0,0,0-.63,2.67,4.26,4.26,0,0,1-.41,1.67C125.19,127.39,125.79,128,125.89,127.07Z"/><path class="cls-2" d="M128,126.1a20,20,0,0,1,.8-2.69c.29-.49,0-1.09-.42-.25a18.12,18.12,0,0,0-1,3.36c-.16.74-.35,1.15-.4,1.48s.19.77.42.19C127.74,127.44,127.92,126.47,128,126.1Z"/><path class="cls-2" d="M131.67,126.68a12.81,12.81,0,0,1,.63-1.87c.38-.76,0-1.31-.44-.33a38.49,38.49,0,0,0-1.39,4.47c-.16.74.17,1.2.52.19S131.48,127.34,131.67,126.68Z"/><path class="cls-2" d="M134.35,125.38c.18-.61-.41-1-.68-.31s-1.1,4.17-1.32,4.8.36,1.15.67.2S134.09,126.23,134.35,125.38Z"/><path class="cls-3" d="M145.44,106.21l4.84.65c.1-.71.41-3,.6-4.42l-1.12-.15c-.52-.07-.68-.22-.58-.94s1.06-7.89,1.16-8.67h0l.92.12c.83.11,1.31,2.18,1.61,2.9l2.61.35c.08-.58.76-5.67.92-6.9L147.88,88l-8.53-1.14c-.17,1.23-.85,6.32-.93,6.9l2.61.35c.48-.62,1.49-2.49,2.32-2.37l.92.12h0c-.11.78-1.07,8-1.17,8.68s-.29.82-.8.75l-1.12-.15c-.19,1.42-.5,3.71-.59,4.42Z"/><path class="cls-8" d="M145.54,105.44l4.06.54c.09-.71.19-1.45.38-2.88l-1.11-.15c-.52-.07-.68-.22-.58-.93s1.26-9.45,1.37-10.23h0l2,.26c.84.22,1.29,1.25,2,2.94l1.22.16c.07-.59.54-4.11.71-5.33l-7.76-1-7.75-1c-.17,1.23-.64,4.74-.72,5.33l1.22.16c1.1-1.44,1.81-2.31,2.68-2.31l2,.27h0c-.1.77-1.27,9.52-1.37,10.23s-.29.81-.8.74l-1.12-.15c-.19,1.43-.29,2.17-.39,2.88Z"/><path class="cls-8" d="M157.92,174h-1.41v3.83h-.95V174h-1.41v-.83h3.77V174Zm6.39,3.83h-1V174.1h0L162,177.81h-.92l-1.31-3.71h0v3.71h-.95v-4.66h1.65l1.08,3h0l1.13-3h1.64v4.66Z"/></svg>