<?xml version="1.0" encoding="utf-8"?>
<!-- Generator: Adobe Illustrator 23.0.1, SVG Export Plug-In . SVG Version: 6.00 Build 0)  -->
<svg version="1.1" id="Layer_1" xmlns="http://www.w3.org/2000/svg" xmlns:xlink="http://www.w3.org/1999/xlink" x="0px" y="0px"
	 viewBox="0 0 1000 1000" style="enable-background:new 0 0 1000 1000;" xml:space="preserve">
<style type="text/css">
	.st0{fill-rule:evenodd;clip-rule:evenodd;fill:#FFFFFF;}
	.st1{fill-rule:evenodd;clip-rule:evenodd;fill:#C4CDD3;}
	.st2{fill-rule:evenodd;clip-rule:evenodd;fill:#231F20;}
</style>
<g>
	<path class="st0" d="M316.3,190.4c-19.2,20.4-37.8,61-40.4,88.5c-0.9,8.8-1.3,17-1.3,24.6c0,27.6,5.6,48.7,17.9,69.3
		c15.4,25.7,39.9,46.9,70.7,61.2c29.1,13.5,70.9,32.3,75.9,34.3c1.7,0.7,3.9,1.7,6.3,2.9c-9.6,7-15.2,11-19.8,14.4
		c-25.9-5.9-58.5-1.4-66,0.4c-30.8,7.3-59,21.1-79.4,39c-20.9,18.2-36.5,39.2-41.8,56.1c-5.9,18.7-4,32.1,5.7,39.6
		c14.2,11.1,32.6-0.3,38.6-4c12.4-7.8,35.2-22.2,63.9-26.4c25-3.7,58.5-0.3,73.9,9.7v27.2c-3.7,3.4-7.7,7-7.7,7
		c-3.9,3.9-5.9,9.2-5.9,14.7c0,2.6,0.4,5.2,1.4,7.7c2.6,7,8.5,10,8.5,10c49.7,30.2,49.6,30.2,83.1,50.6l-1.8,0.4
		c-4.4,1.9-14.6,8.3-14.6,26.2v72.7l43.2,41.3c9.6,9.6,18.9,11.2,24.9,10.8c7.6-0.5,14.4-4.1,19.3-10.4c0,0,28.8-36.9,46.6-59.8
		c13.2,20.4,34,52.6,34,52.6c-0.2-0.4,0.5,1.1,0.5,1.1c2.4,5.2,7.5,16,19.2,19c5.2,1.4,13.5,1.5,23.1-5.5c12.9-9.4,43-32.8,48.1-38
		l0.9-1c3.6-3.5,9-8.8,9-17.6v-69.4c0-7.5-4-16.9-13.2-20.6c-6.7-2.7-14.4-2.7-23.5,4.8c-4.1,3.3-11,8.4-21.2,16.1
		c-5.9-9.4-9-14.4-13.5-21.5c8.7-11,29.5-37.2,41.1-51.8c1.5,1.2,4.5,3.6,4.5,3.6l0.5,0.3c12.2,8.1,21.5,5.1,26,2.6
		c12.1-6.9,12.4-22.1,12.2-26.6l0-58.3l-36.7-38c-5.3-6-12.7-9.1-20.4-8.5c-7.8,0.6-15,5-19.2,11.8c-2,2.8-19.4,24.8-37.6,47.4
		v-76.3l4.6-4.6c3.3-2.9,10.7-12.1,10.7-22.8c0-2.6-0.4-5.2-1.5-7.9c-2.1-5.6-7.2-12-18.4-14.7c3.3-12.8,4.6-25.1,4.7-34.6l0-2.7
		c0-25.5-5.9-46.9-17.4-63.8c-13.8-20.1-24.5-26.9-39.2-36.2l-3.8-2.4c-17.2-11-107.3-58.3-111.1-60.3c-0.3-0.2-34.6-17.1-34.6-17.1
		c-22.6-11.4-24.2-19.4-24.2-23.8l0-0.8c0.5-2.6,6.7-12.1,19.6-12.1c13.2,0,22.5,0.4,39.9,6.3c27.6,9.2,28.4,20.5,28.4,24.7
		c-0.1,1-0.9,12.7-0.9,12.7l57.4,39.2l86-110.4l-69.8-46.7l-9.2,9.3c-3.1,3.1-5.1,4.9-6.2,5.7l-5-0.8l-15.4-5.8
		c-24.2-9.8-64.8-26.2-101.7-26.2C379.4,128.3,345.5,159,316.3,190.4"/>
	<path class="st1" d="M325,198.8c-17.4,18.5-34.8,56.5-37.2,81.3c-0.8,8.3-1.2,16-1.2,23.2c0,25.3,5.1,44.5,16.2,63.1
		c14.2,23.6,36.7,43.1,65.2,56.3c30.4,14.1,71,32.3,75.5,34.1c8.3,3.4,20.9,10.2,24.3,13.8c-4.4,3.2-37.6,27.3-39.7,28.8
		c-21.9-7.1-56.3-3.1-66-0.8c-28.8,6.8-55.2,19.7-74.1,36.3c-18.9,16.6-33.5,35.9-38.1,50.4c-4.1,13.2-3.7,21.9,1.4,25.8
		c4.9,3.8,12.8,2.3,24.2-4.8c12.2-7.7,37.4-23.5,68.8-28.2c23.3-3.5,46.7-0.8,64.2,3.6c0,0,13.5,4.2,24.3,11.4v40.2
		c-1.9,1.7-11.4,10.4-11.4,10.4c-1.6,1.6-2.2,3.7-2.2,5.7c0,1.2,0.2,2.3,0.6,3.3c0.9,2.4,3.2,3.5,3.2,3.5l118.4,72.2
		c0,0,28.1-21.5,33-25.2c1.9,3.2,4.4,7.3,5.7,9.5c-2.6,3.2-32.9,40.2-36.6,44.8c-4.3-3.8-26.5-23.6-26.5-23.6
		c-6.6-6.1-11.7-5.2-14.2-4.1c-4.5,2-7,7.3-7,14.6v67.4l39.5,37.8c6.3,6.3,11.7,7.3,15.2,7.1c3.9-0.2,7.5-2.2,10.1-5.5
		c0,0,45.7-58.7,57.6-74c4.5,7,43.8,67.7,43.8,67.7l1.3,2.6c2,4.2,4.9,10.5,10.9,12.1c3.8,1,8-0.2,12.5-3.5
		c12.9-9.4,42.5-32.6,46.7-36.8l1-1c2.9-2.9,5.2-5.2,5.2-8.7v-69.5c0-3.3-1.8-7.4-5.4-8.9c-2.4-1-6.3-1.3-11.2,3.5
		c0.2-0.2-23.8,18-32,24.2c-3.2-5.1-23.5-37.5-25.6-40.9c2.7-3.3,50.9-64.2,54.6-68.8c3.7,2.9,14,11,14,11c5.3,3.5,9.5,4.2,13,2.3
		c6.1-3.5,5.8-13.9,5.8-15v-53.9l-33.5-34.7c-2.7-3.1-6.2-4.6-9.9-4.3c-3.8,0.3-7.5,2.6-9.6,5.9c-1.8,2.8-27.7,35.2-46,57.9
		c-4.7-3.8-11.5-6.5-15.1-7.7v-91c1.2-1.2,8.9-9,8.9-9c1.3-1.1,6.4-7,6.4-13.3c0-1.2-0.2-2.4-0.6-3.6c-2-5.2-8-7.8-17.8-7.8
		c-0.2,0-3.3,0.3-6.3,0.6c7.3-16.5,9.4-34.2,9.6-46.8c0-0.8,0.1-1.6,0.1-2.5c0-22.9-5.1-42-15.3-56.8c-12.3-18-21-23.5-35.5-32.7
		l-3.9-2.5c-16.8-10.7-106.6-57.9-110.4-59.9c-0.1-0.1-34.3-17-34.3-17c-27-13.7-31.3-25.5-31.3-35.4l0-1.3c0.3-8.2,12-24,32.3-24
		c14.1,0,24.8,0.5,44,6.9c25,8.4,37.1,20.5,37.1,37.1c0,0-0.4,5.9-0.4,5.9l41.6,28.4l70.4-90.4l-50-33.4l-1.9,1.9
		c-10.7,10.8-11.2,10.7-22.6,8.4c-3-0.6-9.5-3.2-17.7-6.5c-23.4-9.5-62.6-25.3-97.2-25.3C383.9,140.6,353.4,168.1,325,198.8
		 M430.7,505.5l44.8-32.5v-1.7c-0.5-7.6-22-17.5-29.5-20.8c-4.3-1.8-45.5-20.2-75.2-34c-27.3-12.7-48.9-31.3-62.4-53.7
		c-9.8-16.4-18.3-37.7-14-82.3c2.2-23.2,19.1-60.1,35.4-77.4c27.5-29.5,56.8-56.1,113.7-56.1c33.2,0,71.7,15.5,94.7,24.8
		c8.8,3.6,15.2,6.2,18.9,6.9c12.6,2.5,16,2.1,26.6-8.3c3.7,2.5,34.8,23.3,39.6,26.5c-3.9,5.1-58.8,75.5-62.3,80
		c-4.3-2.9-30.7-21-33.4-22.8l0.2-2.4c0-19.7-14-34.3-41.6-43.6c-20.1-6.8-31.8-7.3-46.1-7.3c-24.8,0-38.5,19.8-38.9,30.4
		c-0.7,17.1,10.1,30.3,34.9,42.9c0.1,0,34.3,17,34.3,17c0.9,0.5,93.3,49,109.8,59.6l3.9,2.5c14.2,9.1,22.1,14,33.7,30.9
		c9.7,14.2,14.4,32.8,14.1,55.4c-0.2,13.2-2.3,32.4-11,49.2l-2.8,5.4l17.4-1.6c6.3,0,10.5,1.3,11.4,3.5c1.1,2.9-2.6,8.3-3.9,9.5
		l-11.4,11.6l0.2,1.1v97.2l2.4,0.7c5.3,1.5,14.6,5.3,17.1,8.8l2.5,3.5l2.7-3.3c4.7-5.8,45.9-57,48.5-61.2c1-1.6,2.8-2.7,4.5-2.9
		c1.6-0.1,3.1,0.6,4.4,2.1c0,0,27.3,28.3,31.9,33v51.4l0,0.8c0,3.2-0.8,7.4-2.4,8.4c-1,0.6-3.2-0.1-5.8-1.9c0,0-18.9-14.9-18.9-14.9
		L657,717.5l31.9,50.9l38.1-28.8c2.4-2.3,3.8-2.7,4.4-2.4c0.8,0.3,1.4,1.9,1.4,2.9v69.5c0,0.8-1.5,2.3-3.2,4l-1,1
		c-3.7,3.7-32.4,26.3-45.9,36.1c-2.8,2.1-5.2,2.9-7,2.4c-3-0.8-5.1-5.3-6.6-8.5l-1.8-3.4l-48.8-75.5L555.2,847c-1,1.3-2.7,2.8-5.3,3
		c-3.1,0.2-6.6-1.6-10.1-5.2c0,0-35.7-34.1-37.6-36v-64.6c0-5.3,1.6-7.9,3.1-8.6c1.7-0.7,4.3,0.4,7.1,3c0.1,0.1,31.6,28.2,31.6,28.2
		l43.9-53.7L576,693.4c0,0-32.1,24.5-35.3,27c-3.7-2.3-114.8-69.9-114.9-70c-0.1-0.3-0.2-0.6-0.2-1c0-0.4,0.1-0.9,0.3-1.1l13.3-12.1
		l0.1-1.5v-45.4l-1.5-1c-9-5.7-16.2-10-29.1-13.2c-21.8-5.5-47.5-6.5-65.4-3.6c-32.8,5.2-58.9,21.3-71.4,29.2
		c-12,7.5-15.8,5.8-16.7,5.2c-1.8-1.4-2.7-7.2,0.9-18.6c4.2-13.2,18.4-31.9,36.1-47.4c18.2-15.9,43.5-28.3,71.3-34.8
		c10.9-2.6,44.9-6,64.1,1l1.7,0.6L430.7,505.5L430.7,505.5z"/>
	<path class="st2" d="M740.9,850h-5v13.5h-3.4V850h-4.9v-2.9h13.3 M763.4,863.5h-3.3v-13.1H760l-4.7,13.1H752l-4.6-13.1h-0.1v13.1
		h-3.4v-16.5h5.8l3.8,10.8h0.1l3.9-10.8h5.8L763.4,863.5L763.4,863.5z M740.5,648.6v-49.4l-30.9-27.8l-85.5,106.2l-12-19.2
		c10.4-7.8,23.9-17.8,25.4-18.5c2.4-1.2,8.6-4.9,11.7-4.9c2.8,0-4.3-12.3-24.7-12.3V513.4l11.7-13c0,0-14.3,2.3-21,0.2
		c-1.4-0.4-3.8-1.6-6.7-3.1c3.8-6.1,7.3-13.1,9.9-21.1c14-44.3,4.8-85.1-28.4-110.3c-23.3-17.7-119.1-66.2-119.1-66.2
		s-58-28.4-64.2-34.7c-4.5-4.5-13.6-11.4-13.6-33.3c0-13.1,14.5-27.5,20.8-30.4c10.1-4.8,13.3-7,33.6-7.3
		c11.5-0.2,22.2,2.6,23.6,2.8c12.6,1.3,42.6,11.2,58,32.1c5.9,5.9,7.1,23.2,7.1,23.2l24.1,15.4l52.5-68.5L584.3,180
		c-8,8.6-23.4,9.2-29.6,6.2c-6.2-3.1-59.2-22.4-66.7-24.8c-14.2-4.5-45.1-7.9-61.7-5.5c-16.7,2.5-44,7.5-65.5,30.3
		c-25,26.5-25.3,47.8-25.3,59.3c0,17.9,4.6,41.6,24.7,61.6c28.9,28.9,72.8,47,82.7,52.5c17.6,9.7,72.9,38.6,80.9,43.3
		c34,19.8,46.9,40.8,43.2,67.3c-0.2,1.3-0.6,2.5-0.9,3.8c-14.9-8.7-35.8-21.9-44.2-30.3c0,0-5.1,5.4-8.3,8.6L489,470.7
		c2.9-12,3.2-32.4,2.7-34.5c-0.6-2.5-2.5-22.2-19.8-34.6c-11.7-8.4-38-24.1-60.5-35.2c-9.7-4.8-41.1-23.8-56.2-36.3
		c0,0-25.9-24.2-29.9-39c-7.7-17-8-57.1-4-61.1c0,0-9.9,11.1-16.7,33.3c-3.3,10.8-5.6,25-5.6,34.6c0,16,2.8,44.1,20.4,67.9
		c7.7,10.5,19.9,22.4,32.8,30.9c15.7,10.4,31.6,16.5,32.6,17.2c4.3,3.1,45.1,20.3,48.8,22.1c3.7,1.9,22.4,10.5,26.3,12.7
		c14.1,7.5,21.3,12.3,25.8,24.3l-42.2,31.6c0,0,1.9,3.4,1.9,8.6v4c-5.7-1.9-11.5-3.5-17.3-4.5c-27.8-4.7-44.7-4.4-66.7,1
		c-24.4,6-50,15.9-74.1,39.9c-27.2,27.2-26.8,45.4-26.8,45.4l27.1-16c22.7-12.8,52.6-20.4,73.8-20.4c50.5,0,76.6,14.6,83.9,22.7
		v48.9c0,9.7-2.9,10.9-5.1,12.8c-0.8,0.7-1.5,0.8-4.5,2.8c0,0,3.7,1.4,4.6,2.3c2.5,1.8,98.6,59.9,98.6,59.9l37.2-27.3l18.4,29.3
		l-51.1,63.4l-35.2-32.1v59.9l40.1,37l70.8-88.9l58.2,92.6l46.9-37.6v-59.3l-37.7,28.4l-38.2-60.8l69-86.7 M500.6,515.2l21.9-16.1
		c6,5,13,9.5,20,13.5l-0.8,0.7c0,0-25.3,21.6-41,23.8L500.6,515.2L500.6,515.2z M539,656l-38.4-23.4v-58.2
		c16.1-2.9,55.3-21.5,75.6-41.9c0.3,3.8,0.2,42.7,0.1,69L552.8,564l-35.9,25.5v45.7l19.9-13.2l14.9,23.7L539,656L539,656z"/>
</g>
</svg>
