<?xml version="1.0" encoding="utf-8"?>
<!-- Generator: Adobe Illustrator 24.2.0, SVG Export Plug-In . SVG Version: 6.00 Build 0)  -->
<svg version="1.1" id="katman_1" xmlns="http://www.w3.org/2000/svg" xmlns:xlink="http://www.w3.org/1999/xlink" x="0px" y="0px"
	 viewBox="0 0 1000 1000" style="enable-background:new 0 0 1000 1000;" xml:space="preserve">
<style type="text/css">
	.st0{fill:#FFFFFF;}
	.st1{fill:#0E3386;}
	.st2{fill:#CC3433;}
</style>
<g transform="translate(.23273 -.23273)">
	<path class="st0" d="M75.2,500.2c0-234.6,190-424.6,424.6-424.6c234.6,0,424.6,190,424.6,424.6c0,234.6-190,424.6-424.6,424.6
		S75.2,734.8,75.2,500.2z"/>
	<path class="st1" d="M102.8,498.9c0-219,177.9-397,397-397s397,177.9,397,397s-177.9,396.9-397,396.9
		C280.1,895.8,102.8,717.9,102.8,498.9z"/>
	<path class="st0" d="M499.8,792.1c161.8,0,293.2-131.4,293.2-293.2S661.5,205.7,499.8,205.7S206.6,337.1,206.6,498.9
		S337.3,792.1,499.8,792.1z"/>
	<path class="st2" d="M499.8,241.4c-142.2,0-257.4,115.3-257.4,257.5c0,142.2,115.2,257.4,257.4,257.4
		c84.2,0,158.4-40.4,205.6-102.4l-76.8-72.1c-27.6,42.5-74.8,70.8-129.4,70.8c-84.9,0-153.7-68.7-153.7-153.7
		c0.7-85,69.4-153.7,154.4-153.7c56,0,104.5,29.7,131.4,74.1l75.5-73.5C659.5,282.5,584.7,241.4,499.8,241.4z M453.9,430.8v93
		c0,12.8-19.5,12.8-19.5,0v-93h-46.5v91.7c0,30.3,7.4,44.5,29.7,44.5h47.8c27,0,35-8.1,35-41.8v-94.4L453.9,430.8L453.9,430.8z
		 M517.3,430.8V567h72.8c25.6,0,39.1-4.8,39.1-35.1c0-11.4,0-24.9-12.8-32.3c9.4-4.7,12.8-13.5,12.8-30.3
		c0-31.7-11.4-38.5-39.1-38.5L517.3,430.8L517.3,430.8z M679,430.8c-20.2,0-31.7,8.1-32.3,31.7c-0.7,23.6,0,13.5,0,22.2
		c0,8.8-1.4,28.3,25.6,28.3H706c9.4,0,7.4,11.4,7.4,11.4v7.4c0,8.1-16.1,8.1-19.5,2c-2.7-4-1.4-11.4-1.4-11.4h-45.8
		c0,9.4-5.4,45.1,22.9,45.1c24.3-0.7,51.9-0.7,51.9-0.7c24.9,0,37.7-6.7,37.7-29v-30.3c0-16.2-11.4-26.3-27.6-26.3h-33
		c-8.8,0-6.7-12.8-6.7-16.8c0-6,18.9-8.1,18.9,2v6.1h49.2c0-31.7-6.1-41.8-37.7-41.8L679,430.8L679,430.8z M565.8,462.5
		c14.1,0,19.5,0,19.5,5.4v7.5c0,6.7-11.4,6-19.5,6V462.5L565.8,462.5z M574.3,517.6c7-0.1,8.3,0.5,10.3,5.5c0.7,1.3,0,5.4,0,7.4
		c0,6.7-9.4,6.1-19.5,6.1v-18.9C569,517.7,572,517.7,574.3,517.6L574.3,517.6z"/>
</g>
</svg>
