<svg id="Layer_1" data-name="Layer 1" xmlns="http://www.w3.org/2000/svg" viewBox="0 0 280 300"><defs><style>.cls-1{fill:#ed1f30;}.cls-2{fill:#010101;}.cls-3{fill:#fff;}</style></defs><title>cincinnati reds cap insignia logo</title><rect class="cls-1" x="63.24" y="82.42" width="153.51" height="135.17"/><path class="cls-2" d="M144.23,128.49c14.29,0,25.07,6.6,28.69,12.32h18c-.32-.65-1.13-2.84-1.13-2.84H172.6c-3.62-5.72-14.9-12.32-29.19-12.32-24.3,0-33.84,16.16-33.84,23.89a21,21,0,0,0,3.53,11.78c-1.46-2.73-1.8-6.84-1.8-9.5C111.3,144.08,120.48,128.49,144.23,128.49Z"/><path class="cls-2" d="M142.77,187.86c-24.84,0-34.61-10.65-46.11-22.87-4.72-5-7.67-9.53-15.32-15.17l1.57,3.63c7.35,6,10.39,10.35,15.1,15.36,11.51,12.22,21.11,21.84,46,21.84,21.75,0,38.59-10.75,46.5-24l-1.18-2.78C181.36,177.12,164.52,187.86,142.77,187.86Z"/><path class="cls-3" d="M143.41,125.65c14.29,0,25.57,6.6,29.19,12.32h17.18c-8-15.73-28.53-25.21-49.1-25.21-20.2,0-35.64,11.65-44.5,22.14-8.59,10.18-12.54,13.44-14.05,14.46a3.8,3.8,0,0,1-.79.46C89,155.46,91.94,160,96.66,165c11.5,12.22,21.27,22.87,46.11,22.87,21.75,0,38.59-10.74,46.51-24h-17c-7.95,6-17.69,10.91-30.07,10.91-11.42,0-23.36-4.77-29.12-13.48a21,21,0,0,1-3.53-11.78C109.57,141.81,119.11,125.65,143.41,125.65Z"/></svg>