<?xml version="1.0" encoding="utf-8"?>
<!-- Generator: Adobe Illustrator 24.2.0, SVG Export Plug-In . SVG Version: 6.00 Build 0)  -->
<svg version="1.1" id="Layer_1" xmlns="http://www.w3.org/2000/svg" xmlns:xlink="http://www.w3.org/1999/xlink" x="0px" y="0px"
	 viewBox="0 0 1000 1000" style="enable-background:new 0 0 1000 1000;" xml:space="preserve">
<style type="text/css">
	.st0{fill-rule:evenodd;clip-rule:evenodd;fill:#C6011F;}
	.st1{fill-rule:evenodd;clip-rule:evenodd;}
	.st2{fill-rule:evenodd;clip-rule:evenodd;fill:#FFFFFF;}
</style>
<g>
	<path class="st0" d="M548.9,769c219.3,0,344.8-143,344.8-273.1c0-155.6-173.5-265-359.1-265c-148.8,0-252,87.9-308.5,154.7
		c-77.1,91.9-119.7,103.6-119.7,103.6c59.6,52.5,87.9,78.9,115.7,109C300,682.5,364.6,769,548.9,769"/>
	<path class="st1" d="M544.9,732.3c-159.2,0-221.9-68.2-295.5-146.6c-30.1-32.3-49.3-61-98.2-97.3l9.9,23.3
		c47.1,38.6,66.4,66.4,96.9,98.6c74,78,135.4,139.4,294.6,139.4c139.4,0,247.5-69,298.2-153.8L843,578
		C792.3,663.2,684.3,732.3,544.9,732.3"/>
	<path class="st1" d="M548.9,333.7c-155.6,0-216.5,103.1-216.5,152.9c0,28.7,8.5,53.8,22.4,75.3c-9.4-17.5-11.7-44-11.7-61
		c0-49.8,58.7-149.3,211.2-149.3c91.5,0,160.5,42.1,183.8,78.9h115.2c-2.2-4-7.2-17.9-7.2-17.9H735.8
		C713,375.8,640.3,333.7,548.9,333.7"/>
	<path class="st2" d="M249.4,585.6c73.5,78.5,136.3,146.6,295.5,146.6c139.4,0,247.5-69.1,298.2-153.8H734
		c-51.1,38.6-113.4,69.9-192.8,69.9c-73.1,0-149.8-30.5-186.5-86.5c-14.4-21.5-22.4-46.6-22.4-75.3c0-49.8,61-152.9,217-152.9
		c91.4,0,164.1,42.1,187,78.9h109.8C795,311.7,663.2,251.2,531.4,251.2c-129.6,0-228.2,74.9-285.2,142.1c-75.3,88.8-95,95.1-95,95.1
		C200.1,524.7,219.3,553.4,249.4,585.6"/>
	<path class="st1" d="M613.9,476.2h-24.7v-11.7h-36.3v23.8H565v-11.7h23.7l12.6,11.7H626V456L613.9,444V476.2z"/>
	<path class="st1" d="M512.1,552.9l11.7,12.1H626v-31.8l-12.1-12.1v31.9H512.1z"/>
	<path class="st1" d="M552.9,509v23.8H565v-11.7h30v-20.6L583,488.3V509L552.9,509L552.9,509z"/>
	<path class="st1" d="M512.1,464.6l11.7,12.1h4.5v-12.1H512.1L512.1,464.6z"/>
	<path class="st1" d="M372.2,464.6l12.1,12.1h4v-12.1H372.2L372.2,464.6z"/>
	<path class="st1" d="M372.2,552.9l12.1,12.1h56.9v-20.2l-12.1-12.1v20.2H372.2z"/>
	<path class="st1" d="M459.7,503.6l13,29.1h6.7l-7.6-17.1l18.4-15.3v-23.7L478,464.6v23.8L459.7,503.6L459.7,503.6z"/>
	<path class="st1" d="M413,509v23.8h12.1v-12.1h16.1l-5.4-11.7H413z"/>
	<path class="st1" d="M486.1,552.9h-30.9l11.7,12.1h31.4v-20.2l-12.1-12.1L486.1,552.9L486.1,552.9z"/>
	<path class="st1" d="M453.4,476.7V470l-6.3-5.4H413v24.2h12.1v-12.1H453.4z"/>
	<path class="st2" d="M552.9,464.6h36.3v11.7h24.7V444H512.1v20.6h16.1v68.2h-16.1v20.2h101.8v-31.9h-24.7v11.7h-36.3V509H583v-20.6
		h-30.1V464.6L552.9,464.6z"/>
	<path class="st2" d="M486.1,532.7h-13.5l-12.5-29.6l17.9-14.8v-23.8L453.4,444h-81.1v20.6h16.1v68.2h-16.1v20.2h56.9v-20.2h-16.6
		V509h23.3l5.4,12.1l13.9,32.3h30.9L486.1,532.7L486.1,532.7z M425.1,488.8H413V465h34.1l6.3,5.4v13.9l-5.8,4.9h-22.4V488.8z"/>
	<path class="st1" d="M639.9,464.6l11.7,12.1h4.5v-12.1H639.9L639.9,464.6z"/>
	<path class="st1" d="M717,476.7V470l-6.3-5.4h-30.5v68.2h12.1v-56L717,476.7L717,476.7z"/>
	<path class="st1" d="M741.2,532.7L717,552.9h-77.1l11.7,12.1H721l32.3-26.5v-61.9l-12.1-12.1L741.2,532.7L741.2,532.7z"/>
	<path class="st1" d="M821.9,509H791l-24.2-20.6l38.6,32.7h22.9v-6.7L821.9,509z"/>
	<path class="st1" d="M864.5,521.1L852.4,509v23.3l-24.2,21.1h-30.9l-6.3-5.8v5.8h-24.2l11.7,12.1h24.7v-5.8l6.3,5.4h23.7l31.4-26
		L864.5,521.1L864.5,521.1z"/>
	<path class="st1" d="M828.2,476.2V470l-6.3-5.4h-24.2l-6.3,5.4v13.5l6.3,4.9h5.8v-6.3l6.3-5.4h17.9l12.5,11.7h24.2v-32.3L852.4,444
		v32.3L828.2,476.2L828.2,476.2z"/>
	<path class="st1" d="M796.8,532.7h6.7L791,521.1v6.7L796.8,532.7z"/>
	<path class="st2" d="M741.2,532.7v-68.2L716.6,444h-76.7v20.6H656v68.2h-16.1v20.2H717L741.2,532.7L741.2,532.7z M692.3,532.7
		h-12.1v-68.2h30.5l6.3,5.4v57.8l-5.8,5H692.3L692.3,532.7z"/>
	<path class="st2" d="M791,547.5l6.3,5.8h30.9l24.2-21.1V509l-24.7-20.6h-30.1l-6.3-4.9V470l6.3-5.4h24.2l6.3,5.4v6.3h24.2V444
		h-24.2v5.4l-6.3-5.4h-30.5l-24.7,20.6v23.8L791,509h30.9l6.3,5.4v13.5l-5.8,5h-25.5l-5.8-5v-6.7h-24.2v32.3H791L791,547.5
		L791,547.5z"/>
	<path class="st1" d="M828.2,697.3h-7.6v21.1h-5.4v-21.1h-7.6v-4.5h21.1v4.5H828.2z M863.6,718.8h-5.4v-20.6l-7.6,20.6h-4.9
		l-7.2-20.6v20.6h-5.4v-26h9l5.8,17.1l6.3-17.1h9v26H863.6L863.6,718.8z"/>
</g>
</svg>
