<svg id="Layer_1" data-name="Layer 1" xmlns="http://www.w3.org/2000/svg" viewBox="0 0 280 300"><defs><style>.cls-1{fill:#231f20;}.cls-2{fill:#2a398b;}.cls-3{fill:#999;}</style></defs><title>colorado rockies logo</title><path class="cls-1" d="M211.18,159a72.13,72.13,0,0,0-142.36,0H63.24v2.17H94.18L95.3,159H89.09a52.24,52.24,0,0,1,48.39-40.5l2.58-3.33,2.91,3.36a51.94,51.94,0,0,1,19.09,4.79h-.28a13.83,13.83,0,0,0-13.35,10.22h0a13.23,13.23,0,0,0-.33,1.57h0c0,.34-.09.69-.11,1h0c0,.33,0,.66,0,1a13.8,13.8,0,0,0,6.25,11.57h0l.09.06a13,13,0,0,0,1.14.66h0l.47.23.23.11.28.12a13.84,13.84,0,0,0,19.2-12.75c0-.09,0-.18,0-.27v-.17h0a14.27,14.27,0,0,0-.19-1.87v0a13.64,13.64,0,0,0-1.09-3.49,52.17,52.17,0,0,1,16.6,27.7h-5.58l1.62,2.17h29.81V159Zm-50-33.92c.17.4.33.8.49,1.21-.12.23-.25.45-.37.66-.26-.55-.52-1.09-.8-1.62l-.33.59c.22.6.43,1.21.62,1.83-.14.21-.28.41-.43.61-.22-.56-.45-1.1-.69-1.65-.12.19-.25.37-.38.55.18.61.34,1.22.49,1.83-.16.19-.33.38-.5.56-.17-.56-.36-1.11-.57-1.66-.14.18-.28.34-.43.51.14.6.26,1.21.35,1.82l-.56.52c-.14-.56-.29-1.11-.45-1.66-.16.15-.32.31-.49.45.09.6.17,1.2.22,1.8l-.6.45q-.14-.84-.33-1.65l-.53.4c.05.59.08,1.18.08,1.76-.21.14-.43.27-.65.39,0-.55-.12-1.09-.2-1.63l-.58.35c0,.57,0,1.15-.06,1.72l-.69.32c0-.54,0-1.07-.08-1.6l-.62.29c0,.56-.1,1.11-.19,1.67l-.74.25c0-.52.05-1,.05-1.56l-.65.23c-.09.54-.21,1.07-.34,1.6-.26.07-.51.13-.78.18.08-.5.14-1,.18-1.51l-.28.07A12.09,12.09,0,0,1,161.21,125ZM156,147.73h0Zm-.08-.25-.25.06a12.06,12.06,0,0,1-6-10.45,11.15,11.15,0,0,1,.07-1.29l.5.33c.27,0,.53-.09.79-.15-.4-.29-.8-.59-1.19-.9,0-.09,0-.18,0-.26l.49-.09c.57.34,1.14.68,1.73,1l.75-.22c-.51-.33-1-.66-1.51-1l.77-.22c.57.31,1.15.6,1.75.88l.71-.29c-.52-.29-1-.59-1.55-.9l.73-.29q.87.4,1.77.75c.23-.11.45-.23.67-.35-.53-.25-1.06-.52-1.57-.8l.68-.35c.59.22,1.18.43,1.78.62l.62-.41q-.81-.33-1.59-.69c.21-.13.43-.27.63-.42.59.18,1.19.35,1.78.49.2-.15.39-.31.57-.47-.53-.18-1.07-.37-1.6-.57.2-.15.38-.31.57-.47h0q.87.21,1.77.36l0,0,.5-.51a0,0,0,0,1,0,0c-.53-.14-1.07-.29-1.6-.45l.53-.54c.58.09,1.16.16,1.75.22.16-.19.31-.39.46-.59q-.8-.13-1.59-.33c.16-.19.32-.39.47-.59.57,0,1.14.07,1.72.08.14-.21.27-.42.4-.63-.53-.06-1.05-.13-1.58-.21l.42-.65c.56,0,1.12,0,1.67-.05.12-.23.23-.45.34-.69-.51,0-1,0-1.55-.08.12-.23.24-.46.35-.69.55,0,1.09-.11,1.63-.2a1.8,1.8,0,0,1,.08-.21,12.11,12.11,0,0,1,9.62,9.08l-.72-.66H172c.46.47.9.94,1.33,1.42h-.87c-.52-.47-1.06-.92-1.61-1.36l-.82.09c.47.44.94.88,1.39,1.33q-.42,0-.84.09c-.54-.43-1.1-.84-1.67-1.24l-.79.17c.5.4,1,.81,1.45,1.22-.28.06-.55.11-.81.18q-.84-.58-1.71-1.11l-.76.25q.76.54,1.5,1.11L167,136c-.57-.34-1.15-.67-1.74-1-.24.1-.48.2-.72.32.52.32,1,.65,1.53,1l-.74.32c-.57-.3-1.16-.57-1.76-.83l-.68.38c.53.29,1,.58,1.57.89l-.68.38h0c-.58-.25-1.18-.48-1.78-.69l0,0c-.21.14-.41.29-.61.44l0,0c.54.24,1.07.49,1.59.76l-.65.46c-.58-.2-1.18-.38-1.78-.54l-.58.52c.54.2,1.07.41,1.6.63-.21.18-.41.35-.6.54-.59-.16-1.18-.29-1.78-.4-.18.19-.36.39-.53.59.54.15,1.07.32,1.61.5-.19.19-.37.39-.55.6-.58-.11-1.17-.19-1.76-.25l-.48.65c.54.1,1.07.23,1.6.37-.16.21-.33.43-.49.66-.57-.06-1.15-.09-1.72-.1-.15.24-.28.47-.42.71.53.06,1.06.14,1.58.23-.15.24-.29.48-.43.72-.56,0-1.12,0-1.68.07-.12.25-.24.5-.35.76.51,0,1,0,1.55.09-.13.25-.25.51-.36.77-.55.05-1.1.13-1.64.23-.1.27-.19.54-.28.81.5,0,1-.06,1.51-.06C156.15,146.93,156.05,147.2,156,147.48Zm5.82,1.7a12,12,0,0,1-4.74-1c-.22-.5-.44-1-.63-1.51.1-.26.2-.53.32-.79.28.61.57,1.2.88,1.78.09-.24.18-.47.28-.71-.26-.66-.5-1.34-.72-2l.39-.74c.24.61.5,1.22.77,1.81.11-.22.22-.45.34-.66-.21-.67-.41-1.35-.59-2,.15-.24.3-.46.45-.68.21.61.42,1.22.66,1.82.13-.2.26-.41.4-.61-.18-.67-.33-1.34-.46-2l.51-.62c.16.62.34,1.24.54,1.84.14-.19.29-.37.45-.56-.13-.66-.23-1.34-.32-2l.56-.56c.13.62.26,1.23.42,1.84l.5-.51c-.08-.66-.14-1.32-.18-2l.61-.49q.12.91.3,1.83c.17-.16.36-.3.54-.45,0-.65-.05-1.3,0-2l.68-.44c0,.61.1,1.21.17,1.81l.59-.38c0-.64,0-1.28.1-1.91.23-.13.46-.24.7-.36,0,.59,0,1.19,0,1.78l.63-.32q.09-.93.24-1.86l.74-.28c0,.58-.07,1.16-.08,1.73l.66-.25c.1-.6.23-1.2.37-1.79l.78-.2q-.12.83-.21,1.68l.7-.19c.15-.58.31-1.14.51-1.7.26-.05.54-.1.81-.13-.13.53-.24,1.07-.34,1.61l.73-.12c.19-.54.4-1.08.64-1.61l.84-.05c-.17.51-.33,1-.46,1.54l.75,0c.23-.51.49-1,.77-1.5h.33c.06.35.09.69.12,1-.06.15-.11.29-.17.43h.19c0,.13,0,.26,0,.39A12.08,12.08,0,0,1,161.78,149.18Zm-98.54,48.2h6.51v4.14h140.5v-4.14h6.51v-2.17H63.24Zm4.42-6.88V192H80.47V190.5c-3.18-.29-3.61-.72-3.61-4.2v-6.19h.81a2.89,2.89,0,0,1,2.8,1.86c1.23,2.21,2.38,4.5,3.48,6.24,1.7,2.68,3.36,3.87,8.7,4.12.51,0,1,0,1.28,0l.25-1.36a6.18,6.18,0,0,1-2.59-1.82,35.69,35.69,0,0,1-3.27-4.58c-1.23-2-2.84-4.8-3.43-6,2.84-1.19,5.3-3.18,5.3-6.92A6.46,6.46,0,0,0,87.31,166c-1.7-1.19-3.87-1.62-7.56-1.62H67.82v1.49c3.1.3,3.49.72,3.49,4.12V186.3C71.31,189.78,70.84,190.21,67.66,190.5Zm9.2-22.4c0-.9.09-1.32.39-1.57a2.82,2.82,0,0,1,1.91-.43c2.37,0,5,1.66,5,6.15a5.5,5.5,0,0,1-6.19,6.2H76.86Zm98.23,22.61V192H193.7c.29-1.09,1.06-4.41,1.28-6.06l-1.28-.25a14,14,0,0,1-2,3.57c-.88.92-2.19,1.17-4,1.17a9.76,9.76,0,0,1-3.29-.36c-.73-.37-.87-1.28-.87-3v-6.31h2.44c3.1,0,3.54.15,4.05,2.78h1.32v-7.37h-1.32c-.51,2.55-1,2.73-4.05,2.73h-2.44v-7.73c0-1.2.14-1.28,1.49-1.28h1.76c2,0,3,.26,3.64.91a7.67,7.67,0,0,1,1.5,3.14l1.31-.18c-.14-2.26-.33-4.82-.36-5.47H175.6v1.27c2.6.22,3,.41,3,3.58v14C178.56,190.24,178.2,190.46,175.09,190.71Zm29.32.18c-4.08,0-6.58-4.76-7.43-7.47l-1.49.46a50.32,50.32,0,0,0,1.24,7.22,21.19,21.19,0,0,0,2.58.93,15.28,15.28,0,0,0,4.29.6c6.2,0,10.31-3.78,10.31-8.62,0-4.2-3-6.58-7.51-8.74-3.73-1.87-5.26-3.23-5.26-5.56a4,4,0,0,1,4.12-4.2c3.48,0,5.05,3.14,5.94,5.81l1.44-.34c-.34-2.63-.64-4.5-.81-6.07a17.46,17.46,0,0,0-5.89-1.14c-6,0-9.72,3.65-9.72,8.31,0,4.08,3,6.37,7.38,8.58,3.18,1.7,5.05,3.27,5.05,5.77C208.65,189.1,207,190.89,204.41,190.89ZM130.2,169.33c2.64,0,5.29,1.28,6.42,5.62l1.27-.25c-.24-2.3-.48-4-.79-6a25.87,25.87,0,0,0-6.24-1c-8.2,0-13.62,5.22-13.62,12.7,0,5.8,3.81,12.11,12.93,12.11a31.52,31.52,0,0,0,6.38-.95,45.83,45.83,0,0,0,1.92-5.8l-1.2-.59c-1.75,3.69-3.88,5.62-6.72,5.62-4.67,0-8.06-4.41-8.06-11.12C122.49,174.33,125.23,169.33,130.2,169.33Zm19.16.22v-1.27H139v1.27c2.65.26,3,.51,3,3.62V187.1c0,3.1-.36,3.36-2.9,3.61V192h10.58v-1.28c-2.73-.25-3.05-.51-3.05-3.61v-6.57c.53-.07,1,.15,1.74,1.28,2.51,3.76,5.45,8,7,10.18h7.11v-1.28c-1.41-.22-2.37-.84-3.82-2.7-2.55-3.32-5.17-7-7.43-10.47,1.59-1.71,3.08-3.46,5.17-5.43a8.16,8.16,0,0,1,5.59-2.56v-1.27h-9.2v1.27l.63.11c1.67.22,1.74.73.89,1.9a50.78,50.78,0,0,1-5,5.87,6.49,6.49,0,0,1-2.69,1.94v-6.2C146.56,170.06,146.85,169.81,149.36,169.55Zm13.84,21.16V192h11v-1.28c-2.7-.25-3-.51-3-3.57v-14c0-3.11.33-3.36,3-3.62v-1.27h-11v1.27c2.7.26,3,.51,3,3.62v14C166.23,190.2,165.9,190.46,163.2,190.71ZM104,192.54c6.51,0,11.89-4.78,11.89-12.66,0-7.23-5.17-12.11-11.44-12.11h0c-7.93,0-12.16,6.13-12.16,12.4C92.2,187.17,97,192.54,104,192.54Zm-.24-23.28h0c4,0,6.79,4.38,6.79,11.64,0,6.71-2.66,10.11-6,10.11-4.43,0-7.07-5.29-7.07-11.53S100.24,169.26,103.71,169.26Z"/><path class="cls-2" d="M190,165.55,179.88,152l-4.35.71-3.4-6.23a14.58,14.58,0,0,1-1.87,1.73l2.53,4.5-4.19-3.41a14,14,0,0,1-12.23.69l-.29-.13-.23-.1-.47-.23h0a13,13,0,0,1-1.14-.66l-.1-.06h0a14,14,0,0,1-6.3-11.67c0-.34,0-.67,0-1h0c0-.35.06-.7.11-1.05h0a13.4,13.4,0,0,1,.33-1.58l0-.09h0q.1-.39.24-.78l-1.78-1.49-2.63,2.51L143,127.52l-2.74,4.41-1.91-2.74-12.16,10.73-2.62-2.39-6.44,8L116,144.45l-5.61,5.84,8.94-14.9,8,1.9L140,120.6l9.07,10.75a14.21,14.21,0,0,1,1.54-2.61l-10.55-12.19-13.77,17.76-8-2.2-12.58,20.38-3.39-.65-1.85,2.74-2.57-.24-5.78,11.21h13.63l38.41-29.21L111.3,165.55h2.53l30.7-22.06-25.35,22.06h2.54l25.91-16.93-20.32,16.93H130l22.81-13.35-17.47,13.35h2.92L161,153.27l-17.55,12.28ZM178.27,154.7l2.38,3-5.48-2.27Zm-76.9,2.74,2-3.46,2.5.72Z"/><path class="cls-3" d="M89.64,138.15a20.57,20.57,0,0,1,2.27,2.54,26.33,26.33,0,0,1-1.41,4.18c-2.68,5.66-6.89,6.55-9.73,5.21-3.66-1.74-4.63-6.31-2.22-11.4A21.66,21.66,0,0,1,80.87,135c1.07.27,2,.51,3.16.9l-.25.84a4.24,4.24,0,0,0-4.63,2.68c-1.47,3.09.18,5.95,2.8,7.19,3.29,1.56,6.45.48,7.83-2.42.83-1.76.51-3.53-.78-5.47Z"/><path class="cls-3" d="M90.07,122.66c2.94-3.08,7.28-3.8,10.11-1.1,3.1,3,2.46,7.38-.59,10.58-3.25,3.41-7.61,3.78-10.36,1.16-2.47-2.34-2.89-6.72.82-10.62Zm.26.9c-1.62,1.71-1.37,4.51,1.11,6.87s5.76,3,7.84.83c1.54-1.62,1.46-4.2-1.18-6.71-2.85-2.71-5.88-3-7.75-1Z"/><path class="cls-3" d="M116.88,115.48c.24.82.76,2.79.86,3.35l-10,5.54-.34-.6c1.73-1.11,1.87-1.35,1.06-2.8l-3.66-6.64c-.82-1.48-1.08-1.47-2.72-.73l-.33-.61,6.31-3.48.33.61c-1.52,1-1.65,1.2-.83,2.69l3.73,6.75c.45.82.71,1.08,1.23,1a6.22,6.22,0,0,0,1.63-.7,3.45,3.45,0,0,0,1.78-1.75,6.36,6.36,0,0,0,.17-2.42Z"/><path class="cls-3" d="M126.87,102.64c4.18-.82,8.13,1.1,8.89,4.94.83,4.19-2.25,7.44-6.6,8.3-4.62.91-8.39-1.31-9.12-5-.66-3.34,1.51-7.15,6.8-8.19Zm-.31.89c-2.31.45-3.72,2.89-3.06,6.25s3,5.78,5.92,5.2c2.19-.43,3.62-2.59,2.91-6.16-.76-3.86-3.09-5.82-5.74-5.3Z"/><path class="cls-3" d="M154.51,116.12c-.15,0-.42-.07-.7-.11-2.93-.49-3.77-1.16-4.55-2.51-.5-.88-1-2-1.54-3.13a1.63,1.63,0,0,0-1.44-1.06l-.44-.06-.37,2.87c-.2,1.6,0,1.83,1.74,2.19l-.09.69-7.05-.9.09-.69c1.77.09,2.05-.08,2.25-1.69l1-7.53c.2-1.57,0-1.79-1.67-2.15l.08-.69,6.57.84a8.13,8.13,0,0,1,4.06,1.28,2.91,2.91,0,0,1,1.25,2.82c-.22,1.72-1.69,2.47-3.32,2.82.25.61,1,2,1.53,3a16.51,16.51,0,0,0,1.53,2.35,3.45,3.45,0,0,0,1.32,1Zm-8-7.56a3.84,3.84,0,0,0,2.35-.23,2.92,2.92,0,0,0-1-5.39,1.81,1.81,0,0,0-1.08.06c-.17.1-.25.29-.3.7l-.61,4.79Z"/><path class="cls-3" d="M165.3,120.63l.31-.63c1.32.45,1.53.29,1.57-.66,0-.64.09-1.54.13-2.42l-4.07-2c-.5.44-1.09,1-1.69,1.53s-.79,1,.68,1.89l-.3.63-4.75-2.3.33-.61c1.47.53,1.81.46,3.24-.7l8.77-7,1.19.29c-.15,3.77-.33,7.51-.44,11.24,0,1.91.13,2.28,1.4,3.06l-.3.63Zm2.35-9.46-.06,0c-1.22,1-2.37,2-3.54,3l3.31,1.6Z"/><path class="cls-3" d="M188.32,121.6c2.06,2.1,3.31,4.08,3.5,6a5.26,5.26,0,0,1-1.54,4.41,6,6,0,0,1-5.84,1.62,13.38,13.38,0,0,1-6.17-3.95L174,125.39l.49-.48c1.4,1.23,1.67,1.3,2.87.12l5.39-5.29c1.22-1.19,1.15-1.43.08-2.72l.5-.48Zm-8.64,5.6c-1,1-1.12,1.6,0,2.77,2.2,2.26,5.27,2.28,7.79-.19a5.47,5.47,0,0,0,1.83-4.23,5.82,5.82,0,0,0-1.81-3.6,2.86,2.86,0,0,0-1.24-.87c-.28,0-.55.18-1,.58Z"/><path class="cls-3" d="M202.24,140.8c1.85,3.84,1,8.15-2.56,9.85-3.85,1.85-7.76-.32-9.68-4.32-2-4.24-.83-8.45,2.59-10.09,3.07-1.48,7.31-.32,9.64,4.54Zm-.93-.07c-1-2.13-3.73-2.89-6.82-1.41s-4.86,4.32-3.56,7c1,2,3.41,2.85,6.7,1.28,3.54-1.7,4.86-4.45,3.69-6.89Z"/><path class="cls-3" d="M76.28,190a3.82,3.82,0,0,1-.47-1.39,13.91,13.91,0,0,1-.14-2.28V168.1a5.89,5.89,0,0,1,.11-1.3,2.2,2.2,0,0,1,.68-1.17l0,0H71.19a2.62,2.62,0,0,1,.73.82,3.64,3.64,0,0,1,.45,1.36A13.38,13.38,0,0,1,72.5,170V186.3a11.94,11.94,0,0,1-.19,2.54,3.16,3.16,0,0,1-1.11,1.89l-.09.07H77A2.71,2.71,0,0,1,76.28,190Zm14.45,0a35.67,35.67,0,0,1-3.4-4.75h0c-1.26-2-2.87-4.83-3.51-6.14L83.27,178l1.16-.48a8.79,8.79,0,0,0,3.28-2.19,5.76,5.76,0,0,0-1-8.27l0,0h0A6.76,6.76,0,0,0,84,165.93a14.82,14.82,0,0,0-1.9-.26,5.89,5.89,0,0,1,1.27,1,7.72,7.72,0,0,1,2,5.59,9.28,9.28,0,0,1-.56,3.33,6.32,6.32,0,0,1-1.9,2.63,5.77,5.77,0,0,1-3,1.3l.1.06a4.81,4.81,0,0,1,1.53,1.83c1.24,2.24,2.39,4.52,3.44,6.17a6.43,6.43,0,0,0,2.52,2.55,11.49,11.49,0,0,0,4.41,1A11.44,11.44,0,0,1,90.73,190Z"/><path class="cls-3" d="M157.61,188.74c-2.56-3.34-5.18-7-7.46-10.52l0,0a10.38,10.38,0,0,1-1.9,1.64,5.25,5.25,0,0,1,1.07,1.26c2.32,3.47,5,7.39,6.6,9.65h3.69A11.56,11.56,0,0,1,157.61,188.74Zm-12.13.38a13.33,13.33,0,0,1-.11-2V173.17a13,13,0,0,1,.13-2.22,3.07,3.07,0,0,1,.65-1.48H142.3a2.24,2.24,0,0,1,.31.43,3.27,3.27,0,0,1,.4,1.25,13.33,13.33,0,0,1,.11,2V187.1a11.37,11.37,0,0,1-.15,2.24,3,3,0,0,1-.67,1.46h3.9a2.53,2.53,0,0,1-.31-.42A3.59,3.59,0,0,1,145.48,189.12Z"/><path class="cls-3" d="M170.07,170.93a3,3,0,0,1,.69-1.46h-4.17a2.17,2.17,0,0,1,.31.42,3.6,3.6,0,0,1,.41,1.25,13.55,13.55,0,0,1,.11,2v14a11.27,11.27,0,0,1-.15,2.22,2.94,2.94,0,0,1-.67,1.44h4.15a3.08,3.08,0,0,1-.3-.41,3.62,3.62,0,0,1-.42-1.25,13.26,13.26,0,0,1-.1-2v-14A12.29,12.29,0,0,1,170.07,170.93Z"/><path class="cls-3" d="M182.91,190.37a3,3,0,0,1-.45-1,9.08,9.08,0,0,1-.2-2.31v-15.9a5.16,5.16,0,0,1,0-.79,2.08,2.08,0,0,1,.33-.9H179a2.22,2.22,0,0,1,.25.35,3.62,3.62,0,0,1,.42,1.25,13.82,13.82,0,0,1,.11,2.06v14a10.19,10.19,0,0,1-.17,2.26,3,3,0,0,1-.71,1.4h4.43A2.62,2.62,0,0,1,182.91,190.37Z"/><path class="cls-3" d="M211,179.7a17.88,17.88,0,0,0-5.1-3.37,16.35,16.35,0,0,1-4.35-2.83,5.21,5.21,0,0,1-1.57-3.79,5.37,5.37,0,0,1,1.5-3.84h0a7.66,7.66,0,0,0-1.85,1.2,6.57,6.57,0,0,0-2.2,5,5.7,5.7,0,0,0,1.72,4.17,18.26,18.26,0,0,0,5,3.34h0a15.48,15.48,0,0,1,4,2.81,5.67,5.67,0,0,1,1.65,4,5.77,5.77,0,0,1-1.44,4,8.26,8.26,0,0,0,1.9-1.22,6.73,6.73,0,0,0,2.42-5.22A5.94,5.94,0,0,0,211,179.7Z"/><path class="cls-3" d="M98.34,188.18a17.68,17.68,0,0,1-2-8.7,15.19,15.19,0,0,1,2-8.12,7.91,7.91,0,0,1,1-1.32,9.87,9.87,0,0,0-3.13,2.36,11.74,11.74,0,0,0-2.81,7.77,11.57,11.57,0,0,0,3,8,9.73,9.73,0,0,0,4.28,2.68A8.75,8.75,0,0,1,98.34,188.18ZM111.62,172a9.81,9.81,0,0,0-3.86-2.44,8.43,8.43,0,0,1,1.89,2.23,18,18,0,0,1,2.08,9.16,15.3,15.3,0,0,1-1.94,8.21,6.72,6.72,0,0,1-.78,1,9.89,9.89,0,0,0,2.48-1.83,11.64,11.64,0,0,0,3.15-8.44A11.09,11.09,0,0,0,111.62,172Z"/><path class="cls-3" d="M123.81,188.48a14.71,14.71,0,0,1-2.51-8.78,14.06,14.06,0,0,1,2.2-7.87,8.87,8.87,0,0,1,1.63-1.83,11.25,11.25,0,0,0-3.34,2.14,11.67,11.67,0,0,0-.62,15.71,10.35,10.35,0,0,0,5.31,3.07A8.84,8.84,0,0,1,123.81,188.48Z"/></svg>