<svg id="Layer_1" data-name="Layer 1" xmlns="http://www.w3.org/2000/svg" viewBox="0 0 1000 1000"><defs><style>.cls-1{fill:#336;}.cls-1,.cls-2{fill-rule:evenodd;}.cls-2{fill:#c4ced4;}</style></defs><title>Colorado-Rockies-Logo</title><path class="cls-1" d="M429.77,126.46c-70.59,0-130.84,25.86-172.81,71.5-42.6,46.39-67,109.53-67,185.59,0,52.49,15.21,111.79,49.92,159s90.67,81.38,172.18,81.38c1.41,0,2.75-.11,4.15-.14v148.3c0,54.86-12,66.13-62.49,66.13v35.34H581.57V838.18c-46.89,0-64.33-6.75-64.33-62.37V675.11h31.87S666.55,873.56,669.74,873.55c8.32,0,140.26-.09,140.26-.09V838.31s-26.51,4.36-51.17-17.14c-25.53-25.11-72.16-157.06-110.68-165.74,14.12-7.1,103-27.8,103.38-123.87C751.13,427.69,654.94,394,558.72,394c-20.44,0-57.71,1.51-95.59,3.76-48.09,3-72.74,5.26-109.37,8.26v35.33c51.66,0,62.49,12,62.49,68.39V577c-71.19-15-117.94-94.25-117.94-205.61,0-117.89,55.39-200.78,136.3-200.78,30.44,0,57.19,12.16,78.5,34.22s36.52,54,43.22,92.79h28.59l-5.45-159H556.92c-2.41,7.62-5.46,10.65-11,10.65-15.19,0-51.08-22.82-116.19-22.82h0Zm87.47,303.65h29.45c58.31,0,89,39.08,89,98.43,0,77.42-31.25,111.24-118.45,109.74V613.46c2.28-.09,4.59-.22,6.82-.22,7.33,0,14,0,19.48,1.53a68.31,68.31,0,0,1,17.64,4.55l1.86-5.31c17.62-51.72,32.24-108,37.1-151.38h-28.6q-21.81,58.47-54.3,87.64V430.11h0Z"/><path class="cls-2" d="M338.82,174.07S215.3,222.47,215.18,379.88C215,541.14,334.26,571.6,334.26,571.6s-61.39-77.09-61.2-200.82c.22-133.21,65.76-196.72,65.76-196.72Zm154,257.64-51.91,3.59V838.08h51.91V431.7Zm133.15,3.53s34.25,21.88,34.21,99.23c0,76.63-35.78,98.17-35.78,98.17s96.79-19.93,96.53-99c-.26-89.81-95-98.35-95-98.35Zm-.07,228.15s-7.31,2.89-17.35,5.74c-11,3.17-33.56,6.74-33.56,6.74,30.73,42.84,97.61,162.43,97.61,162.43l74,.17s-15.44-12.28-37-55.48c-20-47.91-57.49-106.45-83.7-119.64Z"/></svg>