<svg id="Layer_1" data-name="Layer 1" xmlns="http://www.w3.org/2000/svg" viewBox="0 0 280 300"><defs><style>.cls-1{fill:#0e1840;}.cls-2{fill:#fff;}</style></defs><title>detroit d logo</title><rect class="cls-1" x="62.76" y="72.76" width="154.49" height="154.49"/><path class="cls-2" d="M88.34,79.2c20.76,18.3,48.2,18.3,72.82,5.63,4.93,9.86,14.08,19.17,22.06,22.17-3.59,3.34-4.82,4.92-5.17,9.85v57.69c.18,6.34,1.41,8.8,6.33,14.41-14.59,2.49-27.09,9.52-34.47,21.84-12-10.39-26-13.8-37.44-12.46C92.74,200.67,86.08,222.67,86,222.42c-1.84-3.9,0-21.49,12-30.85,11.53-9,29.49-10.37,48.06-1.19,5.27-4.58,11.25-8.09,16.18-9.5V109.81l-7-7c-23.93,8.44-58.41,1.58-69.67-22.87-1.58-3.44.76-2.53,2.82-.71"/><path class="cls-2" d="M115.78,124.59c0-6.51,3.86-14.56,9.85-19.35,1.76-1.41-4.8-4.28-7.92-1.59-8.17,7.1-13,11.08-14,19.91-6.73.5-13.94,5.42-16.23,10-2.6,5.22,1.25,5.32,3.87,3.53,3.34-2.29,8.09-3.17,12.14-3v6.54c-6.73.5-13.36,5.43-15.65,10-2.6,5.21,1.25,5.31,3.87,3.52a20,20,0,0,1,11.79-3.34v19.7a17.3,17.3,0,0,1-6.16,13.72c-2.29,2.12-1,4.32,2.29,3a25.43,25.43,0,0,0,16.18-23.75"/><path class="cls-2" d="M123.52,170.5a17.3,17.3,0,0,1-6.16,13.72c-2.28,2.11-1.72,4,1.59,2.64,7.91-3.17,16.88-11.79,16.88-24.28v-38c0-6.51.52-14.91,6.51-19.7,1.76-1.41-.93-3.93-4-1.24-8.18,7.1-14.78,12.32-14.74,22.37"/><path class="cls-2" d="M134.43,132.33c7.56,3.34,21.81,3.34,30.08,0v-6c-8.27,3.34-22.52,3.34-30.08,0"/><path class="cls-2" d="M134.43,150.62c7.56-3.34,21.81-3.34,30.08,0v6c-8.27-3.34-22.52-3.34-30.08,0"/><path class="cls-2" d="M127,116.14A28.58,28.58,0,0,0,116,114.3l-2.29,5.53a18.42,18.42,0,0,1,12,.71"/><path class="cls-2" d="M114.68,167.69c3.34.52,7.92.52,10.2-.18l-.66-5.1c-2.28.7-6.86.7-10.2.17"/><path class="cls-2" d="M186.61,199.83h-2v5.3H183v-5.3h-2v-1.28h5.59m8.39,6.58h-1.44v-5.3l-1.93,5.3h-.85l-1.94-5.3v5.3h-1.43v-6.58h2.31l1.48,3.9,1.49-3.9H195Z"/></svg>