<?xml version="1.0" encoding="utf-8"?>
<!-- Generator: Adobe Illustrator 23.0.1, SVG Export Plug-In . SVG Version: 6.00 Build 0)  -->
<svg version="1.1" id="Layer_1" xmlns="http://www.w3.org/2000/svg" xmlns:xlink="http://www.w3.org/1999/xlink" x="0px" y="0px"
	 viewBox="0 0 1000 1000" style="enable-background:new 0 0 1000 1000;" xml:space="preserve">
<style type="text/css">
	.st0{fill-rule:evenodd;clip-rule:evenodd;fill:#0C2C56;}
</style>
<g>
	<g>
		<path class="st0" d="M215.2,80.2c-3.7-0.2-4.8,3.5-0.2,13.5c33.9,73.8,104.5,119.7,183.7,140.1c-45.6,39.6-72.5,62.9-78.5,113
			c-39,2.9-80.8,31.5-94,58c-15.1,30.2,7.2,30.8,22.4,20.4c19.4-13.3,46.9-18.4,70.3-17.3l0,37.9c-39,2.9-77.4,31.5-90.7,58
			c-15.1,30.2,7.3,30.8,22.4,20.4c19.4-13.3,44.8-20.4,68.3-19.4v114.2c0,44.8-22.4,67.3-35.7,79.5c-13.2,12.2-5.9,25,13.3,17.3
			c40.3-16.1,82.2-54.3,91.7-112.5c15.4,1.9,33.9,2.1,46.9,0v15.7c0,44.8-22.4,67.3-35.7,79.5L399,699c-42.9,3.7-81.3,18.2-111.8,42
			c-69.5,54.3-80.2,156.3-69.5,178.8c0.7,1.5,39.2-126.1,153.6-139.6c66.3-7.8,147.6,12,217,72.2C631,780.9,703.4,740.2,788,725.8
			c-28.6-32.5-35.7-46.7-36.7-83.5V307.8c2.1-28.6,9.2-37.7,30-57.1c-46.3-17.3-99.3-71.4-127.8-128.5
			c-142.7,73.4-301.8,73.4-422.1-32.6C225.3,84.4,219,80.4,215.2,80.2L215.2,80.2z M618.7,226.3l40.8,40.8v100.2
			c-45.8,13.8-111.7,13.3-152.9-1.5v-13.1c0-35.5,3-80.4,32.2-108.8C566.6,241,593.7,235.1,618.7,226.3L618.7,226.3z M444.9,242.8
			c19.6,2.5,39.4,3.6,59,3.3c-21.5,18.8-39.9,36.2-52.2,56.5c-16.3-5.4-31.3-8.6-45.9-9.4C415.2,274.2,428.6,256.5,444.9,242.8
			L444.9,242.8z M406.7,321.5c12-0.1,23.7,1.8,34,5.5c-3.2,10.4-5.3,21.5-5.2,34.1l-0.2,211.9c-11.5,2.5-29.2,2.8-44.9,1.3V352.7
			c0-9.7,1.5-20.1,4.3-30.5C398.7,321.7,402.7,321.5,406.7,321.5L406.7,321.5z M506.6,400.4c41.2,14.8,107.2,15.3,152.9,1.5v97.4
			c-45.8-13.8-111.7-13.3-152.9,1.5V400.4z M581.3,524c27.4-0.3,55.3,3.1,78.2,10V679c-28.6,8.1-63.2,28.5-93.8,55
			c-44.3-21.9-87.9-33.3-128.6-35.6c36.6-24.6,69.5-67.9,69.5-125.5v-37.5C527.2,528.1,554,524.2,581.3,524L581.3,524z"/>
	</g>
</g>
</svg>
