<?xml version="1.0" encoding="utf-8"?>
<!-- Generator: Adobe Illustrator 23.0.1, SVG Export Plug-In . SVG Version: 6.00 Build 0)  -->
<svg version="1.1" id="Layer_1" xmlns="http://www.w3.org/2000/svg" xmlns:xlink="http://www.w3.org/1999/xlink" x="0px" y="0px"
	 viewBox="0 0 1000 1000" style="enable-background:new 0 0 1000 1000;" xml:space="preserve">
<style type="text/css">
	.st0{fill:#182A53;}
	.st1{fill:#1A2D58;}
	.st2{fill:#E95E24;}
	.st3{fill:#F28420;}
	.st4{fill:#EB7023;}
	.st5{fill:#FFFFFF;}
	.st6{fill:#CAC9C9;}
</style>
<g>
	<g>
		<path class="st0" d="M883,500c0,211.5-171.5,382.9-383,382.9c-211.5,0-383-171.5-383-382.9s171.5-382.9,383-382.9
			C711.5,117.1,883,288.5,883,500"/>
		<path class="st1" d="M817.9,824.2h-5.3v-20.5l-7.5,20.5H800l-7.2-20.5v20.5h-5.3v-25.7h9.1l6,16.8l6.3-16.8h9.1v25.7H817.9z
			 M782.6,803h-7.8v21.1h-5.3V803h-7.8v-4.6h20.8V803z"/>
		<path class="st2" d="M498.5,136.4c-201.3,0-364.6,163.4-364.6,364.9c0,201.5,163.3,364.9,364.6,364.9
			c201.3,0,364.8-163.3,364.8-364.9C863.4,299.8,699.8,136.4,498.5,136.4 M498.5,150.9c193.7,0,350.6,156.8,350.6,350.4
			c0,193.5-156.9,350.4-350.6,350.4c-193.8,0-350.4-156.9-350.4-350.4C148.1,307.7,304.8,150.9,498.5,150.9"/>
		<path class="st2" d="M499.5,267.2c-128.6,0-233.1,104.3-233.1,233.2s104.5,233.3,233.1,233.3c128.6,0,233.2-104.5,233.2-233.3
			S628.1,267.2,499.5,267.2 M499.5,281.6c121.1,0,218.9,97.9,218.9,218.7s-97.8,218.8-218.9,218.8c-121,0-218.9-98-218.9-218.8
			S378.5,281.6,499.5,281.6"/>
		<polygon class="st3" points="499.9,270.5 448.1,428.5 282.5,428.5 417.8,526.7 365.6,684.9 499.9,586.6 634.6,684.9 583,527 
			719.9,428.5 550.5,428.5 		"/>
		<polygon class="st2" points="683.5,440.4 547,440.4 550.5,428.5 499.9,270.5 499.9,500 365.6,684.9 499.9,586.6 634.6,684.9 
			583,527 719.9,428.5 		"/>
		<polygon class="st4" points="417.8,526.7 432.3,522 319.7,441.5 282.5,428.5 		"/>
		<polygon class="st0" points="600.6,580 593.8,558.7 593.8,577.6 		"/>
		<polygon class="st0" points="399.3,582.3 406.2,561 406.2,579.9 		"/>
		<polygon class="st5" points="376.2,587.9 376.2,625.5 483.8,625.5 483.8,587.9 454.1,577.3 454.1,531.6 545.8,531.6 545.8,577.3 
			516.1,587.9 516.1,625.5 623.8,625.5 623.8,587.9 594.1,577.3 594.1,437.8 623.8,427.2 623.8,389.5 516.1,389.5 516.1,427.2 
			545.8,437.8 545.8,483.5 454,483.5 454,437.8 483.7,427.2 483.7,389.6 460.7,389.6 376.1,389.6 376.1,427.2 405.8,437.8 
			405.8,502.6 405.8,517.1 405.8,577.3 		"/>
		<polygon class="st6" points="623.8,427.2 623.8,389.5 614.3,399.1 614.3,420.4 584.6,431 584.6,584 594.2,577.3 594.2,517.1 
			594.2,438.9 594.2,437.8 		"/>
		<polygon class="st6" points="623.8,587.9 614.3,594.6 614.3,615.9 525.8,615.9 516.2,625.5 623.8,625.5 		"/>
		<polygon class="st6" points="454.1,531.6 475,531.6 545.9,531.6 555.5,522.1 444.6,522.1 444.6,584 454.1,577.3 454.1,560.5 		"/>
		<polygon class="st6" points="483.8,597.2 483.8,587.9 474.2,594.6 474.2,615.9 385.8,615.9 376.2,625.5 384.2,625.5 407.1,625.5 
			444.9,625.5 483.8,625.5 		"/>
		<polygon class="st6" points="415.5,431.1 385.7,420.5 376.2,427.2 405.9,437.9 		"/>
		<polygon class="st6" points="525.8,420.4 516.2,427.2 545.9,437.8 555.5,431.1 		"/>
		<polygon class="st6" points="483.9,427.2 483.9,389.5 474.3,399.1 474.3,420.4 444.6,431 444.6,493 454.2,483.4 454.2,437.8 		"/>
		<path class="st5" d="M649.9,779.4l-13.5,6.9l-2.5-0.9l-21-41.6l0.8-2.5l13.5-6.8l2.5,0.8l21,41.6L649.9,779.4z M626.3,721.6
			l-22.3,11.3l-3.9,11.8l25.4,50.5l11.8,3.9l22.3-11.3l3.9-11.8l-25.4-50.5L626.3,721.6z"/>
		<polygon class="st5" points="433,768.2 441.7,769.6 445.8,761.5 452.9,762.6 445.2,812.6 439.9,814.1 438.5,823.3 460.1,826.7 
			461.5,817.5 456.9,814.5 464.7,764.4 471.9,765.5 473.3,774.5 482,775.8 485.2,755.6 436.1,748 		"/>
		<polygon class="st5" points="362.7,726 351.3,748.7 355.2,760.5 372.7,769.3 373.6,771.8 366.6,785.7 364.1,786.5 349.1,779 
			349.8,771.6 341.8,767.6 333.4,784.4 363.2,799.3 375,795.4 386.4,772.7 382.5,760.9 364.9,752.1 364.1,749.6 371.1,735.7 
			373.6,734.9 388.6,742.4 387.9,749.8 395.9,753.8 404.3,737 374.5,722.1 		"/>
		<polygon class="st5" points="709.9,694.7 695.9,708.5 693.3,708.5 682.4,697.3 682.4,694.7 694.4,683 701.1,686 707.5,679.7 
			694.3,666.4 670.6,689.7 670.6,702.2 688.4,720.3 700.8,720.3 714.8,706.5 717.4,706.5 728.3,717.6 728.3,720.2 716.4,732 
			709.7,728.9 703.3,735.3 716.4,748.6 740.2,725.2 740.2,712.8 722.3,694.7 		"/>
		<path class="st5" d="M552.3,781.1l-16.3,2.6l-3-19l16.4-2.6l2.1,1.5l2.4,15.3L552.3,781.1z M568.9,808.8l-8.8-18.3l6.2-8.5
			l-3.9-25.1l-10.1-7.3l-37.9,6l1.4,9.2l5.3,1.5l8,50.2l-4.6,3.1l1.5,9.2l21.6-3.4l-1.5-9.2l-5.3-1.5l-3-19.2l10.7-1.7l8.4,17.5
			l-3.8,2.6l1.4,9.2l21.6-3.4l-1.5-9.2L568.9,808.8z"/>
		<path class="st5" d="M285.9,706.6l25.2-18.4l3.5,3.4l-17.9,25.6L285.9,706.6z M312.2,672.7l-51.1,37.4l-5.1-1.8l-6.5,6.6
			l15.6,15.3l6.5-6.7l-1.9-5.1l6.5-4.7l13.6,13.3l-4.6,6.7l-5.1-1.8l-6.5,6.6l15.6,15.3l6.5-6.6l-1.9-5.1l36.4-51.8L312.2,672.7z"/>
		<polygon class="st5" points="274.9,357.3 282.3,363 295.7,345.7 288.4,340 283.5,342.5 268.1,330.6 279.4,316.1 294.8,328 
			293.5,333.4 300.9,339.1 314.3,321.9 307,316.1 302,318.7 261.9,287.4 263.2,282.1 255.8,276.4 242.4,293.6 249.7,299.4 
			254.6,296.8 270,308.8 258.7,323.3 243.3,311.3 244.6,306 237.2,300.2 223.8,317.5 231.2,323.3 236,320.7 276.2,351.9 		"/>
		<path class="st5" d="M672.1,234.2l2.5-0.4l12.5,8.6l0.4,2.6L661,283.3l-2.5,0.5l-12.5-8.6l-0.5-2.6L672.1,234.2z M655.7,296.3
			l12.3-2.2l32.1-46.4l-2.2-12.3l-20.5-14.3l-12.3,2.3L633,269.8l2.2,12.3L655.7,296.3z"/>
		<path class="st5" d="M312.6,242.5l12.5-8.6l2.6,0.5l26.6,38.3l-0.5,2.6l-12.4,8.6l-2.6-0.5l-26.6-38.3L312.6,242.5z M344,296.4
			l20.5-14.3l2.2-12.2l-32.2-46.4l-12.2-2.2l-20.5,14.2l-2.2,12.3l32.2,46.4L344,296.4z"/>
		<polygon class="st5" points="384.7,202.3 400.7,253.5 411.7,259.2 435.6,251.8 441.4,240.7 425.3,189.5 429.4,185.8 426.6,176.9 
			405.7,183.5 408.5,192.4 414,193.1 428.6,239.6 427.3,241.9 412.9,246.5 410.6,245.3 396,198.7 400.1,195 397.3,186.1 
			376.4,192.7 379.2,201.6 		"/>
		<polygon class="st5" points="568.3,243.2 565.5,252.1 586.4,258.6 589.1,249.8 585.1,246.1 600.1,197.8 607.1,199.9 607.1,209 
			615.5,211.6 621.6,192 574.2,177.2 568.1,196.8 576.5,199.4 581.7,192 588.7,194.2 573.6,242.5 568.2,243.2 		"/>
		<polygon class="st5" points="521.1,235 521.1,209.6 512.3,200.8 492.7,200.8 490.8,199 490.8,183.4 492.7,181.6 509.5,181.6 
			512.1,188.4 521.1,188.4 521.1,169.7 487.7,169.7 479,178.5 479,203.9 487.7,212.7 507.4,212.7 509.2,214.5 509.2,230.1 
			507.4,231.9 490.6,231.9 487.9,225.1 479,225.1 479,243.8 512.3,243.8 		"/>
		<polygon class="st5" points="763,300.6 755.7,306.3 757,311.7 729.6,332.9 755.1,290.4 743.5,275.5 736.2,281.3 737.4,286.6 
			697.3,317.9 692.4,315.4 685,321.1 698.5,338.3 705.9,332.6 704.6,327.3 731.9,305.9 706.5,348.5 715,359.5 764.2,321 
			769.1,323.6 776.5,317.8 		"/>
	</g>
</g>
</svg>
