<?xml version="1.0" encoding="utf-8"?>
<!-- Generator: Adobe Illustrator 23.0.1, SVG Export Plug-In . SVG Version: 6.00 Build 0)  -->
<svg version="1.1" id="Layer_1" xmlns="http://www.w3.org/2000/svg" xmlns:xlink="http://www.w3.org/1999/xlink" x="0px" y="0px"
	 viewBox="0 0 1000 1000" style="enable-background:new 0 0 1000 1000;" xml:space="preserve">
<style type="text/css">
	.st0{fill-rule:evenodd;clip-rule:evenodd;fill:#004687;}
	.st1{fill-rule:evenodd;clip-rule:evenodd;fill:#C09A5B;}
	.st2{fill-rule:evenodd;clip-rule:evenodd;}
	.st3{fill-rule:evenodd;clip-rule:evenodd;fill:#FFFFFF;}
</style>
<g>
	<path class="st0" d="M353.1,260.4V511l132.3,77.5L617.8,511V260.4H353.1L353.1,260.4z M664.1,505.9c-9.7,0.3-19,10.1-18.8,27.1
		c0,0-0.1,94.6,0,103.8c0.1,9.2,0,12.5,0.3,14.5c0.2,1.3,0.5,2.5,0.7,3.7c-2,1.8-4,3.7-6.1,5.4c-14.9,12.6-17.4,8.2-18.8-3.2l0-70.9
		l-24.2,6.2c0,0-0.2,2.3-0.1,5.3c-3.2-3-9.4-3.7-14.1-3.6c-28.5,0.7-50.3,48.3-42.6,84.7c-5,5.7-12.1,12.2-20,19.3l0.1-84.1
		l-24.5,6.8l-0.2,63.6c0,1.1-0.1,3.5-0.1,6.9c-3.2,12.1-12.9,18.7-18,17.9c-5.2-0.8-6.7-9.6-6.6-13.8l0-68l-23.2,5.9
		c0.6,27.1-10.2,38.8-22.4,43.3c-3.9-15.4-13.1-27.6-27.7-29.9c-7.2-1.1-13.3,0.8-17.7,4.3c-32.1,10.4-38.3,63.3-24.7,85.3
		c8,13.4,18.5,16.3,24.2,16.8c33.5,3.3,49.8-31.9,48-62.8c8.4-2.7,15.4-7.6,19.6-14l-0.5,20.1c0.1,13.4,1.8,33.1,17.2,33.2
		c11.7,0,22.9-8.5,32.2-19.1c0,3.1,0,6.4,0,9.8c-16,15.4-31.1,32.6-37.3,50.6c-0.4,1.2-0.8,2.4-1.1,3.6c-27,7.3-49.7,13.2-63.6,16.3
		C310,809.8,285.9,833,282.1,861.8c29.4-32.9,63.8-20.1,73.6-14.2c2.3-5.1,14.5-22.7,44.1-34c17.9-6.9,36.6-13.6,55.7-20.3
		c-0.1,24.4,11,49.6,34.2,45.7c17.9-3,31.1-15,30.8-62.5l0-2.7c99.9-32.3,199.6-60,268.8-83.9c35.9-12.4,28.3-55.2-3.5-67.7
		c2.1-9,1.8-18.9-0.9-28.6c-9.1-33.2-2.3-44.7,4-50.3c-74-9.7-74.2,102.3-108.5,114c-5.8,2-11.4-3-12-10.4c48-57.3,39.7-137-2.3-141
		C665.4,505.9,664.7,505.9,664.1,505.9L664.1,505.9L664.1,505.9z M674.5,525.8c4.2,0.3,9.7,5.7,12.8,16.6c6.9,24.6-0.1,57-18.4,85.4
		c0-27.4,0.1-86.6,0-93.8C668.7,528.4,671.2,525.6,674.5,525.8L674.5,525.8z M760.7,559.5c-9,8.7-0.2,33.5,1,53.9l0,1.9
		c-7.1-1.1-14.7-1.1-25,0.1c-8.2,1-14.1,3.8-18.1,7.5C728.4,598.2,743.7,562.3,760.7,559.5L760.7,559.5z M282.6,597.5
		c-2.4,0-4.8,0-7.2,0.2c-81,5.3-104.4,78.3-78.1,84.7c20,4.8,30.1-14.1,31.8-27.7c-5,4.7-16.3,8.2-14.3-7.9
		c1.9-15.3,27.7-35,60.5-37.5c22.9-1.6,41.5,18.2,42.6,40.8c0.9,19.9-11.8,38.3-30.4,46c-8-2.2-17.3-2-28.3,1
		c-0.6-41.8,4.2-65.1,16.8-78.6c-7.3,2.5-15.3,6.9-22,14.8c-23.8,28.5-15.6,111.2-21.4,138.9c-2.6,15-19.1,22.9-26.7,9.6
		c-16.9,24.9,11.4,45.8,33.7,34c10.6-5.6,25.9-20.5,23-56.6c-1.6-20.2-2.7-37.7-3.1-53c6.8-1.6,18-1.2,26.1,14
		c9.2,17.2,32.1,93.1,86.5,65.9c12.5-6.2,16-15.2,17.8-24.4c0.7-3.4-1.4-3.6-3.7-1.1c-13.2,12.3-39,14.9-55.8-17.9
		c-8.7-17-17.1-30.5-27.6-38.8c26.9-9.8,45.2-32.7,43.8-57.1C344.7,619.2,318.1,597.9,282.6,597.5L282.6,597.5L282.6,597.5z
		 M585.6,606.1c6.1-0.5,11.7,3.5,12.9,8.7c0.1,17-0.4,32.7-0.3,37.9c0.1,13.9-10.1,30.7-21.1,30c-16.2-0.9-17.1-42.9-5.1-66.1
		C575.7,609.5,580.8,606.4,585.6,606.1z M752.9,625.8c1.1-0.1,2.3-0.1,3.4,0h0.2c1.2,0,2.4,0.2,3.6,0.4l0.1,0l0.5,0.1
		c-1.8,8.5-6.6,14.9-16.1,16.8c-21,4.3-20.2-13.8-4.1-15.9c3.2-0.4,5.9-0.8,8.4-1.1l0.2,0c1.2-0.1,2.4-0.2,3.5-0.3L752.9,625.8
		L752.9,625.8z M781.6,633.5l3.7,1.7c25.1,11.5,19.2,39,0.3,44.6c-50.2,15-165.3,48.3-265.1,76.1l0-43c8.8-7.8,17.6-15.2,25.5-22.2
		c2.9,8.3,33.2,24.5,52.3-10.6c8.8,27.4,39.8-5.3,47-10.9c1.8-1.4,3.4-2.8,5.1-4.2c10.1,14.7,32.3,10.8,44.9-1.4
		c6.6-6.4,13.2-17.1,17.6-27c1.1,10.5,12.8,20.5,33.9,18.2C764.1,652.9,775.4,644.7,781.6,633.5L781.6,633.5z M394.3,660.4
		c1.1,0,2.3,0.3,3.5,0.7c6,2.3,10.4,9.3,13,18c-8.7-0.1-16.1-2.4-18.2-3.6C381.5,669.2,386.5,660.1,394.3,660.4L394.3,660.4z
		 M377.3,678.4c2.1,2.7,4.8,5.2,8.6,7.4c8.9,5.1,18.4,7.3,27.3,7.1c1.3,18.6-4.7,38.3-20,38.3C370.2,731.3,370.5,691.9,377.3,678.4z
		 M496.1,736.1c0,9.5,0,18.8-0.1,26.5c-7.7,2.1-15.4,4.2-22.8,6.2l0.4-0.9C478.4,756.9,486.5,746.3,496.1,736.1z M496,781.9
		c0,29.8-1.3,38.7-9.5,40.8c-10.4,2.7-16.8-14.3-17-31.9C478.3,787.8,487.2,784.8,496,781.9L496,781.9z"/>
	<path class="st1" d="M358.5,138.2c-8.7,0-15.7,7-15.7,15.7c0,8.7,7,15.7,15.7,15.7c8.7,0,15.7-7,15.7-15.7
		C374.2,145.2,367.2,138.2,358.5,138.2z M444,138.2c-8.7,0-15.7,7-15.7,15.7c0,8.7,7,15.7,15.7,15.7c8.7,0,15.7-7,15.7-15.7
		C459.7,145.2,452.7,138.2,444,138.2z M528.5,138.2c-8.7,0-15.7,7-15.7,15.7c0,8.7,7,15.7,15.7,15.7c8.7,0,15.7-7,15.7-15.7
		C544.2,145.2,537.1,138.2,528.5,138.2z M612.8,138.2c-8.7,0-15.7,7-15.7,15.7c0,8.7,7,15.7,15.7,15.7c8.7,0,15.7-7,15.7-15.7
		C628.5,145.2,621.5,138.2,612.8,138.2z M352.9,179.7v73.6h265v-73.4H608c0,20.7-16.8,37.5-37.4,37.5c-20.7,0-37.3-16.8-37.3-37.5
		h-10c0,20.7-16.8,37.5-37.4,37.5c-20.7,0-37.3-16.9-37.3-37.6l-10.1,0.1c0,20.7-16.7,37.5-37.4,37.5c-20.7,0-37.3-16.9-37.3-37.5
		L352.9,179.7z"/>
	<path class="st2" d="M492.5,306.7v2.2H489c-5.4,0-12.2,0-21.1,11.1c-11.5,14.2-34.3,48.6-34.3,48.6c2.7,0.2,5.3,0.8,7.8,1.5
		c6.2-9.3,22.6-33.4,31.7-44.8c9-11.1,15.7-11.1,21.1-11.1h3.5v-7.5L492.5,306.7L492.5,306.7L492.5,306.7z M432,306.7v2.3
		c-8.1,0.6-16.3,5.5-16.3,18.8l0,44.6l3.9-2.2l1.4-1.9l0-35.2c0-13.3,8.2-18.2,16.3-18.8v-7.6L432,306.7L432,306.7z M447.8,309v5.1
		c2.5,0,5,0,7.2,0.4C455.4,310.5,452.1,309.3,447.8,309z M380.9,309.1v5.1l2.9,0.1c3.5,0,7.1,0.7,10.2,2.6
		C391,311.8,386,309.6,380.9,309.1z M592.4,349.4v51.1h-3c0.3,2.1,0.5,3.9,0.6,5.3h7.6v-56.4L592.4,349.4z M548,357.5
		c-31.8-1-37.8,35.8-38.2,60.9c-0.6,37,9.3,58.8,22.2,69.7c-10.2-12.1-17.4-32.7-16.9-64.5c0.4-25.1,6.4-61.9,38.2-60.9
		c8.9,0.3,15.6,3.1,20.8,7.3C568.6,363.1,560.4,357.8,548,357.5L548,357.5L548,357.5z M431.6,380.1c-7.3-0.3-12.9,3.8-15.9,6.7
		l-0.2,14.7l0.1,26.1c0,8.5,3.5,13.6,8,16.3c-1.7-2.8-2.8-6.3-2.8-11l-0.1-26.1l0.2-14.7c4.7-4.5,16-12.4,30.4-0.3
		C444.1,383.4,437.3,380.4,431.6,380.1L431.6,380.1z M463.9,385.3c13.6,15.3,21,36.2,26.7,40.3l-0.2-2
		C484.5,413.7,476.5,396.6,463.9,385.3z M436.8,451.5v2.4h-55.9v5.3h61.2v-7.4l-2.8-0.1C438.4,451.6,437.6,451.6,436.8,451.5
		L436.8,451.5z M594.9,462.4l0.2,0.3c4.1,7.3-3.3,42.1-42.1,42.1c-17.1,0-30.7-6.8-42-17.1c12.3,13.2,27.5,22.4,47.3,22.4
		c38.8,0,46.2-34.7,42.1-42C598.7,465.1,596.8,463.3,594.9,462.4L594.9,462.4z M584,472c0.3,0.9,0.9,1.8,1.6,2.6
		C585.6,473.3,585,472.5,584,472z"/>
	<path class="st3" d="M595.1,462.7l-0.2-0.3c-9.1-15.3-25.1,2.7-11.1,9.4l0.2,0.1c1,0.6,1.6,1.3,1.6,2.6c0,0.9-0.2,2.1-0.9,3.8
		c-7.1,18-33.3,26.2-52.8,9.8c-12.9-10.9-22.8-32.7-22.2-69.7c0.5-25.1,6.4-61.9,38.2-60.9c12.4,0.4,20.6,5.7,26,12.5
		c8.4,10.5,10.3,24.6,10.7,30.5h7.6v-56.4h-8.9c-1.6,6.5-2.7,12.4-14.5,9.1c-11.9-3.3-17-2.7-21.1-2.9
		c-36.5-1.6-61.4,39.4-57.5,73.3l0.2,2c-5.7-4.1-13.1-25-26.7-40.3c-6.1-6.9-13.5-12.6-22.5-15.2c-2.5-0.7-5.1-1.3-7.8-1.5
		c0,0,22.8-34.4,34.3-48.6c9-11.1,15.7-11.1,21.1-11.1h3.5v-7.5h-50v7.5c1.8,0,3.6,0,5.3,0.1c4.3,0.3,7.5,1.5,7.2,5.5
		c-0.1,1.4-0.5,3-1.6,5.1c-4.2,8.3-23.6,36-32.5,48.6l-1.4,1.9l-3.9,2.2l0-44.6c0-13.3,8.2-18.2,16.3-18.8v-7.6h-56.4v7.4l2.9,0.1
		c0.8,0,1.6,0.1,2.4,0.1c5.1,0.5,10.1,2.7,13.1,7.7c1.7,2.8,2.8,6.3,2.8,11v99.7c0,14.3-9.6,18.9-18.3,18.8l-2.9,0.1v7.4h61.2v-7.4
		l-2.9-0.1c-3.5,0-7.1-0.8-10.2-2.6c-4.6-2.7-8-7.7-8-16.3l-0.1-26.1l0.2-14.7c5.2-5.1,18.9-14.2,35.7,5c0.5,0.5,0.9,1,1.4,1.5
		c16.1,19.6,29.6,68.3,58.2,94.4c11.3,10.3,25,17.1,42,17.1C591.8,504.8,599.2,470.1,595.1,462.7"/>
</g>
</svg>
