<?xml version="1.0" encoding="utf-8"?>
<!-- Generator: Adobe Illustrator 23.0.1, SVG Export Plug-In . SVG Version: 6.00 Build 0)  -->
<svg version="1.1" id="Layer_1" xmlns="http://www.w3.org/2000/svg" xmlns:xlink="http://www.w3.org/1999/xlink" x="0px" y="0px"
	 viewBox="0 0 1000 1000" style="enable-background:new 0 0 1000 1000;" xml:space="preserve">
<style type="text/css">
	.st0{fill:#0069B2;}
	.st1{fill:#FFFFFF;}
	.st2{fill:#EF414F;}
</style>
<g id="XMLID_70_">
	<g id="XMLID_73_">
		<path id="XMLID_111_" class="st0" d="M144.7,537.4c-2.5,23.3,1.8,38.7,19.8,46.3c13.3,5.4,28.5-6.2,32.9-12.9
			c7.3-10.9,8.2-22.3,8.2-22.3s-25.2,24.3-39.8,2.2c-8.4-12.7-3.8-50.9,45.4-77.6c49.4-26.7,73.9-4.9,73.9-4.9
			c29.6,16.7,31.1,66.5,22.2,105.2c-6.5,28.9-20.2,59.2-51.2,64.8c-11.6,2.2-16.2,0.9-26.7,0.4c2.4-5.3,11.1-24.7,13.4-55.6
			c7.4-90.8,17.3-99.5,26.2-113.2c-67,34.1-47.8,150.2-60.9,169.3c-49.2,7.3-60.5,47.4-50.7,53.8c7.4,4.7,40.9-4.4,63.6-41.1
			c16.5-0.4,69.2,14.2,101.4-44.3c21.8-39.6,28.5-108.8-6.2-143C266.2,415.2,152.5,465.5,144.7,537.4 M174.6,673.3
			c-2.4-5.8,13.6-19.8,27.8-20.3C197.2,662.6,177,679.1,174.6,673.3"/>
		<path id="XMLID_100_" class="st0" d="M826.8,409.2c-7.3-20.7-34.9-16.7-42-10c0-27.4-13.8-34.7-28.2-51.4
			c-3.1-11.8,6-15.6,7.3-25.8c2.5-20.5-29.4-14.5-20.3,27.2c-3.8,19.4-24.5,79-35.2,80.7c-6.2,0.9-6.5-9.1-3.3-20.9
			c3.1-12,20.3-33.4,9.8-44.3c-6.2-6.4-17.6,3.1-27.8-2.5c0,0,0.4-8.5-2.4-11.8c-2.7-3.3-7.3-2-10.2,0.2c-7.8,6-8.2,22.3-4,30.7
			c-3.1,20.3-5.8,28.5-15.6,55.9c-10.2,28.2-34.5,41.6-39.8,24.5c48.3-46.5,37.6-64.5,30-70.7c-12.5-10.2-51,8.4-52.9,66.8
			c0,2.4,0.4,5.4,0.9,8.5c-3.8,4.5-10.5,12.7-18.9,24.3c4-26,9.4-63.8,11.3-77.6c0,0-9.6,6.2-20.3,7.4l-1.5,9.6
			c-10.4-15.6-58.5-0.9-56.7,75c-2.4,23.4-14.9,26-15.3,20.3c-1.6-27.8,15.6-109.4,21.4-139c0,0-11.4,6.4-20.2,6.5
			c0,0-14.9,75.2-15.3,75.4c-7.8-6.2-12.9-5.3-18.9-4c-18.2,4.2-32.2,29.6-33.1,45.8c-3.1,3.1-6.9,6-10.5,8
			c-2.4-9.6-6.7-18.5-16.5-21.6c-32.9-10-59.6,38.5-51,84.3c0,0,3.1,12.7,15.4,20.9c23.1,11.4,53.2-19.6,53.6-68.3
			c4.5-2.9,8.5-8.4,8.5-8.9c-2,14.7,2.5,42.3,19.1,44.9c17.8,2.5,27.8-18.9,30.5-27.8c2.2,5.4,7.6,10.2,14.4,9.8
			c15.3-0.5,20-20.2,22.9-28.3c13.4,21.4,35.4,1.6,40.1-11.1l-1.6,10.5c-12.4,14.9-35.4,51.8-35.4,51.8
			c-42.7,15.4-125.7,46.1-160,97.5c27.8-5.4,51.8,1.6,51.8,1.6c5.6-15.1,39.4-45.2,89.2-61.9c-12.2,24.7-9.8,61.2,11.1,60.9
			c36.1-0.7,48-62.9,53-86.5c32.2-13.8,89.4-36,149.3-61.6C765.2,500.5,844.7,460.6,826.8,409.2 M400.2,524c0,0-4,1.1-7.8,0.7
			c-6.2-0.7-10.7-3.6-11.3-6.4C378.1,504.4,399.5,506.4,400.2,524 M375,579.6c-12.5-2.4-12-35.6-3.5-50.1
			c5.6,10.2,20.2,11.3,29.1,9.8C401.3,553.8,390.3,582.6,375,579.6 M474,491.5c-0.2,2.9-3.3,27.4-4,30.2
			c-3.1,12.5-9.4,21.4-18.3,21.1c-15.1-0.5-8.4-64.7,13.3-62.5C469.3,480.6,474.7,483.5,474,491.5 M516.7,641
			c-10.9,2-5.3-25.8,3.3-39.1c11.1-4.2,20.5-8.7,20.5-8.7C534.7,620.4,529.9,638.6,516.7,641 M544.7,563.8c0,0-5.8,2.4-8.4,3.3
			c3.8-5.4,10.5-18.3,12-20.7C547.6,550.7,544.7,563.8,544.7,563.8 M633.1,405.7c12.4,6.4-9.1,32.2-18.9,42.9
			C615.7,424.6,627.7,402.8,633.1,405.7 M536.5,506.9c-16.7,3.1-11.3-61.8,13.4-64.7c4.7-0.5,9.6,5.3,8.7,14.7
			c-0.5,5.3-2,16.7-4.9,26C550.5,492.9,545.2,505.3,536.5,506.9 M806.4,444.1c-20.7,31.2-77.2,53-242,113c1.5-10.4,4-29.2,6.2-41.8
			c3.6-6.5,8-13.6,12.7-20.5l1.3-1.8c3.6-5.3,7.6-10.4,11.8-14.7c3.8,6.4,9.8,14.9,22,14.5c40.7-1.1,58.7-77.6,65-107.4
			c3.1,0.7,7.1,1.3,10,1.1c-2.9,9.6-25.8,61.4,4.5,70.1c30.2,8.7,48.7-74.5,54.1-92.5c18.3,21.3,13.6,43.4,4.4,48.1
			c-4.7,2.4-10.2-4.9-15.4,0.2c-8,7.4-2.7,20,8.2,22c15.6,2.5,25.8-8,36.3-18.9c3.3-3.3,15.4-10.7,22.9-5.4
			C819.5,417.7,811.3,436.6,806.4,444.1"/>
		<path id="XMLID_58_" class="st1" d="M634,250.2c12-7.3,21.3-18.5,25.6-32.5c4.5-14.2,3.5-28.7-2-41.4
			C632.6,191.6,622.4,223.3,634,250.2"/>
		<path id="XMLID_57_" class="st1" d="M585.2,256c6,2,12,2.9,18.2,2.9c7.8,0,15.4-1.6,22.3-4.4c-13.8-31.6-2-68.8,27.8-86.5
			c-7.1-11.4-18.2-20.5-32-24.9c-6-1.8-12-2.9-18.2-2.9c-8,0-15.8,1.6-22.7,4.5c6.5,15.3,7.4,32.2,2.4,48.1
			c-5.1,16-15.6,29.1-30,37.6C560.1,242.2,571.2,251.5,585.2,256"/>
		<path id="XMLID_56_" class="st1" d="M573.9,190.1c4.4-13.6,3.6-28-1.8-41.1c-11.6,7.3-20.7,18.5-25.2,32.3
			c-4.5,14-3.5,28.3,1.8,40.9C560.6,215,569.5,203.7,573.9,190.1"/>
		<path id="XMLID_92_" class="st2" d="M664.4,168.3c-8.4-16.3-22.5-28.3-40-34c-6.9-2.2-14-3.3-21.1-3.3
			c-29.8,0-56.1,19.1-65.2,47.6c-11.6,36,8.2,74.7,44.3,86.3c6.9,2.2,14,3.3,21.1,3.3c29.8,0,56.1-19.1,65.2-47.6
			C674.2,203.2,672.7,184.7,664.4,168.3 M659.6,217.7c-4.5,14-13.8,25.4-25.6,32.5c-11.6-27.1-1.5-58.7,23.8-73.9
			C663.1,189,664.2,203.7,659.6,217.7 M546.8,181.4c4.5-13.8,13.6-25.1,25.2-32.3c5.4,13.1,6.2,27.4,1.8,41.1
			c-4.4,13.6-13.3,24.9-25.2,32.2C543.4,209.7,542.5,195.4,546.8,181.4 M582.8,193c5.1-16,4.2-32.9-2.4-48.1
			c7.1-2.9,14.7-4.5,22.7-4.5c6.2,0,12.4,0.9,18.2,2.9c13.8,4.5,24.9,13.4,32,24.9c-29.6,17.6-41.6,54.9-27.8,86.5
			c-6.9,2.7-14.5,4.4-22.3,4.4c-6.2,0-12.4-0.9-18.2-2.9c-14-4.5-25.1-13.8-32.2-25.2C567.2,222.1,577.7,209,582.8,193"/>
		<path id="XMLID_51_" class="st2" d="M287.3,664.4c-2.2-1.3-5.1-0.4-6.4,1.8l-37.1,66.8c-1.3,2.2-0.4,5.1,1.8,6.4
			c0.7,0.4,1.5,0.5,2.2,0.5c1.6,0,3.3-0.9,4.2-2.4l37.2-66.8C290.3,668.6,289.6,665.7,287.3,664.4"/>
		<path id="XMLID_50_" class="st2" d="M397.7,474.8l71.6-128.2c1.3-2.2,0.4-5.1-1.8-6.4c-2.2-1.3-5.1-0.4-6.4,1.8l-71.6,128.2
			c-1.3,2.2-0.4,5.1,1.8,6.4c0.7,0.4,1.5,0.5,2.4,0.5C395.2,477.3,396.8,476.4,397.7,474.8"/>
		<path id="XMLID_49_" class="st2" d="M530.3,227.2c-2.2-1.3-5.1-0.4-6.4,1.8l-48.7,87.6c-1.3,2.2-0.4,5.1,1.8,6.4
			c0.7,0.4,1.5,0.5,2.2,0.5c1.6,0,3.3-0.9,4-2.4l48.5-87.4C533.4,231.3,532.5,228.4,530.3,227.2"/>
		<path id="XMLID_48_" class="st2" d="M367.9,687.3c-2.4-1.1-5.1,0-6.2,2.4l-25.2,57.6c-1.1,2.4,0,5.1,2.4,6.2
			c0.5,0.2,1.3,0.4,1.8,0.4c1.8,0,3.5-1.1,4.4-2.7l25.2-57.4C371.4,691.1,370.3,688.4,367.9,687.3"/>
		<path id="XMLID_47_" class="st2" d="M513.4,354.7c0.5,0.2,1.3,0.4,1.8,0.4c1.8,0,3.5-1.1,4.4-2.7l34.7-79.4c1.1-2.4,0-5.1-2.4-6.2
			c-2.4-1.1-5.1,0-6.2,2.4L511,348.7C510,350.9,511,353.6,513.4,354.7"/>
		<path id="XMLID_46_" class="st2" d="M449.7,698.7c-2.5-0.7-5.1,0.5-5.8,3.1l-49.8,161.1c-0.7,2.5,0.5,5.1,3.1,5.8
			c0.5,0.2,0.9,0.2,1.5,0.2c2,0,3.8-1.3,4.5-3.3l49.8-161.1C453.5,702,452.2,699.4,449.7,698.7"/>
		<path id="XMLID_45_" class="st2" d="M466.9,642.8c-2.5-0.7-5.1,0.5-5.8,3.1l-8.9,28.7c-0.7,2.5,0.5,5.1,3.1,5.8
			c0.5,0.2,0.9,0.2,1.5,0.2c2,0,3.8-1.3,4.5-3.3l8.9-28.7C470.7,646.2,469.5,643.5,466.9,642.8"/>
		<path id="XMLID_44_" class="st2" d="M579,280.2c-2.5-0.7-5.1,0.5-5.8,3.1l-36.9,119.3c-0.7,2.5,0.5,5.1,3.1,5.8
			c0.5,0.2,0.9,0.2,1.5,0.2c2,0,3.8-1.3,4.5-3.3L582.3,286C582.8,283.7,581.3,280.9,579,280.2"/>
		<path id="XMLID_43_" class="st2" d="M521.2,687.8c-2.5-0.5-5.1,1.1-5.6,3.5l-13.8,61.9c-0.5,2.5,1.1,5.1,3.6,5.6
			c0.4,0,0.7,0.2,1.1,0.2c2.2,0,4-1.5,4.5-3.6l13.8-61.9C525.2,690.9,523.8,688.4,521.2,687.8"/>
		<path id="XMLID_42_" class="st2" d="M589.7,598.6c-2.5-0.5-4.9,1.3-5.4,3.8l-17.4,90.3c-0.5,2.5,1.3,4.9,3.8,5.4
			c0.4,0,0.7,0,1.1,0c2.2,0,4-1.6,4.4-3.8l17.4-90.3C593.9,601.5,592.1,599,589.7,598.6"/>
		<path id="XMLID_41_" class="st2" d="M611.7,283.1c-2.5-0.5-5.1,1.1-5.6,3.5l-21.8,97.2c-0.5,2.5,1.1,5.1,3.6,5.6
			c0.4,0,0.7,0.2,1.1,0.2c2.2,0,4-1.5,4.5-3.6l21.8-97.2C615.7,286.2,614,283.7,611.7,283.1"/>
		<path id="XMLID_38_" class="st2" d="M650.6,261c-2.5-0.5-4.9,1.3-5.4,3.8l-17.8,97.4c-0.5,2.5,1.3,4.9,3.8,5.4c0.4,0,0.5,0,0.9,0
			c2.2,0,4.2-1.6,4.5-3.8l17.8-97.4C654.7,263.9,653.1,261.3,650.6,261"/>
		<path id="XMLID_77_" class="st0" d="M850.6,452.6c0-2.9-1.8-3.5-4.4-3.5h-5.4v11.1h2.4v-4.4h2l2.5,4.4h2.5l-2.7-4.4
			C849.5,455.7,850.6,454.6,850.6,452.6 M846.4,453.9h-3.1v-2.7h2.5c1.1,0,2.5,0,2.5,1.3C848.4,453.7,847.6,453.9,846.4,453.9"/>
		<path id="XMLID_74_" class="st0" d="M845.3,444.1c-6,0-10.7,4.7-10.7,10.7c0,6,4.7,10.7,10.7,10.7s10.7-4.7,10.7-10.7
			C856,448.8,851.3,444.1,845.3,444.1 M845.3,463.1c-4.5,0-8.4-3.6-8.4-8.4s3.6-8.4,8.4-8.4c4.5,0,8.4,3.6,8.4,8.4
			C853.6,459.7,850,463.1,845.3,463.1"/>
	</g>
</g>
</svg>
