<?xml version="1.0" encoding="utf-8"?>
<!-- Generator: Adobe Illustrator 23.0.1, SVG Export Plug-In . SVG Version: 6.00 Build 0)  -->
<svg version="1.1" id="Layer_1" xmlns="http://www.w3.org/2000/svg" xmlns:xlink="http://www.w3.org/1999/xlink" x="0px" y="0px"
	 viewBox="0 0 1000 1000" style="enable-background:new 0 0 1000 1000;" xml:space="preserve">
<style type="text/css">
	.st0{fill:#FFFFFF;}
	.st1{fill:#003263;}
	.st2{fill:#BA0021;}
	.st3{fill:#862633;}
	.st4{fill:#C4CED4;}
</style>
<g>
	<g>
		<path class="st0" d="M526.3,874.9H740c-19.8-13.4-37.2-37-45-63.8l-59.7-205.1c-6.5-22.1,4-44.1,20.9-59.1
			c-23.8-7.3-45-23.9-51.7-46.7l-33.4-114.8c47.6-15.9,78.6-44.1,78.6-76.8c0-42.8-53-77.8-126.6-87.8l-27.9-96h-31.3l-27.9,96
			c-73.7,10-126.7,45-126.7,87.8c0,32.7,31.1,60.9,78.7,76.8l-33.5,114.8c-6.6,22.8-27.8,39.4-51.6,46.7
			c16.8,14.9,27.3,37,20.9,59.1l-59.8,205.1c-7.9,26.8-25.2,50.3-44.9,63.8h213.7c-17.5-13.5-27-37-19.2-63.8l5.2-17.9h121.5
			l5.2,17.9C553.3,838,543.8,861.5,526.3,874.9L526.3,874.9z M461.1,648.1l18.4-63.4l18.4,63.4H461.1L461.1,648.1z"/>
		<path class="st1" d="M704,860.4c-10.2-13.4-18.3-28.9-23-45.1l-59.3-203.6c-9.4-32.3,8-55.3,10.3-59
			c-20.6-11.2-35.7-28.2-41.4-48.2l-36.1-123.9c51-13.6,85.7-40.6,85.7-71.7c0-39.4-55.8-72.3-129.7-79.6l-26.1-89.6h-9.4
			l-26.1,89.6c-74,7.3-129.8,40.2-129.8,79.6c0,31.1,34.8,58.1,85.7,71.7l-36.1,123.9c-5.8,20.1-20.8,37.1-41.5,48.2
			c2.3,3.7,19.8,26.6,10.3,59L278,815.3c-4.7,16.3-12.9,31.8-23.1,45.1h148c-12-26.4-5.7-45.6-0.3-63.7l5.3-18h143.4l5.3,18
			c5.2,18.1,11.5,37.3-0.4,63.7H704L704,860.4z M441.5,662.7l38-130.3l37.9,130.3H441.5z"/>
		<path class="st2" d="M518.8,340.7l-19-65.4l3.7,13c-7.8-0.4-15.8-0.7-24-0.7V330l113.9,390.7l26.2,89.6l45,27
			c-3.2-6.9-6-13.8-8.1-21.1l-56.7-194.2c-8.9-30.3-4-43.5,2.4-61.7c-17-13-28.4-30.1-33.9-49.3l-43-147.9l-0.1,0L518.8,340.7
			L518.8,340.7z M492.9,251.4l-13.4-45.7v45.5C484,251.1,488.4,251.2,492.9,251.4 M338.6,812.7l36.4,24.6
			c-1.9-12.3-0.1-28.3,3.4-39.8l12-41.8l-25-35L338.6,812.7L338.6,812.7z"/>
		<polyline class="st2" points="410.8,685.7 479.5,450.4 479.5,330 365.4,720.7 593.5,720.7 548,685.7 		"/>
		<polyline class="st3" points="479.5,450.4 548,685.7 593.5,720.7 479.5,330 		"/>
		<path class="st3" d="M664.7,837.3l-45-27l-26.2-89.6h-228L479.5,330v-42.4c8.2,0,16.2,0.3,24,0.7l-3.7-13c-1,0-2.1,0-3.1-0.1
			c-5.6-0.3-11.3-0.5-17.2-0.5c-6.9,0-13.7,0.3-20.3,0.6l-19.1,65.4h0.1l-6.6,22.5h-0.1L390.4,511c-5.5,19.2-16.7,36.2-33.8,49.3
			c6.4,18.3,11.3,31.4,2.4,61.7l-56.7,194.2c-2.1,7.2-4.9,14.2-8.2,21H375l-36.4-24.6l26.8-92l25,35h178l12.3,41.8
			c3.3,11.5,5.1,27.6,3.3,39.8L664.7,837.3L664.7,837.3z M479.5,205.6l-13.3,45.7c4.4-0.2,8.9-0.3,13.3-0.3L479.5,205.6L479.5,205.6
			z"/>
		<path class="st4" d="M440.2,340.7L440.2,340.7c-41.3-4.9-70.7-17.4-70.7-31.9c0-16.7,38.6-30.6,89.7-33.6
			c6.6-0.4,13.4-0.6,20.3-0.6c5.9,0,11.6,0.2,17.2,0.5c1,0.1,2.1,0.1,3.1,0.1c51,2.9,89.7,16.8,89.7,33.6c0,14.5-29.4,27-70.7,31.9
			h0l6.5,22.5l0.1,0c53.1-7.9,91.4-29.2,91.4-54.3c0-29.9-54.4-54.6-123.8-57.4c-4.5-0.2-8.8-0.3-13.4-0.3c-4.5,0-8.9,0.1-13.3,0.3
			c-69.6,2.9-123.9,27.5-123.9,57.4c0,25.1,38.1,46.4,91.3,54.4h0.1L440.2,340.7L440.2,340.7z"/>
		<path class="st1" d="M770.7,845.2c0-5.7-3.3-6.6-8.2-6.6h-10.3v21.2h4.4v-8.4h3.6l4.8,8.4h4.9l-5.1-8.4
			C768.8,851,770.7,849,770.7,845.2L770.7,845.2z M762.7,847.6h-5.9v-5.1h4.9c2.1,0,4.8,0,4.8,2.3C766.4,847,765,847.6,762.7,847.6
			L762.7,847.6z"/>
		<path class="st1" d="M760.7,828.9c-11.3,0-20.2,9.1-20.2,20.4c0,11.2,8.9,20.2,20.2,20.2c11.4,0,20.3-9,20.3-20.2
			C781,838,772.1,828.9,760.7,828.9L760.7,828.9z M760.7,865.2c-8.7,0-15.7-6.8-15.7-15.9c0-9.1,7-15.9,15.7-15.9
			c8.7,0,15.8,6.8,15.8,15.9C776.6,858.4,769.4,865.2,760.7,865.2L760.7,865.2z"/>
	</g>
</g>
</svg>
