<?xml version="1.0" encoding="utf-8"?>
<!-- Generator: Adobe Illustrator 23.0.1, SVG Export Plug-In . SVG Version: 6.00 Build 0)  -->
<svg version="1.1" id="Layer_1" xmlns="http://www.w3.org/2000/svg" xmlns:xlink="http://www.w3.org/1999/xlink" x="0px" y="0px"
	 viewBox="0 0 1000 1000" style="enable-background:new 0 0 1000 1000;" xml:space="preserve">
<style type="text/css">
	.st0{fill:#EF3340;}
	.st1{fill:#00A3E0;}
	.st2{fill:#41748D;}
</style>
<g>
	<g>
		<path class="st0" d="M528.8,535.4c20-27.1,47.4-64.1,72.9-97.3l0.2-0.2c45.9-54.7,75.2-81.5,111.8-102.5c11.7-6.5,24-12,36.6-16.5
			c-17.8,4.9-36.6,12.1-55.4,22.6c-3.8,2.2-7.5,4.4-11.2,6.7c-34.1,20.2-63.4,42.7-107.3,98.8c-0.4,0.5-0.8,1.1-1.2,1.6
			c-20.7,28.2-41.5,56.5-62.3,84.7l3.8,18.3C520.3,546.9,524.4,541.4,528.8,535.4 M415.2,596.7c4-3.3,8.1-6.4,12.2-9.5l-13.8-65.4
			l-8.3,27.3L415.2,596.7z M439,656.2c-2,2.9-2.5,4.3-2.7,6c0,0.2,0,0.4,0,0.5c-0.3,5.9-1.2,13.2-3.1,18.4c-0.1,0.2-0.1,0.4-0.2,0.6
			l-5.1-24.6l26.7,128l11.5-15.3l-24.7-116.9L439,656.2z M643.4,531l-23.9,32.1l-77.6,247.2l129,0l14.1-14.1l-123.7,0L643.4,531z
			 M277.9,816.4c-33.6,15.8-68.7,17.7-84,18.8c-6.2,0.5-12.4,0.6-18.5,0.7c23-18,41.2-35.5,53.3-60.4c3.8-7.4,7-15,9.7-22.8
			c4.4-12.7,47.7-152.9,78.6-252.9c-3.2,3.6-6.2,7.4-9,11.4c-7.2,10.4-15.1,21.6-19.8,33.6l-0.6,1.9c-0.1,0.2-0.2,0.5-0.3,0.8
			l-2.3,7.6l0,0l-2.5,8c-4.1,13.3-8.3,26.8-12.3,39.9l-2,6.4l-0.1-0.1c-22.7,73-41.3,132.7-43.9,140.6
			c-15.3,46.6-48.9,68.7-91.2,100.6c15.1,0.3,31.4,0.6,47-0.6c21.7-1.7,83-5.5,123.7-47.6c1.6-1.6,3.1-3.2,4.6-4.8
			c3.9-4.4,7.6-9,11-13.8c-1.2,1.5-2.5,3-3.8,4.5C304.5,800.6,291.4,809.6,277.9,816.4"/>
		<path class="st1" d="M419,841.5c-0.4-0.1-26.9-5.4-37.1-73.3c-6-40.5-5.7-53.8-7.2-65.7c-0.6-4.8-1.7-14.9-8.1-26.8l2.5-8.1l0,0
			l36.2-118.5l8.3-27.3l13.8,65.4c-4.1,3.1-8.2,6.2-12.2,9.5c-8.8,7.2-15.5,13.3-18.8,16c-5.5,4.4-9.4,7-13.1,8.4l-3.7,12.2
			c7.3-1.7,14.4-6.3,22.8-14c8.6-7.9,11.7-9.9,22.8-19.5c6-5.2,11.5-9.4,16.6-12.9L416.2,465c0,0-71.4,233.5-71.7,234.6
			c-3.7,12.9-15.1,52.1-39.6,79.3c-7.5,8.3-28.7,31.9-88.3,40c11.1-12.5,25.3-32.6,35.3-61.5c4.8-14.1,55.1-176.7,86-276.8
			c-7.5,5.8-14.5,12.2-20.8,19.3c-30.9,100.1-74.3,240.3-78.6,252.9c-2.7,7.8-5.9,15.4-9.7,22.8c-12.1,24.9-30.3,42.4-53.3,60.4
			c6.2,0,12.3-0.3,18.5-0.7c15.3-1.1,50.4-3,84-18.8c13.5-6.8,26.6-15.8,37.6-28c1.3-1.5,2.6-3,3.8-4.5c23.9-29.1,35-67.3,38.8-80.3
			c0.3-1.1,0.6-2,0.8-2.7l3.3-10.7c1.4,4.1,2.2,8.5,2.6,13.5c0,0,2.6,24.7,6.5,59.3c9.3,83.8,47,85.4,62.3,88.8
			C433.6,851.7,426.5,848.8,419,841.5 M833.8,304.8c-21.8,0-51.6,2.8-83.5,14c-12.7,4.4-24.9,9.9-36.6,16.5
			c-36.6,21-65.9,47.8-111.8,102.5l-0.2,0.2c-25.5,33.2-52.9,70.3-72.9,97.3c-4.5,6.1-8.5,11.5-12,16.2l-3.8-18.3l-27-128.7
			c-4.6,0.1-9.3,0.3-14.3,0.9l37.7,179.7l9.4-12.4c4.4-5.8,11.9-16,21.5-28.9c19.9-27,47.2-63.9,72.6-97
			c44.7-53.2,72.9-79.2,107.8-99.2c40.3-22.5,80.8-28.1,108.9-28.6c-29.4,27.2-51.1,64.1-66.1,112.1l-92.4,297.6
			c-2.9,10-4.9,17.6-5.9,25.1c-1.4,10.8-1.4,20,0.1,28.2l-84.9,0L681.4,456L473.3,735.9l-20.8-98.7c-3.9,5.1-7.6,10.3-11.2,15.6
			l24.7,116.9l153.6-206.6l23.9-32.1l-82.1,265.3l123.7,0c-2.6-6.5-2.9-7.6-3.6-9.6c-3.1-8.3-3.7-18.1-2-31
			c0.9-6.6,2.7-13.7,5.4-22.9l92.4-297.5c16.4-52.7,41.1-91,75.5-117.2c4.7-3.7,9.5-7.3,14.3-10.8C867,307.4,850,305,833.8,304.8"/>
		<path class="st2" d="M427,653.6c0.5-0.9,1-1.9,1.6-2.7l0,0c3.3-4.9,13-18.9,21.4-28.7l2.9-3.4l0.5-0.5l0.2-0.3
			c16.2-18.7,30.2-34.6,41.2-38.3c-0.2,0-0.3-0.1-0.5-0.1c-2.2-0.3-10.1-0.1-24.8,11.4c-7.2,6.1-16,14.8-26.8,26.9
			c-11.9,13.4-17.4,22.7-21.5,28c-3.1,4-4,6.1-4.6,9.8c-0.1,0.7-0.4,11.4-2.4,16.9c-1.5,4.2-7.8,13.2-8.1,13.8
			c-2.9,4.9-2.6,7.3-2.5,10c0.1,2.7-0.5,38.9,0.6,79.1c1,40.2,14.8,66,14.8,66l0,0v0c7.5,7.3,14.6,10.2,14.6,10.2
			c-7.2-12.6-19.2-48.7-20-76.5c-0.7-29-0.1-54.3-0.4-69.1c-0.1-3.3-0.1-6.5-0.2-9.8l0-0.9c-0.1-1.4-0.1-1.8,1.3-4.4
			c0.2-0.2,0.3-0.4,0.5-0.8c3.5-5.3,6.9-10.6,8.3-14.5c1.9-5.2,2.5-12.6,2.9-18.4c0-0.2,0-0.3,0-0.6
			C426.2,655.9,426.4,654.9,427,653.6L427,653.6z"/>
		<path class="st1" d="M270.2,603.1c-46.3-52.5-63.1-127.1-39.5-192.3c-4.1,0.2-8.1,0.3-11.9,0.6c-7,21.2-10.3,43.9-9.6,66.7
			c0,0.1,0.1,1.9,0.1,1.9c2.6,53.3,29.7,99.9,58.9,129.4l0.1,0.1C268.8,607.4,269.5,605.2,270.2,603.1"/>
		<path class="st2" d="M664.8,270.6l-110.5,19.9l110.8-20c0,0-111.3,40.7-135.7,50c-24.5,9.3-23.9,32.3-23.9,32.3l47.8-2.9
			c36.8-2.3,49.2,7.7,49.2,7.7l-86.3,9.2l-27.4,26.6c-70.1-0.6-221.7,56.4-206.3,169.7l2.5-8l0,0l2.3-7.6c0.1-0.2,0.2-0.5,0.3-0.8
			l0.6-1.9l3.2-10.3c0.8-2.7,1.7-5.3,2.5-7.7c2.4-8.7,5.7-17,9.9-25c18.8-36.2,56.9-59.6,84.5-72.4c27.1-12.6,57.7-21.3,83.5-23.9
			c4.8-0.5,9.5-0.8,14.3-0.9c0.6,0,1.2,0,1.7,0l5.5,0l29.6-28.9l104.4-11.2c-4-4.3-23.7-23.5-62.6-24.3c-3.8-0.1-7.8,0.1-12,0.4
			l-32.5,2c1.8-5.4,6.4-10.8,13.1-13.4c24.1-9.1,153.1-56.5,154.2-56.9l10.3-10.1L664.8,270.6z"/>
		<path class="st0" d="M243.2,479.4c0.5,11.7,2.3,23.4,5.2,34.8c-3.1-40.9,4-75.4,18.7-103.8c-3.8-0.1-7.7-0.1-11.5-0.1
			C246.3,431.8,242.1,455,243.2,479.4 M432.3,310.2c-1.1,0-2.2,0-3.3,0.1c-48.5,1.5-93.3,14.6-125.5,38.9c-5.1,3.9-10,8-14.7,12.5
			c-5.6,5.6-10.8,11.7-15.6,18.1c5.7-1,11.3-1.8,16.9-2.5C324.1,339.3,375.4,317.4,432.3,310.2"/>
		<path d="M553.3,349.9l-47.8,2.9c0,0-0.6-23,23.9-32.3c24.5-9.3,135.7-50,135.7-50l-110.8,20l-23.9,4.3c-19-0.7-34.3,1.7-34.3,1.7
			c-8.5-4.2-17.6-7.3-26.9-9.2c-2.7-0.7-5.4-1.2-8.2-1.7c-12.9-27.4-38.2-74.1-78.2-117.6c-10.9,32.3,4.5,53.9-16.8,98.3
			c-2.4,5-4.6,9.5-9.4,14.8c-18.4,20.2-28.6,22.6-47.3,35.2c-30.8,19.1-53,43.2-67.6,69.8c10.4-2.5,20.9-4.7,31.5-6.5
			c4.7-6.4,9.9-12.4,15.6-18.1c4.6-4.5,9.5-8.6,14.7-12.5c32.2-24.3,77.1-37.4,125.5-38.9c1.1,0,2.2,0,3.3-0.1
			c-57,7.2-108.2,29.1-142.2,67c41.1-5.3,75.7-4.2,96.3-1.3c-14.7,5.4-29.6,12.2-43.8,20.4c-8.7,5-17.1,10.6-25.1,16.7
			c-16.7-1.6-33.5-2.5-50.3-2.7c-14.7,28.4-21.9,62.9-18.7,103.8c-2.9-11.4-4.7-23.1-5.2-34.8c-1.1-24.3,3.1-47.5,12.4-69.1
			c-8.7,0-17.1,0.2-25,0.5c-23.6,65.2-6.8,139.8,39.5,192.3c4.1-13.2,8.3-26.7,12.3-39.9c-15.4-113.3,136.2-170.2,206.3-169.7
			l27.4-26.6l86.3-9.2C602.5,357.6,590.1,347.6,553.3,349.9 M394.1,210.3c0-0.5,0-1.9-0.1-3.2c20.8,28.2,36,55.6,44.4,72.1
			c-26.2,0.2-49,6.5-67.1,14.2C383.2,277.2,396.8,248.9,394.1,210.3 M493.3,353.5l-20.9,1.3c0,0,4.3-17.3,31.9-26.5
			C504.4,328.3,495.7,333.3,493.3,353.5"/>
		<path class="st1" d="M394,207c0,1.3,0,2.7,0.1,3.2c2.7,38.7-10.9,67-22.7,83.1c18.1-7.7,41-14.1,67.1-14.2
			C430,262.7,414.8,235.2,394,207"/>
		<path class="st2" d="M472.5,354.8l20.9-1.3c2.4-20.2,11-25.2,11-25.2C476.8,337.5,472.5,354.8,472.5,354.8 M255.6,410.3
			c3.8,0,7.6,0,11.5,0.1c15.9,0.2,32.8,1,50.3,2.7c8-6.1,16.4-11.7,25.1-16.7c-52.1-2.3-122.2,0.3-189,22.1
			c1.7-0.3,26.8-4.9,65.1-7.1c3.9-0.2,7.8-0.4,11.9-0.6C238.5,410.5,246.9,410.3,255.6,410.3"/>
		<path class="st1" d="M342.6,396.4c14.2-8.2,29.1-15,43.8-20.4c-20.6-2.9-55.2-4.1-96.3,1.3c-16.3,2.1-32.4,5.1-48.3,9
			c14.6-26.6,36.9-50.7,67.6-69.8c18.7-12.6,28.9-14.9,47.3-35.2c4.8-5.3,7-9.8,9.4-14.8c21.3-44.4,5.9-66.1,16.8-98.3
			c40,43.5,65.3,90.2,78.2,117.6c2.7,0.5,5.5,1.1,8.2,1.7c9.3,1.9,18.4,4.9,26.9,9.2c0,0,15.3-2.4,34.3-1.7l23.9-4.3l110.5-19.9
			l33-8.4l10.9-10.5l-179,32.1c-10.6-0.3-21.2,0.2-31.7,1.4c-8.6-4-17.7-6.9-27-8.7c-0.7-0.1-1.4-0.3-2.1-0.5
			c-13.7-28.3-38.3-72.2-77.3-114.6c-6.5-6.5-8.8-8.5-14.3-13.1c-2.3,5-5.5,16.9-5.5,16.9c-3.5,11.8-4.7,29-4.8,46
			c0.3,12.6-1.3,34.3-11.4,52.1c-6.9,11.6-17.4,21.4-33.2,32.1c-1.2,0.8-2.5,1.6-3.8,2.4c-7.9,4.7-21.3,12.3-31.4,20
			c-28.2,20.2-45.7,42.9-59.7,72.2c-24.2,6.8-49.2,16-73.8,28.5l0.1,0C220.5,396.7,290.5,394.1,342.6,396.4"/>
		<path d="M433.1,681.1c1.9-5.2,2.8-12.6,3.1-18.4c0-0.1,0-0.3,0-0.5c0.2-1.6,0.7-3.1,2.7-6c0.6-0.9,1.4-2,2.3-3.4
			c3.6-5.3,7.4-10.5,11.2-15.6l20.8,98.7L681.4,456L580.5,782.1l84.9,0c-1.5-8.2-1.6-17.4-0.1-28.2c1-7.5,3-15.1,5.9-25.1
			l92.4-297.6c15-48,36.7-84.9,66.1-112.1c-28.2,0.5-68.7,6.1-108.9,28.6c-34.9,20-63.1,46-107.8,99.2c-25.4,33.1-52.7,70-72.6,97
			c-9.5,12.9-17.1,23.1-21.5,28.9l-9.4,12.4l-37.7-179.7c-25.8,2.7-56.4,11.4-83.5,23.9c-27.6,12.8-65.7,36.3-84.5,72.4
			c-4.1,8-7.4,16.4-9.9,25c-0.8,2.4-1.6,5-2.5,7.7l-3.2,10.3c4.7-12,12.6-23.2,19.8-33.6c2.8-4,5.8-7.8,9-11.4
			c6.3-7.1,13.4-13.5,20.8-19.3c-30.9,100.1-81.2,262.8-86,276.9c-10,29-24.1,49-35.3,61.5c59.6-8.1,80.9-31.7,88.3-40
			c24.4-27.2,35.8-66.4,39.6-79.3c0.3-1.1,71.7-234.6,71.7-234.6l25.7,121.8c-5.1,3.5-10.6,7.7-16.6,12.9
			c-11.1,9.6-14.3,11.7-22.8,19.5c-8.5,7.8-15.5,12.3-22.8,14l-10.5,34.4l-2.5,8.1c6.4,11.9,7.5,22,8.1,26.8
			c1.5,12,1.1,25.3,7.2,65.7c10.1,67.9,36.7,73.2,37.1,73.3l0,0c0,0-13.8-25.8-14.8-66c-1-40.2-0.5-76.4-0.6-79.1
			c-0.1-2.7-0.5-5.1,2.5-10c0.3-0.6,6.6-9.6,8.1-13.8c2-5.5,2.3-16.2,2.4-16.9c0.6-3.7,1.5-5.9,4.6-9.8c4.1-5.3,9.6-14.6,21.5-28
			c10.8-12.2,19.7-20.8,26.8-26.9c14.8-11.5,22.6-11.7,24.8-11.4c0.2,0,0.3,0,0.5,0.1c-11,3.7-25,19.7-41.2,38.3l-0.2,0.3l-0.5,0.5
			l-2.9,3.4c-8.5,9.8-18.1,23.8-21.4,28.7l0,0c-0.4,0.5-0.7,1.1-1,1.6c-0.2,0.4-0.4,0.8-0.6,1.1l0,0l0.7,3.4l5.1,24.6
			C433,681.5,433,681.3,433.1,681.1"/>
		<path class="st1" d="M707.8,779.7L707.8,779.7l-2.8-8.6h-4.2v13.1h2.4v-10.5h0.1l3.3,10.4h2.3l3.4-10.4h0.1v10.4h2.4v-13.1h-4.2
			L707.8,779.7z M689.1,773.4h3.6v10.8h2.4v-10.8h3.6v-2.3h-9.5V773.4z"/>
	</g>
</g>
</svg>
