<?xml version="1.0" encoding="utf-8"?>
<!-- Generator: Adobe Illustrator 23.0.1, SVG Export Plug-In . SVG Version: 6.00 Build 0)  -->
<svg version="1.1" id="Layer_1" xmlns="http://www.w3.org/2000/svg" xmlns:xlink="http://www.w3.org/1999/xlink" x="0px" y="0px"
	 viewBox="0 0 1000 1000" style="enable-background:new 0 0 1000 1000;" xml:space="preserve">
<style type="text/css">
	.st0{fill:#FFFFFF;}
	.st1{fill:#09152F;}
	.st2{fill:#9F1D20;}
	.st3{fill:#8F3326;}
	.st4{fill:#AB823A;}
	.st5{fill:#B68F64;}
</style>
<g>
	<path class="st1" d="M292.8,500c0-55.1,21.6-106.5,60.2-145.2c38.6-39.1,90.6-60.2,145.2-60.2c55.1,0,106.5,21.1,145.7,60.2
		c38.6,38.6,60.2,90.1,60.2,145.2c0,113.2-92.1,205.4-205.9,205.4c-54.6,0-106.5-21.1-145.1-60.2C314.4,606.6,292.8,555.1,292.8,500
		L292.8,500z"/>
	<path class="st0" d="M298,500c0-53.5,20.6-104,58.7-141.5c38.1-38.1,88-58.7,141.5-58.7s104,20.6,142.1,58.7
		c37.6,37.6,58.7,88,58.7,141.5c0,110.7-90.1,200.2-200.7,200.2c-53.5,0-103.5-20.6-141.5-58.7C318.6,604,298,553.6,298,500L298,500
		z"/>
	<path class="st2" d="M498.2,362.6c-75.7,0-137.4,61.8-137.4,137.4c0,36.5,14.4,71.6,40.2,97.3c26.2,25.7,60.7,40.2,97.3,40.2
		c37.1,0,71.5-14.4,97.3-40.2c26.3-25.7,40.2-60.7,40.2-97.3c0-36.5-13.9-71-40.2-97.3C569.7,377,535.3,362.6,498.2,362.6
		L498.2,362.6z"/>
	<path class="st0" d="M498.2,367.8c-73.1,0-132.3,59.2-132.3,132.3s59.2,132.3,132.3,132.3S631,573.2,631,500.1
		C631,427,571.3,367.8,498.2,367.8L498.2,367.8z"/>
	<polygon class="st2" points="414.8,397.6 418.4,401.7 412.2,417.2 409.2,413.1 	"/>
	<path class="st2" d="M396.5,415.4l15.2-2.8l-3.6-4.1l-6.5,1.2C399.9,411.5,398.2,413.4,396.5,415.4L396.5,415.4z"/>
	<polygon class="st2" points="425.1,408.9 427.7,413.6 420.5,428.5 417.4,423.9 	"/>
	<polygon class="st2" points="400.4,421.3 403.5,425.4 420,423.9 416.9,419.7 	"/>
	<polygon class="st2" points="433.9,421.8 436.4,427 427.7,440.9 425.1,436.2 	"/>
	<polygon class="st2" points="408.1,431.1 411.2,435.7 427.7,436.2 424.6,431.6 	"/>
	<polygon class="st2" points="441.1,435.7 443.1,440.9 432.8,453.7 431.3,448.6 	"/>
	<polygon class="st2" points="414.8,442.4 416.9,447 433.9,449.1 431.3,443.9 	"/>
	<polygon class="st3" points="447.2,450.1 448.8,455.3 437.5,467.1 435.9,461.9 	"/>
	<polygon class="st2" points="420.5,453.7 422,458.9 438.5,462.5 436.4,457.3 	"/>
	<polygon class="st3" points="451.9,465 452.9,470.2 440,481 439,475.3 	"/>
	<polygon class="st3" points="424.6,466.1 425.6,471.2 441.6,476.4 440.6,471.2 	"/>
	<polygon class="st3" points="455,480 455,485.6 441.6,494.9 441.1,489.2 	"/>
	<polygon class="st3" points="427.7,478.4 428.2,483.6 443.1,490.3 442.6,485.1 	"/>
	<polygon class="st3" points="456,495.4 456,501.1 441.1,508.8 441.6,503.6 	"/>
	<polygon class="st3" points="429.2,490.8 429.2,496.4 443.6,504.7 443.6,499.5 	"/>
	<polygon class="st3" points="456,511.4 455,516.5 439.5,522.7 440.6,517.5 	"/>
	<polygon class="st3" points="429.7,503.6 429.2,509.3 442.6,519.1 443.1,513.4 	"/>
	<polygon class="st3" points="453.9,526.8 452.4,532 436.4,536.6 438,531.4 	"/>
	<polygon class="st3" points="428.7,516.5 427.7,521.7 440,533 441.1,527.8 	"/>
	<polygon class="st3" points="450.3,541.7 448.8,546.9 432.3,550 434.4,544.8 	"/>
	<polygon class="st3" points="426.1,529.4 424.6,534.5 435.9,546.9 437.5,541.7 	"/>
	<polygon class="st2" points="445.7,556.7 443.1,561.3 426.7,562.8 428.7,557.7 	"/>
	<polygon class="st2" points="423,541.2 420.5,546.4 430.3,559.7 432.3,555.1 	"/>
	<polygon class="st2" points="439,570.6 435.9,575.2 419.5,574.7 422.5,570 	"/>
	<polygon class="st2" points="417.9,553.1 415.3,558.2 423.6,572.6 426.1,567.5 	"/>
	<polygon class="st2" points="430.8,583.9 427.7,588.1 411.2,586 414.3,581.9 	"/>
	<polygon class="st2" points="411.7,564.4 408.6,569 415.3,583.9 418.4,579.8 	"/>
	<path class="st2" d="M421.5,596.3l-3.6,4.1l-8.3-2.2c-1.7-1.5-3.3-3.1-4.9-4.7l0.9-0.9L421.5,596.3L421.5,596.3z"/>
	<path class="st2" d="M404.5,575.2l-3.6,4.1l5,15.5c0.1,0.1,0.2,0.2,0.3,0.3l3.5-4L404.5,575.2L404.5,575.2z"/>
	<path class="st2" d="M581.9,602.7l-3.4-3.8l5.7-16l3.6,4.1l-5.4,15.3C582.2,602.4,582,602.6,581.9,602.7L581.9,602.7z"/>
	<path class="st2" d="M600.1,584.7l-14.9,2.8l3.6,4.1l6.2-1.2C596.8,588.6,598.5,586.7,600.1,584.7L600.1,584.7z"/>
	<polygon class="st2" points="571.8,591.2 568.7,586.5 575.9,571.6 579,576.2 	"/>
	<polygon class="st2" points="596.5,579.3 592.9,574.7 576.4,576.2 579.5,580.9 	"/>
	<polygon class="st3" points="563.1,578.3 560.5,573.6 569.2,559.2 571.8,564.4 	"/>
	<polygon class="st3" points="588.8,569 585.7,564.4 569.2,563.9 571.8,569 	"/>
	<polygon class="st3" points="555.3,564.4 553.3,559.7 563.6,546.4 565.6,551.5 	"/>
	<polygon class="st3" points="582.1,558.2 579.5,553.1 563.1,551 565.6,556.1 	"/>
	<polygon class="st3" points="549.7,550.5 548.1,544.8 559.5,533 561,538.1 	"/>
	<polygon class="st3" points="576.4,546.4 574.9,541.2 558.4,537.6 560,542.8 	"/>
	<polygon class="st3" points="545,535.6 544,529.9 556.9,519.1 557.4,524.8 	"/>
	<polygon class="st3" points="572.3,534.5 570.8,528.9 555.3,523.7 556.4,529.4 	"/>
	<polygon class="st3" points="541.9,520.1 541.4,514.4 555.3,505.2 555.8,510.9 	"/>
	<polygon class="st3" points="569.2,522.2 568.7,516.5 553.3,509.8 553.8,515 	"/>
	<polygon class="st3" points="540.4,504.7 540.9,499 555.3,491.3 555.3,497 	"/>
	<polygon class="st3" points="567.7,509.3 567.2,503.6 553.3,495.4 553.3,501.1 	"/>
	<polygon class="st3" points="540.9,489.2 541.9,483.6 556.9,477.4 556.4,482.5 	"/>
	<polygon class="st3" points="567.2,496.4 567.7,490.8 554.3,481 553.8,486.7 	"/>
	<polygon class="st3" points="543,473.8 544,468.1 560,463.5 558.9,469.2 	"/>
	<polygon class="st3" points="568.2,483.6 569.2,478.4 556.9,467.1 555.8,472.2 	"/>
	<polygon class="st3" points="546.1,458.3 548.1,453.2 564.6,450.1 562.5,455.3 	"/>
	<polygon class="st3" points="570.3,471.2 571.8,466.1 561,453.7 559.5,458.9 	"/>
	<polygon class="st3" points="551.2,443.9 553.8,438.8 570.3,437.8 567.7,442.4 	"/>
	<polygon class="st3" points="573.9,458.9 575.9,453.7 566.1,440.3 564.1,445.5 	"/>
	<polygon class="st2" points="557.9,429.5 561,424.9 577.5,425.4 574.4,430 	"/>
	<polygon class="st2" points="579,447 581.6,442.4 573.4,428 570.8,432.6 	"/>
	<polygon class="st2" points="565.6,416.1 569.2,412 585.7,414.1 582.1,418.2 	"/>
	<polygon class="st2" points="584.7,435.7 587.8,431.1 581.1,416.1 578,420.3 	"/>
	<path class="st2" d="M574.9,403.8l4.1-4.1l7.9,2c1.8,1.6,3.5,3.2,5.2,4.9l-0.8,0.8L574.9,403.8L574.9,403.8z"/>
	<polygon class="st2" points="591.9,424.9 595.5,420.8 590.3,405.3 586.7,409.4 	"/>
	<path class="st1" d="M303.1,500c0-107.6,87.5-195.1,195.1-195.1c108.1,0,195.6,87.5,195.6,195.1c0,108.1-87.5,195.6-195.6,195.6
		C390.6,695.6,303.1,608.1,303.1,500L303.1,500z M498.2,357.5c-78.8,0-142.6,63.8-142.6,142.6s63.8,142.6,142.6,142.6
		c78.7,0,142.6-63.8,142.6-142.6S577,357.5,498.2,357.5L498.2,357.5z"/>
	<path class="st4" d="M373.1,590.1c-14.4-20.1-25.2-42.7-28.8-66.9c4.1,25.7,12.9,50.4,28.3,71L373.1,590.1L373.1,590.1z"/>
	<path class="st4" d="M355.1,608.1c-17.5-23.7-30.9-51.5-35.5-80.8c4.6,28.8,14.9,56.6,31.9,80.3L355.1,608.1L355.1,608.1z"/>
	<path class="st4" d="M352,582.9l2.6,1.5c-13.9-23.7-23.7-51-24.7-78.7c1,28.3,8.2,56.1,22.6,80.8L352,582.9L352,582.9z"/>
	<polygon class="st4" points="354.6,587 357.2,608.1 371.1,609.7 	"/>
	<polygon class="st4" points="371.1,609.7 372.6,595.8 354.6,587 	"/>
	<path class="st4" d="M402.5,655c5.1,3.6,10.8,6.2,16,9.3l16.5-6.7c-5.1-2.1-10.3-4.1-14.9-6.7L402.5,655L402.5,655z"/>
	<path class="st4" d="M438.5,659.1l-16.5,6.7c5.7,2.6,11.3,4.6,17,6.7l15.4-8.2c-1,0-1.5-0.5-2.1-0.5
		C447.8,662.2,443.1,661.2,438.5,659.1L438.5,659.1z"/>
	<path class="st4" d="M368,627.2c4.1,4.6,8.7,8.7,13.4,12.9l17-2.6c-4.1-3.1-8.2-6.7-12.4-10.3H368L368,627.2z"/>
	<path class="st4" d="M384.4,642.1c4.6,4.1,9.8,7.7,14.9,10.8l16.5-4.1c-4.6-2.6-9.3-5.7-13.9-8.8L384.4,642.1L384.4,642.1z"/>
	<path class="st4" d="M442.6,674c6.2,1.5,11.8,3.1,18,4.6l13.9-10.3c-5.7-0.5-10.8-1.5-16-3.1L442.6,674L442.6,674z"/>
	<path class="st4" d="M353.6,610.7c1,1,1.5,2.1,2.6,3.1c3.1,4.1,6.2,7.2,9.3,10.8H383c-4.1-4.1-8.2-7.7-11.8-11.8L353.6,610.7
		L353.6,610.7z"/>
	<path class="st4" d="M464.2,679.2c6.2,1.6,11.8,2.1,18,2.6l12.9-11.3c-5.7,0-10.8-0.5-16.5-1.6L464.2,679.2L464.2,679.2z"/>
	<path class="st4" d="M429.7,638.5c-4.6-2.6-8.7-4.6-12.9-7.2l4.6,17c4.6,2.6,9.8,5.2,14.9,7.2L429.7,638.5L429.7,638.5z"/>
	<path class="st4" d="M455.5,661.7l-8.7-16c-4.1-1.5-8.7-3.6-13.4-5.7l6.7,16.5c4.1,1.5,8.7,3.1,12.9,4.6
		C453.9,661.2,454.4,661.7,455.5,661.7L455.5,661.7z"/>
	<path class="st4" d="M398.3,617.4c-3.6-3.1-7.2-6.2-10.3-9.8v17.5c4.1,3.6,8.2,7.2,12.9,10.3L398.3,617.4L398.3,617.4z"/>
	<path class="st4" d="M413.3,628.7c-4.1-2.6-7.7-5.2-11.8-8.2l2.6,17.5c4.6,3.1,9.3,5.7,13.9,8.8L413.3,628.7L413.3,628.7z"/>
	<path class="st4" d="M464.7,650.9c-4.6-1-9.3-2.1-13.9-3.6l8.7,15.4c5.1,1,10.3,2.6,16,3.1L464.7,650.9L464.7,650.9z"/>
	<path class="st4" d="M385,604.5c-2.6-2.6-4.6-5.2-6.7-8.2c-1-1-2.1-2.1-2.6-3.1l-2.1,17.5c3.6,4.1,7.2,8.2,11.3,11.8v-18H385z"/>
	<path class="st4" d="M483.3,653.9c-4.6-0.5-9.3-1-14.4-2.1l10.3,14.4c5.7,0.5,11.3,1,16.5,1L483.3,653.9L483.3,653.9z"/>
	<path class="st4" d="M623.8,590.1c14.4-20.1,24.7-42.7,28.3-66.9c-3.6,25.7-12.3,50.4-27.8,71L623.8,590.1L623.8,590.1z"/>
	<path class="st4" d="M641.3,608.1c18-23.7,31.4-51.5,35.5-80.8c-4.1,28.8-14.4,56.6-31.4,80.3L641.3,608.1L641.3,608.1z"/>
	<path class="st4" d="M644.9,582.9l-3.1,1.5c14.4-23.7,23.7-51,24.7-78.7c-1,28.3-7.7,56.1-22.1,80.8L644.9,582.9L644.9,582.9z"/>
	<polygon class="st4" points="641.8,587 639.8,608.1 625.9,609.7 	"/>
	<polygon class="st4" points="625.9,609.7 624.3,595.8 641.8,587 	"/>
	<path class="st4" d="M593.9,655c-5.1,3.6-10.3,6.2-16,9.3l-16-6.7c5.1-2.1,10.3-4.1,14.9-6.7L593.9,655L593.9,655z"/>
	<path class="st4" d="M557.9,659.1l17,6.7c-5.7,2.6-11.3,4.6-17,6.7l-15.4-8.2c0.5,0,1.5-0.5,2.1-0.5
		C549.2,662.2,553.8,661.2,557.9,659.1L557.9,659.1z"/>
	<path class="st4" d="M628.4,627.2c-4.1,4.6-8.7,8.7-12.9,12.9l-17.5-2.6c4.6-3.1,8.7-6.7,12.9-10.3H628.4L628.4,627.2z"/>
	<path class="st4" d="M612.5,642.1c-5.1,4.1-9.8,7.7-14.9,10.8l-17-4.1c5.1-2.6,9.8-5.7,13.9-8.8L612.5,642.1L612.5,642.1z"/>
	<path class="st4" d="M553.8,674c-5.7,1.5-11.3,3.1-17.5,4.6l-13.9-10.2c5.1-0.5,10.8-1.5,16-3.1L553.8,674L553.8,674z"/>
	<path class="st4" d="M643.4,610.7c-1,1-2.1,2.1-3.1,3.1c-2.6,4.1-5.7,7.2-8.8,10.8H614c4.1-4.1,7.7-7.7,11.3-11.8L643.4,610.7
		L643.4,610.7z"/>
	<path class="st4" d="M532.7,679.2c-6.2,1.6-12.4,2.1-18.5,2.6l-12.4-11.4c5.1,0,10.8-0.5,16-1.6L532.7,679.2L532.7,679.2z"/>
	<path class="st4" d="M567.2,638.5c4.1-2.6,8.2-4.6,12.3-7.2l-4.1,17c-5.1,2.6-9.8,5.2-14.9,7.2L567.2,638.5L567.2,638.5z"/>
	<path class="st4" d="M540.9,661.7l8.7-16c4.6-1.5,9.3-3.6,13.4-5.7l-6.2,16.5c-4.6,1.5-8.7,3.1-12.9,4.6
		C543,661.2,541.9,661.7,540.9,661.7L540.9,661.7z"/>
	<path class="st4" d="M598.1,617.4c4.1-3.1,7.2-6.2,10.8-9.8v17.5c-4.1,3.6-8.7,7.2-12.9,10.3L598.1,617.4L598.1,617.4z"/>
	<path class="st4" d="M583.1,628.7c4.1-2.6,8.2-5.2,11.8-8.2l-2.1,17.5c-4.6,3.1-9.3,5.7-14.4,8.8L583.1,628.7L583.1,628.7z"/>
	<path class="st4" d="M531.7,650.9c4.6-1,9.3-2.1,13.9-3.6l-8.2,15.4c-5.1,1-10.8,2.6-16,3.1L531.7,650.9L531.7,650.9z"/>
	<path class="st4" d="M612,604.5c2.1-2.6,4.6-5.2,6.7-8.2c1-1,1.5-2.1,2.6-3.1l2.1,17.5c-3.6,4.1-7.7,8.2-11.8,11.8L612,604.5
		L612,604.5z"/>
	<path class="st4" d="M513.1,653.9c5.1-0.5,9.8-1,14.4-2.1l-10.3,14.4c-5.1,0.5-10.8,1-16.5,1L513.1,653.9L513.1,653.9z"/>
	<path class="st1" d="M457.5,549.5c-8.7,4.1-17.5,8.7-25.7,14.4l-3.6,2.1l5.1,12.4l9.8,10.3l3.1-0.5c15.4-4.1,31.9-5.7,47.9-5.7
		c24.7,0,46.8,4.1,58.7,7.7l5.7,1.5l4.1-3.6C606.9,550,695.9,566,782.9,586c34,7.7,73.6,13.4,81.3-14.4c1.5-6.2,0.5-13.4-3.1-19.6
		c-1.5-2.6-3.6-5.1-6.2-7.2l-7.7-7.7c-4.1-4.6-9.8-8.2-16.5-11.3c-1-0.5-2.1-0.5-2.6-1c0,0-0.5,0-1-0.5c-2.1-5.7-6.2-12.9-8.8-18
		c3.1-0.5,6.2-2.1,8.8-4.6c4.1-3.6,6.2-8.2,6.2-12.9c0.5-6.7-2.1-12.3-6.7-17c-1-1-4.1-4.1-6.2-6.2c-4.6-5.2-12.4-9.3-21.6-10.8
		c-2.1,0-4.1-0.5-6.7-0.5c-7.2,0-14.9,2.1-21.1,6.7c-0.5-0.5-0.5-0.5-0.5-1c-0.5-0.5-6.7-6.2-7.7-7.2c-0.5-0.5-0.5-0.5-0.5-0.5
		c-0.5-0.5-1-1-1.5-1c-8.7-7.2-23.7-7.2-31.9-6.2c-1-1.5-1.5-2.6-2.6-3.1c-3.1-4.1-8.2-6.2-13.4-6.2c-0.5,0-1.5,0-2.1,0
		c-0.5,0-1,0-1,0c-0.5,0-1,0-1.5,0c-1.5,0.5-2.6,0.5-3.6,1c-0.5,0-1,0-1,0.5c-1,0-1.5,0-1.5,0.5c-4.1,1.5-7.7,4.1-10.3,7.7l0,0
		c-0.5,0.5-1,0.5-1,1c-4.6-4.6-12.4-9.8-25.7-11.3c-11.3-1-24.2,2.6-37.1,10.8c-0.5,0-1.5,1-1.5,1c-3.1,1.5-6.2,4.1-8.7,6.2
		c-1.5-2.6-3.1-5.1-4.6-7.2c-1.5-1.5-6.7-6.7-7.7-7.7c-0.5,0-0.5-0.5-1-0.5c-2.6-2.6-5.7-4.1-8.8-4.6c-0.5,0-1,0-1.5,0l-8.2-0.5
		c-34.5,1-61.8,4.1-99.3,7.7l-3.1,0.5l-2.1,5.7c-0.5,0.5-0.5,1.5-1,2.1c-4.1-2.6-9.3-4.1-14.4-4.6c-21.1-0.5-40.2,12.9-53,25.2
		l-5.1-5.7c-0.5-0.5-1-0.5-1-1c-0.5,0-1-0.5-1-0.5c-7.7-5.1-19-3.6-27.3,0c-3.1,1-7.2,3.1-11.3,5.1c-3.1-2.6-6.7-3.6-10.8-3.6
		c-2.1,0-4.6,0.5-6.7,1.5c-2.1-7.2-6.7-13.9-12.9-20.1l-7.2-7.2c-8.2-8.2-19-14.9-31.9-19c-1.5-0.5-2.6-1-2.6-1
		c-7.7-2.1-16.5-4.1-25.7-4.6c-1,0-2.6,0-3.1,0s-1.5,0-2.1,0c-71-3.1-98.3,28.8-100.4,56.6c0,2.6,0,5.2,0,7.7
		c1,8.2,4.1,15.4,8.7,21.1c0.5,1,1.5,1.5,2.1,2.6l7.2,7.2c1.5,1.5,3.1,2.6,5.1,4.1c-1.5,0-2.6,0.5-2.6,0.5c-1,0.5-2.1,0.5-2.6,0.5
		c-11.3,3.6-21.1,8.8-29.3,16l0,0c-13.9,11.8-21.6,27.3-21.6,43.2c0,17.5,6.7,34,19.6,46.3l7.2,7.7c11.3,10.8,31.9,24.2,68.5,24.2
		c77.7,0,119.9-40.7,121.5-80.8c0-3.1,0-5.7,0-8.2c1.5,1,2.6,2.6,3.1,3.1c4.1,3.6,9.3,5.7,15.4,5.7c13.4,0.5,25.2-8.2,33.5-17
		c6.7,4.6,14.4,5.2,18,5.2C421.5,558.7,438,558.7,457.5,549.5L457.5,549.5z M213.6,575.7c-6.2,5.7-9.8,13.9-9.8,22.6
		c0,3.6,1,7.7,2.6,11.3c-2.1-0.5-3.6-1-5.2-1l0,0c-4.6-1.5-8.7-3.6-11.8-6.2c-4.1-5.2-6.2-12.4-6.2-19.6c0-18.5,14.9-33.5,33.5-33.5
		c6.7,0,12.9,1.5,18,4.6c1.5,3.1,2.1,5.7,2.1,8.8c0,1,0,2.1,0,3.1C228,565.9,219.7,569.5,213.6,575.7L213.6,575.7z M294.4,464.5
		c0,6.7-7.2,12.4-17.5,15.4l8.2-19l-7.7-7.2h0.5c5.7,1,10.8,2.6,15.4,5.7c0,0,0,0.5,0.5,0.5C294.4,461.4,294.4,463,294.4,464.5
		L294.4,464.5z M289.2,561.3c0,2.1,0,4.1-0.5,6.2c-3.1-10.3-8.7-20.1-16.5-28.3l-6.7-6.7c-0.5-0.5-1-1-1.5-1.5
		c6.7,2.1,12.4,5.2,17.5,9.3C286.7,546.4,289.2,554.1,289.2,561.3L289.2,561.3z"/>
	<path class="st4" d="M370.6,413.6h-0.5c0.5-1.5,0-2.1,0-2.1l-17.5-10.3l0,0l12.9,19l-23.2-2.6h-0.5l18,10.8c0,0,0.5,0,1.5-1
		l0.5,0.5l-5.1,8.2l-0.5-0.5c0.5-1,0.5-1.5,0-1.5l-22.1-13.4c-0.5-0.5-0.5-0.5-1.5,0.5h-0.5l7.7-12.4l0.5,0.5c-0.5,0.5-0.5,1,0,1.5
		c0.5,0,11.3,1,12.9,1.5c-3.6-5.1-6.7-10.3-7.2-10.8s-1,0-1.5,0.5l-0.5-0.5l7.7-12.3h0.5c-0.5,1.5-0.5,1.5,0,2.1l22.1,13.4
		c0,0,0.5,0,1.5-1l0.5,0.5L370.6,413.6L370.6,413.6z"/>
	<path class="st4" d="M383.9,396.6l-0.5-0.5c1-1,0.5-1.5,0.5-1.5l-18.5-18c-0.5-0.5-0.5-0.5-1.5,0.5l-0.5-0.5l7.7-8.2l0.5,0.5
		c-1,1-0.5,1.5-0.5,1.5l18.5,18c0.5,0.5,0.5,0.5,1.5-0.5l0.5,0.5L383.9,396.6L383.9,396.6z"/>
	<path class="st4" d="M404.5,369.3l15.4-10.8c0.5,0,0.5-0.5,0-1.5l0.5-0.5l5.7,8.2h-0.5c-1-0.5-1-1-1.5-0.5l-24.2,16.5v-0.5
		c1-1,1-1.5,0.5-2.1L386,357c-0.5-0.5-0.5-0.5-2.1,0v-0.6l9.3-6.2l0.5,0.5c-1,0.5-1,1-1,1.5L404.5,369.3L404.5,369.3z"/>
	<path class="st4" d="M433.3,359.5v-1c0.5,0,0.5-0.5,0.5-1s-16-21.1-16.5-22.1c-0.5-0.5-0.5-0.5-1-0.5v-0.5l9.8-3.1v0.5
		c-0.5,0.5-1,0.5-1,1c0.5,0.5,8.2,10.8,10.8,14.4l0,0c0-4.1-0.5-17-0.5-17.5s-1-0.5-1.5-0.5v-0.5l12.4-4.1v0.5c0,0-0.5,0.5-0.5,1
		c0,0,8.2,11.3,9.8,14.4h0.5c-0.5-2.6-0.5-17-0.5-17.5s-1-0.5-1.5-0.5V322l8.8-3.1v0.5c-0.5,0-0.5,0.5-0.5,1c0,1,0,26.8,0,27.3
		c0.5,1,1,0.5,1.5,0.5v0.5l-10.8,4.1v-1c0.5,0,1-0.5,0.5-1c-0.5-1.5-6.7-10.3-10.8-16.5h-0.5c0.5,6.7,0.5,19,1,20.1
		c0,0.5,0.5,0.5,1,0.5l0.5,0.5L433.3,359.5L433.3,359.5z"/>
	<path class="st4" d="M485.3,340c-1.5,4.1-1.5,4.6-1.5,5.2c0,0.5,0,0.5,1,0.5v0.5l-9.8,0.5v-0.5c0.5-0.5,1-0.5,1.5-1.5
		c0-1,8.7-25.7,8.7-26.2s-0.5-0.5-1-0.5v-0.5l14.4-0.5v0.5c-1,0-1,0.5-1,1s7.2,16.5,10.8,24.7c0.5,1.5,1,1.5,1.5,1.5v0.5l-10.8,0.5
		v-0.5c1,0,1-0.5,1-0.5c0-0.5-1.5-4.6-2.1-5.2L485.3,340L485.3,340z M486.4,335.3h10.3l-5.7-12.9L486.4,335.3L486.4,335.3z"/>
	<path class="st4" d="M545.6,324.5c0-0.5,0-1-1.5-1l0.5-1l10.8,2.6v0.5c-1.5,0-1.5,0.5-1.5,1l-3.6,14.4c-2.1,9.3-9.3,10.8-17.5,9.3
		c-8.2-2.1-14.4-6.7-11.8-16l3.1-14.4c0-0.5,0-1-1.5-1.5l0.5-0.5l10.8,2.6v0.5c-1.5,0-1.5,0-1.5,0.5l-3.6,14.4c-1,4.1,1,6.2,5.7,7.2
		c4.1,1,7.2,0,7.7-4.1L545.6,324.5L545.6,324.5z"/>
	<path class="st4" d="M577.5,367.8l0.5-0.5c0.5,0,1,0.5,1-0.5c0.5-0.5-1-12.4-1-13.9l-6.7,2.1l-3.6,5.7c0,0.5,0,0.5,1,1.5v0.5
		l-10.3-5.7l0.5-0.5c1,0.5,1.5,0.5,1.5,0l12.4-22.6c0.5-0.5,0.5-0.5-0.5-1.5v-0.5l10.3,5.7l-0.5,0.5c-1.5-0.5-1.5-0.5-2.1,0
		l-4.6,8.7h0.5c5.7-1.5,13.9-3.1,14.4-3.6c0-0.5,0-1-0.5-1v-0.5l12.4,6.7v0.5c-1.5-0.5-2.1-0.5-3.6,0l-12.3,2.6l1.5,19.9
		c0.5,1,0.5,1.5,1,1.5v0.5L577.5,367.8L577.5,367.8z"/>
	<path class="st4" d="M617.6,385.8l-0.5-0.5c0-0.5,0.5-1-0.5-2.1l-7.7-7.2l-3.1,4.1l12.9,11.8c0.5,0.5,0.5,0.5,1.5-0.5l0.5,0.5
		l-6.7,7.2v-0.5c0.5-1,0.5-1,0-1.5l-20.1-19l0.5-0.5c1,1,1.6,1,1.6,0.5l17.5-18.5c0.5-0.5,0.5-1-0.5-2.1l0.5-0.5l20.1,19
		c0.5,0.5,1,0,2.1-0.5l0.5,0.5l-6.7,6.7l-0.5-0.5c0.5-1,1-1,0.5-1.5l-12.9-12.3l-3.1,3.6l7.2,7.2c1,0.5,1.5,0.5,2.1,0l0.5,0.5
		L617.6,385.8L617.6,385.8z"/>
	<path class="st4" d="M641.8,418.2l-0.5-0.5c0.5-0.5,1-1,0.5-2.1l-5.7-8.7l-4.6,3.1l9.8,14.9c0.5,0.5,0.5,0.5,2.1,0v0.5l-7.7,5.2
		l-0.5-0.5c0.5-1,1-1,0.5-1.5l-14.9-23.2l0.5-0.5c1,1,1.5,1,1.5,1l21.6-13.9c0.5-0.5,1-1,0-2.1l1-0.5l14.4,23.2c0.5,0.5,1,0.5,2.1,0
		l0.5,0.5l-8.2,5.1l-0.5-0.5c1-0.5,1-1,1-1.5l-9.8-14.9l-3.6,2.6l5.2,8.7c1,1,1.5,1,2.1,0.5l0.5,0.5L641.8,418.2L641.8,418.2z"/>
	<path class="st4" d="M856.4,554.6c-1-2.1-2.6-4.1-5.1-6.2c-1-1.5-6.2-6.7-7.7-7.7c-4.1-4.6-10.3-8.7-20.1-12.4
		c-2.6-7.7-8.2-16.5-11.3-22.6c-1-1.6-2.1-3.1-3.1-5.1c1.5,0.5,3.1,1,4.6,1c3.6,0,7.2-1,10.3-3.6c2.6-2.6,4.1-6.2,4.1-9.8
		c0.5-5.1-1.5-9.3-5.1-12.9c-1-1.5-6.2-6.2-7.2-7.2c-4.6-5.2-13.4-8.2-23.7-8.8c-8.2-0.5-16.5,3.1-22.1,9.3c-1-2.1-2.1-3.6-3.6-5.1
		c0-0.5-6.2-6.2-7.2-7.2c-0.5-0.5-1-1-1.5-1.5c-8.7-6.7-24.2-4.1-30.9-3.1c-0.5-0.5-2.6-1-3.1-1.5c-0.5-1.5,0-3.6-1-4.6
		c-2.6-3.1-6.2-4.6-9.8-4.6c-7.7-0.5-14.4,3.1-19,9.8c-1,1.5-1.6,6.2-2.1,7.7c-1-0.5-3.1-2.1-3.6-2.6c-3.6-4.6-8.7-13.9-23.7-15.4
		c-14.9-1.5-33.5,6.7-49.4,21.6c0,0.5-0.5,1-1,1c0-0.5,0-0.5,0-1c-0.5-5.7-2.1-9.8-4.6-12.4c-1.5-1.5-6.7-6.7-7.7-7.7
		c-3.1-2.6-6.2-4.1-9.8-4.1c0,0-0.5,0-1,0c-2.1,0-3.6,0.5-5.1,1.5l0.5-1.5c-34,1.5-65.4,4.1-99.3,7.7l-1,3.1
		c-3.6,8.2,1.5,11.3,4.1,12.9l-1,2.1c-1-1.5-6.7-6.7-8.2-8.2c-3.6-3.6-8.7-5.7-15.4-6.2c-19-0.5-38.1,11.8-52.5,27.3
		c-0.5-0.5-0.5-1-1-1.5s-6.2-6.2-7.7-7.7c-0.5-0.5-1-1-1.5-1c-5.7-4.1-15.4-2.6-22.1,0.5c-3.6,1.5-9.3,4.1-13.9,6.7
		c-2.6-3.1-6.2-4.6-10.3-4.6c-3.1,0-6.7,1.5-10.3,4.1c-1-8.2-5.1-17-12.9-24.2c-1-1.5-5.7-6.2-7.2-7.2c-12.4-12.9-34-22.6-62.3-23.7
		c-66.9-2.1-93.2,26.8-94.7,52.5c-1,10.8,2.6,20.6,9.3,27.3c1,1,6.2,5.7,7.2,7.2c4.1,3.6,8.7,6.2,14.4,6.7c0,0,0.5,0,1,0l-1.5,3.6
		c-16.5,2.1-31.9,8.2-43.8,18c-13.3,10.5-20,24.4-20,39.3c0,16.5,6.2,31.4,18,42.7c1,1.6,5.7,6.2,7.2,7.7
		c10.3,10.3,30.4,22.6,64.9,22.6c74.6,0,115.3-38.1,116.3-76.2c0.5-7.7-0.5-14.9-2.1-21.6c0.5-1,1.5-2.1,2.1-3.1
		c0.5,2.1,1,3.6,1.5,5.1s1.5,2.6,2.6,3.6c1.5,1,6.2,6.7,7.7,7.7c2.6,2.1,6.2,4.1,11.8,4.1c13.4,0.5,25.7-10.3,33.5-19
		c5.7,6.7,13.9,7.2,18.5,7.2c5.1,0.5,31.4,0,60.2-24.2c1,1,6.2,6.2,6.7,6.7c2.1,2.1,5.2,3.6,8.7,4.6c-6.2,2.1-11.8,4.1-17.5,6.2
		c-15.4,5.7-29.3,13.4-41.7,21.1l3.1,7.7l7.2,7.2c16.5-3.6,33.5-5.7,49.4-5.7c25.7,0,48.4,4.1,60.2,7.7l2.6,1l2.1-2.1
		c46.3-39.6,136.9-23.2,225.5-2.6c46.8,10.8,70,7.2,75.2-11.3C860.6,565.4,859.5,559.7,856.4,554.6L856.4,554.6z M604.8,525.8
		c0.5,0.5,5.1,3.1,5.7,4.1c-7.2-0.5-20.1-1.5-27.3-1.5c2.1-1.5,4.1-3.1,6.2-5.2c2.1-2.1,3.6-4.1,5.7-6.7
		C597,520.6,600.6,523.2,604.8,525.8L604.8,525.8z M585.7,465c0,2.1-0.5,5.1-2.1,8.7c-3.1,10.8-8.8,20.1-13.9,26.2l15.4-35.5
		C585.2,465,585.7,465,585.7,465L585.7,465z M697.9,525.8c0.5,2.6,2.1,5.2,4.1,7.7c1.5,1,6.2,5.7,7.7,7.2c0,0.5,0.5,0.5,1,1
		c-13.4-2.6-27.8-5.1-42.7-7.2c9.3-3.6,19-9.3,28.8-17C696.9,520.1,696.9,523.2,697.9,525.8L697.9,525.8z M758.1,539.7
		c-0.5,4.6,1,8.7,4.1,12.4c0.5,0.5,1.5,1,2.1,2.1c-8.2-2.1-18-4.6-28.8-7.2c14.4-3.1,27.8-16.5,38.1-30.9c0.5,0.5,0.5,1,1,1.5
		c1.5,1.5,3.1,3.6,4.1,5.1C766.4,524.8,759.2,530.9,758.1,539.7L758.1,539.7z M268.6,542.8c-1.5-1-6.2-6.2-7.2-7.2
		c-3.1-3.1-6.7-6.2-10.3-8.7l1-3.1c13.4,1,24.7,6.2,32.9,12.9c6.2,7.2,9.3,16,9.3,24.7c0,6.7-2.6,15.4-8.8,24.2c0-0.5,0-1.5,0-2.6
		C285.6,568,279.4,553.6,268.6,542.8L268.6,542.8z M299.5,464.5c0,11.3-14.4,21.6-30.9,21.6l10.3-24.2l-7.2-7.2l-56.6,5.7
		c11.8-10.3,36-13.4,55.1-12.9c10.8,0.5,20.1,3.6,26.8,8.2C298.5,458.3,300,461.4,299.5,464.5L299.5,464.5z M178,582.9
		c0-21.1,17.5-38.6,38.6-38.6c8.2,0,16,2.6,21.6,6.2c2.1,3.6,3.6,7.7,3.6,12.4c0,2.6-0.5,5.7-2.1,8.8c-1-0.5-2.6-0.5-3.6-0.5
		c-7.2,0-14.4,3.1-19,8.2c-5.2,4.6-8.2,11.8-8.2,19c0,6.7,2.6,12.9,6.7,17.5c-12.4,0-22.7-3.6-30.4-9.8
		C180.6,599.9,178,591.7,178,582.9L178,582.9z M334,504.7c-3.6,6.2-7.7,12.9-10.8,17c-1-1-2.6-2.6-3.6-3.6c-0.5-1-1.5-2.1-2.1-3.6
		c6.7-3.1,11.8-6.7,16.5-10.8C334,503.6,334,504.2,334,504.7L334,504.7z"/>
	<path class="st0" d="M486.9,445.5l-1,3.1c-3.6,8.2,1.5,11.3,4.1,12.9l-3.6,8.2c0-1,0-2.1,0-3.1c-1-9.8-9.3-17-21.1-17.5
		c-22.6-0.5-45.3,17.5-60.2,36c1.5-3.6,2.1-6.2,2.1-9.8c0.5-4.1-1.5-7.2-4.6-9.3c-5.7-4.1-15.4-2.6-22.1,0.5
		c-3.6,1.5-9.3,4.1-13.9,6.7c-2.6-3.1-6.2-4.6-10.3-4.6c-4.1,0-9.3,2.6-13.4,6.7c-6.2,6.2-9.8,14.4-9.8,22.1c0,2.6,0.5,5.1,1,7.2
		c-3.6,6.2-7.7,11.8-11.3,16c-3.6-5.2-8.2-9.3-12.9-12.9c17.5-8.2,27.8-22.1,28.8-39.1c0.5-23.2-27.8-48.9-75.1-51
		c-66.9-2.1-93.2,26.8-94.7,52.5c-1.5,17.5,8.7,32.4,23.2,34c5.1,0.5,10.3-1,13.9-4.1l-6.7,14.9c-16.5,2.1-31.9,8.2-43.8,18
		c-13,10.9-19.7,24.8-19.7,39.7c0,16.5,6.2,31.4,18,42.7c10.3,10.8,30.4,23.2,64.9,23.2c74.6,0,114.8-38.1,116.3-76.2
		c0.5-7.7-0.5-14.9-2.1-21.6c6.7-9.3,13.9-20.1,18.5-29.3c1.5,0,3.6-0.5,5.7-1.5c-3.1,4.6-7.7,11.8-7.7,11.8
		c-5.7,8.2-9.8,20.1-5.7,28.3c2.1,3.6,6.2,8.2,14.9,8.2c13.4,0.5,25.7-10.8,32.9-19.6c5.7,7.2,14.4,7.7,18.5,7.7
		c5.7,0,32.4,0,62.3-25.7c1,2.6,2.1,4.6,3.6,6.7c4.1,4.6,10.3,7.2,19,7.7c11.3,0,21.6-3.6,30.4-11.8c4.1,4.1,9.3,6.7,15.4,8.2
		c-22.6,2.6-44.8,7.7-64.9,15.4c-15.4,5.7-29.3,13.4-41.7,21.1l3.1,7.7c16.5-4.1,33.5-5.7,49.4-5.7c25.7,0,48.4,4.1,60.2,7.7l2.6,1
		l2.1-2.1c46.3-39.6,136.4-23.2,224.9-2.6c46.8,10.3,70,7.2,75.2-11.3c1.5-4.6,0.5-10.3-2.6-15.4c-4.1-6.7-12.4-15.4-31.4-21.1
		c-2.1-8.8-8.8-20.1-12.9-27.8c-1-1.5-2.1-3.6-3.1-5.1c1.5,0.5,3.1,1,4.6,1c3.6,0,7.2-1,9.8-3.6c3.1-2.6,4.6-6.2,4.6-9.8
		c0.5-12.3-11.3-21.1-28.8-21.6c-12.9-0.5-25.2,8.2-29.3,20.1c-13.4,17-21.1,24.2-25.7,27.3c1-2.1,3.1-4.6,5.7-8.7
		c1.5-1.5,3.6-3.6,6.2-6.2c6.7-7.2,15.4-16,14.9-25.7c-0.5-4.6-2.6-8.2-6.2-11.3c-9.3-7.2-26.3-5.1-31.9-4.6
		c-0.5-1.5-1.5-3.6-3.1-5.1c-2.6-2.6-6.2-4.1-9.8-4.1c-7.7-0.5-14.4,3.1-19,9.8c-1,1.5-2.1,3.6-3.1,5.7c-2.1-5.2-8.2-13.9-26.3-16
		c-14.9-1.5-33.5,6.7-49.4,21.6c-3.6,4.1-7.2,8.2-10.3,12.4c1.6-7.2,2.6-13.9,2.1-19.6c-1-12.4-8.7-16.5-14.9-17c0,0-0.5,0-1,0
		c-2.1,0-3.6,0.5-5.1,1.5l0.5-1.5C552.2,439.3,520.8,441.9,486.9,445.5L486.9,445.5z M217.2,579.3c-5.1,4.6-8.2,11.8-8.2,19.1
		c0,6.7,2.6,12.9,6.7,17.5c-13.9-0.5-25.2-4.6-32.9-11.8c-7.7-7.2-11.8-17-11.8-28.3c0-21.1,17-38.6,38.6-38.6
		c18,0,32.4,11.3,32.4,25.7c0,3.1-0.5,5.7-2.1,8.8c-1-0.5-2.6-0.5-3.6-0.5C229,571.1,221.8,574.2,217.2,579.3L217.2,579.3z
		 M273.3,598.9c3.1-7.2,5.1-14.9,5.1-23.2c0-22.6-13.9-42.7-36-53.5l2.6-5.7c30.9,2.6,49.4,24.2,49.4,44.8
		C294.4,571.1,288.2,586.5,273.3,598.9L273.3,598.9z M261.9,486.1h-4.1l13.9-31.4l-61.3,6.2l-1,2.6c-1.5,3.6-1.5,6.2-1,8.7
		c-2.6-2.6-5.1-4.1-7.7-5.1c0-4.6,2.1-8.7,5.1-12.4c11.3-11.8,37.1-14.9,57.1-14.4c20.6,0.5,37.1,11.8,36.5,24.2
		C299,477.4,282,487.2,261.9,486.1L261.9,486.1z M457,468.6c0,2.1-1.5,5.7-4.6,10.3c-2.1,4.1-7.7,11.3-17,16
		c3.6-5.7,7.2-11.3,10.8-16C451.4,472.8,455,469.7,457,468.6L457,468.6z M425.6,524.2c-0.5,0-0.5,0-0.5,0c0-0.5-0.5-2.6,0.5-7.7
		c13.9-1.5,32.9-9.3,45.8-20.6C446.7,521.1,432.3,524.8,425.6,524.2L425.6,524.2z M709.8,489.7c-8.2,10.8-15.4,24.7-11.8,36
		c1,5.2,5.1,11.3,17,13.9c20.1,4.6,39.1-13.4,52.5-32.4c2.1,3.6,4.6,6.7,7.2,10.3c1.5,1.5,3.1,3.6,4.1,5.1
		c-12.3,2.1-19.6,8.2-20.6,17c-0.5,4.6,1,8.7,4.1,12.4c0.5,0.5,1.5,1,2.1,2.1c-27.3-6.7-71-17.5-118.9-22.7
		C664.5,527.8,689.7,516,709.8,489.7L709.8,489.7z M685.6,483.6c2.1-2.6,4.1-5.7,5.2-8.7c0,0,0,0.5,0.5,0.5c0.5,1.5,1,2.6,2.1,4.1
		c-13.9,16-40.7,33.5-57.1,32.4c-4.1,0-5.1-0.5-5.7-0.5c-0.5-0.5-0.5-1.5-0.5-2.1c0-1,0.5-3.1,1.5-7.2
		C657.8,505.7,676.3,494.9,685.6,483.6L685.6,483.6z M663.4,458.9c0.5,0,0.5,0,0.5,0c0.5,0.5,0.5,4.1-2.1,8.7
		c-4.1,7.2-11.8,14.4-22.1,16C648.5,468.1,658.3,458.3,663.4,458.9L663.4,458.9z M560,499l18-42.2c1.5,3.6,4.1,6.7,7.7,8.2
		c0,2.1-0.5,5.1-2.1,8.7c-6.2,20.1-18.5,34-24.2,33.5c-0.5,0-1,0-1,0C557.9,506.7,557.9,502.6,560,499L560,499z M507.5,512.4
		c0-1,0.5-4.6,3.6-11.8l24.2-55.6c-2.6,7.2,2.6,10.8,4.6,11.8l-13.4,30.4C516.2,508.3,510.6,512.4,507.5,512.4L507.5,512.4z
		 M562.5,529.4c6.7-2.6,13.4-7.2,19-13.4c4.1-4.1,7.7-8.7,10.8-13.9c0,1.5,0,3.1,0,4.6c0.5,10.3,6.2,17.5,15.4,22.1
		C591.9,528.4,577,528.4,562.5,529.4L562.5,529.4z M824,554.1c0,2.1-0.5,3.6-2.6,5.2c-2.6,1.5-8.7,4.1-23.2,2.1
		c5.7-1,10.3-4.1,13.9-7.7c2.1-2.1,4.1-5.2,4.6-8.2C820.9,547.4,824.5,550.5,824,554.1L824,554.1z"/>
	<path class="st1" d="M495.1,529.9c8.7,0,20.1-2.1,31.4-13.9c3.1,6.2,11.3,10.8,21.1,10.8c30.9,1.5,56.1-45.3,54-72.1
		c-0.5-7.7-4.6-11.8-9.8-11.8c0,0-0.5,0-1,0c-4.6,0.5-8.2,4.1-8.8,8.7c0,5.2,3.6,9.3,8.8,9.8c0.5,3.1,0,7.7-2.1,13.9
		c-6.2,19-20.1,37.6-29.9,37.1c-8.2,0-6.2-10.3-3.6-16l23.2-53l-38.1,2.1c-3.6,8.7,7.7,5.7,4.1,12.9L531,489.3
		c-8.2,17-16,28.3-24.2,28.3c-6.2-0.5-5.7-7.2-0.5-19l22.7-52l-38.6,3.6c-3.6,9.3,7.7,5.7,4.6,12.4L481.1,493
		c-9.3,10.3-35,37.1-56.1,36.5c-6.2-0.5-6.7-7.7-3.1-17.5c20.1-0.5,61.3-20.1,59.2-44.8c-0.5-6.7-6.2-12.4-16-12.9
		c-30.4-1-62.3,36-71,58.2c-3.1,4.1-12.9,16-18,16c-3.1-0.5-2.1-4.6,1.5-10.3l18-26.8c5.7-8.7,6.2-11.8,6.2-16
		c0.5-8.8-12.4-7.7-19.6-4.1c-5.2,2.1-14.4,6.7-18,8.7c-1-3.6-4.1-6.2-8.2-6.2c-6.2,0-18,10.8-18,23.7c0,3.1,0.5,5.7,2.1,7.2
		c-6.7,11.3-14.9,21.1-17.5,24.2c-6.2-9.8-14.9-17-23.7-22.6c17-5.2,33.5-17,34.5-37.6c0.5-20.1-26.8-44.3-70-45.8
		c-107.1-3.6-100.9,73.1-71,76.2c7.7,1,14.9-4.6,15.4-12.9c1-7.7-4.6-14.4-12.4-15.4c-2.6-28.3,37.1-36.5,67.9-35.5
		c22.6,1,41.7,13.4,41.2,29.3c-0.5,15.4-19,27.8-42.7,26.8c-3.6,0-8.7-0.5-11.3-0.5l12.9-29.9l-49.4,4.6c-4.6,11.3,9.3,6.7,5.2,16
		l-16.4,38.5c-35,2.6-62.3,25.2-62.3,52.5c0.5,31.9,26.8,60.7,78.2,60.7c73.1,0,110.1-36.5,111.2-71c0.5-8.8-0.5-16.5-2.6-22.7
		c8.2-10.8,16.5-23.7,20.6-32.9c5.7-0.5,13.9-3.6,24.7-10.8c-5.7,7.7-16,23.7-19,28.3c-6.7,10.3-11.8,28.3,5.1,28.8
		c14.9,0.5,29.3-17.5,34-23.2c3.1,10.3,11.3,11.3,18,11.3c7.2,0.5,36-1,66.4-31.9C475.6,521.1,480.2,529.4,495.1,529.9L495.1,529.9z
		 M459.1,462.5c9.8,0.5-4.1,36.5-33.5,40.7C434.4,484.1,450.8,462.5,459.1,462.5L459.1,462.5z M242.4,577.3c-2.1-0.5-4.1-1-6.2-1
		c-12.4,0-22.1,9.8-22.1,22.1c0,11.3,8.7,20.6,19.6,21.6c-4.6,0.5-9.8,1-14.9,1c-35,0-53-20.6-53-45.3c0-24.2,19.6-43.8,43.8-43.8
		c20.6,0,37.6,13.9,37.6,30.9C247,568,245.5,572.6,242.4,577.3L242.4,577.3z M251.6,615.9c12.9-7.2,21.6-22.6,21.6-40.1
		c0-22.6-15.4-42.2-37.6-51l6.2-13.4c36.5,1,57.6,27.3,57.6,49.9C299.5,578.3,285.1,605,251.6,615.9L251.6,615.9z"/>
	<path class="st1" d="M813.2,538.1c9.3,3.1,16.5,9.3,16,16.5c-0.5,4.6-3.1,19.6-49.9,8.2c-53-12.9-228.5-62.8-337.7,6.7
		c45.3-10.3,90.6-1.5,107.1,3.6c47.9-41.7,141-24.7,229.6-4.1c58.7,13.4,66.4,1,69-7.7c2.1-7.2-4.1-23.2-34-30.9
		c-1.5-10.3-7.2-20.1-11.3-27.3c-4.1-6.7-7.7-12.4-8.2-19c0-1.5,1.5-4.6,4.6-5.7c0,0.5,0,1,0,1.5c0,5.2,3.6,9.3,8.2,9.3
		c5.2,0,9.3-3.6,9.3-8.2c0.5-10.8-11.3-16-23.7-16.5c-10.8-0.5-21.6,7.2-24.7,17.5c-25.2,32.9-34,31.9-36,31.4
		c-3.6-1-0.5-7.7,7.2-18c5.7-7.7,20.6-18,20.1-29.3c-1-13.4-23.2-12.4-33.5-10.8c-1.5,0.5-2.6,0.5-3.6,0.5c0-0.5,0-0.5,0-0.5
		c0-5.1-4.1-9.3-8.7-9.8c-13.9-0.5-22.1,16.5-17,27.8c1,2.6,2.6,4.1,4.6,5.1c-12.9,18-43.8,39.6-64.9,38.6
		c-9.8-0.5-10.3-3.1-10.8-7.2c0-2.6,1-7.7,3.6-12.9c55.6,9.3,81.8-46.3,35.5-51.5c-29.3-3.1-68.5,36-66.4,61.2
		c1,19.6,23.7,21.1,29.9,21.6c14.9,0.5,54.6-6.7,82.4-47.9c5.1,0,11.3-1,17.5-3.1c-19,18.5-39.6,51-11.3,57.7
		c20.1,4.1,40.2-19.6,52-37.6c4.1,11.3,14.4,19.6,19.6,29.9c-14.4,0-23.7,4.6-24.2,12.9c-1,10.8,13.9,17,25.2,17
		C798.8,557.7,812.2,553.1,813.2,538.1L813.2,538.1z M663.4,453.7c15.4,1-2.6,38.6-31.9,35.5C639.8,472.2,653.7,453.2,663.4,453.7
		L663.4,453.7z M789.5,543.3c-1.5,7.7-16,4.6-14.9-2.1c0.5-4.1,7.2-6.2,14.9-6.7C790.1,537.1,790.1,540.2,789.5,543.3L789.5,543.3z"
		/>
	<path class="st1" d="M707.7,589.1h-3.6v10.3H701v-10.3h-3.6v-2.6h10.3L707.7,589.1L707.7,589.1z M725.7,599.4h-2.6v-10.3l0,0
		l-4.1,10.3h-2.6l-3.6-10.3l0,0v10.3h-2.6v-12.9h4.6l3.1,8.8l0,0l3.1-8.8h4.6L725.7,599.4L725.7,599.4z"/>
</g>
</svg>
