<svg id="Layer_1" data-name="Layer 1" xmlns="http://www.w3.org/2000/svg" viewBox="0 0 280 300"><defs><style>.cls-1{fill:#172f56;}.cls-2{fill:#fff;}.cls-3{fill:#d01f3f;}.cls-4{fill:#b8bbbd;}</style></defs><title>minnesota twins logo</title><path class="cls-1" d="M140.29,236.48C93,236.48,54.62,198,54.62,150.42S93,64.34,140.29,64.34,226,102.88,226,150.42s-38.35,86.06-85.67,86.06m0-174.87c-48.82,0-88.39,39.76-88.4,88.81s39.58,88.79,88.4,88.79,88.4-39.75,88.4-88.79-39.57-88.81-88.4-88.81"/><path class="cls-1" d="M85.61,194a.87.87,0,0,0,.33-.71,1.86,1.86,0,0,0-.49-1.19l-.55-.61-1.61,1.23.18.25h0c.42.57,1.14,1.22,1.68,1.2a.76.76,0,0,0,.46-.16"/><polygon class="cls-1" points="92.38 204.12 93.21 201.55 90.69 202.55 92.38 204.12"/><path class="cls-1" d="M120.07,220l-.83-.2-.74,2.56,1,.39a3.2,3.2,0,0,0,1.11.21,1.27,1.27,0,0,0,1.38-.89,1.19,1.19,0,0,0,0-.32c0-.8-1-1.5-2-1.75"/><path class="cls-1" d="M173.09,91.32a4.65,4.65,0,0,0,2.19.6,3.07,3.07,0,0,0,2.8-1.67,3.77,3.77,0,0,0,.45-1.76,3.82,3.82,0,0,0-2.13-3.37,4.73,4.73,0,0,0-2.25-.62,3.11,3.11,0,0,0-2.84,1.68h0a3.42,3.42,0,0,0-.4,1.63,4,4,0,0,0,2.18,3.5"/><path class="cls-1" d="M82.37,193.39,80.26,195l.6.92-.16.1.16-.1a2.31,2.31,0,0,0,1.7,1.21,1.1,1.1,0,0,0,.7-.25,1.16,1.16,0,0,0,.45-1,3.11,3.11,0,0,0-.8-1.87l-.54-.65Z"/><polygon class="cls-1" points="201.17 108.29 198.45 108.75 199.8 110.69 201.17 108.29"/><polygon class="cls-1" points="131.33 222.16 133.62 222.41 132.75 219.85 131.33 222.16"/><path class="cls-1" d="M120.92,216.92l-.8-.17-.56,2,.28.08A4.14,4.14,0,0,0,121,219c.6,0,1-.17,1.17-.62a1.12,1.12,0,0,0,0-.24c0-.54-.59-1.06-1.29-1.19"/><path class="cls-1" d="M197.32,190.33h0a1.66,1.66,0,0,0-1.26.88l-.42.7,1.66,1.19.17-.25h0a3.37,3.37,0,0,0,.68-1.68.8.8,0,0,0-.33-.69.78.78,0,0,0-.48-.15"/><path class="cls-1" d="M200.61,191.66h0a2.69,2.69,0,0,0-1.93,1.39l-.46.72,2.15,1.54.71-.85a2.7,2.7,0,0,0,.7-1.62,1.12,1.12,0,0,0-.5-1,1.07,1.07,0,0,0-.66-.22"/><path class="cls-1" d="M118.75,202.07a55.15,55.15,0,0,1-24-20.28l-2.26.86a57.22,57.22,0,0,0,7.35,9.13l.12.11c.44.45.88.89,1.34,1.32l.2.19c.41.38.82.77,1.25,1.15.7.62,1.42,1.22,2.15,1.8a57.25,57.25,0,0,0,36,12.67h0a57.49,57.49,0,0,0,43.31-19.65l0-.06a57.79,57.79,0,0,0,13.73-29.81l-.22,0-2.14.19a55.93,55.93,0,0,1-3.94,13.55,55.27,55.27,0,0,1-72.88,28.81"/><path class="cls-1" d="M201,159.24l-.86.07a60,60,0,0,1-59.37,52h0a59.5,59.5,0,0,1-39.53-15c-.87-.76-1.7-1.56-2.51-2.36a59.78,59.78,0,0,1-8.42-10.43c-3.93,1.52-8.23,3.21-9.43,3.78v-2.46c4.3-1.87,10.75-4.32,14.52-5.69v-2.48a5.38,5.38,0,0,1-.84-.18c-.95-.27-2.35-.94-2.35-2.46V137.76c7.15-.38,27.6-2.68,28.15-17.81,0-.33,0-.66,0-1l-3.13-1c-.11,5.59-7.65,8.42-19,8.44-1.58,0-4.09,0-7,.17a55.25,55.25,0,0,1,97.44-3.62,10.34,10.34,0,0,0-3.74,8.06c0,.16,0,.31,0,.47a12.46,12.46,0,0,0,4.92,9.53c.27.19.53.4.81.59,1.23.82,2.23,1.54,3,2.17a14.82,14.82,0,0,1,3.05,2.84,2.24,2.24,0,0,1,.52,1.23,2.72,2.72,0,0,1-1.41,2.7,4.53,4.53,0,0,1-1.2.46,10.1,10.1,0,0,0-1.68-3.73,9.9,9.9,0,0,0-7.21-3.92v13.28c0,.85,0,1.48,0,1.75l1-.11,1.19-.13c4.19-.44,8.73-.86,12.15-1.13,4.86-.38,8-5.33,8-9.61a9.62,9.62,0,0,0-2.31-6.77c3.68,3.41,4.18,5.88,4.18,9a10.2,10.2,0,0,1-9,9.67m2.16,33.81a9.12,9.12,0,0,1-1.62,2.95l-1.5,2.12-.14-.11-.15-.1,0-.12a.6.6,0,0,0,0-.22c0-.42-.53-.79-.95-1.07l-3.71-2.67a2.3,2.3,0,0,0-1.13-.59.6.6,0,0,0-.38.15l-.11.08-.11-.08-.17-.13,2.11-3a3.47,3.47,0,0,1,2.55-1.8,1.53,1.53,0,0,1,.89.29,1.58,1.58,0,0,1,.65,1.36c0,.13,0,.27,0,.41a2.94,2.94,0,0,1,1.8-.72,2,2,0,0,1,1.13.37,2.36,2.36,0,0,1,.89,2,3.72,3.72,0,0,1-.11.88m-7.65,10.22-.13-.13-.28-.28a4.53,4.53,0,0,1-1.35,2.45,4.2,4.2,0,0,1-2.58,1.32H191a3,3,0,0,1-2.22-1.22l-2.28-2.3c-.32-.33-.73-.79-1.11-.77a.65.65,0,0,0-.31.08l-.11.06-.09-.1-.16-.15,2.22-2.22.13.13.11.12-.06.11a.79.79,0,0,0-.08.31c0,.38.44.8.77,1.12l2.28,2.3a2.26,2.26,0,0,0,1.55.79,2.19,2.19,0,0,0,1.5-.76,2.75,2.75,0,0,0,.86-1.83.66.66,0,0,0,0-.14c0-.43-.18-.56-.5-.88l-2.58-2.6c-.31-.32-.73-.78-1.11-.76a.56.56,0,0,0-.3.08l-.12.06-.09-.1-.15-.15,2.16-2.19.12.06.22.08-.09.19a.59.59,0,0,0-.08.3c0,.39.43.81.76,1.13l3.22,3.24c.32.33.74.78,1.12.77a.68.68,0,0,0,.31-.08l.12-.06.09.09.16.15-1.78,1.78Zm-13.61,11.45-.11-.14-.09-.15.08-.1a.64.64,0,0,0,.14-.39,2.32,2.32,0,0,0-.58-1.13l-2.65-3.72c-.29-.42-.66-1-1.08-1a.62.62,0,0,0-.23,0l-.12,0-.08-.12-.13-.17,2.55-1.84.12.14.09.14-.07.12a.56.56,0,0,0-.15.38,2.44,2.44,0,0,0,.6,1.14l3,4.16,1.53-1a3.92,3.92,0,0,0,1.6-2v0l.05,0,.26-.2L187,211l-5.11,3.68Zm-4,2.27-.05,0a6.24,6.24,0,0,1-1.85,1.36,7.71,7.71,0,0,1-3.41.91h0a3.92,3.92,0,0,1-3.68-2.24,4.16,4.16,0,0,1-.45-1.84c0-1.77,1.21-3.43,3.23-4.46a14.8,14.8,0,0,1,2.53-.93l.15,0,.69,1.38.14.27h-.43a5.59,5.59,0,0,0-2.51.58,3.16,3.16,0,0,0-1.92,2.74,2.68,2.68,0,0,0,.3,1.23,3.1,3.1,0,0,0,2.82,1.7,3.89,3.89,0,0,0,1.75-.43,7.16,7.16,0,0,0,2.36-2l0,0,0,0,.31-.15,0,2Zm-19,7.78-6.16,1.29,0-.19,0-.16.12-.06a.69.69,0,0,0,.35-.69,4.36,4.36,0,0,0-.14-.88L152,219.6c-.11-.59-.23-1.33-.83-1.37h-.13l0-.13,0-.21,3.07-.65,0,.18,0,.17-.11.06a.68.68,0,0,0-.35.67,4.67,4.67,0,0,0,.15.91l1,5,1.8-.27a4,4,0,0,0,2.26-1.2l0-.05H159l.33-.07-.51,2.13Zm-11.08,1.91-6.28.37v-.35l.12,0c.38-.14.46-.49.47-.93,0-.2,0-.41,0-.59l-.27-4.58c0-.59,0-1.34-.61-1.47l-.13,0v-.35l3.14-.18v.35l-.13,0c-.37.15-.45.48-.46.91,0,.21,0,.43,0,.63l.3,5.12h1.81a3.87,3.87,0,0,0,2.42-.86l0,0h.06l.33,0-.81,2Zm-10.15.23,0,.22-3.33-.36,0-.18,0-.17.12,0c.42-.12.42-.15.42-.24a3.1,3.1,0,0,0-.21-.74l-.56-1.68-3.43-.37-.87,1.52a1.56,1.56,0,0,0-.29.67c0,.11,0,.2.36.35l.13,0,0,.15,0,.21-3-.33v-.18l0-.16.12,0c.8-.24,1.08-.81,1.49-1.49l3-4.78a1.35,1.35,0,0,0,.28-.6c0-.09,0-.17-.29-.28l-.13,0,0-.14,0-.22,2.58.28,2.39,6.62c.27.75.43,1.37,1.15,1.78l.1.05Zm-13.51-8.21a1.68,1.68,0,0,1-1.44,1.17,2.64,2.64,0,0,1,1.38,2.11,1.82,1.82,0,0,1-.09.56,2.67,2.67,0,0,1-2.42,1.69,3.39,3.39,0,0,1-.45,0,11,11,0,0,1-2.86-.57l-2.49-.73.06-.18,0-.15H116c.59,0,.76-.72.92-1.3l1.26-4.4a3.75,3.75,0,0,0,.22-1,.66.66,0,0,0-.3-.6l-.11-.07,0-.12.06-.22,3.5,1c1.63.48,2.61,1.31,2.62,2.33a1.67,1.67,0,0,1-.06.44m-10.62-3.77-.17-.08-.1-.06,0-.06a2.11,2.11,0,0,0-1.26-1.07,9.91,9.91,0,0,0-1.21-.49l-.81,1.74,1.41.65a1.63,1.63,0,0,0,.55.19h.07l.2.1-.69,1.5-.17-.08-.13-.05v-.11c0-.26-.51-.53-.93-.72l-.81-.37-1.06,2.29,1.47.83a4,4,0,0,0,2,.54,3.39,3.39,0,0,0,.64-.06l0,0,.06,0,.28.14-1.55,1.43-5.78-2.7.08-.17.07-.16.13,0h.11c.5,0,.78-.64,1-1.14l1.93-4.15a2.88,2.88,0,0,0,.37-1.09.67.67,0,0,0-.22-.5l-.1-.09.06-.12.09-.2,4.39,2.05a1.67,1.67,0,0,0,.57.23H114l.21.09-.75,1.63Zm-8.88-4.67-.22.34-.11-.39a3.49,3.49,0,0,0-1.41-1.79,2.59,2.59,0,0,0-1.3-.49.65.65,0,0,0-.62.32.57.57,0,0,0-.1.34c-.06,1.1,2.37,3.07,2.41,4.8a1.55,1.55,0,0,1-.26.87,2.35,2.35,0,0,1-2,.93,5.32,5.32,0,0,1-2.84-.93,9.6,9.6,0,0,1-2-1.79l-.07-.08.68-2.08.18.48a5.51,5.51,0,0,0,2,2.51,2.85,2.85,0,0,0,1.45.48.75.75,0,0,0,.87-.77c.05-1.16-2.33-2.94-2.37-4.75a1.8,1.8,0,0,1,.32-1,1.86,1.86,0,0,1,1.63-.82,5.45,5.45,0,0,1,2.82,1,8.8,8.8,0,0,1,1.7,1.45l.1.11-.83,1.26Zm-11.53-2.44a4.83,4.83,0,0,0-.31,1.35,1.92,1.92,0,0,0,.17.77l0,.1-.08.1-.15.15L90.31,208l.12-.13.11-.12.12.05a.81.81,0,0,0,.39.11c.08,0,.15-.11.36-.78l.55-1.68-2.52-2.35-1.61.69c-.5.21-.69.36-.68.5a.92.92,0,0,0,.13.36l.07.11-.09.11-.15.16-2.23-2.09.12-.13.11-.11.12,0a1.73,1.73,0,0,0,.63.13,3.91,3.91,0,0,0,1.44-.42l5.22-2c.36-.14.65-.3.62-.44a.5.5,0,0,0-.11-.28l-.07-.12.09-.1.15-.16,1.9,1.78-2,6.74Zm-9.81-9a3.31,3.31,0,0,1-1.67-.5,8.83,8.83,0,0,1-2.33-2.43l-1.57-2.07.15-.11.13-.1.12.08a.56.56,0,0,0,.36.12c.35,0,.8-.36,1.13-.62l3.64-2.77c.39-.3.92-.67.91-1.08a.71.71,0,0,0,0-.24l0-.12.1-.09.18-.13,2.2,2.91a4.27,4.27,0,0,1,1,2.44,1.57,1.57,0,0,1-.62,1.31,1.47,1.47,0,0,1-.91.32,2.15,2.15,0,0,1-.94-.24,3.64,3.64,0,0,1,.24,1.24,2,2,0,0,1-2.06,2.08M77,151.27a10.2,10.2,0,0,1-3.11.59,7,7,0,0,1-5.09-2,7.92,7.92,0,0,0,2.93.56,10.19,10.19,0,0,0,3.11-.61v-1.91A3.91,3.91,0,0,0,77,149.13v2.14Zm-2.37-3.66a3.54,3.54,0,0,1-2.75-3.35h0c0-2.77,4.76-4.44,9.55-5.18v2.27c-4.42.65-7.38,2-7.39,4.36v0a3.17,3.17,0,0,0,.59,1.89m-8.15-5.09c0-13.87,24.06-14.09,31.71-14.1,11,0,18.68-2.71,20-7.28-1.67,13.49-23.56,14.56-28.09,14.63V174a3.44,3.44,0,0,0,3,3.73c-4.64,1.69-8.75,3.31-12.28,4.84C83.16,181,83.5,177,83.5,177s0-40.24,0-40.24c-3.88.37-13.63,1.88-13.65,7.49v0a5.39,5.39,0,0,0,1.91,4.08c-4.72,0-5.26-4.33-5.26-5.82m11.72-35.38.24.17h0a1.2,1.2,0,0,0,.52.13l6.18,1.11-2.71-5.27a1.82,1.82,0,0,0-.47-.63l-.24-.19,2.13-2.81.24.19.22.18-.1.21a.35.35,0,0,0,0,.13.63.63,0,0,0,.24.4L90.56,104a1.84,1.84,0,0,0,.82.3,1.33,1.33,0,0,0,.57-.14l.16-.06.13.1.28.21-2.33,3.08-.24-.19-.22-.17.09-.21a.7.7,0,0,0,.06-.28.72.72,0,0,0-.34-.53l-5-2.82,3.77,7.27-.33.11a3.59,3.59,0,0,1-1.37.29,5.83,5.83,0,0,1-1-.12l-6-1.09,3.53,3.72c.44.47.75.75,1,.73a.66.66,0,0,0,.37-.14l.18-.11.17.13.27.21L83,117l-.24-.19-.16-.11v-.2a2.37,2.37,0,0,0-.89-1.68l-4.07-4.31c-.21-.25-.38-.44-.59-.43a.8.8,0,0,0-.38.11l-.17.1-.16-.12-.27-.21,2.14-2.82ZM93.73,90.8l.19.24.17.2-.12.2a.59.59,0,0,0-.11.34c0,.37.41.87.74,1.26l3.32,4.07c.34.44.8,1,1.19,1a.85.85,0,0,0,.25,0l.21-.08.14.16.21.27L97,100.8l-.19-.23-.17-.21.13-.19a.59.59,0,0,0,.11-.34c0-.36-.41-.87-.74-1.24l-3.32-4.08c-.36-.46-.8-1-1.19-1a.61.61,0,0,0-.25.06l-.21.09L91,93.5l-.22-.27,2.93-2.43ZM103,84.54l.12.23a.73.73,0,0,0,.26.11l.32.13,7.71,2.63-2.08-4c-.39-.69-.47-1-1.21-1h-.29l-.09-.17-.16-.31,3.17-1.65.13.27L111,81l-.12.15a1.25,1.25,0,0,0-.29.7,2.37,2.37,0,0,0,.35,1l3.79,7.3-.39.08a5.35,5.35,0,0,1-1.12.14,5.59,5.59,0,0,1-1.94-.42l-7.2-2.48,2.14,4.13c.39.7.46,1,1.24,1h.26l.09.16L108,93l-3.18,1.66-.14-.27-.1-.2.11-.16a1.23,1.23,0,0,0,.29-.72,2.2,2.2,0,0,0-.34-.94l-2.57-4.94c-.37-.7-.47-1-1.23-1h-.06l-.2,0-.09-.18-.16-.32L103,84.54Zm19-7.63,0,.25a.75.75,0,0,0,.22.17l.27.22,6.74,4.6-.94-4.44c-.21-.8-.18-1.09-1-1.31l-.19,0,0-.19-.07-.34,3.48-.75.07.3.05.23-.15.12a1,1,0,0,0-.49.85,3.47,3.47,0,0,0,.11.75l1.71,8.06-.4,0a5,5,0,0,1-2.88-1.1L122.28,80l1,4.55c.2.8.17,1.09,1,1.32l.18.05,0,.18.07.34-3.5.75-.06-.3,0-.22.15-.12c.43-.35.5-.56.5-.87a4,4,0,0,0-.11-.75l-1.15-5.45c-.19-.8-.19-1.09-1-1.32l-.18,0,0-.19-.07-.33,3-.64Zm16.76,7.15v-.27l.22-.06c.58-.1.58-.9.59-1.6l.16-5.26c0-.18,0-.39,0-.58,0-.55-.09-.93-.5-1.07l-.22-.08v-.57l5.68.19h.39a.69.69,0,0,0,.28,0l.06,0h.41L145.82,77l-.3,0h-.18l-.08-.09a2.43,2.43,0,0,0-1.76-.53l-.66,0q-.39,0-.75,0l-.07,2,1.7.06H144a.88.88,0,0,0,.37-.05l.06,0h.06l.35,0-.06,2.09-.3,0h-.21l-.09-.14c-.09-.21-.7-.3-1.24-.29L142,80l-.08,2.73,1.85.21.5,0a4.27,4.27,0,0,0,2.42-.7l.09,0h.1l.49,0-1.08,2.4-7.5-.24v-.31Zm14.83-1A6.37,6.37,0,0,0,156.73,85a3.39,3.39,0,0,0,.81.1c.76,0,1.43-.27,1.51-.71a.69.69,0,0,0,0-.2c0-.63-1-1.38-2.15-2.15s-2.39-1.68-2.42-3.1a1.87,1.87,0,0,1,.09-.56c.33-1.36,1.66-1.83,3-1.82a8.8,8.8,0,0,1,2,.26,10.65,10.65,0,0,1,2.42.94l.21.11-.44,1.76-.16.64-.38-.53a4,4,0,0,0-2.17-1.39,4.71,4.71,0,0,0-.91-.11c-.63,0-1,.18-1.14.61a.59.59,0,0,0,0,.14c-.05.53,1,1.33,2.17,2.12s2.4,1.69,2.44,3a1.88,1.88,0,0,1-.06.46c-.35,1.33-1.87,2.14-3.73,2.14a6.82,6.82,0,0,1-1.7-.21,10.5,10.5,0,0,1-2.9-1.17l-.14-.09L153,82.41l.56.66Zm15.44,2a4.86,4.86,0,0,1,4.46-2.37,7.6,7.6,0,0,1,3.77,1,6.45,6.45,0,0,1,3.67,5.41,4.23,4.23,0,0,1-.51,2,5,5,0,0,1-4.51,2.46h0a7.68,7.68,0,0,1-3.67-1,6.59,6.59,0,0,1-3.75-5.48,4.34,4.34,0,0,1,.54-2.12m23.75,36.12h0a8.58,8.58,0,0,0-2.15.54,57.68,57.68,0,0,0-102.2,5c-.78.07-1.57.15-2.38.25l-.3,0a60,60,0,0,1,55-36.19,59.95,59.95,0,0,1,52,30.37m-8.57-20.91.17-.2.2.09a.67.67,0,0,0,.28.07c.39,0,.85-.5,1.2-.91l4-4.38-.87-.8a3,3,0,0,0-1.67-.86h-.11l-.08-.07-.34-.32,2.11-1.14.16.15.07.07,0,0a2.74,2.74,0,0,0,.34.43L194.63,97a2.26,2.26,0,0,0,.55.4l0,0,0,0,.34.31-2.06,1.18-.17-.15-.17-.16,0-.19a.21.21,0,0,0,0-.13c0-.25-.29-.64-.64-.94l-.89-.82L187.69,101c-.4.44-.61.69-.61,1a1.57,1.57,0,0,0,.13.55l.07.18-.13.14-.23.25L184,100.52l.21-.22Zm16.61,6.3a2.22,2.22,0,0,0,.59-.14c.14-.07.13-.07.15-.17a1.13,1.13,0,0,0,0-.24l-.09-.21.19-.14.28-.2,1.81,2.59-3.92,7.16a3.84,3.84,0,0,0-.69,1.83,1.47,1.47,0,0,0,.06.45l0,.19-.17.12-.28.2-2.33-3.33.25-.17.2-.15.18.12a1,1,0,0,0,.39.21s0,0,.09-.1a4.89,4.89,0,0,0,.39-.65l1-1.71-2.21-3.15-1.92.37c-.71.15-.83.21-.81.39a1,1,0,0,0,.07.32l.06.22-.18.12-.28.2-2.12-3,.23-.17.21-.16.17.12a1.94,1.94,0,0,0,1.12.32,6.3,6.3,0,0,0,1.22-.16l6.36-1.05Zm-3,26c0,.1,0,.2,0,.3.11.37.21.73.31,1.09a3.45,3.45,0,0,0,.27.49c-2.36-1.74-2.74-3.06-2.78-4,0-.12-.24-2.47,1.26-2.95a10.47,10.47,0,0,0,1.18,3.06,4.64,4.64,0,0,0-.28,2m5.95.11a7.93,7.93,0,0,1-5.11-7.5c-3.06-.08-5.22,1.3-5,5.33.08,1.7.85,3.72,4.12,6,7.76,5.32,8,7.62,8.23,10.3.32,3.67-2.23,7.73-6,8.14-4.37.33-7.92.68-12.23,1.15,0-.85,0-9.61,0-10.22a7.8,7.8,0,0,1,5.11,7.41c3,0,6.58-1.5,6.4-5.54-.08-1.7-1.1-3.55-7.51-7.86a10.38,10.38,0,0,1-4.83-8.5c-.16-3.46,1.86-7.67,6.1-8.09,3.91-.33,6.79-.54,10.76-.78,0,1,0,9.6,0,10.2m2-10.06,2.17-.13c0,1.32,0,12,0,15a10.42,10.42,0,0,1-7.31-4.16,12,12,0,0,0,5.14,2V122.62m-6.66-31.35A83.45,83.45,0,0,0,81.42,209.56,83.45,83.45,0,0,0,199.16,91.27"/><path class="cls-2" d="M199.16,209.55A83.44,83.44,0,0,1,81.43,91.27,83.44,83.44,0,0,1,199.16,209.55M140.29,64.34c-47.32,0-85.68,38.55-85.68,86.08S93,236.48,140.29,236.48,226,198,226,150.42s-38.35-86.08-85.67-86.08"/><path class="cls-2" d="M76.5,110.29l.18-.1a.77.77,0,0,1,.38-.11c.21,0,.38.18.6.43l4.06,4.31a2.39,2.39,0,0,1,.89,1.68v.2l.16.12L83,117l2-2.67-.27-.21-.17-.13-.17.12a.76.76,0,0,1-.38.13c-.22,0-.53-.26-1-.73l-3.53-3.72,6,1.09a5.52,5.52,0,0,0,1,.12,3.63,3.63,0,0,0,1.37-.29l.32-.11-3.75-7.27,5,2.83c.22.17.35.33.34.52a.67.67,0,0,1-.06.28l-.09.21.22.17.24.19,2.33-3.08-.27-.21-.14-.1-.17.06a1.46,1.46,0,0,1-.56.14,1.76,1.76,0,0,1-.82-.3l-6.11-3.28a.54.54,0,0,1-.23-.39.32.32,0,0,1,0-.13l.1-.21-.22-.17-.24-.2-2.12,2.81.24.2a1.91,1.91,0,0,1,.46.62l2.72,5.27-6.2-1.1a1.32,1.32,0,0,1-.51-.14h0l-.24-.18L76.08,110l.27.21.15.12Z"/><path class="cls-2" d="M91.16,93.67l.21-.09a.59.59,0,0,1,.25,0c.39,0,.84.53,1.19,1l3.33,4.07c.32.38.75.88.73,1.24a.6.6,0,0,1-.11.35l-.13.19.17.21.2.23,2.92-2.41-.21-.28L99.56,98l-.2.07a.69.69,0,0,1-.25.06c-.4,0-.84-.53-1.18-1L94.6,93c-.33-.39-.76-.89-.74-1.26a.62.62,0,0,1,.11-.35l.12-.19-.17-.2-.2-.23L90.8,93.23l.22.27.14.17Z"/><path class="cls-2" d="M100.56,86.44h.27c.75,0,.84.3,1.23,1l2.56,5a2.07,2.07,0,0,1,.34.95,1.16,1.16,0,0,1-.29.71l-.11.15.1.21.14.27L108,93l-.16-.3-.08-.16h-.27c-.78,0-.85-.3-1.24-1l-2.14-4.12,7.19,2.47a5.63,5.63,0,0,0,2,.41,5.28,5.28,0,0,0,1.12-.13l.39-.08L111,82.77a2.23,2.23,0,0,1-.34-1,1.13,1.13,0,0,1,.28-.69L111,81l-.1-.21-.14-.27-3.16,1.65.16.31.09.17h.29c.74,0,.82.3,1.2,1l2.09,4L103.72,85l-.32-.14a.77.77,0,0,1-.26-.1l-.12-.23L100.31,86l.16.31.09.18Z"/><path class="cls-2" d="M119.13,78.07l.19.05c.8.22.8.51,1,1.31l1.16,5.45a3.88,3.88,0,0,1,.1.75,1,1,0,0,1-.5.87l-.15.12,0,.23.07.29,3.5-.75-.08-.34,0-.18-.18-.05c-.82-.23-.81-.52-1-1.32l-1-4.55,6.27,4.32a4.87,4.87,0,0,0,2.88,1.09l.4,0-1.71-8.07a3.57,3.57,0,0,1-.12-.75,1,1,0,0,1,.5-.85l.15-.12-.05-.23-.06-.3-3.48.75.06.34,0,.19.19,0c.81.22.79.5,1,1.31l.95,4.44-6.73-4.6-.28-.22a.75.75,0,0,1-.22-.17l0-.26-3,.65.07.33,0,.19Z"/><path class="cls-2" d="M147.35,82.21l-.5,0h-.1l-.09.06a4.5,4.5,0,0,1-2.93.67l-1.84-.2L142,80l.94,0c.54,0,1.15.08,1.24.29l.09.14h.51l.06-2.09h-.47a.91.91,0,0,1-.38.05h-.24L142,78.37l.06-2c.24,0,.5,0,.75,0l.66,0a2.39,2.39,0,0,1,1.76.53l.08.09h.48l.07-2.24h-.41l-.06,0a1,1,0,0,1-.28,0h-.39l-5.68-.19v.57l.21.07c.43.14.5.53.51,1.08,0,.2,0,.4,0,.58l-.17,5.26c0,.7,0,1.5-.59,1.61l-.22.06v.57l7.51.24,1.08-2.4Z"/><path class="cls-2" d="M153.27,85.34a10.76,10.76,0,0,0,2.89,1.17,7,7,0,0,0,1.71.22c1.87,0,3.38-.82,3.73-2.15a1.85,1.85,0,0,0,.05-.46c0-1.33-1.29-2.2-2.43-3S157,79.51,157.05,79a.59.59,0,0,1,0-.14c.1-.44.51-.6,1.14-.62a4.73,4.73,0,0,1,.91.12,4,4,0,0,1,2.17,1.39l.38.53.15-.64.45-1.76-.21-.11a11.14,11.14,0,0,0-2.42-.94,8.8,8.8,0,0,0-2-.26c-1.37,0-2.7.46-3,1.82a2.2,2.2,0,0,0-.07.56c0,1.42,1.28,2.3,2.4,3.09s2.2,1.53,2.15,2.17a1.68,1.68,0,0,1,0,.2c-.09.43-.75.7-1.5.69a3.43,3.43,0,0,1-.82-.09,6.32,6.32,0,0,1-3.13-1.92l-.56-.66.08,2.84.15.09Z"/><path class="cls-2" d="M171.31,86.18h0a3.12,3.12,0,0,1,2.84-1.69,4.75,4.75,0,0,1,2.25.63,3.81,3.81,0,0,1,2.13,3.37,3.63,3.63,0,0,1-.45,1.76,3.08,3.08,0,0,1-2.8,1.67,4.58,4.58,0,0,1-2.19-.61,3.94,3.94,0,0,1-2.18-3.49,3.52,3.52,0,0,1,.4-1.64m.94,6.52a7.79,7.79,0,0,0,3.66,1h0a5,5,0,0,0,4.51-2.45,4.27,4.27,0,0,0,.5-2,6.42,6.42,0,0,0-3.66-5.42,7.61,7.61,0,0,0-3.77-1.05A4.91,4.91,0,0,0,169,85.09a4.37,4.37,0,0,0-.54,2.12,6.62,6.62,0,0,0,3.75,5.49"/><path class="cls-2" d="M187.15,102.93l.13-.14-.07-.18a1.56,1.56,0,0,1-.12-.55c0-.35.2-.6.6-1l4.08-4.48.88.82c.35.3.66.69.64.94l0,.13-.06.18.19.17.16.15,2.06-1.18-.34-.32,0,0,0,0a2.18,2.18,0,0,1-.55-.39l-4.94-4.53a2.61,2.61,0,0,1-.34-.43l0,0-.07-.07-.16-.15L187,92.91l.35.32.07.07h.11a3,3,0,0,1,1.67.86l.87.8-4,4.38c-.36.41-.82.93-1.21.91a.49.49,0,0,1-.27-.07l-.21-.09-.17.19-.21.23,2.91,2.66.23-.25Z"/><path class="cls-2" d="M201.17,108.29l-1.37,2.4-1.35-1.93Zm-7.93-.48a1.93,1.93,0,0,1-1.11-.32l-.18-.12-.19.15-.24.18,2.12,3,.28-.2.19-.13-.08-.21a1.3,1.3,0,0,1-.06-.32c0-.18.1-.24.81-.39l1.92-.38,2.21,3.16-1,1.71c-.18.31-.31.53-.4.65s-.08.1-.08.1a.92.92,0,0,1-.41-.21l-.16-.12-.21.15-.25.17,2.33,3.33.28-.2.17-.12,0-.2a2.28,2.28,0,0,1-.05-.44,3.84,3.84,0,0,1,.69-1.83l3.92-7.16-1.8-2.59-.29.2-.18.14.08.21a1.13,1.13,0,0,1,0,.24c0,.1,0,.1-.15.18a2.93,2.93,0,0,1-.59.13l-6.36,1a7.24,7.24,0,0,1-1.23.17"/><path class="cls-2" d="M83.47,192.93h0l-.18-.24,1.6-1.23.56.61a1.84,1.84,0,0,1,.49,1.18.9.9,0,0,1-.33.73.74.74,0,0,1-.46.15c-.54,0-1.26-.62-1.68-1.2m-.21,4a1.13,1.13,0,0,1-.7.25,2.28,2.28,0,0,1-1.7-1.2l-.15.1.15-.11-.6-.92,2.11-1.62.54.66a3.16,3.16,0,0,1,.81,1.87,1.19,1.19,0,0,1-.46,1m1.82-1.4a2.21,2.21,0,0,0,1,.23,1.43,1.43,0,0,0,.91-.31,1.59,1.59,0,0,0,.62-1.3,4.27,4.27,0,0,0-1-2.45l-2.2-2.91-.17.14-.11.07,0,.13a.74.74,0,0,1,0,.23c0,.42-.52.8-.91,1.08l-3.64,2.78a2.17,2.17,0,0,1-1.13.62.58.58,0,0,1-.37-.13L78,193.6l-.13.1-.15.11,1.57,2.07a8.93,8.93,0,0,0,2.32,2.43,3.41,3.41,0,0,0,1.68.5,2.06,2.06,0,0,0,1.27-.4,2,2,0,0,0,.79-1.68,3.47,3.47,0,0,0-.25-1.24"/><path class="cls-2" d="M92.38,204.12l-1.69-1.57,2.52-1Zm.67-4.66-.09.1.07.12a.5.5,0,0,1,.11.28c0,.14-.25.3-.63.43l-5.21,2.05a3.86,3.86,0,0,1-1.43.42,1.83,1.83,0,0,1-.65-.13l-.11,0-.11.11-.12.13L87.11,205l.15-.15.09-.1-.07-.12a.92.92,0,0,1-.13-.36c0-.15.18-.29.68-.5l1.61-.69L92,205.46l-.55,1.67c-.21.68-.28.81-.36.78a1,1,0,0,1-.39-.11l-.12-.05-.11.12-.12.13,2.45,2.3.15-.16L93,210l0-.11a1.81,1.81,0,0,1-.17-.76,5.08,5.08,0,0,1,.3-1.35l2-6.74-1.9-1.78-.15.16Z"/><path class="cls-2" d="M103.64,207.44a5.45,5.45,0,0,0-2.83-1,1.86,1.86,0,0,0-1.94,1.85c0,1.8,2.42,3.59,2.36,4.76a.73.73,0,0,1-.13.44.8.8,0,0,1-.73.32,2.86,2.86,0,0,1-1.44-.47,5.48,5.48,0,0,1-2.05-2.52l-.18-.49L96,212.39l.06.08a9.06,9.06,0,0,0,2,1.78,5.34,5.34,0,0,0,2.84.95,2.37,2.37,0,0,0,2-.94,1.55,1.55,0,0,0,.26-.87c0-1.73-2.47-3.69-2.42-4.79a.64.64,0,0,1,.11-.36.67.67,0,0,1,.62-.31,2.66,2.66,0,0,1,1.3.48,3.48,3.48,0,0,1,1.41,1.81l.12.37.21-.33.83-1.26-.09-.1a8.81,8.81,0,0,0-1.71-1.46"/><path class="cls-2" d="M114,213.19h0a1.55,1.55,0,0,1-.57-.21l-4.39-2-.09.19-.06.13.1.09a.64.64,0,0,1,.22.5,2.9,2.9,0,0,1-.37,1.08l-1.92,4.16c-.22.49-.5,1.16-1,1.13h-.12l-.13,0-.07.16-.08.16,5.78,2.71,1.55-1.44-.28-.13-.05,0h-.06a3.39,3.39,0,0,1-.64.05,4.16,4.16,0,0,1-2-.52l-1.46-.84,1-2.29.82.38c.42.18.92.46.93.72v.1l.13.06.17.08.69-1.51-.21-.09,0,0h0a1.74,1.74,0,0,1-.55-.18l-1.4-.66.8-1.75a11.07,11.07,0,0,1,1.21.5c.61.29,1.07.56,1.26,1.07l0,.07.1,0,.17.08.75-1.62-.21-.09,0,0Z"/><path class="cls-2" d="M122.18,218.34c-.13.46-.58.63-1.17.64a4.47,4.47,0,0,1-1.17-.18l-.28-.09.56-2,.8.17c.7.13,1.31.65,1.3,1.18a.93.93,0,0,1,0,.24m-.15,3.75a1.28,1.28,0,0,1-1.38.89,3,3,0,0,1-1.11-.21l-1-.39.73-2.56.83.2c1.06.25,2,1,2,1.75a1.19,1.19,0,0,1,0,.32m-.48-6.16-3.5-1-.06.22,0,.12.11.08a.65.65,0,0,1,.3.59,3.75,3.75,0,0,1-.22,1l-1.26,4.4c-.16.58-.33,1.32-.91,1.3h-.13l0,.16,0,.17,2.48.73a10.52,10.52,0,0,0,2.87.57,3.24,3.24,0,0,0,.44,0,2.67,2.67,0,0,0,2.42-1.69A2.16,2.16,0,0,0,124,222a2.62,2.62,0,0,0-1.37-2.11,1.65,1.65,0,0,0,1.51-1.61c0-1-1-1.85-2.63-2.33"/><path class="cls-2" d="M131.33,222.16l1.42-2.31.87,2.56Zm5,2.79L134,218.33l-2.59-.28,0,.22,0,.13.14,0c.25.11.27.18.27.28a1.38,1.38,0,0,1-.27.61l-3,4.77c-.4.68-.68,1.25-1.48,1.49l-.12,0v.16l0,.18,3,.33,0-.21,0-.14-.13,0c-.32-.16-.36-.24-.36-.35a1.56,1.56,0,0,1,.29-.67l.88-1.52,3.41.37.56,1.68a2.84,2.84,0,0,1,.22.74c0,.09,0,.12-.42.24l-.13,0v.17l0,.17,3.33.37,0-.22v-.13l-.1-.05a2.73,2.73,0,0,1-1.15-1.78"/><path class="cls-2" d="M148.19,224.67l0,0a4,4,0,0,1-2.43.85h-1.8l-.3-5.12c0-.2,0-.42,0-.63,0-.43.08-.77.47-.91l.12,0v-.35l-3.14.18v.35l.13,0c.59.12.59.86.61,1.46l.27,4.58c0,.18,0,.39,0,.59,0,.44-.08.79-.47.93l-.12,0v.35l6.27-.37.81-2h-.39Z"/><path class="cls-2" d="M159,222.72l0,.05a3.92,3.92,0,0,1-2.28,1.19l-1.79.27-1-5a4.55,4.55,0,0,1-.15-.91.69.69,0,0,1,.34-.67l.12-.06,0-.17,0-.18-3.08.64,0,.22,0,.13.14,0c.6,0,.71.77.82,1.36l.93,4.48a4.14,4.14,0,0,1,.14.89.7.7,0,0,1-.35.68l-.12.06,0,.17,0,.18,6.15-1.29.51-2.13-.32.07Z"/><path class="cls-2" d="M177.5,215.19l0,0a7.07,7.07,0,0,1-2.36,2,3.9,3.9,0,0,1-1.75.44,3.13,3.13,0,0,1-2.82-1.71,2.65,2.65,0,0,1-.3-1.23,3.16,3.16,0,0,1,1.92-2.74,5.58,5.58,0,0,1,2.51-.57h.43l-.14-.28-.69-1.38-.15,0a14.28,14.28,0,0,0-2.53.93,5.23,5.23,0,0,0-3.23,4.45,4.16,4.16,0,0,0,.45,1.85,3.94,3.94,0,0,0,3.68,2.24h0a7.6,7.6,0,0,0,3.41-.92,6.34,6.34,0,0,0,1.85-1.35l.05-.06,0-2-.31.15,0,0Z"/><path class="cls-2" d="M186.3,209.09l-.05,0v0a3.92,3.92,0,0,1-1.6,2l-1.53,1-3-4.16a2.37,2.37,0,0,1-.59-1.14.63.63,0,0,1,.13-.39l.08-.1-.09-.14-.11-.15L177,207.93l.13.18.08.11.13,0a.57.57,0,0,1,.22,0c.42,0,.79.53,1.08,1l2.66,3.72a2.37,2.37,0,0,1,.57,1.14.62.62,0,0,1-.14.38l-.09.11.11.14.1.15,5.11-3.68-.39-2.16-.27.2Z"/><path class="cls-2" d="M197,201.25l-.12.06a.66.66,0,0,1-.32.08c-.38,0-.8-.44-1.11-.77l-3.21-3.23c-.34-.33-.79-.75-.78-1.14a.61.61,0,0,1,.09-.3l.09-.19-.22-.09-.11,0-2.17,2.18.15.16.1.09.11-.05a.56.56,0,0,1,.3-.08c.38,0,.8.44,1.11.76l2.58,2.6c.31.32.47.46.5.88a.71.71,0,0,1,0,.14,2.75,2.75,0,0,1-.86,1.83,2.17,2.17,0,0,1-1.5.76,2.27,2.27,0,0,1-1.55-.79l-2.28-2.3c-.34-.32-.78-.74-.77-1.12a.65.65,0,0,1,.08-.31l.06-.11-.12-.12-.12-.13-2.22,2.22.15.15.1.1.11-.06a.53.53,0,0,1,.31-.08c.38,0,.79.44,1.11.77l2.28,2.3a3.06,3.06,0,0,0,2.22,1.22h.13a4.22,4.22,0,0,0,2.59-1.32,4.59,4.59,0,0,0,1.34-2.44l.29.27.12.13,1.78-1.77-.17-.16-.08-.09Z"/><path class="cls-2" d="M201.07,194.46l-.71.85-2.15-1.54.46-.72a2.69,2.69,0,0,1,1.93-1.39h0a1.07,1.07,0,0,1,.66.22,1.09,1.09,0,0,1,.49,1,2.62,2.62,0,0,1-.69,1.62m-3.62-1.61h0l-.17.25-1.66-1.19.42-.7a1.63,1.63,0,0,1,1.26-.88h0a.8.8,0,0,1,.48.15.77.77,0,0,1,.32.69,3.39,3.39,0,0,1-.67,1.68m4.88-2.66a2,2,0,0,0-1.14-.37,3,3,0,0,0-1.79.71,2.75,2.75,0,0,0,0-.4,1.56,1.56,0,0,0-.64-1.35,1.52,1.52,0,0,0-.9-.3,3.52,3.52,0,0,0-2.55,1.81l-2.11,3,.18.13.1.07.11-.07a.58.58,0,0,1,.38-.15,2.26,2.26,0,0,1,1.13.59l3.71,2.66c.41.29,1,.66,1,1.09a1,1,0,0,1,0,.21l-.05.13.15.09.14.11L201.5,196a9,9,0,0,0,1.61-2.95,3.32,3.32,0,0,0,.11-.88,2.36,2.36,0,0,0-.89-2"/><path class="cls-2" d="M140.74,90.84a59.69,59.69,0,0,0-45.06,20.47A60.61,60.61,0,0,0,85.75,127l.3,0,2.38-.24A57.78,57.78,0,0,1,140.87,93.1a57.38,57.38,0,0,1,38.06,14.41,58,58,0,0,1,11.7,14.24,8.47,8.47,0,0,1,2.15-.54h0a60.31,60.31,0,0,0-12.51-15.4,59.59,59.59,0,0,0-39.54-15"/><path class="cls-2" d="M198.17,134h0c-.1-.36-.2-.72-.32-1.09h0c.12.36.22.72.31,1.08"/><path class="cls-2" d="M120.37,106.17l.88-.16a.19.19,0,0,1,.15.07.15.15,0,0,1,0,.17,5.77,5.77,0,0,0-.46,2.28,7.32,7.32,0,0,0,.35,2.16.14.14,0,0,1,0,.14.15.15,0,0,1-.12.07L120,111h0a.17.17,0,0,1-.14-.09,7.54,7.54,0,0,1-.79-3.31,2.58,2.58,0,0,1,.2-1l-.59.1h0l-.1,0a.17.17,0,0,1-.05-.15,5.29,5.29,0,0,1,1.87-3.2l.07,0c.49-.11,1-.22,1.48-.31a.16.16,0,0,1,.18.09.16.16,0,0,1,0,.2,3.92,3.92,0,0,0-1.67,2.91m-3.68-1.65a4.69,4.69,0,0,0-1.22,2.84c.29-.06.57-.12.78-.18a.17.17,0,0,1,.18,0,.2.2,0,0,1,0,.18,7.06,7.06,0,0,0-.47,2.27,3.71,3.71,0,0,0,.44,1.75.15.15,0,0,1,0,.16.14.14,0,0,1-.12.09c-.4.07-.8.2-1.19.27h0a.16.16,0,0,1-.14-.08,4.31,4.31,0,0,1-1-2.66,3.66,3.66,0,0,1,.17-1.06,1.87,1.87,0,0,0-.28.07h-.07l-.1,0a.17.17,0,0,1-.07-.15,5.5,5.5,0,0,1,1.58-3.36l.07,0c.42-.15.84-.3,1.27-.43a.2.2,0,0,1,.21.09.17.17,0,0,1,0,.22m-4.49,1.58a6.13,6.13,0,0,0-1.55,2.85c.32-.14.4-.16.65-.26a.17.17,0,0,1,.19,0,.18.18,0,0,1,0,.2,4,4,0,0,0-.31,1.75,5.19,5.19,0,0,0,.49,2.09.17.17,0,0,1,0,.14.19.19,0,0,1-.1.1c-.42.13-.76.27-1.17.41h0a.18.18,0,0,1-.15-.07,4.4,4.4,0,0,1-.94-2.69,4.91,4.91,0,0,1,0-.53l-.09,0-.08,0-.12,0A.17.17,0,0,1,109,110a8.74,8.74,0,0,1,2-3.65l.05,0,.95-.46a.2.2,0,0,1,.23.05.18.18,0,0,1,0,.23m-5.87,5.06a.2.2,0,0,1,.31.2,5.52,5.52,0,0,0-.06.86,4.15,4.15,0,0,0,.45,2.3.17.17,0,0,1,0,.14.17.17,0,0,1-.1.12,12.42,12.42,0,0,1-1.09.61l-.1,0c-.05,0-.11,0-.13,0a4,4,0,0,1-.86-2.16,2.75,2.75,0,0,1,0-.41.7.7,0,0,1-.21.11l-.11,0a.2.2,0,0,1-.08-.22,12,12,0,0,1,2.45-4.33l0,0,.41-.33a.21.21,0,0,1,.28.29,8.24,8.24,0,0,0-1.7,3.27c.19-.15.32-.23.51-.37m-3.48,5.73a.19.19,0,0,1-.06.22c-.27.24-.73.46-1,.74a.2.2,0,0,1-.14.05h0a.16.16,0,0,1-.14-.08,2.92,2.92,0,0,1-.72-1.86v-.17l.07-.66c0-.13.09-.28.17-.45l0,0c.15-.16.3-.31.46-.46a19.32,19.32,0,0,1,1.5-3c.08-.1.17-.18.24-.27a.21.21,0,0,1,.27,0,.2.2,0,0,1,.06.26,6.75,6.75,0,0,0-1,2.68l-.07.13-.17.18a4.18,4.18,0,0,0-.11.94,6,6,0,0,0,.6,1.81m-3.57,2.7a.17.17,0,0,1,0,.2c-.25.21-.5.47-.75.71l-.13,0h0a.17.17,0,0,1-.13-.07,3,3,0,0,1-.65-1.78l.06-.74a2.44,2.44,0,0,1,.16-.41l0,0,.34-.35a15.15,15.15,0,0,1,1.39-2.82l.21-.24a.18.18,0,0,1,.3.19,6.58,6.58,0,0,0-.89,2.48l0,.12-.1.1a3.49,3.49,0,0,0-.11.91,5.08,5.08,0,0,0,.37,1.68m-3,2.6a.17.17,0,0,1,0,.18l-.69,1a.16.16,0,0,1-.14.07h-.07s-.51-.24-.5-1.07a4.25,4.25,0,0,1,.29-1.41L96.2,119a.17.17,0,0,1,.24-.07.18.18,0,0,1,.08.23,6,6,0,0,0-.45,2,2.32,2.32,0,0,0,.19,1m29.28-19.73.07,0,1.62-.34a.19.19,0,0,1,.2.11.19.19,0,0,1-.06.22,4.17,4.17,0,0,0-1.73,3l.88-.16a.21.21,0,0,1,.17.06.2.2,0,0,1,0,.2,6.06,6.06,0,0,0-.5,2.48,7.93,7.93,0,0,0,.44,2.35.18.18,0,0,1,0,.16.16.16,0,0,1-.14.07c-.31,0-.86,0-1.16,0h0a.16.16,0,0,1-.15-.09,7.56,7.56,0,0,1-1-3.49,2.9,2.9,0,0,1,.13-.89l-.57.09h0a.17.17,0,0,1-.12-.06.16.16,0,0,1,0-.15,5.87,5.87,0,0,1,2-3.49m6.36-.73.09,0,1.2-.09a.16.16,0,0,1,.18.11.17.17,0,0,1-.05.2,5.35,5.35,0,0,0-1.83,3.08l.94-.07a.19.19,0,0,1,.16.06.18.18,0,0,1,0,.16,7.52,7.52,0,0,0-.21,1.81,15.89,15.89,0,0,0,.53,3.78.19.19,0,0,1,0,.15.21.21,0,0,1-.14.07h0c-.44,0-1-.13-1.46-.14-.07,0-.13-.1-.17-.16a9,9,0,0,1-.9-3.92,5.88,5.88,0,0,1,.14-1.23l-.79.08h0a.21.21,0,0,1-.13,0,.17.17,0,0,1-.05-.15c.06-.78.5-2.22,2.49-3.65m6.23-.22.09,0,1.17,0a.2.2,0,0,1,.17.11.21.21,0,0,1-.05.2,7.25,7.25,0,0,0-2.1,3.15l1.09,0a.17.17,0,0,1,.18.18,27.16,27.16,0,0,0,.88,6.26.18.18,0,0,1,0,.16.16.16,0,0,1-.13.07h0l-1.34-.12a.19.19,0,0,1-.16-.1,16.33,16.33,0,0,1-1.55-6.22h-.84a.2.2,0,0,1-.14-.06.22.22,0,0,1,0-.16,5.58,5.58,0,0,1,2.81-3.49m8,13.51a5.22,5.22,0,0,1,3.78,1.63,5.28,5.28,0,0,1,3.28,4.88,5.19,5.19,0,0,1-5.2,5.21,5.24,5.24,0,0,1-3.74-1.61A5.23,5.23,0,0,1,146.12,115m-1.87-13.24.1,0,1.32.09a.19.19,0,0,1,.16.14.18.18,0,0,1-.07.19,5.78,5.78,0,0,0-2.24,3c.43,0,.86.06,1.29.11a.17.17,0,0,1,.16.15l.84,6.66a.24.24,0,0,1-.05.14l-.13.06h0c-.47-.07-.94-.14-1.42-.19a.17.17,0,0,1-.14-.12,30.75,30.75,0,0,1-1.43-6.51l-1.24-.07a.2.2,0,0,1-.13-.08.17.17,0,0,1,0-.14c.19-.83.88-2.17,3-3.38m6.19.34.1,0,1.32.1a.16.16,0,0,1,.15.13.16.16,0,0,1-.06.19,5.79,5.79,0,0,0-2.32,3.19v0c.52.06,1,.15,1.56.2a.17.17,0,0,1,.15.16l.57,6.27a.24.24,0,0,1-.05.14l-.13.06h0c-.47-.07-.93-.14-1.41-.19a.18.18,0,0,1-.15-.12,30.7,30.7,0,0,1-1.07-6.38l0-.06-1.52-.09a.17.17,0,0,1-.13-.07.21.21,0,0,1,0-.15,5.66,5.66,0,0,1,3-3.38m5.89,1,.12,0,1.67.21a.17.17,0,0,1,.15.14.19.19,0,0,1-.07.19,6.46,6.46,0,0,0-2.24,3.16l0,0c.54.09,1.06.21,1.6.29a.2.2,0,0,1,.15.13,21,21,0,0,1,.93,5.41,9.36,9.36,0,0,1-.11,1.41.19.19,0,0,1-.07.11l-.1,0h0l-1.76-.29a.19.19,0,0,1-.15-.16,43.36,43.36,0,0,0-1-6.78.17.17,0,0,1,0-.13l-1.66-.2a.18.18,0,0,1-.13-.1.22.22,0,0,1,0-.16,8.57,8.57,0,0,1,2.75-3.26m3.51,4.59a15,15,0,0,1,2-3.47l.16-.06,1.4.23a.17.17,0,0,1,.13.09.2.2,0,0,1,0,.15,20.28,20.28,0,0,1-1.43,3.51.19.19,0,0,1-.18.11h0c-.79-.1-1.21-.19-2-.27a.21.21,0,0,1-.15-.11.19.19,0,0,1,0-.18m4.54.89a15,15,0,0,1,.74,4.59,10.92,10.92,0,0,1-.17,2,.18.18,0,0,1-.18.16h0c-.69-.11-1.26-.21-1.92-.3a.19.19,0,0,1-.16-.21s0-.47,0-1.23a20.61,20.61,0,0,0-.59-5.16.17.17,0,0,1,0-.17.19.19,0,0,1,.17-.07c.79.09,1.15.19,1.93.29a.18.18,0,0,1,.15.13m2.58-3.16a.21.21,0,0,1,.07-.14.2.2,0,0,1,.15,0c.49.11.76.08,1.28.22a.17.17,0,0,1,.13.13,2.32,2.32,0,0,1,0,.46c0,1-.4,2.16-.42,3.29v0l1.39.16a.21.21,0,0,1,.16.12,14.29,14.29,0,0,1,1,5,8.38,8.38,0,0,1-.19,1.79.18.18,0,0,1-.19.15h0l-1.72-.25a.18.18,0,0,1-.15-.18c-.12-1.29.24-3.77-1.13-6.61a.21.21,0,0,1,0-.19c-.44-.09-.85-.15-1.38-.29a.19.19,0,0,1-.14-.2c.16-.78,1-1.88,1.07-3.47m4.83,1.29a.17.17,0,0,1,.07-.13.17.17,0,0,1,.15,0c.49.11.62.08,1.13.21a.2.2,0,0,1,.14.14,19.45,19.45,0,0,1,.38,3.54v.2l0,.06,1,.25.08,0a6.32,6.32,0,0,1,1.71,4.44,7.58,7.58,0,0,1-.21,1.76.19.19,0,0,1-.19.15h0l-2-.3a.19.19,0,0,1-.14-.09.16.16,0,0,1,0-.15,8.53,8.53,0,0,0,.34-2.18,5.24,5.24,0,0,0-1.72-3.89h0s-.06,0-.09-.16h0l-.75-.17a.17.17,0,0,1-.13-.2,23.42,23.42,0,0,0,.36-3.48m4.45,2.39a.18.18,0,0,1,.22,0c.49.44,1,.88,1.44,1.33l0,.08a2.84,2.84,0,0,1,.1.49c.2,0,.4.06.6.09l.09,0c1.3,1.1,3.29,3,3.3,5.51a4.76,4.76,0,0,1-.16,1.22.19.19,0,0,1-.18.13h0l-1.56-.21a.17.17,0,0,1-.13-.08.14.14,0,0,1,0-.14,4.13,4.13,0,0,0,.13-1c0-1.19-.47-3-2.72-5l-.83-.22a.18.18,0,0,1-.11-.08.23.23,0,0,1,0-.14,1.62,1.62,0,0,0,.07-.5,3.3,3.3,0,0,0-.31-1.32.2.2,0,0,1,.06-.22M94.3,139.74v2.65c3.27-1.06,10.18-3.23,13.08-4.12v2.32l1.26-.39v-2.3c2.94-.86,10.63-3,13.63-3.84v2.33l1.26-.34v-2.32c3.22-.83,10.35-2.59,13.58-3.37v2.33l1.27-.29v-2.33l1.59-.37c3.23-.72,6.48-1.42,9.68-2.07l2.45-.51v2.34l1.27-.25v-2.33c3.26-.63,8.42-1.57,11.59-2.1l5.94-1a9.7,9.7,0,0,1,7.74,2.06,8.34,8.34,0,0,1,1.38,1.48l.78.57c2.73,2.28,3.3,5.73,3.29,8.22v17.51a4.31,4.31,0,0,0,.09,1.18l.33.17v.54a3.69,3.69,0,0,0,1.19,1c0-3.55,0-11,0-13.29a9.92,9.92,0,0,1,7.22,3.93,8.29,8.29,0,0,1,.72.58,9.21,9.21,0,0,1,2.15,2.69,2.71,2.71,0,0,0,1.42-2.7,2.27,2.27,0,0,0-.52-1.24,15.11,15.11,0,0,0-3.05-2.84c-.81-.62-1.81-1.33-3-2.16-.29-.19-.56-.39-.82-.6a12.41,12.41,0,0,1-4.92-9.53c0-.15,0-.3,0-.46a10.34,10.34,0,0,1,3.74-8.06,55.25,55.25,0,0,0-97.44,3.62c3-.17,5.48-.17,7-.17,11.32,0,18.86-2.86,19-8.44l3.13,1c0,.34,0,.67,0,1l1.67.55c-.22,15.73-20.36,18.9-27.65,19.24"/><path class="cls-2" d="M101.19,181.55c10.75-4.29,51.62-16,83.32-19v2l2.16-.21V170c-21,2.31-49.66,10.59-61.15,23.31l-2-1.52a40.74,40.74,0,0,0-4.17-2.73,37,37,0,0,0-18.16-5v-2.52Zm86.89-8.28c.22-.23.44-.44.68-.68.07-.07.16,0,.25,0a5.3,5.3,0,0,1,1.66.76.2.2,0,0,1,0,.22c-.23.34-.55,1-.76,1.28a.17.17,0,0,1-.14.08l-.08,0c-.53-.25-1.26-.44-1.73-.7-.31.24-.62.47-.94.75l-.11.05-.34-.07a14.09,14.09,0,0,1-4.35-1.69.17.17,0,0,1-.09-.15.17.17,0,0,1,.07-.15c.58-.42,1.1-.85,1.63-1.26a.17.17,0,0,1,.19,0,18.14,18.14,0,0,0,4,1.6m-.09-5.13c.45-.32.54-.78,1-1.18a.17.17,0,0,1,.19,0,9.37,9.37,0,0,0,3.21,1.25.18.18,0,0,1,.12.09.16.16,0,0,1,0,.15c-.22.52-.45,1.05-.72,1.59a.16.16,0,0,1-.15.1h-.05a12.18,12.18,0,0,1-3.63-1.65.2.2,0,0,1-.09-.15.17.17,0,0,1,.07-.16m2.78-4.7,1-1.2a.16.16,0,0,1,.18-.05,4.32,4.32,0,0,0,2.11.48h.05l.07,0h0a.21.21,0,0,1,0,.13v0c-.16.48-.33,1-.52,1.45a.19.19,0,0,1-.16.11h0a7.12,7.12,0,0,1-2.73-.76.18.18,0,0,1-.1-.11.23.23,0,0,1,0-.14m-3.49,15.61c-.31.33-1,1.15-1.31,1.48a.15.15,0,0,1-.13.05h-.07a4.4,4.4,0,0,1-2.73-1.24c-.2.14-.55.35-.75.5l-.14,0c-1.48-.28-2.75-1.08-5-2.6a.22.22,0,0,1-.08-.15.16.16,0,0,1,.07-.14c.59-.47,1.16-.94,1.73-1.41a.17.17,0,0,1,.2,0,22.14,22.14,0,0,0,4.57,2.45l.57-.45a.18.18,0,0,1,.14,0s.08.05.13.09a7.3,7.3,0,0,0,2.82,1c.05,0,.07.08.07.13a1.11,1.11,0,0,1-.1.29m-4.38,4.42c-.33.35-1.12,1.1-1.42,1.4l-.13.06-.07,0c-.41-.12-2.47.06-3.8-1.42l-.57.43-.14,0c-1.46-.27-2.05-.67-4.28-2.19a.17.17,0,0,1-.08-.14.18.18,0,0,1,.07-.15l1.74-1.41a.17.17,0,0,1,.19,0c1.4.78,1.49,1.68,4.11,2.25.08,0,.43-.38.43-.38l0,0,.06-.06,0,0a.17.17,0,0,1,.21.08c.82,1.38,3.52,1.3,3.53,1.3a.17.17,0,0,1,.14.12.15.15,0,0,1,0,.18m-5,4.9,0,0h0l-1.55,1.09h-.16a7.91,7.91,0,0,1-3.77-2.37l-.64.4-.11,0c-1.53-.1-2.25-.26-4.76-2.09a.19.19,0,0,1-.07-.14.23.23,0,0,1,.08-.16c.51-.31,1.16-.93,1.69-1.26a.14.14,0,0,1,.17,0c1.43.81,1.57,1.63,4.65,2.12.07,0,.91-.69,1-.73s.22,0,.23.11c.07.84.29,1.69,3.19,2.68h0a.17.17,0,0,1,.1.22h0m-7.25,5.09h-.12c-.9-.26-3.46-.95-4.27-2.51l-.73.37h-.08c-1.66-.1-2.78-.73-4.88-2.25a.16.16,0,0,1-.08-.13l0-.11c.06-.08,1.43-.8,1.92-1.08a.19.19,0,0,1,.19,0,7.89,7.89,0,0,0,4.5,2.24c.47-.25.84-.56,1.21-.75a.22.22,0,0,1,.18,0,.2.2,0,0,1,.09.17c0,.46,1.06,1.79,3.93,2.54a.17.17,0,0,1,.13.22,13.71,13.71,0,0,1-2,1.24m-5.08,3.29c-.47.15-1.3.59-1.81.73h-.09c-1.22-.3-4-1-4.38-2.56a.18.18,0,0,1,.13-.2l.28-.11a11.12,11.12,0,0,1-4.44-2.29.16.16,0,0,1-.07-.16.17.17,0,0,1,.09-.14c.52-.25,1.31-.65,1.81-.92a.22.22,0,0,1,.21,0,8.54,8.54,0,0,0,5.27,2.44.2.2,0,0,1,.15.16.18.18,0,0,1-.11.19l-1.07.49c.21.56,1.59,1.38,4,2a.17.17,0,0,1,.13.17.18.18,0,0,1-.12.18m-6.47,2.89c-.49.14-1,.29-1.48.42h-.08c-1.23-.29-3.24-.91-3.57-2.42a.17.17,0,0,1,.12-.21l.3-.11a12,12,0,0,1-4.88-2.33.17.17,0,0,1-.07-.16.16.16,0,0,1,.1-.15c.54-.25,1.28-.47,1.76-.73a.18.18,0,0,1,.2,0,10.51,10.51,0,0,0,5.74,2.29.18.18,0,0,1,.15.16.17.17,0,0,1-.1.19l-1.27.58c.07.52.54,1.42,3.07,2.09a.18.18,0,0,1,.13.17.2.2,0,0,1-.12.18m-6.93,1.9c-.54,0-1.21.2-1.77.23h-.06a4,4,0,0,1-2.63-2,.18.18,0,0,1,0-.16.17.17,0,0,1,.13-.08,4.48,4.48,0,0,0,.5-.11,14,14,0,0,1-4.13-2.41.16.16,0,0,1-.06-.17.19.19,0,0,1,.13-.14c.48-.1,1.2-.39,1.72-.53a.17.17,0,0,1,.17,0,9.06,9.06,0,0,0,4.71,2.71.19.19,0,0,1,.15.18.2.2,0,0,1-.15.18c-.3.05-.72.19-1.12.29.17.51.91,1.14,2.44,1.68a.15.15,0,0,1,.12.19.18.18,0,0,1-.16.16m-6.5,1.19c-.11,0-.33.06-.44.06-.42,0-.68.12-1.12.1H144c-.71-.35-1.73-1-1.75-1.79,0,0,0,0,0-.07a.18.18,0,0,1,.16-.12l1-.08a12.22,12.22,0,0,1-4.1-2.33.17.17,0,0,1-.05-.18.18.18,0,0,1,.15-.13c.6-.08,1.22-.23,1.83-.36l.16.05a10.4,10.4,0,0,0,4,2.56.2.2,0,0,1,.12.19.18.18,0,0,1-.15.17l-.7.07c0,.06-.09.33-.09.43,0,.25.31.59,1.18,1.11a.18.18,0,0,1,.09.2.17.17,0,0,1-.17.13m-5.65.79-1.61,0h-.07a3,3,0,0,1-1.59-1.61s0,0,0-.07a.18.18,0,0,1,.17-.13c.26,0,.51,0,.76-.06a11.1,11.1,0,0,1-3.68-2.19.19.19,0,0,1-.05-.19.14.14,0,0,1,.15-.12c.6-.08,1.22-.12,1.83-.24l.16,0a9.4,9.4,0,0,0,3.8,2.4.17.17,0,0,1,.13.19.19.19,0,0,1-.16.16l-.74.12a.5.5,0,0,0-.09.29c0,.24.19.59,1.06,1.1a.18.18,0,0,1-.08.34m-5.4-1.29h-.29l-1.34,0a.52.52,0,0,0-.06.23c0,.08.44.25.53.39a.18.18,0,0,1-.15.29h0c-.28-.05-1-.15-1.33-.19l-.07,0a5.35,5.35,0,0,1-1.08-.91.17.17,0,0,1,0-.2.18.18,0,0,1,.17-.1l.56,0a10.33,10.33,0,0,1-2.65-1.94.17.17,0,0,1,0-.19.18.18,0,0,1,.17-.11h.69c.38,0,.77,0,1.17,0l.14.06a8.09,8.09,0,0,0,3.68,2.37.18.18,0,0,1,.13.2.19.19,0,0,1-.18.15m-7-.19h0c-.25,0-.61-.07-1-.11l0,.06.19.2a.17.17,0,0,1,0,.18.16.16,0,0,1-.13.06h0c-.28-.08-.75-.16-1-.25l-.08,0a2.54,2.54,0,0,1-.47-.65.18.18,0,0,1,0-.2.17.17,0,0,1,.18-.08h0a12.05,12.05,0,0,1-1.73-1.82.2.2,0,0,1,0-.2.16.16,0,0,1,.19-.08c.57.1,1.14.19,1.69.25l.12.08a8.16,8.16,0,0,0,2.23,2.27.19.19,0,0,1,.07.22.18.18,0,0,1-.17.11m-5.31-.61h-.06c-.62-.23-1.23-.48-1.91-.76a5.14,5.14,0,0,1-1.56-2.23.19.19,0,0,1,0-.19.21.21,0,0,1,.2,0c.55.25,1.11.49,1.65.7a.24.24,0,0,1,.12.14,3.63,3.63,0,0,0,1.63,2,.19.19,0,0,1,.05.23.17.17,0,0,1-.16.1m-5.5-1.66-.1,0a5.94,5.94,0,0,1-2.13-1.48v0a7.54,7.54,0,0,1-.64-1.59h0a.15.15,0,0,1,.09-.15.17.17,0,0,1,.18,0l.18.12h0c.73.48.85.43,1.61.89l.08.12a3.73,3.73,0,0,0,.85,1.82.17.17,0,0,1,0,.23.15.15,0,0,1-.13.07m-4.46-2-.09,0c-.11-.06-2.26-1.61-2.26-1.61a6.48,6.48,0,0,1-.52-1.43.18.18,0,0,1,.27-.19l.17.12h0c.73.49.85.44,1.61.9l.08.12a3.62,3.62,0,0,0,.85,1.81.18.18,0,0,1,0,.25.18.18,0,0,1-.14.06m-.37.17h0m-4.26-3.1-.09,0a7.06,7.06,0,0,1-1.58-1.28l-.06-.09a10.29,10.29,0,0,1-.48-1.42.18.18,0,0,1,.21,0l1.41,1,.07.1a5.08,5.08,0,0,0,.65,1.46.2.2,0,0,1,0,.24.18.18,0,0,1-.15.07M97.48,180.73l-2.78,1.05a55.38,55.38,0,0,0,100.87-22.07c-3,.27-6.43.58-7.71.72v-2.32l-1.18.12v2.34c-3.33.31-9.68,1.2-13.18,1.72V160l-2.16.32V136.7a9.3,9.3,0,0,0-.59-3.56,5.58,5.58,0,0,0-1.24-.19c0,3.26,0,29.94,0,29.94l-10.58,1.8v-2.31l-1.65.28V165l-3.63.73a7.82,7.82,0,0,1-6.68-1.43,7.27,7.27,0,0,1-1.27-1.27,10.51,10.51,0,0,1-.89-.59c-2.94-2.26-3.28-6.15-3.28-8.88v-17c0-.91,0-2.32-2.24-3.34v28a7.81,7.81,0,0,0,.18,1.92l.69.15v1a4.58,4.58,0,0,0,2.16.84v3c-10,2.26-20.8,5.13-30.65,8a10.42,10.42,0,0,1-8.89-1.29,8.23,8.23,0,0,1-1.08-1,8.36,8.36,0,0,1-1.08-.65c-2.45-1.75-3.82-5-3.81-8.92v-16c0-.85-.08-1.84-2.49-2.65V175.6a2.07,2.07,0,0,0,.2.88,6.41,6.41,0,0,0,.83.18v.79a5.5,5.5,0,0,0,2.15.8v2.47Z"/><path class="cls-3" d="M111.91,197.92Z"/><path class="cls-1" d="M146.12,117.07a3.18,3.18,0,1,1-3.16,3.18,3.17,3.17,0,0,1,3.16-3.18m-1.88,8.06a5.11,5.11,0,0,0,1.88.36,5.24,5.24,0,1,0-1.88-.36"/><path class="cls-2" d="M110,166.76a6.31,6.31,0,0,0,1.63.07v-23c0-.81-.2-2-2.13-2.79v22.87a7.06,7.06,0,0,0,.5,2.88"/><path class="cls-2" d="M154.5,160.08a5.27,5.27,0,0,0,.6.14v.95a3.36,3.36,0,0,0,1.65.85V133.46c0-.93,0-2.43-2.49-3.42v28.05a6.89,6.89,0,0,0,.24,2"/><path class="cls-2" d="M124.91,162.65a5.69,5.69,0,0,0,1.6.06v-22.9c0-.82-.21-2-2.08-2.91v22.85a7.4,7.4,0,0,0,.48,2.9"/><path class="cls-4" d="M138.37,132.39l-1.26.3v26.67c0,2.45.45,3.25,2.34,3.74a7.81,7.81,0,0,1-.18-1.92v-28a8.86,8.86,0,0,0-.9-.36Z"/><path class="cls-4" d="M109.49,174.43a10.67,10.67,0,0,1-7.81-.59,7.64,7.64,0,0,0,1.08,1,10.42,10.42,0,0,0,8.89,1.29c9.85-2.91,20.67-5.79,30.65-8v-3a4.78,4.78,0,0,1-2.17-.83v2c-10,2.32-20.79,5.25-30.64,8.22"/><path class="cls-4" d="M123.63,162.11a2.89,2.89,0,0,0,1.28.54,7.42,7.42,0,0,1-.48-2.91V136.9a8.79,8.79,0,0,0-.9-.37v-.48l-1.26.34V158c0,2,.46,3.41,1.36,4.1"/><path class="cls-4" d="M108.71,166.21a3.11,3.11,0,0,0,1.33.55,7.06,7.06,0,0,1-.5-2.88V141a5.76,5.76,0,0,0-.89-.31v-.5l-1.27.38v21.65c0,2,.45,3.3,1.33,4"/><path class="cls-4" d="M154.5,160.08a6.89,6.89,0,0,1-.24-2V130c-.27-.11-.56-.21-.89-.31v-.52l-1.27.25v26.72c0,2.43.65,3.43,2.4,3.9"/><path class="cls-4" d="M156.75,162a3.28,3.28,0,0,1-1.65-.85v1.88l-3.63.76a8,8,0,0,1-5.79-.8,6.94,6.94,0,0,0,1.27,1.27,7.86,7.86,0,0,0,6.68,1.43l3.63-.73v-2.31l-.51.08Z"/><path class="cls-4" d="M94.7,181.79l2.78-1.06v-2.48a5.25,5.25,0,0,1-2.15-.81v1.7c-3.77,1.36-10.22,3.82-14.52,5.68v2.47c1.19-.56,5.49-2.26,9.43-3.78l2.2-.86,2.26-.86"/><path class="cls-4" d="M205.72,140.59a9.69,9.69,0,0,1,2.31,6.77c0,4.28-3.16,9.24-8,9.61-3.43.27-8,.69-12.14,1.13,0,1.15,0,2,0,2.33,1.28-.13,4.68-.45,7.7-.72l2.15-.19,2.38-.21.86-.08a10.19,10.19,0,0,0,9-9.66c0-3.09-.49-5.57-4.18-9"/><path class="cls-4" d="M200.68,133.32a10.42,10.42,0,0,0,7.31,4.16c0-3,0-13.67,0-15l-2.17.13v12.66a11.85,11.85,0,0,1-5.14-2"/><path class="cls-4" d="M196.93,127.48c-1.5.48-1.26,2.82-1.26,2.94,0,1,.42,2.28,2.77,4a3.77,3.77,0,0,1-.26-.48h0c-.09-.36-.19-.71-.31-1.07h0c0-.1,0-.21,0-.3a4.41,4.41,0,0,1,.27-2,10.52,10.52,0,0,1-1.18-3"/><path class="cls-4" d="M192.92,147.23A9.87,9.87,0,0,1,194.6,151a4.82,4.82,0,0,0,1.2-.45,9.42,9.42,0,0,0-2.15-2.7c-.24-.2-.47-.4-.73-.58"/><path class="cls-4" d="M94.3,145.66l-.54-.17v-2.92l.54-.18v-2.65c7.31-.34,27.44-3.51,27.66-19.23l-1.67-.56c-.55,15.13-21,17.43-28.15,17.81V174c0,1.52,1.41,2.18,2.35,2.46a2.07,2.07,0,0,1-.19-.88V145.66Z"/><path class="cls-4" d="M81.45,141.34v-2.27c-4.79.74-9.53,2.41-9.55,5.17v0a3.54,3.54,0,0,0,2.74,3.35,3.24,3.24,0,0,1-.58-1.89v0c0-2.39,3-3.71,7.39-4.36"/><path class="cls-4" d="M74.86,149.79a10.06,10.06,0,0,1-3.11.61,8,8,0,0,1-2.93-.56,7,7,0,0,0,5.09,2,10.48,10.48,0,0,0,3.1-.58v-2.15a3.92,3.92,0,0,1-2.15-1.25Z"/><path class="cls-4" d="M146.12,125.49a5.11,5.11,0,0,1-1.88-.36,5.24,5.24,0,0,0,3.74,1.61,5.18,5.18,0,0,0,5.2-5.2,5.29,5.29,0,0,0-3.28-4.89,5.23,5.23,0,0,1-3.78,8.84"/><path class="cls-4" d="M123.52,191.82l2,1.51c11.49-12.72,40.17-21,61.15-23.31v-5.73l-2.16.21v3.74c-21,2.43-49.5,10.8-61,23.58"/><path class="cls-4" d="M184.51,155.56v2.93c-2.72.27-7.46.93-11,1.46v2.34c3.49-.52,9.84-1.41,13.17-1.72v-2.34l-1,.11v-1.75a3.58,3.58,0,0,1-1.19-1"/><path class="cls-4" d="M181.93,151.6c0,1,0,2.11,2,3.15l.21.1a4.31,4.31,0,0,1-.09-1.18v-17.5c0-2.5-.56-5.95-3.3-8.22-.24-.2-.5-.4-.77-.59a11.47,11.47,0,0,1,1.91,6.74v17.5Z"/><path class="cls-4" d="M167.34,131c0,3.27,0,29.94,0,29.94l-8.41,1.48v2.3l10.58-1.79s0-26.68,0-29.94a5.13,5.13,0,0,1,1.25.19,3.81,3.81,0,0,0-1-1.43,4,4,0,0,0-2.37-.75"/><path class="cls-1" d="M108.89,172.47a8.36,8.36,0,0,1-7.1-.95c-1.9-1.37-3-4-3-7.25V148.93c0-1.06.36-3.62-3.16-4.82,2.77-.91,6-2,9.66-3.06v21.18c0,9,8.3,6.34,8.39,6.33V144.41c0-1.06.35-3.6-3.15-4.93,3-.88,6.23-1.8,9.64-2.73V158c0,9.11,8.26,6.45,8.35,6.44v-24a4.53,4.53,0,0,0-3.18-5.05q4.65-1.2,9.68-2.41v26.39c0,2.2.31,4.69,3.05,5.24-10.59,2.46-20.43,5.16-29.22,7.87m28.22-13.11v-29c-3.23.77-10.36,2.53-13.58,3.36v2.8a7.94,7.94,0,0,1,.9.37c1.87.91,2.09,2.09,2.09,2.91v22.9a5.74,5.74,0,0,1-1.61-.06,2.94,2.94,0,0,1-1.28-.54c-.9-.69-1.37-2.08-1.37-4.1V134.07c-3,.82-10.68,3-13.62,3.83v2.79a8.38,8.38,0,0,1,.9.32c1.94.82,2.14,2,2.14,2.79,0,.09,0,20,0,23a5.9,5.9,0,0,1-1.63-.06,3,3,0,0,1-1.32-.55c-.9-.68-1.34-2-1.34-4v-24c-2.9.89-9.81,3.06-13.08,4.12l-.54.18v2.92l.54.17c2.41.81,2.5,1.8,2.5,2.65,0,.1,0,16,0,16,0,3.9,1.37,7.17,3.82,8.92a7.31,7.31,0,0,0,1.08.64,10.67,10.67,0,0,0,7.81.61c9.85-3,20.67-5.92,30.65-8.23v-3c-.25-.05-.48-.09-.69-.15-1.89-.49-2.34-1.29-2.34-3.74"/><path class="cls-1" d="M146,160.78c-1.81-1.38-2.48-3.76-2.48-7.25V136.82a4.66,4.66,0,0,0-3.14-5.1c3.13-.71,6.35-1.4,9.63-2.08v26.54c0,2.18.31,4.63,3,5.22l-1.91.38a5.79,5.79,0,0,1-5.07-1m5.42,3,3.64-.76v-2.83c-.22,0-.41-.09-.6-.14-1.76-.47-2.4-1.47-2.4-3.9V127.13l-2.45.5c-3.2.65-6.46,1.35-9.68,2.08l-1.6.37v2.72a6.48,6.48,0,0,1,.9.36c2.19,1,2.25,2.41,2.24,3.33v17c0,2.73.33,6.63,3.28,8.89.3.22.59.41.89.6a8.06,8.06,0,0,0,5.78.79"/><path class="cls-1" d="M104.8,182.32c8.31-3.17,47-14.29,77.67-17.52v1.63c-21.46,2.78-47.89,10.85-59.24,22.72-9-6.1-16.9-7-18.43-6.83m18.72,9.5c11.49-12.79,40-21.15,61-23.58v-5.72c-31.7,3-72.57,14.74-83.32,19v2.52a38.75,38.75,0,0,1,22.33,7.75"/><path class="cls-1" d="M173.39,157.89V136.71c0-8.68-6.29-8-8.1-7.6v30.06c-2.18.36-4.34.75-6.49,1.13V133.79c0-1.07.35-3.57-3.16-5.25q4.74-.9,9.65-1.73c1.92-.32,3.86-.63,5.8-.92a8.22,8.22,0,0,1,6.24,1.6c2.09,1.72,2.55,4.53,2.54,6.6v17.17c0,1.07-.34,3.57,3.19,5.33-3.25.4-6.48.84-9.67,1.3m11.12-2.33V155l-.33-.17-.21-.11c-2.07-1-2.06-2.1-2-3.14V134.09a11.36,11.36,0,0,0-1.92-6.72,7.34,7.34,0,0,0-1.38-1.47,9.64,9.64,0,0,0-7.73-2.07l-5.94,1c-3.17.53-8.33,1.48-11.59,2.1v2.85a8.58,8.58,0,0,1,.9.31c2.46,1,2.5,2.49,2.48,3.42v29.29l.51-.09,1.65-.28,8.41-1.47s0-26.69,0-29.94a3.83,3.83,0,0,1,2.36.74,3.69,3.69,0,0,1,1,1.43,8.92,8.92,0,0,1,.59,3.57v23.56l2.17-.32c3.55-.52,8.29-1.19,11-1.47v-2.92Z"/><path class="cls-3" d="M135.06,159.36V133q-5,1.2-9.68,2.41a4.53,4.53,0,0,1,3.18,5.05v24c-.09,0-8.34,2.67-8.34-6.45V136.75c-3.42.93-6.65,1.85-9.65,2.73,3.51,1.33,3.14,3.87,3.15,4.93v24.15c-.09,0-8.39,2.64-8.39-6.33V141.05c-3.65,1.11-6.89,2.15-9.66,3.06,3.52,1.2,3.15,3.76,3.16,4.82v15.34c0,3.23,1.06,5.87,3,7.25a8.26,8.26,0,0,0,7.09.94c8.79-2.71,18.63-5.4,29.22-7.86-2.73-.55-3.05-3-3.05-5.24"/><path class="cls-3" d="M153,161.4c-2.66-.59-3-3-3-5.22V129.64c-3.28.68-6.5,1.37-9.63,2.08a4.63,4.63,0,0,1,3.13,5.1v16.71c0,3.49.68,5.86,2.48,7.25a5.81,5.81,0,0,0,5.08,1l1.91-.38"/><path class="cls-3" d="M186.92,131.35a10.38,10.38,0,0,0,4.83,8.5c6.41,4.31,7.43,6.17,7.5,7.86.19,4-3.34,5.57-6.39,5.54a7.8,7.8,0,0,0-5.11-7.41c0,.61,0,9.37,0,10.23,4.31-.48,7.86-.83,12.23-1.16,3.75-.41,6.3-4.46,6-8.14-.24-2.68-.46-5-8.22-10.3-3.27-2.24-4-4.26-4.12-6-.17-4,2-5.41,5-5.33a7.93,7.93,0,0,0,5.11,7.49c0-.6,0-9.18,0-10.19-4,.24-6.85.45-10.75.77-4.25.44-6.27,4.64-6.11,8.1"/><path class="cls-3" d="M69.85,144.26v0c0-5.62,9.77-7.12,13.65-7.48,0,0,0,40.31,0,40.23s-.35,4.05-2.71,5.61c3.53-1.53,7.65-3.15,12.28-4.84a3.44,3.44,0,0,1-3-3.73V135.77c4.52-.07,26.42-1.14,28.09-14.64-1.29,4.58-9,7.27-20,7.29-7.66,0-31.71.23-31.71,14.1,0,1.49.54,5.79,5.27,5.82a5.36,5.36,0,0,1-1.92-4.08"/><path class="cls-3" d="M146.12,123.43a3.18,3.18,0,1,0-3.16-3.18,3.16,3.16,0,0,0,3.16,3.18"/><path class="cls-3" d="M182.47,166.43V164.8c-30.67,3.24-69.36,14.35-77.67,17.51,1.53-.18,9.38.74,18.43,6.84,11.35-11.87,37.78-19.94,59.24-22.72"/><path class="cls-3" d="M179.88,151.26s0-14.64,0-17.17c0-2.07-.46-4.88-2.55-6.6a8.3,8.3,0,0,0-6.24-1.6q-2.93.44-5.79.92-4.92.81-9.66,1.73c3.52,1.68,3.14,4.18,3.16,5.25V160.3c2.15-.39,4.31-.77,6.5-1.13v-30c1.8-.43,8.09-1.08,8.09,7.58v21.19c3.19-.46,6.42-.9,9.68-1.3-3.54-1.76-3.18-4.26-3.19-5.33"/><path class="cls-3" d="M96.44,119a.18.18,0,0,0-.24.06l-1.07,1.89a4.26,4.26,0,0,0-.29,1.42c0,.82.46,1,.5,1.06h.06a.18.18,0,0,0,.15-.07l.7-1a.21.21,0,0,0,0-.19,2.14,2.14,0,0,1-.2-1,6.12,6.12,0,0,1,.46-2,.18.18,0,0,0-.08-.23"/><path class="cls-3" d="M99.12,116.91l0-.13a6.58,6.58,0,0,1,.89-2.48.18.18,0,0,0-.3-.19c-.06.08-.14.15-.21.24a16.4,16.4,0,0,0-1.4,2.82c-.1.12-.22.23-.33.35l0,0a1.65,1.65,0,0,0-.17.4l-.06.74a2.9,2.9,0,0,0,.65,1.78.17.17,0,0,0,.13.07h0a.19.19,0,0,0,.13,0l.75-.72a.18.18,0,0,0,.05-.2,4.82,4.82,0,0,1-.38-1.67A3.41,3.41,0,0,1,99,117l.1-.1"/><path class="cls-3" d="M153.72,106.69l1.64.2a.2.2,0,0,0,0,.13,44.61,44.61,0,0,1,1,6.78.17.17,0,0,0,.14.16q.89.14,1.77.3h0l.11,0a.29.29,0,0,0,.07-.12,10.86,10.86,0,0,0,.11-1.4,20.57,20.57,0,0,0-.94-5.42.15.15,0,0,0-.14-.12c-.54-.09-1.06-.2-1.6-.3l0,0a6.55,6.55,0,0,1,2.25-3.17.19.19,0,0,0,.06-.19.17.17,0,0,0-.15-.12c-.56-.08-1.11-.16-1.67-.22l-.12,0a8.57,8.57,0,0,0-2.75,3.25.18.18,0,0,0,.14.26"/><path class="cls-3" d="M123.67,106.16h0l.57-.09a3,3,0,0,0-.13.89,7.68,7.68,0,0,0,1,3.49.16.16,0,0,0,.15.09h0c.3,0,.85,0,1.15,0a.15.15,0,0,0,.14-.07.16.16,0,0,0,0-.16,7.93,7.93,0,0,1-.44-2.35,6.15,6.15,0,0,1,.5-2.49.22.22,0,0,0,0-.18.19.19,0,0,0-.17-.07l-.89.16a4.22,4.22,0,0,1,1.74-3,.2.2,0,0,0,.06-.22.18.18,0,0,0-.2-.11l-1.62.34-.07,0a5.84,5.84,0,0,0-2,3.49.18.18,0,0,0,0,.16.21.21,0,0,0,.13,0"/><path class="cls-3" d="M167.41,109.45a.21.21,0,0,0,0,.2c1.37,2.83,1,5.31,1.13,6.61a.17.17,0,0,0,.15.17l1.72.25h0a.18.18,0,0,0,.18-.15,8.36,8.36,0,0,0,.18-1.79,14.48,14.48,0,0,0-1-5,.18.18,0,0,0-.16-.11l-1.39-.17v0c0-1.13.41-2.34.42-3.29a2.32,2.32,0,0,0,0-.46.2.2,0,0,0-.13-.14c-.52-.13-.79-.1-1.29-.21a.17.17,0,0,0-.14,0,.23.23,0,0,0-.07.14c-.06,1.58-.91,2.7-1.06,3.46a.18.18,0,0,0,.13.21c.54.14.94.2,1.38.29"/><path class="cls-3" d="M176.42,111.21a.22.22,0,0,0,0,.14.2.2,0,0,0,.11.09l.83.21c2.25,2,2.71,3.77,2.71,4.95a4.16,4.16,0,0,1-.13,1.05.27.27,0,0,0,0,.15.33.33,0,0,0,.13.07l1.56.21h0a.17.17,0,0,0,.17-.14,4.33,4.33,0,0,0,.17-1.22c0-2.47-2-4.41-3.3-5.51l-.09,0-.6-.1a2.84,2.84,0,0,0-.1-.49l0-.08c-.46-.45-1-.9-1.43-1.32a.17.17,0,0,0-.22,0,.18.18,0,0,0-.07.22,3.3,3.3,0,0,1,.31,1.32,1.62,1.62,0,0,1-.07.5"/><path class="cls-3" d="M115.26,104.64l-.06,0a5.59,5.59,0,0,0-1.59,3.36.21.21,0,0,0,.07.16.18.18,0,0,0,.11,0h.06a1.87,1.87,0,0,1,.28-.07,3.66,3.66,0,0,0-.17,1.06,4.31,4.31,0,0,0,1,2.66.16.16,0,0,0,.14.08h0c.39-.08.79-.2,1.19-.27a.16.16,0,0,0,.12-.09.18.18,0,0,0,0-.16,3.61,3.61,0,0,1-.45-1.75,6.86,6.86,0,0,1,.47-2.27.18.18,0,0,0,0-.18.2.2,0,0,0-.18,0l-.78.19a4.74,4.74,0,0,1,1.22-2.84.16.16,0,0,0,0-.22.2.2,0,0,0-.21-.09l-1.27.43"/><path class="cls-3" d="M111,106.29l-.05,0a8.87,8.87,0,0,0-2,3.65.17.17,0,0,0,.06.18l.11,0,.09,0,.09,0a3.23,3.23,0,0,0,0,.53,4.4,4.4,0,0,0,.94,2.69.18.18,0,0,0,.15.07h0c.41-.14.75-.28,1.17-.41a.19.19,0,0,0,.1-.1.12.12,0,0,0,0-.14,5.19,5.19,0,0,1-.49-2.09,4,4,0,0,1,.31-1.75.19.19,0,0,0,0-.2.23.23,0,0,0-.21,0l-.64.27a6.09,6.09,0,0,1,1.55-2.85.18.18,0,0,0-.21-.28c-.32.15-.63.3-.95.47"/><path class="cls-3" d="M107.51,108a.23.23,0,0,0-.27,0l-.41.33,0,0a12.12,12.12,0,0,0-2.45,4.33.2.2,0,0,0,.08.22l.11,0a.7.7,0,0,0,.21-.11,1.85,1.85,0,0,0,0,.41,4,4,0,0,0,.86,2.16s.08,0,.13,0l.1,0c.39-.18.74-.41,1.1-.61a.19.19,0,0,0,.09-.12.2.2,0,0,0,0-.15,4,4,0,0,1-.45-2.28,5.8,5.8,0,0,1,.06-.88.19.19,0,0,0-.09-.19.18.18,0,0,0-.21,0l-.52.36a8.24,8.24,0,0,1,1.7-3.27.21.21,0,0,0,0-.26"/><path class="cls-3" d="M102.54,114l.06-.13a6.85,6.85,0,0,1,1-2.68.2.2,0,0,0-.07-.26.2.2,0,0,0-.26,0c-.07.09-.16.17-.24.27a18.43,18.43,0,0,0-1.5,3,4.86,4.86,0,0,0-.45.46l0,0a3.3,3.3,0,0,0-.17.45l-.07.67V116a3,3,0,0,0,.71,1.86.19.19,0,0,0,.15.08h0a.2.2,0,0,0,.14-.05c.28-.27.74-.5,1-.74a.19.19,0,0,0,.06-.22,5.82,5.82,0,0,1-.59-1.81,4.23,4.23,0,0,1,.1-.94l.18-.18"/><path class="cls-3" d="M147.57,105.72l1.51.09,0,.07a31.29,31.29,0,0,0,1.08,6.37.18.18,0,0,0,.15.12c.48,0,.94.12,1.41.19h0l.12,0a.17.17,0,0,0,.05-.15l-.57-6.26a.17.17,0,0,0-.16-.17c-.53-.05-1-.14-1.55-.2l0,0a5.67,5.67,0,0,1,2.31-3.18.19.19,0,0,0,.07-.2.2.2,0,0,0-.16-.13l-1.32-.09-.1,0a5.6,5.6,0,0,0-3,3.38.21.21,0,0,0,0,.15.17.17,0,0,0,.13.07"/><path class="cls-3" d="M141.39,105.38l1.23.07a31.39,31.39,0,0,0,1.43,6.51.17.17,0,0,0,.14.12l1.42.19h0a.14.14,0,0,0,.12-.06.19.19,0,0,0,.06-.15l-.84-6.65a.17.17,0,0,0-.16-.15c-.43-.05-.86-.07-1.29-.11a5.78,5.78,0,0,1,2.24-3,.17.17,0,0,0,.07-.19.21.21,0,0,0-.16-.14l-1.32-.08-.1,0c-2.14,1.21-2.83,2.56-3,3.38a.16.16,0,0,0,0,.15.27.27,0,0,0,.14.07"/><path class="cls-3" d="M162.13,108.29a.2.2,0,0,0,0,.18,20.23,20.23,0,0,1,.59,5.17c0,.75,0,1.22,0,1.22a.21.21,0,0,0,.17.21c.66.09,1.23.19,1.91.3h0a.18.18,0,0,0,.19-.15,11.11,11.11,0,0,0,.17-2,15,15,0,0,0-.74-4.59.21.21,0,0,0-.16-.13c-.77-.1-1.13-.19-1.92-.29a.18.18,0,0,0-.17.06"/><path class="cls-3" d="M162,108.32h0a.19.19,0,0,0,.17-.11,19.75,19.75,0,0,0,1.43-3.5.21.21,0,0,0,0-.17.22.22,0,0,0-.13-.08l-1.4-.23-.16,0a15.28,15.28,0,0,0-2,3.48.21.21,0,0,0,0,.19.23.23,0,0,0,.15.1c.78.08,1.2.17,2,.27"/><path class="cls-3" d="M172.31,110.63h0c0,.16.08.15.09.16h0a5.23,5.23,0,0,1,1.72,3.89,8.6,8.6,0,0,1-.34,2.18.2.2,0,0,0,0,.15.18.18,0,0,0,.13.09l2,.3h0a.2.2,0,0,0,.19-.15,7.75,7.75,0,0,0,.21-1.78,6.26,6.26,0,0,0-1.71-4.43l-.08,0-1-.26,0-.05v-.2a19.46,19.46,0,0,0-.39-3.54.17.17,0,0,0-.12-.14c-.52-.13-.65-.1-1.14-.22a.17.17,0,0,0-.15,0,.17.17,0,0,0-.07.14,26.57,26.57,0,0,1-.36,3.47.17.17,0,0,0,.14.2l.74.17"/><path class="cls-3" d="M135.49,105.23h.85a16.05,16.05,0,0,0,1.54,6.21.18.18,0,0,0,.15.1l1.34.12h0a.18.18,0,0,0,.14-.06.16.16,0,0,0,0-.16,27.3,27.3,0,0,1-.88-6.28.18.18,0,0,0-.17-.18H137.4a7.35,7.35,0,0,1,2.11-3.15.19.19,0,0,0,.05-.19.19.19,0,0,0-.17-.12h-1.26a5.62,5.62,0,0,0-2.81,3.49.19.19,0,0,0,0,.16.21.21,0,0,0,.14.07"/><path class="cls-3" d="M129.59,105.58h0l.78-.08a5.75,5.75,0,0,0-.15,1.23,8.78,8.78,0,0,0,.92,3.92c0,.07.09.17.16.17.41,0,1,.12,1.46.13h0a.21.21,0,0,0,.14-.07.21.21,0,0,0,0-.16,15.76,15.76,0,0,1-.53-3.77,7.18,7.18,0,0,1,.2-1.81.18.18,0,0,0,0-.16.15.15,0,0,0-.14-.06l-.95.07a5.31,5.31,0,0,1,1.84-3.08.18.18,0,0,0,0-.2.17.17,0,0,0-.18-.11l-1.2.09-.09,0c-2,1.43-2.43,2.87-2.49,3.66a.24.24,0,0,0,.05.14.21.21,0,0,0,.13,0"/><path class="cls-3" d="M122.09,103.07a.17.17,0,0,0-.18-.1l-1.48.3-.07,0a5.31,5.31,0,0,0-1.87,3.21.14.14,0,0,0,0,.14l.11,0h0a6,6,0,0,1,.6-.09,2.46,2.46,0,0,0-.19,1,7.46,7.46,0,0,0,.78,3.32.16.16,0,0,0,.14.08h0l1.13-.12a.17.17,0,0,0,.14-.07.17.17,0,0,0,0-.14,7.31,7.31,0,0,1-.35-2.15,5.78,5.78,0,0,1,.46-2.29.15.15,0,0,0,0-.17.15.15,0,0,0-.15-.06l-.88.15a3.89,3.89,0,0,1,1.67-2.91.16.16,0,0,0,0-.19"/><path class="cls-3" d="M120.71,199a.15.15,0,0,0-.11-.12c-.54-.21-1.11-.46-1.65-.7a.17.17,0,0,0-.24.22,5.17,5.17,0,0,0,1.56,2.22c.68.28,1.29.53,1.91.76h.06a.17.17,0,0,0,.1-.31,3.75,3.75,0,0,1-1.63-2.07"/><path class="cls-3" d="M116,197.65l-.08-.12c-.76-.46-.88-.41-1.61-.89h0l-.18-.13a.15.15,0,0,0-.18,0,.16.16,0,0,0-.09.15h0a7.34,7.34,0,0,0,.64,1.59v0a5.85,5.85,0,0,0,2.13,1.48l.1,0a.21.21,0,0,0,.14-.07.18.18,0,0,0,0-.24,3.61,3.61,0,0,1-.85-1.82"/><path class="cls-3" d="M111.56,195.63l-.08-.12c-.76-.46-.88-.41-1.61-.89h0a1.88,1.88,0,0,0-.18-.12.18.18,0,0,0-.27.19,6.48,6.48,0,0,0,.52,1.43s2.15,1.55,2.25,1.61l.11,0a.17.17,0,0,0,.13-.07.18.18,0,0,0,0-.25,3.69,3.69,0,0,1-.84-1.81"/><path class="cls-3" d="M172.5,192h0c-2.87-.75-4-2.08-3.94-2.54a.19.19,0,0,0-.08-.17.22.22,0,0,0-.18,0c-.37.19-.74.5-1.21.74-3-.68-3.62-1.46-4.5-2.23a.19.19,0,0,0-.19,0c-.49.28-1.86,1-1.92,1.08l0,.1a.18.18,0,0,0,.08.15c2.1,1.52,3.22,2.14,4.88,2.24l.08,0c.21-.09.47-.22.73-.36.81,1.56,3.37,2.25,4.27,2.51h.11a14.14,14.14,0,0,0,2-1.25.17.17,0,0,0-.13-.22"/><path class="cls-3" d="M177.75,188.13c-2.91-1-3.12-1.84-3.19-2.68,0-.1-.14-.14-.23-.11s-.93.74-1,.73c-3.08-.49-3.22-1.31-4.64-2.13a.19.19,0,0,0-.19,0c-.52.34-1.18,1-1.68,1.26a.18.18,0,0,0-.08.15.21.21,0,0,0,.07.15c2.52,1.84,3.23,2,4.76,2.09l.11,0c.14-.1.45-.28.63-.41a8,8,0,0,0,3.78,2.39l.16,0,1.55-1.09h0l0,0h0a.17.17,0,0,0-.11-.21v0"/><path class="cls-3" d="M131,199.51l-.14-.06-1.17,0H129a.19.19,0,0,0-.17.12.17.17,0,0,0,0,.19,10.09,10.09,0,0,0,2.65,1.94l-.56,0a.15.15,0,0,0-.17.1.18.18,0,0,0,0,.2,4.94,4.94,0,0,0,1.09.91l.06,0,1.32.2h0a.18.18,0,0,0,.15-.08.18.18,0,0,0,0-.2c-.09-.14-.53-.3-.53-.4a.51.51,0,0,1,.06-.22l1.34,0h.29a.18.18,0,0,0,.18-.15.2.2,0,0,0-.13-.2,8,8,0,0,1-3.68-2.37"/><path class="cls-3" d="M161.5,194.4l1.07-.49a.2.2,0,0,0,.11-.19.18.18,0,0,0-.16-.15,8.68,8.68,0,0,1-5.26-2.45.21.21,0,0,0-.2,0c-.51.27-1.3.68-1.81.92a.16.16,0,0,0-.1.15.17.17,0,0,0,.06.16,11.17,11.17,0,0,0,4.45,2.27l-.29.12a.18.18,0,0,0-.11.2c.35,1.54,3.14,2.26,4.36,2.56h.1c.51-.14,1.34-.58,1.81-.73a.19.19,0,0,0,.13-.18.18.18,0,0,0-.14-.17c-2.43-.62-3.82-1.44-4-2"/><path class="cls-3" d="M156,197.2l1.26-.58a.18.18,0,0,0,.11-.19.17.17,0,0,0-.15-.15,10.58,10.58,0,0,1-5.74-2.3.19.19,0,0,0-.2,0c-.48.27-1.22.48-1.76.73a.19.19,0,0,0-.11.15.24.24,0,0,0,.07.16,12,12,0,0,0,4.88,2.33l-.29.11a.18.18,0,0,0-.12.21c.33,1.51,2.35,2.14,3.57,2.43h.08l1.47-.43a.19.19,0,0,0,.13-.18.17.17,0,0,0-.14-.17c-2.51-.67-3-1.56-3.06-2.09"/><path class="cls-3" d="M144.53,201.29c0-.1.11-.38.09-.43l.7-.07a.19.19,0,0,0,.16-.17.18.18,0,0,0-.13-.18,10.44,10.44,0,0,1-4-2.57l-.16,0c-.61.12-1.23.28-1.84.35a.18.18,0,0,0-.14.13.16.16,0,0,0,.06.19,12,12,0,0,0,4.09,2.32c-.32,0-.64.06-1,.07a.2.2,0,0,0-.16.13c0,.06,0,.07,0,.07,0,.82,1,1.45,1.76,1.79l.07,0c.44,0,.69-.11,1.12-.11.11,0,.33-.06.43-.06a.17.17,0,0,0,.17-.13.16.16,0,0,0-.08-.2c-.88-.52-1.18-.87-1.18-1.1"/><path class="cls-3" d="M139,202.08a.57.57,0,0,1,.08-.29l.75-.13a.16.16,0,0,0,.16-.16.18.18,0,0,0-.13-.18,9.63,9.63,0,0,1-3.81-2.4l-.15,0c-.61.12-1.24.16-1.84.24a.18.18,0,0,0-.09.31,11.1,11.1,0,0,0,3.68,2.19l-.77.06a.18.18,0,0,0-.16.14v.05a3,3,0,0,0,1.58,1.62l.08,0H140a.16.16,0,0,0,.17-.13.17.17,0,0,0-.07-.21c-.89-.52-1.07-.86-1.07-1.1"/><path class="cls-3" d="M149.73,199.51c.39-.1.82-.24,1.12-.29A.2.2,0,0,0,151,199a.18.18,0,0,0-.15-.18,9.08,9.08,0,0,1-4.72-2.71.15.15,0,0,0-.17,0c-.51.14-1.23.43-1.71.53a.17.17,0,0,0-.13.14.19.19,0,0,0,.06.18,14,14,0,0,0,4.12,2.4,2,2,0,0,1-.49.1.17.17,0,0,0-.13.1.14.14,0,0,0,0,.15,4,4,0,0,0,2.63,2h.06c.56,0,1.22-.19,1.77-.23a.16.16,0,0,0,.16-.16.18.18,0,0,0-.12-.2c-1.53-.53-2.27-1.16-2.44-1.67"/><path class="cls-3" d="M183.85,171.68c-.52.41-1.06.83-1.63,1.26a.18.18,0,0,0-.07.15.21.21,0,0,0,.09.15,14.37,14.37,0,0,0,4.35,1.7l.34.06.12-.05c.31-.29.62-.51.93-.75.48.26,1.19.45,1.73.7l.07,0a.18.18,0,0,0,.15-.08c.2-.32.54-.93.76-1.28a.18.18,0,0,0,0-.21,5.17,5.17,0,0,0-1.66-.77c-.1,0-.18-.06-.25,0l-.69.68a17.93,17.93,0,0,1-4-1.61.19.19,0,0,0-.19,0"/><path class="cls-3" d="M184.49,177.59a.91.91,0,0,0-.13-.08.18.18,0,0,0-.14,0l-.56.45a22,22,0,0,1-4.58-2.45.17.17,0,0,0-.2,0c-.57.47-1.14.94-1.73,1.41a.16.16,0,0,0-.07.14.18.18,0,0,0,.08.15c2.25,1.52,3.51,2.32,5,2.59l.14,0c.19-.15.55-.35.74-.5a4.37,4.37,0,0,0,2.73,1.23l.07,0a.17.17,0,0,0,.12-.06c.33-.33,1-1.15,1.32-1.48l.1-.29c0-.06,0-.13-.07-.14a7.08,7.08,0,0,1-2.82-1"/><path class="cls-3" d="M179.27,181.87a.16.16,0,0,0-.21-.07h0l-.06.06,0,0s-.36.39-.42.38c-2.64-.57-2.72-1.48-4.12-2.25a.15.15,0,0,0-.19,0l-1.74,1.41a.17.17,0,0,0-.07.15.19.19,0,0,0,.08.14c2.23,1.52,2.82,1.93,4.28,2.19l.14,0,.56-.44c1.34,1.48,3.39,1.3,3.81,1.43h.07l.13-.06c.3-.3,1.09-1,1.42-1.39a.17.17,0,0,0,0-.19.19.19,0,0,0-.14-.12s-2.71.08-3.53-1.3"/><path class="cls-3" d="M125.42,199.44l-.13-.08c-.55-.07-1.11-.15-1.69-.25a.16.16,0,0,0-.18.08.2.2,0,0,0,0,.2,12.05,12.05,0,0,0,1.73,1.82h0a.19.19,0,0,0-.19.09.21.21,0,0,0,0,.2,2.79,2.79,0,0,0,.47.64l.07,0c.29.09.75.17,1,.25h0a.21.21,0,0,0,.13-.05.18.18,0,0,0,0-.18l-.19-.21,0-.05c.34,0,.7.06,1,.1h0a.16.16,0,0,0,.16-.11.18.18,0,0,0-.07-.22,8.24,8.24,0,0,1-2.22-2.27"/><path class="cls-3" d="M107.13,193.05l-.07-.1-1.41-1a.18.18,0,0,0-.21,0,10.43,10.43,0,0,0,.48,1.43l0,.08a7.83,7.83,0,0,0,1.59,1.29l.09,0a.15.15,0,0,0,.14-.07.18.18,0,0,0,0-.23,5.22,5.22,0,0,1-.65-1.47"/><path class="cls-3" d="M191.64,170.11h0a.19.19,0,0,0,.17-.1c.25-.53.49-1.06.71-1.59a.2.2,0,0,0,0-.15.22.22,0,0,0-.12-.09,9.45,9.45,0,0,1-3.21-1.25.19.19,0,0,0-.19,0c-.5.41-.59.87-1,1.19a.16.16,0,0,0-.07.16.15.15,0,0,0,.09.14,12.13,12.13,0,0,0,3.63,1.67"/><path class="cls-3" d="M193.55,164.45h0a.16.16,0,0,0,.15-.1c.19-.49.36-1,.52-1.45v-.05l0-.11h0l-.09,0h0a4.41,4.41,0,0,1-2.11-.49.16.16,0,0,0-.18.05c-.34.39-.67.79-1,1.2a.18.18,0,0,0,0,.14.18.18,0,0,0,.1.11,7.13,7.13,0,0,0,2.72.76"/><path class="cls-2" d="M140.29,239.21c-48.82,0-88.39-39.75-88.4-88.79s39.58-88.81,88.4-88.81,88.4,39.76,88.4,88.81-39.57,88.79-88.4,88.79M140,56.58c-51.27,0-93,41.91-93,93.42s41.72,93.42,93,93.42,93-41.91,93-93.41-41.72-93.42-93-93.43"/><polygon class="cls-1" points="213.03 211.22 214.1 211.22 214.1 214.16 214.82 214.16 214.82 211.22 215.9 211.22 215.9 210.59 213.03 210.59 213.03 211.22"/><polygon class="cls-1" points="218.65 212.92 218.63 212.92 217.8 210.59 216.55 210.59 216.55 214.16 217.27 214.16 217.27 211.32 217.28 211.32 218.28 214.16 218.99 214.16 220.01 211.32 220.03 211.32 220.03 214.16 220.76 214.16 220.76 210.59 219.51 210.59 218.65 212.92"/><path class="cls-2" d="M185.76,190.79a60,60,0,0,0,14.34-31.48l-2.39.21h.22A57.73,57.73,0,0,1,184.2,189.3l-.06.08A57.44,57.44,0,0,1,140.84,209h0a57.22,57.22,0,0,1-36-12.67c-.73-.58-1.45-1.17-2.15-1.8-.43-.38-.84-.77-1.25-1.16l-.19-.18c-.47-.43-.91-.87-1.36-1.31l-.11-.12a57.22,57.22,0,0,1-7.35-9.13l-2.2.85a59.84,59.84,0,0,0,8.42,10.44c.81.81,1.64,1.6,2.5,2.36a59.6,59.6,0,0,0,39.54,15h0a59.69,59.69,0,0,0,45-20.49"/></svg>