<?xml version="1.0" encoding="utf-8"?>
<!-- Generator: Adobe Illustrator 23.0.1, SVG Export Plug-In . SVG Version: 6.00 Build 0)  -->
<svg version="1.1" id="Layer_1" xmlns="http://www.w3.org/2000/svg" xmlns:xlink="http://www.w3.org/1999/xlink" x="0px" y="0px"
	 viewBox="0 0 1000 1000" style="enable-background:new 0 0 1000 1000;" xml:space="preserve">
<style type="text/css">
	.st0{fill:#FFFFFF;}
	.st1{fill:#F37937;}
	.st2{fill:#004784;}
</style>
<g>
	<path class="st0" d="M500,898c219.8,0,398-178.2,398-398S719.8,102,500,102S102,280.2,102,500S280.2,898,500,898"/>
	<path class="st1" d="M801.6,322.7l-7-11.9c0,1.6,0.2,11.7-2.7,13.2c0.9,7-1.3,14.6-3.8,19.2l7,8.4c3.5-7,5.1-17.9,4.6-23.4
		C800.3,325.4,801.2,325.8,801.6,322.7"/>
	<path class="st1" d="M781.4,293l-7.3-8.1c-1.1,4-4.4,5.5-7.7,8.1c1.8,8.1,5.5,19.9,3.3,31.8l8.1,8.6c1.8-13.4,0.7-27.4-1.5-34.4
		C778.9,297.2,781.4,293,781.4,293"/>
	<path class="st1" d="M754.5,269.1l-6.6-6.6c-1.1,4-5.5,5.5-9,8.1c3.7,6.6,6.6,21.4,5.1,36.6l10.2,7.3c0.7-22.9-2.6-32.2-6.2-39.2
		C752.3,272.7,754.5,269.1,754.5,269.1"/>
	<path class="st1" d="M719,255.7c4-2.6,8.1-7,8.1-7l-8.8-5.1c-2.6,5.1-5.9,4.8-9.1,7.3c3.7,6.6,10.8,20.3,9.1,35.5l10.4,7.3
		C727.3,270.2,724.7,257.4,719,255.7"/>
	<path class="st1" d="M690.7,227.3c-2.6,3.7-9.1,6.2-12.6,8.8c3.7,6.6,10.8,15.2,9.1,30.4l11.9,6.6c-0.7-19.2-5.1-31.5-10.8-32.9
		c5.5-2.6,12.3-9.3,12.3-9.3"/>
	<path class="st1" d="M649,222.2c3.7,6.6,10.2,16.7,8.8,31.8l11.9,5.9c-0.7-18.5-5.1-31.1-10.8-32.6c7.3-3.3,13.7-10.4,13.7-10.4
		l-11.2-3.7C658.8,218.6,652.2,219.7,649,222.2"/>
	<path class="st1" d="M614.2,210.7c3.7,6.6,9.5,14.8,8.1,30l11,4.4c-2.2-22.9-4.4-28.7-10.1-30.4c6.6-3.7,14.8-11.5,14.8-11.5
		l-11.5-2.9C624.1,205.6,617.5,208.1,614.2,210.7"/>
	<path class="st1" d="M594.2,188.9c-2.6,5.1-9.1,7.7-12.6,10.4c3.7,6.6,10.4,17.7,9,32.9l11.5,3.3c-2.2-22.1-4.9-31.8-10.4-33.3
		c4-2.6,14.1-11.5,14.1-11.5"/>
	<path class="st1" d="M559.5,180c-4.4,5.1-13,9.3-16.3,11.9c3.7,6.6,13.4,17.4,11.9,32.6l10.4,1.5c-2.9-24.3-7.3-28-13-29.5
		c4-2.6,19.2-14.5,19.2-14.5"/>
	<path class="st1" d="M527.6,173.4c-7.7,8.8-14.8,12.3-18.1,14.8c5.9,2.9,10.8,13,9.3,28l11.9,2.9c-0.7-19.2-5.1-26.5-10.8-28.2
		c4-2.6,19.9-16.7,19.9-16.7"/>
	<path class="st1" d="M461.6,184.5c0.5,0.5,2.7,1.3,4.6,2.7c3.3,2.7,7.9,10.2,7.7,27.1l10.2,0.7c-0.5-19.2-5.3-25.4-7.3-26.9
		c-1.5-1.5-4.4-1.6-5.7-2c7.9-3.1,19.9-15.9,19.9-15.9l-10.6-1.1C478.6,173.4,464.9,182,461.6,184.5"/>
	<path class="st1" d="M421.7,169.3l-11.2,1.1c-1.1,5.9-4.4,13.4-7.7,15.9c3.7,6.6,3.7,16.3-2.2,28.5l11.2-0.7
		c5.9-14.8,4.4-22.1,1.1-27.3C416.9,184.2,421.7,169.3,421.7,169.3"/>
	<path class="st1" d="M457.2,167.9l-13,1.8c-2.6,5.1-9.7,13-13,15.6c3.5,1.5,6.2,4.8,5.5,28.7l11.7-0.7c-0.7-26.5-5.7-26.5-7.5-26.5
		C444.9,184.2,457.2,167.9,457.2,167.9"/>
	<path class="st1" d="M372.1,190c3.5,1.1,1.8,5.5-0.5,11c-2,4.9-4.6,8.8-7.3,14.5l11.2-0.7c7.3-12.6,13-24.7,7.3-26.2
		c4-2.6,9.1-15.6,9.1-15.6l-12.3,3.3C378.5,183.1,375.6,187.5,372.1,190"/>
	<path class="st1" d="M344.3,194c0.9,5.9-1.1,11-9.5,23.6l10.4-1.3c10.1-13,9.1-19.2,9.1-23.6c4.4-2.7,9.5-13,9.5-13l-11,2
		C350.9,187.3,347.9,191.5,344.3,194"/>
	<path class="st1" d="M197,391.3c-3.7-12.6,1.5-24.5,3.8-33.3l-7.5-2.2c-5.9,12.6-4.4,24.3-2.2,33.3c-5.9,5.9-10.6,9.5-14.3,20.5
		l5.9,3.7C183.4,405.2,189.7,397.3,197,391.3"/>
	<path class="st1" d="M211.8,361.1c-4,13.4-4.4,25.8-2.2,34.8c-5.9,5.9-14.3,10.2-17.9,21.2l7.3,3.7c2.9-8.1,10.6-19,18.8-21.2
		c-3.7-12.6,0.4-26.2,2.6-35.1"/>
	<path class="st2" d="M275.7,730.9h22.1v-42.1c-7.5-2.9-15-6-22.1-9.3"/>
	<path class="st2" d="M247.5,730.7h22.1v-54.2c-7.7-3.7-15-7.5-22.1-11.7"/>
	<path class="st2" d="M801.9,638.3c-0.2,0-0.5,0-1.1,0v45.2c6-9.9,11.5-19.9,16.5-30.4l-14.5-13.9
		C802.8,639.3,802.5,638.7,801.9,638.3"/>
	<path class="st2" d="M540.3,749.8c-5.1,8.1-17.4,19.6-25.4,24l-5.9-5.1c8.1-3.7,17.6-13.9,22.7-21L248.9,747
		c64,65,152.8,105.4,251.1,105.4c31.1,0,61.5-4,90.2-11.7c8.2-4.6,12.4-8.6,15-12.6l5.5,2.2l-6.8,6.4c5.3-1.6,10.4-3.5,15.6-5.3
		l-6.6,1.1c11.2-4.4,17.4-10.1,23.2-15.9l4.8,1.3c-6.8,7.3-9.3,8.6-13.7,10.8c46.7-18.1,88.4-45.9,123-80.9l-212.4-0.4 M460.1,763.9
		l-6.8-7.7c8.8,1.5,28.2,0.7,44.5-1.5l4.4,5.5C490.3,763.1,474.2,764.6,460.1,763.9z M471.3,777.8c31.7,0.4,37.9-1.5,43-3.7l6.2,5.9
		c-11.9,2.9-18.3,4.6-41.9,5.3L471.3,777.8z M501.1,804.9l-9.5-6.6c11.9,1.5,32-1.5,43.9-5.5l7.5,5.1
		C530.9,800.7,514.5,805.6,501.1,804.9z M517.4,816.9c14.8-1.5,25.8-4.9,35.5-13l4.8,2.6c3.7,3.7-16.3,14.8-31.7,15.6L517.4,816.9z
		 M621.9,810.9l5.1,1.5c-9,9.5-11.2,11.9-19.2,16.3l-5.1-2.2C612.4,822.1,616.7,817.7,621.9,810.9z M606.7,803.2l5.1,2.9
		c-8.1,9.5-13.5,12.4-21.6,16.8l2,0.7c4.4,1.5-9.1,13.9-21.8,15.4l-10.1-2.2c17.4-4,23.6-9.7,27.4-14.6l0.5,0.2l-4.2-1.8
		C595.3,816,599.4,812.2,606.7,803.2z M590,793.1l5.9,4c-5.1,8.1-13.9,13.4-22.1,17.9l-1.6-0.9l1.6,1.3c5.1,0.7-3.1,11.7-26,16.1
		l-8.6-2.9c24-5.1,28.5-11.7,31.5-15.4l-3.7-2C576.9,807.1,586.4,799.9,590,793.1z M572.3,779.8l5.9,5.1
		c-5.1,8.1-15.4,15.4-23.6,19.8l-5.9-3.7C558.4,796.6,568.6,786.6,572.3,779.8z M554.5,762.8l5.1,6c-5.1,8.6-15.4,19.4-23.6,23.8
		l-6.6-4.4C539,783.6,551.6,767.5,554.5,762.8z"/>
	<path class="st2" d="M784,638.3c-7.1,6-15,11.9-23.8,17.6v75.8h5.1c6.8-7.7,13-15.6,19-23.8v-69.4
		C784.4,638.3,784.2,638.3,784,638.3"/>
	<path class="st2" d="M552.3,550c1.5-1.8,2.2-3.5,2.2-4.9c0-0.5-0.2-1.1-0.5-1.6c-1.3-1.5-5.3-2.2-10.2,0.7
		c-7.9,4.8-14.1,12.8-17.2,19.2C534.6,562.2,546.3,557.5,552.3,550"/>
	<path class="st2" d="M241.6,661.4c-8.8-5.3-16.8-11.2-24.3-17.4c-0.2,0-0.4,0-0.7,0v65c5.5,7.5,11.3,14.6,17.4,21.8h7.7"/>
	<path class="st2" d="M732.2,731.5h22.1v-72.1c-7,4.2-14.5,8.4-22.1,12.3"/>
	<path class="st2" d="M704,731.5h22.1v-56.9c-7.1,3.5-14.6,6.8-22.1,9.9"/>
	<path class="st2" d="M676,731.5h22.1v-44.6c-7.3,2.9-14.6,5.7-22.1,8.2"/>
	<path class="st2" d="M184.3,656.8c4.8,9.7,10.1,19.2,15.7,28.4v-40.8C198.1,646.2,191.5,652.2,184.3,656.8"/>
	<path class="st2" d="M825.9,560.6v-35.5h-17.7v20.7h-14.8v-189H752v96.1h-30.9V340.4l-5.7-4.9v-13.4l-12.1-5.5v-16.1h-20.1v16.1
		l-12.1,5.5v13.4l-5.7,4.9v22.1h-30v-65h-25.1v-31.1h-16.3v-16.3h-37v16.3h-13.4v51.8h-19.9v-60.2l-7.7-5.1v-25.8l-11.9-8.8V182
		l-4.4-5.1l-1.8-17.4h-2.4l-2.2,17.4l-4.8,5.1v36l-11.7,8.8v25.8l-7.7,5.1v52.5H436v-40.8h-48.7v39.9l-10.4,4.4v72.5h-35.5v-60.6
		l-3.7-3.7v-31.8H334l-8.8-33.5c0.4-1.6,0.5-3.7,0.5-5.9c0-5.1-0.9-7-2.2-7c-1.1,0-2,2-2,7c0,2.6,0.2,4.8,0.5,6.4l-9,32.9h-3.7V322
		l-3.7,3.7v65.9h-39.2c0,0,0-1.6,0-4.4c-2.2,8.8-8.1,23.6-5.1,35.9l-0.9-0.5l3.1,2.2c-8.1,2.2-21.4,13.4-24.3,21.4l-7.3-5.9
		c3.7-11,13-13.4,24-20.7l-2.6-1.6c-0.4-10.8-0.4-22.9,5.5-35.3l7.9,4.8c0-11,0-39.7,0-44.5c0-6.6-9.7-6.8-9.7-6.8v-11.9l-8.1-2.2
		l-0.7-5.1l-2.2-0.7l-2.2,0.7l-0.7,5.1l-8.1,2.2V336c0,0-9.5-0.5-9.5,7.5c0,3.7,0,63.5,0,63.5l-15.6,10.2V455l-5.9,3.3v28.9
		l-5.5,3.3v53.4h-1.1h-10.6v-53.1h-2.6l-6.6-57.8l-3.3-0.2l-7.1,58h-4v42.5h-8.6c0,0-5.3,4.4-5.1,6.8c1.3,11,2.9,21.8,5.1,32.4
		c0.2,0.5,0.2,1.3,0.4,1.8c0.4,1.8,0.7,3.8,1.3,5.7c5.9,24.9,14.3,48.9,25.1,71.5c7.7-5.1,15.4-12.3,15.4-12.4l0.9-0.7h21l0.9,0.7
		c65.3,54.5,186.6,77.8,263.3,81.6l-5.5-2.4c7.3-5.1,17-16.5,17.7-19.6l5.5,6.8c-3.3,5.3-9,11.7-13.7,15.6c4.8,0.2,9.3,0.4,13.7,0.4
		c85.8,0.7,218.9-34.4,280.2-87.8l0.9-0.7h21h1.3l2.7,2.7l12.8,12.4c11.5-24.9,20.1-51.2,25.6-78.7l-3.5-8.2 M221.5,433.6l-7.3-5.9
		c3.7-11,15.4-13.9,21.2-19.8l-1.3-0.5c-1.5-14.8-3.3-24.3,1.1-37l8.6,4.4c-2.2,8.8-4.4,24.3-0.7,37l2.2,1.3
		C236.9,415.1,224.4,425.3,221.5,433.6z M319,485.2c-0.7-8.8,7.5-24,15.6-35.5l6.6,9.7c-6.6,7.3-15.4,22.1-14.8,33.9l2.2,2.4
		c-10.2,1.5-29.1,5.1-34.4,12.6l-6.6-9.7c10.2-8.1,18.3-7.7,33.3-11L319,485.2z M327.1,519.2l-0.7,9.1c-6.6,1.1-13.5,3.5-18.3,6.8
		l-3.3-7.7l1.6-0.7C313.7,522.9,322,520.7,327.1,519.2z M305.3,417.5l7.7,7.9c-2.9,8.1-9.5,24.9-8.1,39l2.2,2.4
		c-10.4,1.5-25.8,9.5-31.1,17l-5.9-7.9c6.6-10.2,23.2-15,29.3-17.2l-2-2.2C295.2,446.8,298.7,436.7,305.3,417.5z M278.8,438
		l-2.2-2.7c-4.2-2.6,2.4-23.2,7.5-35.1l7.7,6.8c-2.9,8.1-9.9,23.2-9.5,35.5l2.4,3.1c-14.1,3.7-27.1,10.1-28.4,15.7l-7-6.2
		C251.7,446.2,269.1,441.6,278.8,438z M413.6,641.1c-1.5-5.9,0.7-8.8,2.9-14.8l5.1,8.1c-2.2,5.1-2.2,14.1-2.2,14.1l-2-2.4l4.2,8.4
		c-7.3-2.2-28-1.5-34-1.5l5.9-7.7c8.8-0.7,14.6-1.1,23.4,0.4L413.6,641.1z M396.8,678.6c13.9-1.5,32.4-2.4,38.4-1.1l-2.6-3.1
		c0-4.9,8.2-15.7,15.2-23.4c0,0,7.5,1.5,12.3,0.4c-6.4,7.1-12.8,14.1-16.5,18.8c-3.5,4.8-4.4,9.7-3.1,13.7l2.9,3.7
		c-7.3-1.5-34-1.1-41.4-0.4L396.8,678.6z M461.6,704.8c-1.6,2.6,4,7.7,4.6,8.1l0,0l0,0c-7.3-1.5-38.6-0.4-46.1,0.4l-7-10.1
		c14.1-1.5,41,0,46.3,2.9c5.1,2.9,0.4,0,0.4,0l-5.1-1.8c-3.7-8.8,17.4-29.3,20.5-33.7l6,9.1C467.8,693.2,464.1,700.4,461.6,704.8z
		 M739.5,503.3c0,0-15.7,0.2-26.5,0.4c5.5,2.7,22.9,11.7,22.9,11.7l-2.6,3.7c-3.3,4.6-4.6,8.6-4.6,13c0,4.8,1.5,9.7,3.3,15.7
		c2.6,8.2,5.5,17.9,5.5,30.7c0,5.1-0.5,10.6-1.6,16.7c-3.1,16.7-24.9,50.7-69,43c-7.9-1.5-15.6-6.2-22.5-11
		c-12.4,10.6-28.7,15.7-43,12.4c-11.3-2.6-19.6-10.1-23.6-20.1c-28.5,27.6-67,24.7-80.7,16.7h-0.2c-3.7-2.4-6.4-5.3-9.1-8.1
		c-6.4,6.4-20.9,16.8-37.9,15c-11.3-1.6-19.8-7.9-24.7-18.5c-2.9-6.6-4.4-14.6-4.4-23.4c0-10.4,2.6-21.6,6.4-32.6
		c-7.1,11.2-14.5,22.9-21.2,34c-9.9,16.5-18.7,30.7-24.3,38.2l-1.1,1.5h-47.2l3.7-5.9c7.3-11.5,17.6-43.7,24-74.1
		c-13,27.1-37.3,68.8-68.1,80.7c-11.7,4.6-23.2,4.2-34.2-0.7c-8.2-3.7-13.7-10.6-15.6-19.8c-4-19.6,8.4-48.1,22.1-63.3l0.7-0.7
		l41.5-14.8l-6.8,9.9c-9.5,13.5-18.1,33.7-15.7,40.6c0.4,1.1,0.9,1.5,1.6,1.6c16.8,4.8,44.5-59.3,64.8-106.1
		c14.8-34.2,28.7-66.4,40.3-80.3l1.1-1.3l49-0.4h6.4l-2.9,5.7c-9,16.8-17.9,54.9-25.3,85.5c0,0-2.6,10.2-4.9,19.9
		c4.6-7.5,9.3-15.4,9.3-15.4c19.9-32.9,44.6-74.1,64.6-94.2l1.1-1.1h59.7l-3.1,5.7c-24.9,45.2-90.8,165.4-76.9,188.3
		c0.4,0.4,0.4,0.4,0.5,0.4c1.1,0.2,2.9-1.1,4.6-2.4c-0.2-1.6-0.4-3.5-0.4-5.3c0-32.9,25.6-68.4,59.5-80c20.9-7.3,41.5-3.1,51.4,10.4
		c3.7,5.1,5.5,11,5.5,17.2c0,8.4-3.3,17.4-9.7,26s-22.9,22.9-59.5,27.3c1.5,4.9,3.8,7.9,9,8.1c29.5,1.6,54.7-31.7,63.9-49.4
		c0,0,18.7-40.4,22.9-49.6c-8.6,0.4-37.1,1.5-37.1,1.5l18.1-37.1c0,0,32.4-0.5,36.6-0.5c1.8-3.8,19-40.3,19-40.3l51.2-0.4
		c0,0-15.2,31.8-19.2,40.1c10.2-0.2,67.9-1.1,67.9-1.1L739.5,503.3z"/>
	<path class="st2" d="M629.6,588.9c5.3-6.2,13.5-16.7,21.4-26.5c28.7-36.4,42.5-52.7,50.5-58.4c-16.1,0.2-30.2,0.5-32.4,0.5
		c-0.2,0.4-37.3,79.2-37.3,79.2C630.7,585.6,630.1,587.3,629.6,588.9"/>
	<path class="st2" d="M669.4,601.2c0,0.7,0,1.3,0.2,2c0.5,2,2.2,3.3,3.3,3.5c3.8,0.7,7.5,0,10.8-2.2c5.1-3.7,8.6-10.8,9.1-15.6
		c0.4-3.7,0.5-7,0.5-10.1c0-6.4-0.7-11.9-1.5-17.7c0,0-0.2-2.2-0.4-3.5c-5.7,6.8-11.5,14.1-18.3,24.7c1.1,1.1,4.8,4.9,4.8,4.9
		l-2.6,2.7C671.5,593.9,669.4,597.9,669.4,601.2"/>
	<path class="st2" d="M359.8,730.9H382V713c-7.3-1.6-14.8-3.3-22.1-5.1"/>
	<path class="st2" d="M303.7,730.9h22.1v-32.4c-7.5-2.4-14.8-4.9-22.1-7.5"/>
	<path class="st2" d="M387.8,731.1H410v-12.6c-7.3-1.3-14.6-2.6-22.1-4"/>
	<path class="st2" d="M331.8,730.9H354v-24.5c-7.5-1.8-14.8-4-22.1-6.2"/>
	<path class="st2" d="M648,731.3h22.1v-34.2c-7.3,2.4-14.6,4.8-22.1,7"/>
	<path class="st2" d="M416,719.4v11.7l170,0.2v-12.6c-30.4,5.5-59.7,8.4-85.1,8.2C477.5,726.7,447.8,724.3,416,719.4"/>
	<path class="st2" d="M619.9,731.3H642v-25.6c-7.3,2-14.8,4-22.1,5.7"/>
	<path class="st2" d="M591.9,731.3H614V713c-7.5,1.6-14.8,3.3-22.1,4.8"/>
	<path class="st1" d="M242.9,411.6c-3.7-12.6-1.5-28,0.7-37l-8.6-4.4c-4.4,12.6-2.6,22.1-1.1,37l1.3,0.5c-6,5.9-17.6,8.8-21.2,19.8
		l7.3,5.9c2.9-8.1,15.6-18.5,23.6-20.7"/>
	<path class="st1" d="M253.1,417.8l2.6,1.6c-11,7.3-20.3,9.7-24,20.7l7.3,5.9c2.9-8.1,16.3-19.2,24.3-21.4l-3.1-2.2l0.9,0.5
		c-2.9-12.3,2.9-26.9,5.1-35.9l-7.9-4.8C252.8,395,252.8,407,253.1,417.8"/>
	<path class="st1" d="M285,445.3l-2.4-3.1c-0.4-12.1,6.6-27.4,9.5-35.5l-7.7-6.8c-5.1,11.9-11.9,32.6-7.5,35.1l2.2,2.7
		c-9.7,3.7-27.1,8.1-29.1,16.7l7,6.2C257.9,455.4,270.9,448.9,285,445.3"/>
	<path class="st1" d="M299.6,458.6c-6,2.2-22.7,7-29.3,17.2l5.9,7.9c5.1-7.3,20.7-15.6,31.1-17l-2.2-2.4c-1.5-13.9,5.1-30.7,8.1-39
		l-7.7-7.9c-6.6,19.2-10.1,29.3-7.9,38.8"/>
	<path class="st1" d="M308,535.1c4.8-3.3,11.7-5.7,18.3-6.8l0.7-9.1c-5.1,1.5-13.4,3.7-20.7,7.3l-1.6,0.7"/>
	<path class="st1" d="M294.1,508.1c5.1-7.3,24-11.2,34.4-12.6l-2.2-2.4c-0.5-11.7,8.2-26.5,14.8-33.9l-6.6-9.7
		c-8.1,11.7-16.3,26.7-15.6,35.5l2,2.2c-15,3.3-23.1,2.9-33.3,11"/>
	<path class="st1" d="M393.7,645.3l-5.9,7.7c5.9,0,26.5-0.7,34,1.5l-4.2-8.4l2,2.4c0,0,0-9,2.2-14.1l-5.1-8.1
		c-2.2,5.9-4.4,9-2.9,14.8l3.5,4.4C408.3,644,402.5,644.4,393.7,645.3"/>
	<path class="st1" d="M443.6,687.6l-2.9-3.7c-1.5-4-0.4-9,3.1-13.7c3.7-4.8,10.1-11.7,16.5-18.8c-4.8,1.3-12.3-0.4-12.3-0.4
		c-7,7.7-15.2,18.5-15.2,23.4l2.6,3.1c-6.2-1.5-24.7-0.4-38.4,1.1l5.3,8.6C409.6,686.5,436.3,686.1,443.6,687.6"/>
	<path class="st1" d="M454.4,704.4l5.1,1.8c0,0,4.8,2.9-0.4,0c-5.3-2.9-32.2-4.4-46.3-2.9l7,10.1c7.3-0.7,38.6-1.8,46.1-0.4
		c-0.4-0.4-6-5.7-4.6-8.1c2.6-4.2,6.2-11.3,19.4-24.9l-6-9.1C472,675.1,450.8,695.6,454.4,704.4"/>
	<path class="st1" d="M501.1,705.1l-5.5-6.8c-0.7,2.9-10.4,14.3-17.7,19.6l5.5,2.4c1.3,0,2.7,0.2,4,0.2
		C492.1,716.8,497.6,710.6,501.1,705.1"/>
	<path class="st1" d="M497.8,754.5c-16.3,2.2-35.7,2.9-44.5,1.5l6.8,7.7c14.1,0.7,30.4-0.7,42.1-3.7"/>
	<path class="st1" d="M514.5,774.1c-5.1,2.2-11.5,4-43,3.7l7.5,7.5c23.6-0.7,30-2.2,41.9-5.3"/>
	<path class="st1" d="M535.3,792.6c-11.9,4-32,7-43.9,5.5l9.5,6.6c13.4,0.7,29.8-4,41.7-7.1"/>
	<path class="st1" d="M557.6,806.7l-4.8-2.6c-9.5,8.1-20.7,11.5-35.5,13l8.6,5.1C541.4,821.5,561.3,810.3,557.6,806.7"/>
	<path class="st1" d="M508.8,768.6l5.9,5.1c8.1-4.4,20.1-15.7,25.4-24l-2.4-2.4h-6.2C526.4,754.7,516.8,765,508.8,768.6"/>
	<path class="st1" d="M536,792.6c8.1-4.4,18.3-15.2,23.6-23.8l-5.1-6c-2.9,4.8-15.4,20.9-25.1,25.3"/>
	<path class="st1" d="M554.7,804.9c8.1-4.4,18.5-11.7,23.6-19.8l-5.9-5.1c-3.7,6.8-13.9,16.8-23.6,21.4"/>
	<path class="st1" d="M570.8,813.5c-2.9,3.7-7.5,10.2-31.5,15.4l8.6,2.9c22.9-4.4,31.1-15.6,26-16.1l-1.6-1.3l1.6,0.9
		c8.1-4.4,16.8-9.7,22.1-17.9l-5.9-4c-3.7,6.6-13.2,13.9-22.9,18.3"/>
	<path class="st1" d="M588.6,822.4l-0.5-0.2c-3.8,4.9-10.1,10.8-27.4,14.6l10.1,2.2c12.6-1.5,26.4-13.9,21.8-15.4l-2-0.7
		c8.1-4.4,13.5-7.3,21.6-16.8l-5.1-2.9c-7.3,8.8-11.3,12.8-22.5,17.4"/>
	<path class="st1" d="M607.8,828.6c8.1-4.4,10.4-6.6,19.2-16.3l-5.1-1.5c-5.1,6.8-9.5,11.2-19.2,15.6"/>
	<path class="st0" d="M804.3,632.3H803h-21l-0.9,0.7c-61.5,53.6-194.5,88.7-280.2,87.8c-4.4,0-9-0.2-13.7-0.4c-1.3,0-2.6-0.2-4-0.2
		c-76.5-3.7-198-26.9-263.3-81.6l-0.9-0.7h-20.9l-0.9,0.7c0,0-7.7,7.1-15.4,12.4c0.9,1.8,1.8,3.7,2.6,5.3c7-4.8,13.7-10.6,15.7-12.4
		v40.8c5.1,8.2,10.6,16.3,16.3,24v-65c0.4,0,0.5,0,0.7,0c7.5,6.2,15.7,11.9,24.3,17.4v69.4h-7.7c4.8,5.5,9.9,11,15,16.3l282.7,0.4
		h6.2l212.4,0.4c5.1-5.3,10.2-10.6,15-16.3H760v-75.8c8.8-5.5,16.7-11.3,23.8-17.6c0,0,0.2,0,0.4,0v69.4
		c5.7-7.9,11.2-15.9,16.3-24.2V638c0.4,0,0.9,0,1.1,0c0.5,0.5,1.1,1.1,1.1,1.1l14.5,13.9c0.9-1.8,1.8-3.8,2.7-5.7l-12.8-12.4
		 M269.6,730.9h-22.1v-65.9c7.1,4.2,14.5,8.1,22.1,11.7V730.9z M297.8,730.9h-22.1v-51.4c7.1,3.3,14.6,6.4,22.1,9.3V730.9z
		 M325.8,730.9h-22.1V691c7.3,2.7,14.6,5.3,22.1,7.5V730.9z M354,730.9h-22.1v-30.6c7.3,2.2,14.8,4.2,22.1,6.2V730.9z M382,730.9
		h-22.1v-22.9c7.3,1.8,14.8,3.5,22.1,5.1V730.9z M410,731.1h-22.1v-16.7c7.5,1.5,14.8,2.7,22.1,4V731.1z M585.8,731.3l-170-0.2
		v-11.7c31.8,4.9,61.5,7.3,84.9,7.7c25.3,0.2,54.5-2.7,85.1-8.2V731.3z M614,731.3h-22.1v-13.7c7.3-1.5,14.6-2.9,22.1-4.8V731.3z
		 M642,731.3h-22.1v-19.8c7.3-1.8,14.8-3.7,22.1-5.7V731.3z M670.2,731.5H648v-27.3c7.5-2.2,14.8-4.4,22.1-7V731.5z M698.2,731.5
		H676v-36.2c7.5-2.6,14.8-5.3,22.1-8.2V731.5z M726.4,731.5h-22.1v-47c7.7-3.1,15-6.4,22.1-9.9V731.5z M754.4,731.5h-22.1v-59.8
		c7.7-3.8,15.2-8.1,22.1-12.3V731.5z"/>
	<path class="st1" d="M500,126.5c-205.9,0-373.5,167.6-373.5,373.5S294,873.5,500,873.5c205.9,0,373.5-167.4,373.5-373.5
		C873.5,294.1,705.9,126.5,500,126.5 M820,647.5c-0.9,1.8-1.6,3.8-2.7,5.7c-4.9,10.4-10.6,20.5-16.5,30.4
		c-5.1,8.2-10.6,16.3-16.3,24.2c-6,8.2-12.4,16.1-19,23.8c-4.9,5.5-9.9,11-15,16.3c-34.6,35-76.3,62.6-123,80.9
		c4.4-2.2,7-3.5,13.7-10.8l-4.8-1.3c-5.9,5.9-12.3,11.5-23.2,15.9l6.6-1.1c-5.1,1.8-10.4,3.7-15.6,5.3l6.8-6.4l-5.5-2.2
		c-2.7,3.8-6.8,8.1-15,12.6c-28.7,7.7-59.1,11.7-90.2,11.7c-98.3,0-187-40.3-251.1-105.4c-5.1-5.3-10.2-10.8-15-16.3
		c-6-7-11.9-14.3-17.4-21.8c-5.7-7.7-11.2-15.7-16.3-24c-5.7-9.1-11-18.7-15.7-28.4c-0.9-1.8-1.8-3.7-2.6-5.3
		c-10.8-22.7-19.4-46.7-25.1-71.5c-0.4-1.8-0.9-3.8-1.3-5.7c-0.2-0.5-0.4-1.3-0.4-1.8c-4.9-23.4-7.5-47.6-7.5-72.3
		c0-47,9.3-92,26.2-133.2c-1.1,5.3-0.9,9.7,0.4,15c-5.9,5.9-10.1,12.6-12.6,22.1l4.8,2.9c1.5-7.7,7.7-17.7,12.8-23.6
		c-3.7-12.6,1.8-19.6,4-28.5l-4-1.1c23.8-51.8,59.7-96.8,104.1-131.6c-2.2,3.8-4.8,8.8-5.9,12.6l5.1-3.3c0,0,6-10.1,11.9-17.6
		c11.3-8.1,23.1-15.6,35.3-22.3l-9.7,5.7c-9.5,11.2-10.8,18.5-14.3,26.7l11.2-2.7c2-7.1,7.3-21.6,17.4-32
		c49.4-26.4,105.6-41.4,165.4-41.4c134.3,0,251.2,75.4,310.7,186.1c0.5,3.5,2,12.3-0.5,13.5c0.9,7-3.1,14.6-5.7,19.2l2.9,10.1
		c4.6-5.5,8.1-15.7,7.5-21.2c3.1-2.4,1.6-6.8,1.6-10.1c2.7,5.5,5.3,11,7.7,16.7c-0.4,2-1.6,7.9-4,10.8c1.3,6.4-1.6,13-4.4,17.7
		l3.7,9.3c1.6-1.1,6.4-13.5,6.2-20.3c1.8-2.4,2.2-4.9,2.7-7.1c2.2,5.5,4.2,11.2,6,16.8c-0.4,2.7-1.3,8.2-3.5,10.2
		c1.5,6.2-1.6,10.6-3.5,14.6l3.3,9.1c0,0,5.5-12.4,5.5-16.8c0.9-2,1.8-3.3,2-4.9c2,6.6,3.7,13.4,5.1,20.1
		c-1.3,5.9-4.6,11.2-7.1,17.2l0.7,5.5c0,0,4.4-5.5,8.4-13.4c0.9,4.2,1.6,8.4,2.2,12.6c-0.7,2.2-3.8,11.3-5.9,12.6l0.7,4
		c0,0,3.8-5.3,6.2-9c2.2,15.9,3.3,32,3.3,48.5c0,23.6-2.4,46.5-6.8,68.8C840.2,596.4,831.6,622.6,820,647.5z"/>
	<path class="st1" d="M693.6,435.4c-8.4,0-30.6,0.2-34.2,0.4c-1.8,3.8-19,40.3-19,40.3s-32.6,0.5-36.6,0.5
		c-1.5,2.9-7.1,14.6-10.6,21.4c8.8-0.4,37-1.5,37-1.5s-28,60.8-28.2,60.9c-10.8,20.7-37.9,55.4-71.2,53.6c-7-0.4-15.6-3.8-17.2-18.3
		l-0.5-3.8l3.8-0.4c37.3-3.3,52.7-17,58.7-24.9c9.3-12.6,10.8-25.1,4.2-34.2c-7.9-10.8-25.1-13.9-42.8-7.7
		c-32.6,11.3-57.6,48.3-54,79.4l0.2,1.8l-1.3,1.3c-1.1,1.1-6.4,6-11.9,5.5c-2.6-0.2-4.6-1.6-6.2-4c-1.8-3.1-2.7-7.3-2.7-12.4
		c0-32.8,35.9-103.8,76.5-178c-9.5,0-40.6,0-43.6,0c-19,19.8-43,59.5-62.4,91.5c0,0-16.8,27.6-17.4,28.4c-4.2,6.4-5.7,8.6-9,7
		c-1.6-0.7-2.4-1.8-2.4-3.5c0-1.8,0.7-4.4,1.8-8.2l8.4-34c7-29.8,15-62.6,23.4-81.6c-8.4,0-36.4,0.2-39.5,0.4
		c-10.8,13.7-24.2,44.3-38.2,77.2c-30.6,70.8-52.2,116.6-73.9,110.3c-3.3-0.9-5.7-3.1-6.8-6.6c-0.5-1.6-0.9-3.5-0.9-5.5
		c0-9.7,6.2-23.1,11.7-32.6c-8.2,2.9-16.8,6-18.1,6.6c-10.8,12.3-20.5,33.3-20.5,49.4c0,2.4,0.2,4.6,0.5,6.6
		c1.5,7,5.1,11.5,11.2,14.5c9.3,4.2,18.5,4.4,28.4,0.5c34.8-13.5,62.4-72.5,70.1-90.2c4.2-9.7,5.7-13.2,9.7-12.1
		c2.2,0.7,2.9,2,2.9,4.4c0,1.6-0.4,3.8-0.7,6.6l-0.5,3.7c-4.9,28.5-15.6,67.3-24.9,86.4c8.4,0,27.1,0,30,0
		c5.5-7.5,13.5-20.7,22.9-36c10.8-17.9,23.2-38.2,34.2-53.8c10.2-14.5,11.5-16.3,15.4-14.1c3.7,2.2,2.6,4.2-5.5,20.1
		c-14.3,22.3-19.4,53.4-11.3,70.6c3.8,8.1,10.1,12.8,18.7,14.1c16.3,1.8,30.7-11.3,33.7-15l3.1-3.7l2.9,3.8c2.7,3.5,6,6.4,10.2,9.1
		c10.8,6.2,46.8,10.2,73.2-17l0.4-0.5l4.4-2.7l2.2-1.1l1.6,4.2c0,0,0.7,2,1.3,2.7c4.2,11.3,12.6,15.4,18.8,16.8
		c12.6,2.9,27.8-2,38.6-12.3l2.2-2.2l2.6,1.8c6.8,4.8,14.5,9.7,21.6,11c42.3,7.5,58.4-27.6,60.2-36.8c1.1-5.7,1.5-10.6,1.5-15.4
		c0-11.5-2.7-20.3-5.1-28.4c-1.8-6.2-3.7-12.1-3.7-17.9c0-4.4,1.5-8.8,4-13.4c-5.5-2.9-16.1-8.2-17.9-9.3
		c-6.8,3.1-33.9,37.1-50.1,57.8c-28.5,36.2-28.9,36-32.8,34.2l-3.3-3.8c-1.6-4.9,1.8-13,4-17.2c0,0,37.3-79.1,37.1-79.1l1.8-4.4
		c0,0,65.7-1.1,70.5-1.1c1.3-3.1,6-14.8,8.6-21.2c-9.7,0.2-68.6,1.1-68.6,1.1S689.8,443.6,693.6,435.4 M517.2,567.3
		c2-9,11-22.5,22.7-29.5c7.5-4.4,15.7-4,19.9,0.7c1.5,1.6,2.4,3.8,2.4,6.6c0,2.9-1.1,6-3.8,9.7c-9.1,11.3-28.4,17.7-37.5,17.2
		l-4.4-0.2L517.2,567.3z M663.6,583.1l1.6-2.4c8.1-13,14.8-21,21.2-28.9l5.1-6.2l5.9-7l2.2,21.4c1.1,8.8,2.2,17.9,0.7,29.6
		c-0.7,6.4-4.9,15.6-12.3,20.9c-4.9,3.5-10.8,4.8-16.8,3.5c-4.2-0.9-7.7-4.4-9.1-8.8c-0.4-1.1-0.5-2.4-0.5-4.2c0-3.5,1.8-8.2,6-13.5
		C666.7,586.4,663.6,583.1,663.6,583.1z"/>
	<path class="st0" d="M662.3,605.4c1.3,4.4,4.9,7.9,9.1,8.8c6,1.3,11.9,0,16.8-3.5c7.3-5.3,11.3-14.5,12.3-20.9
		c1.5-11.7,0.2-20.9-0.7-29.6l-2.2-21.4l-5.9,7l-5.1,6.2c-6.4,7.7-13.2,15.9-21.2,28.9l-1.6,2.4c0,0,3.1,3.3,4.2,4.6
		c-4.2,5.3-6,10.2-6,13.5C661.8,602.8,661.9,604.3,662.3,605.4 M673.3,582.3c6.8-10.6,12.6-18.1,18.3-24.7c0.2,1.5,0.4,3.5,0.4,3.5
		c0.7,5.9,1.5,11.5,1.5,17.7c0,3.1-0.2,6.4-0.5,10.1c-0.5,4.8-3.8,11.9-9.1,15.6c-3.3,2.4-6.8,3.1-10.8,2.2
		c-1.3-0.2-2.7-1.5-3.3-3.5c-0.2-0.5-0.2-1.3-0.2-2c0-3.3,2.2-7.3,6-11.3l2.6-2.7C678,587.3,674.4,583.4,673.3,582.3z"/>
	<path class="st0" d="M705.7,427.7l-51.2,0.4c0,0-17.2,36.4-19,40.3c-4.2,0-36.6,0.5-36.6,0.5L580.7,506c0,0,28.5-1.1,37.1-1.5
		c-4.2,9.1-22.9,49.6-22.9,49.6c-9.1,17.7-34.4,50.9-63.9,49.4c-4.9-0.2-7.5-3.3-9-8.1c36.6-4.4,53.1-18.7,59.5-27.3
		c6.6-8.8,9.7-17.7,9.7-26c0-6.2-1.8-12.1-5.5-17.2c-9.9-13.5-30.6-17.7-51.4-10.4c-33.7,11.7-59.5,47.2-59.5,80
		c0,1.8,0.2,3.5,0.4,5.3c-1.6,1.3-3.5,2.6-4.6,2.4c0,0-0.2,0-0.5-0.4c-13.7-22.9,52.2-143.1,76.9-188.3l3.1-5.7h-59.3l-1.1,1.1
		c-19.9,19.9-44.6,61.1-64.6,94.2c0,0-4.8,7.9-9.3,15.4c2.4-9.7,4.9-19.9,4.9-19.9c7.1-30.6,16.3-68.6,25.3-85.5l2.9-5.7h-6.4
		l-49,0.4l-1.1,1.3c-11.5,13.9-25.4,46.1-40.3,80.3c-20.3,46.8-47.9,110.9-64.8,106.1c-0.7-0.2-1.3-0.5-1.6-1.6
		c-2.6-7.1,6.2-27.1,15.7-40.6l6.8-9.9l-41.5,14.8l-0.7,0.7c-13.9,15.2-26.2,43.9-22.1,63.3c1.8,9.1,7.3,16.1,15.6,19.8
		c11.2,4.9,22.5,5.3,34.2,0.7c30.7-11.9,55.1-53.6,68.1-80.7c-6.4,30.4-16.7,62.6-24,74.1l-3.7,5.9h47.2l1.1-1.5
		c5.9-7.5,14.5-21.8,24.3-38.2c6.8-11.2,13.9-22.9,21.2-34c-3.8,11-6.4,22.1-6.4,32.6c0,8.8,1.5,16.8,4.4,23.4
		c4.8,10.4,13.4,16.8,24.7,18.5c17,1.8,31.3-8.6,37.9-15c2.7,2.9,5.5,5.9,9.1,8.1h0.2c13.7,8.1,52.2,11,80.7-16.7
		c3.8,10.1,12.3,17.6,23.6,20.1c14.3,3.3,30.6-1.8,43-12.4c7,4.8,14.6,9.5,22.5,11c44.1,7.9,65.9-26.2,69-43
		c1.1-6,1.6-11.5,1.6-16.7c0-12.6-2.9-22.3-5.5-30.7c-1.8-6-3.3-11-3.3-15.7c0-4.2,1.3-8.4,4.6-13l2.6-3.7c0,0-17.4-9-22.9-11.7
		c10.8-0.2,26.5-0.4,26.5-0.4l15-36.6c0,0-57.6,0.9-67.9,1.1C690.7,459.6,705.7,427.7,705.7,427.7 M743,474.6
		c-2.6,6.4-7.3,17.9-8.6,21.2c-4.8,0-70.5,1.1-70.5,1.1l-1.8,4.4c0-0.2-37.1,79.1-37.1,79.1c-2.2,4.2-5.7,12.3-4,17.2l3.3,3.8
		c3.8,1.8,4.2,2,32.8-34.2c16.3-20.7,43.4-54.7,50.1-57.8c2,1.1,12.4,6.4,17.9,9.3c-2.6,4.6-4,9.1-4,13.4c0,5.9,1.8,11.7,3.7,17.9
		c2.4,8.1,5.1,16.8,5.1,28.4c0,4.6-0.4,9.7-1.5,15.4c-1.6,9.1-17.7,44.3-60.2,36.8c-7.1-1.3-15-6.2-21.6-11l-2.6-1.8l-2.2,2.2
		c-10.8,10.4-26,15.2-38.6,12.3c-6.4-1.5-14.8-5.5-18.8-16.8c-0.4-0.7-1.3-2.7-1.3-2.7l-1.6-4.2l-2.2,1.1l-4.4,2.7l-0.4,0.5
		c-26.2,27.1-62.4,23.2-73.2,17c-4.2-2.7-7.5-5.5-10.2-9.1l-2.9-3.8l-3.1,3.7c-2.9,3.7-17.4,16.8-33.7,15
		c-8.6-1.3-14.8-5.9-18.7-14.1c-7.9-17.2-2.9-48.3,11.3-70.6c8.1-15.9,9.1-17.9,5.5-20.1c-3.7-2.2-4.9-0.4-15.4,14.1
		c-11,15.6-23.4,35.9-34.2,53.8c-9.3,15.4-17.4,28.5-22.9,36c-2.9,0-21.8,0-30,0c9.5-19.2,20.1-58,24.9-86.4l0.5-3.7
		c0.4-2.7,0.7-4.9,0.7-6.6c0-2.4-0.7-3.8-2.9-4.4c-4-1.1-5.5,2.4-9.7,12.1c-7.7,17.7-35.3,76.7-70.1,90.2c-9.9,3.8-19,3.7-28.4-0.5
		c-6-2.7-9.7-7.5-11.2-14.5c-0.4-2-0.5-4.4-0.5-6.6c0-16.1,9.7-37.1,20.5-49.4c1.3-0.4,9.9-3.5,18.1-6.6
		c-5.5,9.7-11.7,22.9-11.7,32.6c0,2,0.2,3.8,0.9,5.5c1.1,3.3,3.5,5.5,6.8,6.6c21.6,6.2,43.4-39.7,73.9-110.3
		c14.1-32.8,27.4-63.5,38.2-77.2c3.3,0,31.1-0.2,39.5-0.4c-8.4,19-16.5,51.8-23.4,81.6l-8.4,34c-1.1,3.8-1.8,6.4-1.8,8.2
		c0,1.6,0.7,2.7,2.4,3.5c3.3,1.5,4.8-0.5,9-7c0.5-0.7,17.4-28.4,17.4-28.4c19.4-32.2,43.4-71.9,62.4-91.5c2.9,0,34,0,43.6,0
		c-40.6,74.3-76.5,145.3-76.5,178c0,5.1,0.9,9.3,2.7,12.4c1.6,2.4,3.7,3.7,6.2,4c5.5,0.5,11-4.6,11.9-5.5l1.3-1.3l-0.2-1.8
		c-3.8-30.9,21.4-68.1,54-79.4c17.7-6.2,35-2.9,42.8,7.7c6.8,9.1,5.1,21.6-4.2,34.2c-5.9,7.9-21.4,21.6-58.7,24.9l-3.8,0.4l0.5,3.8
		c1.6,14.5,10.2,17.9,17.2,18.3c33.3,1.8,60.4-32.9,71.2-53.6c0-0.2,28.2-60.9,28.2-60.9s-28.2,1.1-37,1.5
		c3.3-6.8,9.1-18.5,10.6-21.4c4,0,36.6-0.5,36.6-0.5s17.2-36.4,19-40.3c3.7,0,25.8-0.2,34.2-0.4c-3.8,8.2-19.2,40.3-19.2,40.3
		S733.3,474.7,743,474.6z M701.3,503.8c-7.9,5.7-21.6,22-50.5,58.4c-7.7,9.9-16.1,20.3-21.4,26.5c0.5-1.6,1.1-3.3,2.2-5.1
		c0,0,37.1-79.1,37.3-79.2C671.3,504.4,685.2,504,701.3,503.8z"/>
	<path class="st0" d="M558.2,554.9c2.7-3.5,3.8-6.8,3.8-9.7c0-2.7-1.1-4.9-2.4-6.6c-4.2-4.9-12.4-5.1-19.9-0.7
		c-11.7,7-20.7,20.5-22.7,29.5l-0.9,4.4l4.4,0.2C530,572.6,549.2,566.2,558.2,554.9 M543.7,544.5c4.9-2.9,9-2.2,10.2-0.7
		c0.4,0.4,0.5,0.9,0.5,1.6c0,1.3-0.7,3.1-2.2,4.9c-6,7.5-17.7,12.1-25.6,13.5C529.6,557.3,535.9,549,543.7,544.5z"/>
	<polyline class="st2" points="830.7,494.9 830.7,494.9 826.3,482.6 819.5,482.6 819.5,501.5 823.3,501.5 823.3,486.5 823.5,486.5 
		828.8,501.5 832.5,501.5 838,486.5 838.2,486.5 838.2,501.5 842,501.5 842,482.6 835.4,482.6 	"/>
	<polyline class="st2" points="800.8,485.9 806.5,485.9 806.5,501.5 810.3,501.5 810.3,485.9 816,485.9 816,482.6 800.8,482.6 	"/>
</g>
</svg>
