<?xml version="1.0" encoding="utf-8"?>
<!-- Generator: Adobe Illustrator 24.2.0, SVG Export Plug-In . SVG Version: 6.00 Build 0)  -->
<svg version="1.1" id="katman_1" xmlns="http://www.w3.org/2000/svg" xmlns:xlink="http://www.w3.org/1999/xlink" x="0px" y="0px"
	 viewBox="0 0 1000 1000" style="enable-background:new 0 0 1000 1000;" xml:space="preserve">
<style type="text/css">
	.st0{clip-path:url(#SVGID_2_);fill:#FFFFFF;}
	.st1{fill:#E2052C;}
	.st2{fill:#1C2646;}
</style>
<g>
	<g>
		<defs>
			<rect id="SVGID_1_" x="162.6" y="123.7" width="674.8" height="752.5"/>
		</defs>
		<clipPath id="SVGID_2_">
			<use xlink:href="#SVGID_1_"  style="overflow:visible;"/>
		</clipPath>
		<path class="st0" d="M500.2,126.1c-186.1,0-337.6,151.4-337.6,337.6c0,129.4,72,245.2,188,302.6c-0.5,1-1.6,3.1-1.6,3.1
			c-5.4,10.5-16.6,32.4-20,34l-6.3,2c-3.1,0.8-6.4,1.5-9.2,3.7c-3.1,2.3-7.8,11.3-7.8,15.9l-0.2,1.6c-0.3,1.4-0.6,3.3-0.6,5.7
			c0,7.5,3.7,19.3,26.2,31.7c0,0,4.6,2.4,4.6,2.4c30.6,14.4,41.3,3.1,45.3-1.1l1.1-1.1c3.7-2.7,8.2-11.7,8.3-15.6c0-0.2,0-0.3,0-0.4
			c0-3.4-1.2-6.4-2.4-9.2l-2.1-6.3c0-0.1,0-0.2,0-0.3c0-4.3,11.7-26.9,17.5-37.9c0,0,2.5-4.8,3.3-6.3c30.3,8.7,61.8,13.2,93.6,13.2
			c186.1,0,337.6-151.4,337.6-337.6C837.7,277.5,686.3,126.1,500.2,126.1"/>
	</g>
	<path class="st1" d="M372.1,563.4c-0.7,0.8-0.5,2,0.3,2.7l4.7,3.9c0.8,0.7,2,0.6,2.7-0.3c0.7-0.8,0.5-2.1-0.3-2.7l-4.7-3.9
		C374,562.4,372.8,562.6,372.1,563.4"/>
	<path class="st1" d="M392.5,580.6c0.9,0.6,2.1,0.3,2.7-0.6c0.6-0.9,0.3-2.1-0.6-2.7l-4.3-2.7c-0.9-0.6-2.1-0.3-2.7,0.6
		c-0.6,0.9-0.3,2.1,0.6,2.7L392.5,580.6z M392.5,580.6"/>
	<path class="st1" d="M384.9,602.5c0.7-0.8,0.7-2-0.1-2.7l-9-8.2c-0.8-0.7-2-0.6-2.8,0.1c-0.7,0.8-0.6,2,0.2,2.8l9,8.2
		C383,603.3,384.2,603.3,384.9,602.5"/>
	<path class="st1" d="M635.8,583.3c-1.1,0.1-1.8,1-1.7,2.1c0.1,1.1,1.1,1.8,2.1,1.7l8.6-0.9c1.1-0.1,1.8-1.1,1.7-2.1
		c-0.1-1.1-1-1.8-2.1-1.7L635.8,583.3z M635.8,583.3"/>
	<path class="st2" d="M613.9,492.6c10.1-19.2-14.1-45.9-49.9-63.5c-35.8-17.6-70.1-21.1-81.1-0.2c-5.9,11.3,6.9,26.9,28.7,41.4
		c0.8-2.3,1.6-4.6,2.3-6.8c0.5-1.6,0.9-3.4,1.6-4.9c0.4-1.1,0.8-2.4,1.2-3.5c0.2-0.8,1.6-3,2.7-4.6c4.4-6.6,19.2-7.9,32.9-1.4
		c13.8,6.5,23.6,21.8,19.7,31.8c0,0,0,0.1,0,0.1c-0.7,1.8-2.1,4.3-2.7,5c-2.2,2.9-4.5,6.1-6.9,9.4
		C587.4,503.8,607.9,504,613.9,492.6"/>
	<path class="st2" d="M553.3,508.6H553c-1.1,1.5-2.1,3.1-3.2,4.6c0,0.1,0.1,0.1,0.1,0.1c13,4.5,36.8,20.9,44.6,29.2
		c0.2,0.3,0.6,0.6,0.8,0.8c0.1,0,0.2,0.1,0.2,0.1c2-1.2,4-2.4,6-3.5c1.2-0.6,2.4-1.2,3.7-1.8l-0.2-0.3
		C599.9,533.2,567.1,514.2,553.3,508.6"/>
	<path class="st2" d="M503.6,492.1c0.8-2,1.5-4,2.3-6c-13-6.8-35.8-14.6-47.6-19.2c-1.7-0.7-3.6-1.5-5.5-2.6
		c-3.1-1.7-6.5-3.8-9.8-6.3c-13.5-10.1-26.8-26.9-24.2-47.5c2.3-18.3,16.9-27.4,37.3-29.9c3.3-0.4,6.7-0.6,10.2-0.7
		c32.5-0.8,75.5,11.6,109.1,28.5c26.1,13,60.9,38.4,78,54.9c4.2,4.1,7.6,7.5,10.4,10.7c2.4,2.7,4.5,5.2,6.1,7.6
		c5.4,7.9,7.1,15,7.8,27.1c0.1,12.2-3.3,23.3-7.5,32c-0.1,0.1-0.1,0.2-0.1,0.4c3.7-2.2,7.5-4.2,11.4-5.8c0-0.2,0.1-0.3,0.1-0.3
		c0.2-1.1,0.4-3.3,0.4-3.3c5.5-25.5,0.5-48-7.4-64.4c-1.9-4-4-7.7-6.2-10.9c-3-4.5-6.1-8.2-9-11c-13.4-12.6-7-3.2-2.6,2.6
		c3.2,4.1,4.7,6.5,6,9c2.4,4.5,3.5,7.2,3.6,8.5c-0.1,0.3-0.2,0.7-0.2,1c-1,0.3-4.1-2.4-9-7.3c-18.3-18.7-50.1-42.4-79.4-57
		c-36-18-79.2-27.4-107.2-28.5c-3.1-0.1-6.1-0.2-8.7-0.1c4.7-2.1,8.4-3.5,12.1-4.4c5.1-1.3,10-1.8,16.7-2.5c10.2-1,6.2-3,0-2.6
		c-3.7,0.3-8.3,0.5-13.2,1c-3.8,0.3-7.8,0.7-11.9,1.3c-22.2,3.2-47.5,11.5-52.8,38.1c-5.3,26.8,11.8,50.3,32.3,63.2
		c3.4,2.1,6.8,3.9,10.3,5.4c0.9,0.4,1.7,0.8,2.6,1.1c21.8,8.5,44.8,18.6,45.3,18.8h0L503.6,492.1z M503.6,492.1"/>
	<path class="st2" d="M519.3,344.7l2.2-6.8l4.4,6l7.3,0.3l-4.6,5.6l2.1,7.2l-7.1-2.7l-6,4.4l0.2-7.5l-5.8-4.3L519.3,344.7z
		 M561.2,344l5.6-9.4l4.4,10.4l10.7,2.9l-8.7,6.7l0.7,11.3l-9.6-6.3l-10.3,4.6l2.9-11l-7.1-8.2L561.2,344z M605.4,356.5l11.6,6.7
		l11.6-5.3l-2.6,13l8.4,10l-12.9,0.7l-6.9,11.4l-5-12.5l-13-2.5l10.1-8.7L605.4,356.5z M647.1,409.9l2.5-7.3l4.6,6.6l7.7,0.1
		l-4.7,6.4l2,7.6l-7.2-2.9l-6.7,4.5l0.5-8.1l-6.5-4.7L647.1,409.9z M590.9,387c15.5,7.7,35.7,22.8,58.1,48.2l19.9-11.4l3.8-2.1
		c-6.4-40.5-29-68.1-60.2-85c-42.3-22.9-89.7-11.2-109.3,2.4l0.3,4.5l1.4,18.5C539.3,363.8,575.4,379.3,590.9,387"/>
	<path class="st2" d="M716,619.5v-13.9h5.1v-3h-13.7v3h5.1v13.9H716z M716,619.5"/>
	<path class="st2" d="M744.3,619.5v-16.9h-5.9l-4.1,11.1h-0.1l-3.9-11.1h-6v16.9h3.5V606h0.1l4.7,13.5h3.4l4.9-13.5h0.1v13.5H744.3z
		 M744.3,619.5"/>
	<path class="st1" d="M516.9,564.1l-0.4,0c2.7-4.2,5.4-8.5,8.1-12.7c0.8-1.3,1.6-2.5,2.4-3.8l0.4-0.1c2.1-0.9,4.7-1.6,7.3-2.1
		c6.4-1.3,13.1-1.3,14.5,2c0,0.1,0,0.3,0.1,0.4c0.9,2.6-0.6,5.4-3.6,8C539.8,560.9,527.8,564.9,516.9,564.1 M403.2,745.2
		c-0.5-0.2-0.9-0.3-1.4-0.5c24.3-44,73.6-130.5,113.2-196.9c1.5-2.5,2.9-4.9,4.4-7.3c6.5-10.8,12.7-21.1,18.5-30.4
		c12.3-19,26.3-41.8,27.6-43.8c0.8,0.6,2.2,2.9,2,4.8c-0.1,1.7-25.4,39.3-26.9,41.7c-5.8,8.9-12,18.6-18.4,28.8
		c-1.5,2.4-3,4.8-4.5,7.2C476.7,614.7,428.5,699.9,403.2,745.2 M477.5,597.7c2.3-4.5,15.6-27.3,30.9-52.9c1.4-2.4,2.9-4.8,4.3-7.2
		c19-31.9,39.6-66.1,45.1-74.3c0.5-2.5-2.5-4.2-2.5-4.2c-3.9,6.8-23,39.3-45.2,77.2c-1.4,2.4-2.8,4.8-4.2,7.2
		c-34.8,59.4-75.3,128.6-77.6,132.9c4.9-9,37.5-74.8,49.6-98.1c4-7.7,10.8-23,18.3-40.4c1.1-2.5,2.2-5.2,3.3-7.8
		c15.5-36.5,32.6-78.7,33.2-81.6c11.4-0.4,24,4.8,30.7,14c0.1-0.3-2.5,4.2-2.5,4.2c-2.2,3.4-32.8,52.8-44.7,72.4
		c-2.1,3.4-3.6,6-4.3,7.2c0,0.1-0.1,0.2-0.2,0.3c-3.9,7-102.8,175.4-102.8,175.4C433.2,674.7,472.1,608.2,477.5,597.7 M492.8,535.9
		c1.2-2.7,2.3-5.3,3.4-7.9c16.9-40,25.6-67.9,27-72.8l2.5-0.5c-7.6,23-18.2,49.4-28.7,73.8c-1.2,2.6-2.3,5.3-3.4,7.8
		c-15,34.2-29.3,62.7-33.7,68.8C472.8,580,483.8,556.5,492.8,535.9 M395.6,740.9c0,0.1-0.2,0.5-0.6,1.2c-0.1,0-0.2-0.1-0.3-0.1
		c0.3-0.7,0.7-1.3,0.9-1.8C397.5,736.8,395.8,740.1,395.6,740.9 M386.2,776l-0.3,0.6v0.4c-0.2-0.2-0.1,0.3-0.2,0.1
		c0.1,0.2,0,0.5-0.1,0.6c-0.3,0.2-0.3,0.4-0.5,0.8c0,0,0.1,0.1,0,0.2c-0.2,0.2-0.2,0.6-0.4,0.8c-0.3,0.4-1.1,0.6-1.4,1.1
		c0.6-1.2,1.1-2.3,1.8-3.1c0.5-0.6,0-0.2,0.4-0.8c0.2-0.4,1.4-3.7,1.5-4.2c0.5-1.1,1.6-3.3,3.2-6.4c0.4,0.1,0.8,0.3,1.2,0.4
		C388.8,771.3,386.9,774.6,386.2,776 M382.8,783.8c0,0.1-0.8,0.1-0.9,0.3c-0.1,0.2,0.1,0.5-0.1,0.7c-0.7,1-0.6,1.9-1,3
		c0,0.1-0.4,0.2-0.4,0.3c0.1,1-1.2,1.8-1.4,2.7c-0.4,1.7-1.2,3.1-1.9,4.7c0,0.1-0.4,0.2-0.4,0.3c-0.1,0.7-0.8,0.9-1,1.5
		c-0.1,0.1,0,0.4-0.1,0.4c-0.4,0.3-0.6,0.7-0.9,1.1c-0.1,0.1,0,0.5-0.1,0.7c-0.2,0.5-0.6,0.8-0.6,1.3c-0.4,2.1-1.1,4-1.9,5.8
		c-0.2,0.4-0.5,1.1-0.4,1.7c-0.6,0,0.2,0.8-0.5,0.8c0,0.5,0.1,1-0.1,1.5c-0.5,1.3-0.7,2.6-0.9,4c-0.1,0.2-0.4,0.5-0.4,0.8
		c0.1,1.1-1.1,1.9-1.1,3c0,0.9-0.6,1.5-1,2.4c-0.2,0.5-0.7,1-1.1,1.6c-0.6,0.8-1.5,1.6-2,2.5c-0.1,0.3,0.5,0.8,0.2,0.9
		c-0.2,0.1-0.4,0.1-0.5,0.3c-0.3,0.7,0.4,1.6-0.5,2c-0.5,1.9-2.5,3.5-3.1,5.3c-0.2,0.6,0.6,1.4,0.4,1.9c-0.6,1.3-0.7,2.3-1.1,3.8
		c-0.1,0.2-0.3,0.4-0.4,0.2c-0.2-0.1-0.3-0.4-0.3-0.7c-0.1-0.2-0.6-0.2-0.5-0.8c0.2-1.9,1.4-2.6,1.8-4.4c0.6-2.3,1-4.4,1.4-6.6
		c0.1-0.6,0.4-1.1,0.4-1.8c0-0.2-0.1-0.3-0.1-0.5c0.1-0.7,0.7-1.2,0.5-2c1-1.3,0.8-3.1,1.9-4.5c0.2-0.2,0.7-0.7,0.8-0.9
		c0.8-1.5,0.6-3.1,1.5-4.6c0.1-0.2,0.2-0.1,0.3-0.3c0.2-0.4,1-1,1.1-1.4c0.1-0.3-0.4-0.7-0.1-1c0.1-0.1,0-0.3,0-0.5
		c0.3-0.7,0.8-1.2,1.1-2c0.3-0.9,0.6-1.8,1.2-2.5c0.1-0.1,0.4-0.3,0.4-0.6c0-0.2-0.2-0.5,0.5-0.8c-0.1-1,0.9-1.5,1.1-2.5
		c0.1-0.4,0.6-0.9,0.8-1.3c0.2-0.6,0.4-1.1,0.6-1.7c0-0.2,0.2-0.3,0.5-0.2c0-0.3-0.1-0.5,0-0.7c0.8-1.5,2-2.6,2.5-4.3
		c0-0.1,0.4-0.1,0.4-0.3c0.1-0.2-0.1-0.5,0.1-0.7c0.9-1.1,1.1-2.3,1.9-3.5c0.1-0.2,0-0.5,0.1-0.7c0.2-0.6,0.6-1.2,0.9-1.8
		c0.1-0.2-0.1-0.5,0.1-0.7c0.3-0.5,0.6-0.9,0.9-1.3c0.6-0.9,1.1-2,1.7-3.2C383,781.6,383.4,783,382.8,783.8 M355.1,825
		c-0.7,2-1.2,3.5-1.4,4.2c-1,3.4-2.2,8.3-3.1,12.7c-0.6,2.7-2,3.3-3.5,2.7c-0.9-0.3-1.9-1-2.7-1.7c-0.5-0.4-1.1-0.5-1.8-0.8
		c-0.2-0.1-0.4,0.2-0.7,0.1c-0.4-0.2-0.8-1-1.2-1.2c-0.6-0.3-1.5-0.8-2.1-1.1c-0.6-0.3-1-1-1.5-1.2c-0.4-0.2-0.7,0.2-1.1,0
		c-1-0.5-1.7-1.2-2.4-1.7c-0.5-0.3-1.4-0.8-1.7-1.1c-0.6-0.5-0.5-1-0.3-1.3c0.3-0.5,1.5-0.8,2-0.8c0.6-0.1,2.5,0.6,4.6,1.6
		c1.7,0.8,3.6,2,5,2.4c1.2,0.4,2.7,0,3.3-0.6c0.5-0.5,0.2-1.1,0.3-1.8c0.1-0.9,0.8-1.8,0.3-2.3c-0.6-0.8-1.1-1-1.7-1.3
		c-0.7-0.4-1.4-0.8-2.1-1.1c-1.2-0.5-1.7-2.5-0.3-2.7c0,0,1.3-0.5,2.2-1.3c0.5-0.5,0.3-1,0.8-1.6c0.3-0.3,0.9-0.6,1.1-0.9
		c0.2-0.2-0.2-0.5,0-0.7c0.3-0.2,0.1-0.6,0.5-1c0.3-0.4,1.2-0.8,1.5-1.2c0.3-0.4,0.7-0.8,1-1.2c6.8-8.8,18-28.4,27.7-46.2
		c-4.4,8.3-8.5,16-10.2,19.9c-3.8,8.1-9.7,22.2-12.6,30.2C354.9,824.2,355.2,824.6,355.1,825 M337.8,823c3.6-0.9,10.3-9.5,10.7-10.3
		c0.4-0.8,1.4-1.5,0.9,0.1c-0.7,3.8-3.4,7.4-5.5,9.8c-1.3,1.4-2.1,2.4-3.1,2.6c-2.6,0.6-3.5-0.3-3.8-1.1
		C337.1,822.9,337.3,823.2,337.8,823 M298,681C298,681,298,681,298,681c0.2,0.1,0.2,0.2,0.3,0.3C298.2,681.2,298.1,681.1,298,681
		 M295,678.2c-0.8-0.8-1.6-1.5-2.4-2.3c1.5,0.6,2.8,1.1,3.2,1.2c0,0,0.2,0.2,0.2,0.3C295.6,677.7,295.3,678,295,678.2 M202.5,465.8
		c-2.3-33.4,7.3-54.8,15.2-69.3c8.1-14.9,25.4-34.6,40.7-31.6c23.7,4.7,8.4,35.6-11.7,70.7c-19.7,34.3-43.5,70.4-24.3,91.1
		c15.5,16.8,47.3,13,66.8-6.3L241.4,610C216.8,567.4,202.5,518.3,202.5,465.8 M317.7,584.5c-8.8-9.8,25.4-43.5,33.5-33.4
		C357.2,560.9,327.5,595.4,317.7,584.5 M607.4,546.6c3.7-3,7.5-4.9,10.5-5.3c2.1-0.2,3.7,0.4,4.5,2.1c2.4,5.5-12,17.5-26.4,19.4
		C597.3,556.9,602.2,550.8,607.4,546.6 M698.1,539.5c4.2,5.9-10.5,19-26.9,19.6C672.3,548.9,692.8,532.2,698.1,539.5 M724,570.3
		c0.6,0.6,11.9,0.2,12-10.8c3.5-2.4,7.3-5.4,10.7-8.6c0.1,1,0.2,1.9,0.4,2.8c2.2,7.9,2.4,29.3-13.8,28.5
		C723.5,581.7,722,572.5,724,570.3 M695.7,248.1c1.7-2,3.3-3.9,4.8-5.6c4.1,3.7,8.1,7.5,11.9,11.4
		C708.2,252.4,699.9,249.5,695.7,248.1 M526.9,595.8c6.4,4.9,25.6-1.1,43.6-17.2l1.7-1.3c0.2,1.4,0.6,2.8,1.3,4.2
		c7.9,17.4,45.3,11,73.7-9.4c0.2,2.1,0.8,4.1,1.8,6.2c7.7,15.1,39.4,10.9,65-4.5c0.6,1.9,1.4,3.8,2.6,5.8c3,4.9,10.2,9.2,16.7,10.3
		c10.1,1.7,22.3,0.4,29.4-9.2c1.9-2.5,3-5.2,3.8-7.9c10.1-8.6,34.7-35.5,50.3-67.6c4.5-9.3,5.7-33.2,5.6-41.5l-0.2-0.6
		c0-177.6-144-321.7-321.7-321.7c-158.3,0-289.9,114.3-316.7,264.9l31.2-33.1c14.3-44.3,38.6-84.1,70.2-116.8
		c0.9,0.8,1.8,1.5,2.7,2.3l-7.4,22.7c-0.3,1,0.2,2.1,1.2,2.5c1,0.3,2.1-0.2,2.4-1.3c0,0,5.2-15.9,6.9-21.2c2.9,2.6,5.8,5.2,8.6,7.9
		l-9.2,21.8c-0.4,1,0,2.1,1,2.5c1,0.4,2.1,0,2.5-1l8.7-20.5c2.7,2.6,5.3,5.4,8,8.1l-9,22c-0.4,1,0.1,2.1,1.1,2.5
		c1,0.4,2.1-0.1,2.5-1.1l8.3-20.4c1.3,1.4,2.6,2.9,3.9,4.4c0,0,0,0.1,0,0.1c0.1,0.7,0.7,1.1,1.3,1.4c0.2,0.2,0.3,0.4,0.5,0.6
		l-11.5,21.8c-0.5,0.9-0.1,2.1,0.8,2.6c1,0.5,2.1,0.1,2.6-0.8L322,293c1.7,2.1,3.4,4.1,5.1,6.2c0.3,0.4,0.5,0.7,0.8,1.1
		c0.5,0.6,1,1.3,1.5,1.9l-13.3,19.9c-0.6,0.9-0.3,2.1,0.5,2.7c0.9,0.6,2.1,0.3,2.7-0.5l12.5-18.8c2.9,3.9,5.7,7.9,8.4,12
		c-0.1,0.1-0.2,0-0.3,0.1l-15.5,16.8c-0.7,0.8-0.7,2,0.1,2.7c0.8,0.7,2,0.7,2.8-0.1l15.1-16.3c3.3,5.2,6.6,10.5,9.6,16l-17.1,17.9
		c-0.8,0.8-0.7,2,0.1,2.7c0.8,0.7,2,0.7,2.7-0.1c0,0,12.1-12.7,16.2-17c2.6,4.9,5.1,9.9,7.4,15L343,373.1c-0.8,0.8-0.8,2,0,2.7
		c0.8,0.8,2,0.8,2.7,0c0,0,13.1-12.8,17.2-16.8c2.8,6.3,5.4,12.7,7.7,19.2l-19.4,19.4c-0.7,0.8-0.7,2,0,2.7c0.8,0.8,2,0.8,2.7,0
		l18-18c2.1,6.2,4,12.6,5.6,19l-7.4,7.4c-0.8,0.7-0.8,2,0,2.7c0.8,0.8,2,0.8,2.7,0l5.8-5.8c1.7,7.1,3.2,14.3,4.3,21.6l-19.3,19.3
		c-0.8,0.8-0.8,2,0,2.7c0.8,0.8,2,0.8,2.8,0l17.2-17.2c1.3,9.2,2.2,18.6,2.6,28l-22.4,17.7c-0.8,0.7-1,1.9-0.3,2.7
		c0.6,0.8,1.9,1,2.7,0.3c0,0,14.8-11.7,20.1-15.9c0.1,2.2,0.2,4.4,0.2,6.7c0,6.3-0.2,12.4-0.6,18.5l-21.5,14.3
		c-0.9,0.6-1.1,1.8-0.5,2.7c0.6,0.9,1.8,1.1,2.7,0.5c0,0,13.5-9,18.9-12.6c-0.7,8-1.7,15.9-3.1,23.9l-24.1,9.8
		c-1,0.4-1.4,1.5-1.1,2.5c0.4,1,1.5,1.5,2.5,1.1c0,0,15.2-6.2,21.7-8.9c-1,4.9-2,9.8-3.3,14.8c0,0.1,0.1,0.2,0.1,0.3
		c0,0.2,0,0.4,0.1,0.7c0.1,0.2,0.2,0.4,0.3,0.7c0.1,0.1,0.1,0.2,0.1,0.3l13.3,11.2c0.8,0.7,2.1,0.6,2.7-0.2c0.7-0.8,0.6-2.1-0.2-2.7
		l-12.4-10.4c1.3-5.1,2.4-10.2,3.4-15.2c5.2,2.2,24.7,10.3,24.7,10.3c1,0.4,2.1,0,2.5-1c0.4-1-0.1-2.1-1-2.6L386.2,519
		c1.5-8.2,2.5-16.4,3.1-24.6c5.9,2.4,24,9.7,24,9.7c1,0.4,2.1-0.1,2.5-1.1c0.4-1-0.1-2.1-1.1-2.5l-25-10.1
		c0.4-6.1,0.6-12.3,0.6-18.7c0-2.4-0.1-4.8-0.2-7.2c6.5,2.7,25.3,10.7,25.3,10.7c1,0.4,2.1,0,2.5-1c0.4-1,0-2.1-1-2.5L390,460.2
		c-0.4-9.3-1.2-18.4-2.4-27.5l23.2,8.1c1,0.4,2.1-0.2,2.4-1.2c0.4-1-0.2-2.1-1.2-2.5l-25.1-8.8c0,0,0-0.1,0-0.1
		c0.1-0.5,0-0.9-0.2-1.3c-1.1-7.2-2.5-14.3-4.2-21.4l25,6.5c1,0.3,2.1-0.4,2.4-1.4c0.3-1-0.4-2.1-1.4-2.3l-27-7.1
		c-1.7-6.7-3.6-13.3-5.8-19.8c7.3,0.6,27.5,2.3,27.5,2.3c1.1,0.1,2-0.7,2.1-1.8c0.1-1.1-0.7-2-1.8-2.1l-29.1-2.4
		c-2.3-6.6-4.9-13-7.7-19.3c7,0.4,25.3,1.5,25.3,1.5c1.1,0.1,2-0.8,2.1-1.8c0.1-1.1-0.8-2-1.8-2.1l-27.3-1.6
		c-2.3-5.2-4.8-10.2-7.5-15.2c6.9-0.2,27-0.8,27-0.8c1.1,0,1.9-0.9,1.9-1.9c0,0,0,0,0,0c0-1.1-0.9-1.9-2-1.9l-28.9,0.8
		c-3-5.5-6.2-10.8-9.6-16.1l27.5-2.4c1.1-0.1,1.9-1,1.8-2.1c-0.1-1.1-1-1.9-2.1-1.8l-29.6,2.6c-3.4-5.2-7-10.2-10.8-15.2l23.7-3.4
		c1-0.2,1.8-1.1,1.6-2.2c-0.2-1.1-1.1-1.8-2.2-1.6l-25.8,3.7c-2.1-2.6-4.2-5.2-6.4-7.7l23.7-3.7c1-0.2,1.8-1.2,1.6-2.2
		c-0.2-1-1.1-1.8-2.2-1.6l-26,4.1c-2.1-2.4-4.3-4.8-6.6-7.2l18.8-6c1-0.3,1.6-1.4,1.3-2.4c-0.3-1-1.4-1.6-2.4-1.2l-20.6,6.6
		c-1.5-1.5-2.9-3.1-4.4-4.6l18.6-7c1-0.4,1.5-1.5,1.1-2.5c-0.4-1-1.5-1.5-2.5-1.1l-20.3,7.6c-3.1-3-6.2-5.9-9.4-8.7
		c5.9-2.2,19.9-7.4,19.9-7.4c0.8-0.3,1.3-1,1.3-1.8c0-0.2,0-0.5-0.1-0.7c-0.4-1-1.5-1.5-2.5-1.1l-21.9,8.1c-0.9-0.8-1.9-1.6-2.8-2.4
		c54.2-54.5,129.2-88.2,212.1-88.2c75.7,0,144.8,28.2,197.5,74.5c-1.7,1.9-3.4,3.9-5.2,6.1c-2.6-3.8-10.9-15.6-10.9-15.6
		c-0.6-0.9-1.8-1.1-2.7-0.5c-0.9,0.6-1.1,1.8-0.5,2.7l11.5,16.4c-2.3,2.7-4.5,5.5-6.6,8.1c-3.3-3.4-14.9-15-14.9-15
		c-0.8-0.8-2-0.8-2.8,0c-0.8,0.8-0.8,2,0,2.7l15.3,15.3c-1.5,1.9-2.8,3.6-3.9,5c-25.3-17.4-55.5-27.8-87.8-27.8
		c-33.5,0-64.6,10.6-90,28.6c-0.4,0.2,2.8,50.7,3.9,67.9c4.6-2.5,9.4-4.6,14.4-6.6l-1.2-61.7c6.2-5,14.7-9,21.3-11.4l-1.4,67.5
		c7.6-1.5,15.5-2.4,23.6-2.4c2.5,0,4.9,0.2,7.4,0.4l12.4-74.3c15.9-1.5,31.8,0.2,45.8,4.7l-28.9,75.1c13.3,4.4,25.5,11,36.3,19.4
		l51.2-65.2c11.1,9.7,19.9,19,28.5,32.5l-59.7,52.5c6.3,7.9,11.6,16.6,15.7,26l61.6-42.6c1.2,2.4,4.8,17.2,4.2,21.5l-59.8,38.6
		c1,3.9,1.9,7.9,2.5,12c14.9-8.5,69.4-39.4,69.4-39.9c-4.7-45.8-29.9-86.6-66.1-112.7c1.1-1.4,2.4-3.1,4-5.1
		c4.9,2.4,16.5,7.9,16.5,7.9c0.9,0.5,2.1,0.1,2.6-0.9c0.1-0.3,0.2-0.6,0.2-0.8c0-0.7-0.4-1.4-1.1-1.7c0,0-10.9-5.2-15.7-7.5
		c2-2.6,4.3-5.4,6.5-8.1l20.6,7.2c0.9,0.3,1.7-0.2,2.2-0.9c51.7,53.8,83.5,126.8,83.5,207.3l0.2,0.2c-1.9,55.4-12.7,79.4-32.4,93.9
		c-0.9-5.6-2.7-10.5-4.2-13.5c-3-6.2-1.6-6.5,0.4-8.5c11.1-9.6,13.4-19.3,9.3-22.2c-6-4.3-22.9,9.3-25.1,22.4c-0.3,2-0.6,4-0.9,6.1
		c-3.6,4.3-8.4,8.2-12.9,11.4c-6.3-5.8-19.7,0.7-20.6,12.6c-12.3,6.9-22.3,10.6-31.4,10.7c-11.2,0.1-14.1-6.5-12-12.6
		c0,0,0-0.1,0-0.1c0,0,0.1,0.1,0.7,0.1c21.9-1.7,47.6-14.3,43.5-29c-2.4-8.6-17.4-7.5-32.5-1.1c-3.8,1.6-7.7,3.6-11.4,5.8
		c-10,6-18.6,14-21.7,22.5c-15.3,13.1-31.3,17.5-42.1,17.6c-11.2,0.1-14.1-6.5-12.1-12.6c0.1-0.3-0.2,0,0.8,0
		c23.9-0.2,52.8-14.1,46.7-29.7c-1.5-4-5.2-6-10.1-6.6c-6.3-0.7-14.5,1.1-22.9,4.5c-1.1,0.5-2.2,0.9-3.3,1.5
		c-1.2,0.6-2.4,1.1-3.7,1.8c-2,1.1-4.1,2.2-6,3.4c-5.2,3.2-10,7-13.9,11.1c-3.5,3.6-6.2,7.5-7.9,11.4c-7.7,10.3-21.7,20.2-26.6,19.6
		c-11.2-1.5-0.4-13.7-11.3-15.7c8.4-1.4,19-6.4,25.5-13.3c2.5-2.6,4.4-5.5,5.3-8.6c0.8-2.6,0.8-5.4,0-8.2c-3.1-10.6-21.7-7.5-33-1.7
		l-0.5,0.3c5.8-8.8,11.4-17.2,16.7-25.1c1.1-1.6,2.1-3.1,3.2-4.6c3.2-4.6,6.2-8.9,9.2-13c0-0.1,0.1-0.1,0.1-0.2
		c2.4-3.3,4.7-6.5,6.9-9.4c0.5-0.7,2-3.2,2.7-5c0,0,0-0.1,0-0.1c3.8-10-6-25.3-19.7-31.8c-13.7-6.5-28.5-5.1-32.9,1.4
		c-1.1,1.6-2.4,3.7-2.7,4.6c-0.4,1.1-0.8,2.4-1.2,3.5c-0.5,1.6-1,3.3-1.6,4.9c-0.8,2.4-1.5,4.7-2.4,7.2c-1.7,5-3.6,10.2-5.6,15.4
		c-0.8,2-1.5,4-2.3,6l-0.3,1l-0.1,0c-3.9,10.1-8.1,20.4-12.5,30.8c-1.1,2.6-2.2,5.3-3.4,7.9c-6.8,15.8-14,31.5-20.9,46.3
		c-3.2,2.2-9.1,5.8-11.5,4.2c-5.9-3.8,20.8-30.6,12.1-39.8c-7.2-7.5-29.5,3.1-40.1,14.2c1.2-3.2,1.5-9.2-3.1-13.8
		c-14.9-14.7-58.8,52.6-66.4,47.1c-4.4-3.2,12.7-23.2,20.9-45.4l-18.2,0.1l-2.7,4.3c0.1-1.1-0.5-2.5-2-4
		c-20-18.4-69.8,34.8-51.5,50.7c8.5,7.4,28.8-1.5,37.2-12.5c-5.6,12-1.4,16.7,0.2,17.9c18.6,13.6,58.3-50.5,65.1-44.6
		c4.8,4.2-19.7,40.1-18.6,40.9l18.4-0.2c7.8-13.9,13.6-24.9,13.6-24.9c10.3-11.9,23-21.4,26-17.8c5.1,6.1-21.8,27.8-13,41.5
		c4.2,6.6,20.8-1.5,28.8-7.6c-16.2,34.1-30.3,61.8-34.7,70.8c-8.3,16.9-24.8,48-41.5,78.8c-28.2-12.1-54.4-28.6-77.8-48.6
		c0-0.4,0-0.8-0.2-1.1l-6.2-10c0-0.1,0.1-0.1,0.2-0.2c3-2.7,5.8-5.7,8.6-8.6c3.7,4.2,9.8,11.2,9.8,11.2c0.7,0.8,1.9,0.9,2.7,0.2
		c0.8-0.7,0.9-1.9,0.2-2.7l-10-11.3c2.4-2.5,4.8-4.9,7-7.5c4.2,4.4,11.3,11.9,11.3,11.9c0.7,0.8,2,0.8,2.7,0.1
		c0.8-0.7,0.8-2,0.1-2.7l-11.6-12.3c3.5-4,6.9-7.9,10.2-12.1c3.9,5.5,10.5,14.7,10.5,14.7c0.6,0.9,1.8,1.1,2.7,0.5
		c0.9-0.6,1.1-1.8,0.5-2.7L334.6,641c3.2-4.2,6.3-8.5,9.2-13c3.6,4.5,12.7,16.1,12.7,16.1c0.7,0.8,1.9,1,2.7,0.3
		c0.8-0.7,1-1.9,0.3-2.7l-13.5-17.1c2.9-4.5,5.6-9.2,8.2-13.8l14.5,13.4c0.8,0.7,2,0.7,2.7-0.1c0.7-0.8,0.7-2-0.1-2.7l-15.1-13.9
		c0.1-0.2,0.2-0.3,0.3-0.5c0.5-0.9,0.2-2.1-0.8-2.6c-0.9-0.5-2.1-0.1-2.6,0.8c-0.2,0.5-0.5,0.9-0.8,1.3c0,0-0.1,0-0.1,0
		c0,0,0,0.2-0.1,0.2c-0.2,0.4-0.5,0.9-0.8,1.3l-18.2-1.7c-1.1-0.1-2,0.7-2.1,1.7c-0.1,1.1,0.7,2,1.8,2.1l16.4,1.5
		c-2.1,3.7-4.2,7.3-6.4,10.9l-21.1-2.5c-1.1-0.1-2,0.6-2.1,1.7c0,0.1,0,0.2,0,0.2c0,1,0.8,1.8,1.7,1.9c0,0,14,1.6,19.2,2.3
		c-2.6,4-5.5,7.8-8.3,11.7l-0.1-0.2c-0.3-0.5-0.8-0.7-1.4-0.8l-20.7-2.2c-1-0.1-2,0.7-2.1,1.7c0,0.1,0,0.1,0,0.2
		c0,1,0.8,1.8,1.7,1.9c0,0,18.2,1.9,19.8,2.1c0,0.1,0.3,0.4,0.4,0.6c-3.3,4.3-6.9,8.5-10.4,12.6l-0.4-0.4c-0.2-0.2-0.5-0.4-0.9-0.5
		l-19.8-6c-1-0.3-2.1,0.3-2.4,1.3c-0.1,0.2-0.1,0.4-0.1,0.6c0,0.8,0.5,1.6,1.4,1.9c0,0,18.4,5.6,19.3,5.9l0.3,0.3
		c-2.2,2.5-4.6,5-7,7.4l-0.4-0.4c-0.2-0.3-0.6-0.5-0.9-0.6l-17.6-5.2c-1-0.3-2.1,0.3-2.4,1.3c-0.1,0.2-0.1,0.4-0.1,0.6
		c0,0.8,0.6,1.6,1.4,1.9c0,0,16.1,4.7,17.1,5c0,0,0.1,0.1,0.1,0.2c-2.7,2.8-5.4,5.6-8.3,8.3l-0.3-0.4c-0.2-0.4-0.6-0.6-1-0.8
		l-11.2-4.3c-0.1,0-0.2,0-0.3,0c-11-11.4-21.2-23.6-30.3-36.6l115.7-218.5l-26.8,0.8l-47.4,88.2c-15.3,14.3-40.1,27.4-54.3,17.6
		c-28.1-19.4,82.1-124.7,41.5-158.9c-32.4-27.3-67.6,13.5-78.7,32.8c-9.1,15.8-26.1,39.9-26.7,69.7
		c0.3,132.1,80.2,245.5,194.4,294.7c-10.8,19.6-20.9,37.5-28.2,49.8c-5.1,8.7-8.4,12.6-14.6,12.2c-1.2-0.1-3.7,0.2-4.5,0.5
		c-3,1.2-4.2,6.5-4.1,8.8c0.2,4.7,4.1,13.2,19.3,20.1c15.2,7,23.7,6.3,27.6,3.8c1.9-1.3,5.5-5.4,4.7-8.5c-0.2-0.8-1.4-3.1-2.2-4
		c-4-4.7-3-8.8,1-18.1c5.7-13.2,15.5-33.3,26.6-54.9c32,10.7,66.2,16.5,101.8,16.5c151.5,0,278.5-104.7,312.7-245.7
		c1.3-5.2,2.6-11.5,2.6-11.5c-9,14.2-32.9,35.3-32.9,35.3c-12.7,36.5-32.3,69.5-57.2,97.5l4.5-8.9c0.5-1,0.1-2.1-0.9-2.6
		c-0.9-0.5-2.1-0.1-2.6,0.9c0,0-5.1,10.2-5.7,11.4c-2.8-1.8-5.8-4-8.9-6.6c3.6-4.3,10.1-12.2,10.1-12.2c0.7-0.8,0.6-2-0.2-2.7
		c-0.9-0.7-2.1-0.6-2.7,0.2c0,0-6.6,8-10,12.2c-1.5-1.3-2.9-2.6-4.4-4l12.3-17c0.6-0.8,0.4-2-0.4-2.7c-0.9-0.6-2.1-0.4-2.7,0.4
		l-12,16.6c-2.4-2.3-4.8-4.8-7.3-7.3c3.6-4.4,11.2-13.8,11.2-13.8c0.7-0.8,0.6-2.1-0.3-2.7c-0.8-0.7-2-0.5-2.7,0.3
		c0,0-7.5,9.3-10.8,13.4c-2.6-2.8-5.3-5.7-7.9-8.7L696,614c0.7-0.8,0.6-2-0.2-2.7c-0.8-0.7-2-0.6-2.7,0.2c0,0-7.1,8.4-11,13
		c-3.1-3.7-6.2-7.3-9.1-10.9l11.8-13.4c0.7-0.8,0.6-2-0.2-2.7c-0.8-0.7-2-0.6-2.7,0.2l-11.3,12.8c-3.7-4.6-7-9-9.8-12.9l5-5
		c0.7-0.8,0.7-2,0-2.8c-0.7-0.8-2-0.8-2.7,0c0,0-2.6,2.6-4.5,4.5c-2.3-3.3-4.1-6.2-5.3-8.4c-0.5-0.9-1.7-1.3-2.6-0.8
		c-0.9,0.5-1.3,1.7-0.7,2.6c1.3,2.3,3.2,5.3,5.5,8.7c-4.2,0.8-17.1,3.1-17.1,3.1c-0.9,0.2-1.6,1-1.6,1.9c0,0.1,0,0.2,0,0.3
		c0.2,1.1,1.2,1.8,2.3,1.6l18.8-3.4c3.1,4.3,6.8,9.2,10.9,14.3l-22.4,0.8c-1.1,0-1.9,0.9-1.9,2c0,1.1,0.9,1.9,2,1.9l25.3-0.8
		c2.5,3.1,5.1,6.2,7.8,9.3c-1.4,0.4-20,5.8-20,5.8c-0.8,0.2-1.4,1-1.4,1.9c0,0.2,0,0.4,0.1,0.6c0.3,1,1.4,1.6,2.4,1.3l20.6-6
		c0.3-0.1,0.6-0.3,0.8-0.6c2.5,2.8,5,5.6,7.5,8.3c-4.6,1.9-20.9,9.3-20.9,9.3c-1,0.4-1.4,1.6-1,2.6c0.4,1,1.6,1.4,2.6,1l22-10
		c1.9,1.9,3.7,3.8,5.6,5.7h-0.1l-18.9,11.2c-0.9,0.5-1.3,1.7-0.7,2.6c0.6,0.9,1.7,1.2,2.6,0.7l18.9-11.2c0.3-0.2,0.5-0.5,0.6-0.8
		c0,0.6,0.2,1.2,0.7,1.6c0.4,0.3,1,0.4,1.5,0.3c1.5,1.4,3,2.8,4.5,4.1c-2.8,1.7-17.1,11.3-17.1,11.3c-0.9,0.6-1.1,1.8-0.5,2.7
		c0.6,0.9,1.8,1.1,2.7,0.5l17.9-11.9c2.8,2.3,5.5,4.4,8,6.1c-4.7,3.2-12.7,8.7-12.7,8.7c-0.5,0.4-0.8,1-0.8,1.6
		c0,0.4,0.1,0.8,0.3,1.1c0.6,0.9,1.8,1.1,2.7,0.5l12-8.2C665,725.7,587.1,761,500.5,761.7c-31,0.3-61.4-4.8-90.2-14.2
		c15.7-30.2,31.9-60.1,41.1-76c12-21,35.9-61,60.8-100.6l0.2,0c4.1-0.3,6.6,0,8.1,1.3C526,576.8,516.1,587.5,526.9,595.8"/>
</g>
</svg>
