<svg id="Layer_1" data-name="Layer 1" xmlns="http://www.w3.org/2000/svg" viewBox="0 0 280 300"><defs><style>.cls-1{fill:#fff;}.cls-2{fill:#00493b;}.cls-3{fill:#fcc158;}</style></defs><title>oakland athletics logo</title><path class="cls-1" d="M140,224.89A74.89,74.89,0,1,0,65.11,150,74.89,74.89,0,0,0,140,224.89"/><path class="cls-2" d="M140,80.14A69.86,69.86,0,1,0,209.86,150,69.95,69.95,0,0,0,140,80.14m0,112.63A42.77,42.77,0,1,1,182.77,150,42.81,42.81,0,0,1,140,192.77Z"/><path class="cls-3" d="M140,78a72,72,0,1,0,72,72,72.07,72.07,0,0,0-72-72m0,141.84A69.86,69.86,0,1,1,209.86,150,69.94,69.94,0,0,1,140,219.86Z"/><path class="cls-1" d="M140,109.23A40.78,40.78,0,1,0,180.77,150,40.82,40.82,0,0,0,140,109.23"/><path class="cls-3" d="M140,107.23A42.77,42.77,0,1,0,182.77,150,42.82,42.82,0,0,0,140,107.23m0,83.55A40.78,40.78,0,1,1,180.77,150,40.83,40.83,0,0,1,140,190.78Z"/><path class="cls-2" d="M162.79,166.22a5,5,0,0,1-3.69,1.13c-1-.18-2.36-.92-3.12-3.43,0,0-8.27-34.24-8.28-34.31a10.83,10.83,0,0,0-4.58-7.64,9.7,9.7,0,0,0-7.47-1.51c-3.82.89-5.23,2.87-5.76,4.42a4.43,4.43,0,0,1,4.35.25c.68.41,2.27,1.4,1.22,4.21L134,133.21l-.79-.23a6.17,6.17,0,0,0-2.74-.14,4.66,4.66,0,0,0-3.36,1.88,3.73,3.73,0,0,0-.54,1.85,3.48,3.48,0,0,1,3.67.09,2.47,2.47,0,0,1,1.3,2.26,5.21,5.21,0,0,1-.21,1.39l-8.78,29.39-.44.15c-4.49,1.5-5.69,4-6,5.57a16.38,16.38,0,0,1,6.66-2.1,13.5,13.5,0,0,1,4.32.65,14.94,14.94,0,0,0,3.37.6,3.46,3.46,0,0,0,2.59-1,3.27,3.27,0,0,0,.78-2.2c-.51-.28-1.42-.78-2.24-1.25a2.22,2.22,0,0,1-.73.7,3,3,0,0,1-2.62,0l-.76-.29,3.46-12.08h13.47l2.3,9c1.54,6.25,6.08,7.75,9.5,7.13,3.26-.59,5.6-3.75,6.58-8.34m-30.18-12.66,4.88-16.9,1-3.33,4.64,20.23Z"/><path class="cls-3" d="M137.49,136.66l-4.88,16.9h10.48l-4.64-20.23M135,151.76c.44-1.52,2.18-7.53,3.26-11.29.87,3.8,2.25,9.83,2.59,11.29Z"/><path class="cls-3" d="M163.1,163.51c-.9,1.16-2.49,2.29-3.68,2.07-.74-.13-1.32-.85-1.71-2.13l-8.25-34.19a12.71,12.71,0,0,0-5.33-8.76,11.45,11.45,0,0,0-8.89-1.78c-8.16,1.9-7.44,8.4-7.43,8.47l.29,2.23,1.32-1.82c1.36-1.86,3-1.5,3.71-1,.52.32.89.55.89,1.14a3,3,0,0,1-.23,1s-.61,1.61-.93,2.43a7.94,7.94,0,0,0-2.71-.07,6.34,6.34,0,0,0-4.58,2.71,6.46,6.46,0,0,0-.63,4.82l.48,1.65,1.08-1.33c1.18-1.45,2.23-1.09,2.76-.75s.66.43.34,1.65c0,0-7.5,25.11-8.52,28.52-6.14,2.26-6.86,6.41-6.86,8.13a5.17,5.17,0,0,0,0,.77l.29,1.48,1.17-1a14.48,14.48,0,0,1,7.21-2.66,12.86,12.86,0,0,1,3.71.6,15.24,15.24,0,0,0,3.86.66,4.89,4.89,0,0,0,5.12-5.55l0-.49-5.1-2.85-.22,1.24a.77.77,0,0,1-.31.56.73.73,0,0,1-.28.06c.41-1.44,2.3-8,2.6-9.07H143c.28,1.11,1.94,7.6,1.94,7.6,1.71,7,7,9.27,11.56,8.46,4.71-.84,8-5.69,8.54-12.64l.07-1h-1c-.47,0-.68.28-1.07.79m-16.39,3.91-2.29-9H131l-3.47,12.08.76.29a3,3,0,0,0,2.62,0,2.22,2.22,0,0,0,.73-.7l2.24,1.25a3.33,3.33,0,0,1-.77,2.2,3.5,3.5,0,0,1-2.6,1,15,15,0,0,1-3.37-.6,13.5,13.5,0,0,0-4.32-.65,16.38,16.38,0,0,0-6.66,2.1c.3-1.59,1.5-4.07,6-5.57l.44-.15,8.78-29.39a5.21,5.21,0,0,0,.21-1.39,2.47,2.47,0,0,0-1.3-2.26,3.48,3.48,0,0,0-3.67-.09,3.67,3.67,0,0,1,.54-1.85,4.66,4.66,0,0,1,3.36-1.88,6.17,6.17,0,0,1,2.74.14l.8.22,1.46-3.86c1-2.81-.54-3.8-1.22-4.21a4.41,4.41,0,0,0-4.34-.25c.52-1.55,1.93-3.53,5.75-4.42a9.7,9.7,0,0,1,7.47,1.51,10.83,10.83,0,0,1,4.58,7.64c0,.07,8.28,34.31,8.28,34.31.76,2.51,2.12,3.25,3.12,3.42a4.94,4.94,0,0,0,3.69-1.12c-1,4.59-3.32,7.75-6.58,8.34C152.79,175.18,148.25,173.68,146.71,167.42Z"/><path class="cls-2" d="M166.37,140.59l-1.07-.32c-.8-.26-2.3-.75-2.3-2.17a2.25,2.25,0,0,1,2.45-2,4.91,4.91,0,0,1,2.46.78c.31-.6.65-1.27,1-1.89a10,10,0,0,0-4-1,4.47,4.47,0,0,0-4.8,4.64c0,2.5,1.1,3.07,3.94,3.87,1,.28,2.87.81,2.87,2.43a2.41,2.41,0,0,1-2.69,2.29,5.93,5.93,0,0,1-3.41-1.35c-.35.65-.77,1.44-1.09,2.06a9,9,0,0,0,4.65,1.42A6.2,6.2,0,0,0,168.4,148a4.67,4.67,0,0,0,1.4-3.75c0-1.87-1-3-3.43-3.68"/><path class="cls-3" d="M166.76,139.28l-1-.32c-.49-.16-1.34-.43-1.34-.86s.63-.64,1.08-.64a3.62,3.62,0,0,1,2.3.89l.66.55,2.33-4.54-.57-.33a11.54,11.54,0,0,0-5.3-1.4,5.83,5.83,0,0,0-6.17,6c0,3.79,2.55,4.51,4.8,5.15.79.22,2,.57,2,1.15,0,.9-1.19.92-1.32.92a5,5,0,0,1-3.22-1.47l-.64-.57-2.46,4.62.49.35a10.51,10.51,0,0,0,6,1.93,7.61,7.61,0,0,0,4.95-1.65,6,6,0,0,0,1.88-4.8c0-3.31-2.51-4.44-4.41-5M168.4,148a6.2,6.2,0,0,1-4.06,1.34,9,9,0,0,1-4.65-1.42c.32-.62.74-1.41,1.09-2.06a5.93,5.93,0,0,0,3.41,1.35,2.41,2.41,0,0,0,2.69-2.29c0-1.62-1.87-2.15-2.87-2.43-2.84-.8-3.94-1.37-3.94-3.87a4.47,4.47,0,0,1,4.8-4.64,10,10,0,0,1,4,1c-.33.62-.67,1.29-1,1.89a4.91,4.91,0,0,0-2.46-.78,2.25,2.25,0,0,0-2.45,2c0,1.42,1.5,1.91,2.3,2.17l1.07.32c2.41.71,3.43,1.81,3.43,3.68A4.67,4.67,0,0,1,168.4,148Z"/><path class="cls-2" d="M154.6,134.73a1.47,1.47,0,0,1,1.39.44,1.06,1.06,0,0,1,.2.65,2.49,2.49,0,0,1-.22.93,4.32,4.32,0,0,1-.68,1.18,5.09,5.09,0,0,0,.69-.46,3.55,3.55,0,0,0,1-4.11,1.56,1.56,0,0,0-1.25-.9,1.8,1.8,0,0,0-1.54.42,1.4,1.4,0,0,0-.27,1.49.65.65,0,0,0,.72.36"/><path class="cls-3" d="M154.6,136.1h.15l-.05.13c-.38,1-.55,1-1,1.24l-.74.33.29.75.9,1.29.45-.1a7.5,7.5,0,0,0,2.26-1.23,5,5,0,0,0,1.32-5.68,2.88,2.88,0,0,0-2.3-1.72,3.09,3.09,0,0,0-2.79.88,2.79,2.79,0,0,0-.46,3,2,2,0,0,0,1.95,1.12m-.45-3.22a1.77,1.77,0,0,1,1.54-.42,1.55,1.55,0,0,1,1.25.9,3.5,3.5,0,0,1-1,4.11,4.52,4.52,0,0,1-.69.46,4.07,4.07,0,0,0,.68-1.18,2.54,2.54,0,0,0,.22-.93,1.06,1.06,0,0,0-.2-.65,1.47,1.47,0,0,0-1.39-.44.66.66,0,0,1-.72-.36A1.4,1.4,0,0,1,154.15,132.88Z"/><path class="cls-1" d="M102.07,179.61,92,191.86,89.91,189l1.73-2-2-2.74-2.46,1-1.93-2.69L100,176.76m-3.9,5.32,1.66-1.67,0,0-2.09,1.06-3.74,1.81,1.38,1.91Z"/><polyline class="cls-1" points="112.06 189.4 110.21 191.56 108.2 189.85 100.09 199.35 97.55 197.19 105.66 187.69 103.67 185.99 105.52 183.82"/><polyline class="cls-1" points="118.41 193.01 115.93 198.47 119 199.87 121.49 194.41 124.52 195.8 118.16 209.75 115.12 208.37 117.81 202.47 114.74 201.06 112.05 206.97 109.02 205.58 115.38 191.63"/><path class="cls-1" d="M133.55,213.16c0-.23.46-2.77.46-2.77h0c-.1,0-3.44-.57-3.44-.57s2-12.32,2-12.32h0l-3.3-.54h0l0,.11c-.19,1.13-2.45,15-2.45,15l6.75,1.11h0m.45-2.81v0Zm-3.43-.56h0Z"/><polyline class="cls-1" points="145.76 197.81 145.91 200.65 142.53 200.82 142.7 204.16 145.68 204 145.82 206.84 142.85 207 143.03 210.46 146.45 210.28 146.6 213.12 139.85 213.47 139.05 198.15"/><polyline class="cls-1" points="157.81 194.72 158.64 197.45 156.11 198.21 159.75 210.17 156.56 211.14 152.92 199.19 150.42 199.95 149.59 197.23"/><polyline class="cls-1" points="164.57 191.16 172.04 204.55 169.13 206.17 161.66 192.78"/><path class="cls-1" d="M164.57,191.15l-2.92,1.62s7.48,13.41,7.48,13.41l2.92-1.62s-7.47-13.41-7.47-13.41h0"/><path class="cls-1" d="M176.83,185.17a5.53,5.53,0,0,0-1.05.71c-2.19,1.94-1.55,4.6,0,6.37s4.32,3,6.5,1a4.5,4.5,0,0,0,.81-1l1.9,2.15a4.43,4.43,0,0,1-1,1.22c-3.61,3.19-8.21,2-10.88-1a7.47,7.47,0,0,1,.37-10.62,5.15,5.15,0,0,1,1.46-.92"/><path class="cls-1" d="M183.9,176.57a4,4,0,0,0-2.17,1.44,1.48,1.48,0,0,0,.3,2.24c2.08,1.42,5.06-2.69,8.49-.35a4.5,4.5,0,0,1,1.21,6.7,5.53,5.53,0,0,1-2.26,1.93l-2.38-1.63a4.57,4.57,0,0,0,2.1-1.63,1.74,1.74,0,0,0-.3-2.53c-1-.66-1.92-.07-2.95.37-2.06.92-3.67,1.26-5.52,0a4.25,4.25,0,0,1-1.24-6.19,6.11,6.11,0,0,1,2.28-2"/><path class="cls-1" d="M100.5,110.29c4.46,3.64,4.26,7.29,2.37,9.6s-5.42,3.22-9.88-.42-4.26-7.3-2.37-9.6,5.42-3.22,9.88.42m.2,7.82c1.4-1.71-1.51-4.29-2.45-5.07s-4-3.11-5.46-1.39,1.4,4.2,2.46,5.07S99.3,119.83,100.7,118.11Z"/><path class="cls-1" d="M105.78,96.7l11.94,10.46-3,2-2-1.79-2.8,1.88.94,2.48-2.74,1.86-5.33-14.92m5.19,4.06L106.45,101l0,0,1,2.12L109.1,107l2-1.31Z"/><polyline class="cls-1" points="120.3 89.88 122.3 96.44 122.34 96.42 123 89.06 126.25 88.07 125.33 95.75 131.1 102.63 127.74 103.65 122.53 97.07 122.49 97.08 124.76 104.56 121.57 105.53 117.11 90.85"/><polyline class="cls-1" points="138.52 86.81 138.85 99.3 142.34 99.2 142.41 102.05 135.59 102.23 135.19 86.89"/><path class="cls-1" d="M156.9,89.12l.19,15.86-3.45-.87,0-2.65-3.27-.83L149.17,103l-3.22-.81,7.55-13.92m.45,6.57.18-2.34h0l-.92,2.16-1.69,3.8,2.28.57Z"/><path class="cls-1" d="M171.74,95.37l-1.37,10.06h.06a8.64,8.64,0,0,1,1-2.11l3.65-5.85,2.83,1.77-8.13,13-2.68-1.67,1.41-10h-.06l-.68,1.4-.32.54-3.72,6-2.84-1.77,8.13-13"/><path class="cls-1" d="M173.61,115.66l11.75-9.85,1.63,1.93c.37.45,5.45,5.3-1.11,10.8-3.35,2.82-7,3.43-10.36-.59m8.23-2c1.5-1.26,3.43-3.76,1.67-5.87l-7.58,6.35C179.47,118.6,182.28,117.21,183.75,116Z"/><path class="cls-2" d="M197.22,209.36h-1.47v4h-1v-4h-1.47v-.86h3.93m6.63,4.85h-1v-3.86h0l-1.41,3.86h-1l-1.37-3.86h0v3.86h-1V208.5h1.72l1.13,3.17h0l1.17-3.17h1.71v4.85Z"/></svg>