<svg id="Layer_1" data-name="Layer 1" xmlns="http://www.w3.org/2000/svg" viewBox="0 0 280 300"><defs><style>.cls-1{fill:#fff;}.cls-2{fill:#cd1f43;}.cls-3{fill:#00539b;}</style></defs><title>philadelphia phillies logo</title><path class="cls-1" d="M140.05,78.49c-29.66.21-67.57,17.68-76.79,66.19l0,.09,76.81,76.75,76.71-76.67c-9.24-52.93-54.22-66.54-76.71-66.36"/><path class="cls-2" d="M140.08,82.17c21-.16,62.95,12.54,71.61,61.76,0,0-71.63,71.58-71.63,71.58s-71.38-71.36-71.62-71.59c8.61-45.25,44-61.55,71.64-61.75"/><path class="cls-1" d="M140.07,88.81c-36.29.33-60.14,27.91-64.16,53.7l-.07.42,64.24,64,63.92-64-.06-.42c-3.92-25.79-27.63-53.37-63.85-53.7h0"/><path class="cls-3" d="M140.08,90.47c35.12.33,58.14,26.9,62.14,51.89l-62.14,62.21c-1.15-1.15-61.83-61.58-62.45-62.21,4.09-25,27.26-51.56,62.45-51.89"/><path class="cls-1" d="M191.2,132.39h-1.35v3.68h-.91v-3.68h-1.35v-.8h3.61m6.13,4.48h-.91V132.5h0l-1.3,3.57h-.88L193,132.5h0v3.57H192v-4.48h1.58l1,2.92h0l1.08-2.92h1.58v4.48Z"/><path class="cls-1" d="M103.22,120.87l-.63,0v8.87l.81-.15c3-.58,4.71-2.53,4.44-5.11s-1.84-3.83-4.62-3.65"/><path class="cls-1" d="M170.87,137.55c0-.1,0-.19,0-.28s-.16-.43-.16-.45a1.78,1.78,0,0,0-1.3-.08,3.63,3.63,0,0,0-2.22,1.64l0,0a4.78,4.78,0,0,0-1.25,3.17.45.45,0,0,0,.22.35l.56.19a5.27,5.27,0,0,0,3.16-1.82,4.56,4.56,0,0,0,1-2.74"/><path class="cls-1" d="M182.84,133.78l-.62-.45-1.16-1.92-4.94,3.53.06.83c0,.27,0,.54,0,.8a8.47,8.47,0,0,1-1.38,4.88,7.4,7.4,0,0,0,1-3.55,5.94,5.94,0,0,0-.34-2,6.61,6.61,0,0,0-7.2-4,8.12,8.12,0,0,0-5.73,4.25l-1.26-5.22,2.71-2.73,7,0v-10h-2.33V102.79c0-.11-2.32-3.81-2.32-3.81l-.06-.1-7.08,0-5.47,2.05H126.62s-5.33-2-5.33-2-7,0-7,0h-.11l-2.35,3.8s0,15.13,0,15.53h-.29a10.67,10.67,0,0,0-3.29-2.31c-5.8-2.66-14-1.45-18.25,2.71-2.76,2.7-4.11,6-3.6,8.82a5.11,5.11,0,0,0,7.2,3.81A5.07,5.07,0,0,0,95.1,130v11.92a8.64,8.64,0,0,0-2.43,5.26,4.61,4.61,0,0,0,.22,1.44,4.06,4.06,0,0,0,3.28,2.71,6.6,6.6,0,0,0,5.27-1.51,6.26,6.26,0,0,0,2.28-4.79v-9.3c3-1.16,6-2.56,7.88-4.88v16.6a2.19,2.19,0,0,0,0,.36,3.33,3.33,0,0,0,1.46,2.81,4.29,4.29,0,0,0,4.38.14,3.47,3.47,0,0,0,1.83-3.11c0-.07,0-.15,0-.21v-7.82l.09,0s0,0,0,.06v7.34a4.22,4.22,0,0,0,3,4.08c0,.15-.06.31-.1.46H97.81a3.26,3.26,0,0,0-3,3.26,1.09,1.09,0,0,0,0,.18A3.25,3.25,0,0,0,98,158.08h21.93a29.54,29.54,0,0,1-5.77,7.59c-1.89,1.87-3.2,3.16-3.2,6.35,0,.27,0,.55,0,.85v.19h25.44a11,11,0,0,0-.24-2.63l-.18-1.88a2.14,2.14,0,0,0-.61-1.57,4.12,4.12,0,0,1-.82-1.72l-.38-.55s-.54-1-.54-1.06c0-.36-.12-.6-.41-1,0,0-.62-1.21-.62-1.23a3.39,3.39,0,0,1,.23-1.9,2.45,2.45,0,0,0,.18-1.39v0h.9a3.91,3.91,0,0,1,0,.46,3.62,3.62,0,0,1-.28,1.29,2.77,2.77,0,0,0-.23,1,2.85,2.85,0,0,0,0,.4l.47.88a2.38,2.38,0,0,1,.58,1.42,1.09,1.09,0,0,1,0,.18l.29.37s.62,1,.62,1a3.22,3.22,0,0,0,.67,1.33,3.05,3.05,0,0,1,.78,2.17l.17,1.65a12.14,12.14,0,0,1,.25,2.79h.07v1.21a4.68,4.68,0,0,0-1.79,3.18,2.35,2.35,0,0,0,0,.26,5.19,5.19,0,0,0,1.86,3.67l-.06,2.77v.21h5.67v-3.13a4.77,4.77,0,0,0,1.8-3.52v-.26a4.66,4.66,0,0,0-1.8-3.18v-1.21h26.41v-.19c0-.3,0-.58,0-.86,0-3.18-1.3-4.47-3.2-6.35a29.28,29.28,0,0,1-5.76-7.58h14.66a5.61,5.61,0,0,0,4.78,2.44,4.91,4.91,0,0,0,4.14-2.91l.05-.12,0-.13a4.6,4.6,0,0,0-.67-4.18,5.44,5.44,0,0,0-4.32-1.7H172a9.12,9.12,0,0,0,2-.55,10.84,10.84,0,0,0,3.18-2.14c3.5,3.06,6.28,3,8,2.31a7.78,7.78,0,0,0,4.57-5.91,10.68,10.68,0,0,0,.11-1.45c0-4.85-3.72-7.55-7-10m-20.79,3.41A15,15,0,0,0,161,140.9V138a5.67,5.67,0,0,0-.52-2Zm.2-8.74s-2.54,2.23-2.58,2.18l1.13,3.68a0,0,0,0,1,0,0,.11.11,0,0,1-.06.1.12.12,0,0,1-.14,0s-2.73-2.12-2.73-2.22-2.88,2.22-2.88,2.22a.12.12,0,0,1-.14,0,.12.12,0,0,1-.05-.1v0s1.09-3.55,1.16-3.55l-2.61-2.31a.1.1,0,0,1,0-.09.06.06,0,0,1,0,0,.12.12,0,0,1,.11-.08l2.91.08,1.33-3.81a.13.13,0,0,1,.12-.08.11.11,0,0,1,.11.08s1.23,3.5,1.23,3.72h3a.12.12,0,0,1,.11.08A.12.12,0,0,1,162.25,128.45Zm-13.87-10.52h8.44c0,.12.35,1.71.74,3.6l-2,4.91c-1.21-3.76-4-6.43-7.21-6.55Zm-13.55,10.31h.45a.12.12,0,0,1,.11.08.12.12,0,0,1,0,.13l-.54.47c-.75.65-2,1.75-2,1.71l1.13,3.68a0,0,0,0,1,0,0,.11.11,0,0,1-.06.1.12.12,0,0,1-.14,0s-2.73-2.12-2.73-2.22l-2.87,2.22a.14.14,0,0,1-.15,0,.12.12,0,0,1,0-.1,0,0,0,0,1,0,0s1.09-3.55,1.16-3.55l-2.61-2.31a.1.1,0,0,1,0-.09.06.06,0,0,1,0,0,.11.11,0,0,1,.11-.08l2.91.08,1.33-3.81a.13.13,0,0,1,.12-.08.11.11,0,0,1,.11.08s1.23,3.5,1.23,3.72h2.57Zm-13.28,0s2-10,2.1-10.29h8.44v2c-4,.15-7.38,4.22-7.81,9.46l-.09,3.06a5,5,0,0,0-.85-.53,5.68,5.68,0,0,0-4-.16v-3.5Zm-10,.14c-1.64,3.37-5.26,5-9.14,6.31V145a4.8,4.8,0,0,1-1.8,3.72A5.37,5.37,0,0,1,96.41,150a2.52,2.52,0,0,1-2.09-1.66,3,3,0,0,1-.15-1,7.87,7.87,0,0,1,2.6-5V121.94c-1.59.75-2.76,2.24-2.76,3.18a1.11,1.11,0,0,0,0,.19c.11.54.7.64,1.18.62h.16l0,.16c0,.12-.49,2.95-2.38,4a3.63,3.63,0,0,1-3.3-.09,3.59,3.59,0,0,1-2-2.76c-.42-2.39.79-5.24,3.23-7.63,3.83-3.73,11.49-4.86,16.74-2.45a9.89,9.89,0,0,1,1.82,1.1,7.29,7.29,0,0,1,2.81,4,8,8,0,0,1,.26,2.62A9.35,9.35,0,0,1,111.6,128.36Zm46.59,23a7.92,7.92,0,0,0,1.05.13h-1A.31.31,0,0,0,158.19,151.35ZM179.27,153c1.35,0,4.39.44,3.51,4-1,2.35-4.61,3.2-6.84-.41H98A1.82,1.82,0,0,1,98,153ZM160,151.48a8,8,0,0,0,3.51-1,5.42,5.42,0,0,0,.8-.62,15.13,15.13,0,0,0,4.79,1.61ZM188.41,145a6.44,6.44,0,0,1-3.7,4.81c-1.39.52-3.69.57-6.75-2.29.06-.11,1.48-2.56,2.54-2.85,1.11,1.12,2.1,1.56,2.8,1.22a2.07,2.07,0,0,0,.9-2c0-.15,0-.31,0-.47a4.47,4.47,0,0,0-3.22-3.9c-.22.81-2.27,8-7.48,10.11-2.78,1.14-6,.63-9.49-1.43a2.68,2.68,0,0,1-1.17,1.06,6,6,0,0,1-7.52-1.07c-.39.3-5.65,4.17-10.05-.3a8.28,8.28,0,0,1-5.32,2.15,5.19,5.19,0,0,1-3.57-1.74,6,6,0,0,1-4,1.79,5.32,5.32,0,0,1-3.82-1.76c-.87,1.25-3.5,2-5.48,1.46a2.89,2.89,0,0,1-2.36-2.89v-7.53c-.3-1.39-1.34-1.29-1.65-1.22-.7.15-1.28.71-1.18,1.19v8.09a2.17,2.17,0,0,1-1.13,2.07,3,3,0,0,1-3-.08,2,2,0,0,1-.84-2.05V124.74a2.49,2.49,0,0,1,1.12-2.49,2.67,2.67,0,0,1,2.8-.09,2.43,2.43,0,0,1,1.08,2.18,2.88,2.88,0,0,1,0,.41v9c.61-.35,2.89-1.54,4.82-.63,1.34.63,2.17,2.15,2.46,4.54v6.49a1.62,1.62,0,0,0,1.8,1.36,1.44,1.44,0,0,0,1.56-1.36v-6a2.64,2.64,0,0,1,1.1-2.57,2,2,0,0,1,2.12-.05,2.73,2.73,0,0,1,1.19,2.58v5.6a1.56,1.56,0,0,0,.68,1.5,1.66,1.66,0,0,0,1.67.06,1.77,1.77,0,0,0,.83-1.67v-15c-.08-1.89.27-3.21,1-4a3.49,3.49,0,0,1,2.61-1,3.37,3.37,0,0,1,3.06,1.52,7,7,0,0,1,1,3.91c0,3-1,6.89-3,11.3a12.58,12.58,0,0,0-.25,2.16,3.6,3.6,0,0,0,.48,1.92l.11.22a2.4,2.4,0,0,0,2.3.63c.61-.22,1.41-.88,1.76-2.79V128.25a4.76,4.76,0,0,1,.88-3.74,4.08,4.08,0,0,1,3.18-1,3.19,3.19,0,0,1,2.6,1.78,7.06,7.06,0,0,1,.62,1.54,10.68,10.68,0,0,1,.37,3.06A23.21,23.21,0,0,1,150,140.19c-.8,3,.07,4.34.66,4.89a2.58,2.58,0,0,0,2.65.48,2.88,2.88,0,0,0,1.88-2.39V138a2.42,2.42,0,0,1,2.15-2.58c1-.08,2.11.54,2.3,2.57v6.51a1.28,1.28,0,0,0,1.43.9c.55-.14,1.14-.82,1-2.33.58-8.29,5.09-9.58,6.46-9.78a5.25,5.25,0,0,1,5.73,3.12c1,2.81-.89,6.12-5.12,8.8a.17.17,0,0,0,.08.2c.43.35,2.12.29,3.87-.62s4.83-3.38,4.53-9.2l3.07-2.19.08.13s.44.73.44.75l.87.63c3.31,2.41,6.45,4.7,6.45,8.85A9.51,9.51,0,0,1,188.41,145Z"/><path class="cls-1" d="M140,126.92a.58.58,0,0,0-.53,0l-.08.05v8.93l.16,0c.73-.11,1.19-1.91,1.42-5.66,0-1-.3-2.85-1-3.26"/><path class="cls-1" d="M149,126.92a.58.58,0,0,0-.53,0l-.09.05v8.93l.16,0c.74-.11,1.2-2,1.43-5.67,0-1-.31-2.84-1-3.25"/><path class="cls-2" d="M98,156.6h77.91c2.23,3.61,5.81,2.76,6.84.41.88-3.61-2.16-4.08-3.51-4H98a1.82,1.82,0,0,0,0,3.64"/><path class="cls-2" d="M109.44,118.22a9.65,9.65,0,0,0-1.83-1.1c-5.24-2.41-12.9-1.28-16.73,2.45-2.44,2.39-3.65,5.24-3.23,7.63a3.59,3.59,0,0,0,2,2.76,3.63,3.63,0,0,0,3.3.09c1.89-1,2.36-3.84,2.38-4l0-.16h-.16c-.48,0-1.07-.08-1.18-.62a1.11,1.11,0,0,1,0-.19c0-.94,1.17-2.43,2.76-3.18v20.39a7.87,7.87,0,0,0-2.6,5,3,3,0,0,0,.15,1A2.52,2.52,0,0,0,96.41,150a5.37,5.37,0,0,0,4.25-1.25,4.8,4.8,0,0,0,1.8-3.72V134.67c3.88-1.33,7.5-2.94,9.14-6.31a9.35,9.35,0,0,0,.91-3.53,8,8,0,0,0-.26-2.62,7.29,7.29,0,0,0-2.81-4m-6,11.41-.81.15v-8.87l.63,0c2.78-.18,4.33,1,4.62,3.65S106.42,129.05,103.4,129.63Z"/><path class="cls-2" d="M182,134.88l-.86-.63s-.44-.75-.44-.75l-.08-.13-3.07,2.19c.3,5.82-2.71,8.26-4.53,9.2s-3.44,1-3.88.62a.18.18,0,0,1-.07-.2c4.23-2.67,6.16-6,5.12-8.8a5.25,5.25,0,0,0-5.74-3.12c-1.36.2-5.87,1.49-6.45,9.78.12,1.51-.47,2.2-1,2.33a1.27,1.27,0,0,1-1.42-.9V138c-.19-2-1.31-2.65-2.3-2.57a2.43,2.43,0,0,0-2.15,2.59v5.19a2.88,2.88,0,0,1-1.88,2.39,2.61,2.61,0,0,1-2.66-.48c-.58-.55-1.46-1.9-.65-4.88a23.28,23.28,0,0,0,2.93-10.27,11.44,11.44,0,0,0-.37-3.06,7.06,7.06,0,0,0-.62-1.54,3.19,3.19,0,0,0-2.6-1.78,4.08,4.08,0,0,0-3.18,1,4.78,4.78,0,0,0-.88,3.74v14.17c-.35,1.91-1.15,2.58-1.76,2.79a2.38,2.38,0,0,1-2.31-.63,2.35,2.35,0,0,0-.1-.22,3.6,3.6,0,0,1-.48-1.92,11.65,11.65,0,0,1,.25-2.16c2-4.41,3-8.34,3-11.3a7,7,0,0,0-.94-3.91,3.4,3.4,0,0,0-3.07-1.52,3.48,3.48,0,0,0-2.6,1c-.78.82-1.12,2.14-1,4v15a1.79,1.79,0,0,1-.83,1.67,1.66,1.66,0,0,1-1.67-.06,1.56,1.56,0,0,1-.68-1.5v-5.6a2.75,2.75,0,0,0-1.19-2.58,2.06,2.06,0,0,0-2.13.05,2.66,2.66,0,0,0-1.1,2.57v6A1.44,1.44,0,0,1,127,145.5a1.64,1.64,0,0,1-1.81-1.36v-6.49c-.28-2.39-1.11-3.91-2.45-4.54-1.93-.91-4.21.28-4.82.63v-9c0-.14,0-.28,0-.42a2.42,2.42,0,0,0-1.08-2.17,2.67,2.67,0,0,0-2.8.09,2.47,2.47,0,0,0-1.12,2.49v22.67a2,2,0,0,0,.83,2,3,3,0,0,0,3,.08,2.13,2.13,0,0,0,1.12-2.07v-8.08c-.09-.48.49-1,1.19-1.19a1.32,1.32,0,0,1,1.65,1.21v7.53a2.9,2.9,0,0,0,2.36,2.9c2,.52,4.61-.21,5.48-1.46a5.3,5.3,0,0,0,3.81,1.76,6.09,6.09,0,0,0,4-1.79,5.19,5.19,0,0,0,3.57,1.74,8.36,8.36,0,0,0,5.32-2.15c4.4,4.47,9.66.59,10.05.3a6,6,0,0,0,7.52,1.07,2.68,2.68,0,0,0,1.17-1.06c3.52,2.06,6.71,2.57,9.48,1.43,5.22-2.15,7.27-9.3,7.49-10.11a4.47,4.47,0,0,1,3.22,3.9c0,.16,0,.32,0,.47a2.08,2.08,0,0,1-.9,2c-.7.33-1.69-.1-2.81-1.22-1.05.29-2.47,2.74-2.53,2.84,3.06,2.87,5.36,2.82,6.75,2.3a6.46,6.46,0,0,0,3.7-4.81,9.63,9.63,0,0,0,.09-1.28c0-4.15-3.14-6.44-6.46-8.85m-42.53,1-.16,0v-8.93l.08-.05a.55.55,0,0,1,.53,0c.67.41.93,2.25,1,3.26C140.7,133.93,140.24,135.73,139.51,135.84Zm9.06,0-.16,0v-8.93l.09-.05a.56.56,0,0,1,.53,0c.66.41.93,2.25,1,3.25C149.77,133.87,149.31,135.73,148.57,135.84Zm17.56,6.08a.47.47,0,0,1-.22-.35,4.78,4.78,0,0,1,1.25-3.17l0,0a3.63,3.63,0,0,1,2.22-1.64,1.73,1.73,0,0,1,1.3.08s.16.45.16.45,0,.18,0,.28a4.56,4.56,0,0,1-1,2.74,5.27,5.27,0,0,1-3.16,1.82Z"/><path class="cls-3" d="M131,124.51a.12.12,0,0,0-.11-.08.12.12,0,0,0-.12.08l-1.33,3.81-2.91-.08a.11.11,0,0,0-.11.08s0,0,0,0a.11.11,0,0,0,0,.09l2.61,2.3c-.07,0-1.17,3.56-1.17,3.56v0a.12.12,0,0,0,0,.1.14.14,0,0,0,.15,0l2.86-2.23c0,.11,2.74,2.23,2.74,2.23a.12.12,0,0,0,.14,0,.11.11,0,0,0,.06-.1,0,0,0,0,0,0,0l-1.13-3.68s1.29-1.06,2-1.71l.54-.47a.13.13,0,0,0,0-.13.13.13,0,0,0-.11-.08h-3c0-.22-1.23-3.72-1.23-3.72"/><path class="cls-3" d="M159.15,128.24h0c0-.22-1.23-3.72-1.23-3.72a.11.11,0,0,0-.12-.08.13.13,0,0,0-.11.08l-1.33,3.81-2.91-.08a.11.11,0,0,0-.11.08s0,0,0,0a.12.12,0,0,0,.05.09l2.61,2.3c-.07,0-1.17,3.56-1.17,3.56v0a.12.12,0,0,0,.05.1.12.12,0,0,0,.14,0l2.87-2.23c0,.11,2.74,2.23,2.74,2.23a.12.12,0,0,0,.14,0,.11.11,0,0,0,.06-.1,0,0,0,0,0,0,0l-1.13-3.68c0,.05,2.58-2.18,2.58-2.18a.15.15,0,0,0,0-.13.12.12,0,0,0-.12-.08h-3"/></svg>