<?xml version="1.0" encoding="utf-8"?>
<!-- Generator: Adobe Illustrator 23.0.1, SVG Export Plug-In . SVG Version: 6.00 Build 0)  -->
<svg version="1.1" id="Layer_1" xmlns="http://www.w3.org/2000/svg" xmlns:xlink="http://www.w3.org/1999/xlink" x="0px" y="0px"
	 viewBox="0 0 1000 1000" style="enable-background:new 0 0 1000 1000;" xml:space="preserve">
<style type="text/css">
	.st0{fill:#FDB827;}
</style>
<g transform="matrix(1.25 0 0 -1.25 -157.25 455.85)">
	<path class="st0" d="M667.1,357.6c-27.5-26.9-54.4-33.1-97.1-33.1l-284.9,0.4l-38.8-97c23.4-10.1,38.8-32.3,38.8-59v-444.3
		c0-26.7-15.3-48.9-38.8-59l38.8-94h108.8l38.8,94c-23.4,9.7-38.8,32.7-38.8,59v175.1l176.1-0.1c42.7,0,69.6-10.5,97.1-37.4
		c18,55.2,71.9,96.4,138.2,112.9c-25.1,43.2-35,81.5-35,121.6c0,40,5.6,83.5,30.7,126.7C734.8,239.9,683.7,302.4,667.1,357.6
		L667.1,357.6z M394.4,231.3h225.5c35.7,0,58.1-22.5,58.1-52.3V44.7c0-31.3-17.7-48.4-58.1-48.4H394.4V231.3z"/>
</g>
</svg>
