<svg id="Layer_1" data-name="Layer 1" xmlns="http://www.w3.org/2000/svg" viewBox="0 0 280 300"><defs><style>.cls-1,.cls-3{fill:#f58220;}.cls-1,.cls-2{fill-rule:evenodd;}.cls-2{fill:#210000;}</style></defs><title>san francisco giants logo</title><path class="cls-1" d="M156.41,242.2a5.39,5.39,0,0,1-5.35-5.4h-1.48a6.83,6.83,0,1,0,6.83-6.83,6.87,6.87,0,0,0-6.83,6.83h1.48a5.35,5.35,0,1,1,5.35,5.4ZM155,240.32h-1.48v-7.09H157c1.63,0,2.81.25,2.81,2.14a2,2,0,0,1-2,2.14l1.73,2.81h-1.63l-1.63-2.81H155v-1.28h2c.77,0,1.28-.2,1.28-1s-1-.77-1.64-.77H155v5.82Z"/><path class="cls-2" d="M103.76,241.58l0-1.85c-.07-4.19-3.74-11.9-5.15-14.51l-1.42-2.63,3-.15c5-.24,8.89-3.15,9.65-7.25v-8h-1.27a82.31,82.31,0,0,0-15.06,1.23l-1.48.3-.62-1.38C89,202.09,80.52,193.08,74.72,190.7l-1.93-.78,1-1.84c1.81-3.43.74-26.57-1.47-31.74l-1.12-2.63H95v25.95l6.4,7.41h8.42V139.79c-1.44,0-3.66-.1-6.22-.1-3.84,0-7.31.12-10.34.36l-1.25.1L91.41,139c-2.44-4.81-9.78-12.28-16.81-15.75l-1.38-.68.39-1.49c2.17-8.35,2.56-40.3,0-48.64l-.47-1.55,1.46-.7c6.8-3.24,14.9-9.57,16.7-14.54L92,53.81l1.82.77c3,1.25,17.85,2.09,37,2.09,19.68,0,36.93-.91,40.12-2.11l1.38-.53.84,1.22c4.24,6.14,8.61,9.52,15.07,11.66l1.42.47-.14,1.5c-.59,6.13-.37,8,1.51,12.61l1.05,2.6h-21.3l-7.43-8.27H102L95,82v31.61l7.13,6.89,7.69.31c0-10.42-.31-11.38-7.57-13.31l-2.23-.6,1.7-3.39c2.44-4.86,2.88-5.74,3.58-12.37l.25-2.34,2.22.75c2.49.83,14.78,1.33,32.88,1.33,27.89,0,54.82-1.11,57.56-2l3-1.72-.25,3.53c-.51,7.25,3.74,22,6.69,27.37l1.52,2.79H186.63l-.23-1.61c-.8-5.51-4.25-9.38-9.25-10.4H131.28V121c3.93.19,13.68.62,22.66.62,12.08,0,15.83-.78,17-1.24l1.78-.7.68,1.78c2.31,6,10.85,14.88,16.6,17.19l1.41.57-.25,1.49c-2.15,12.91-1.66,35,0,48l.17,1.34-1.21.59a40.44,40.44,0,0,0-16.81,16.77l-.69,1.37-1.49-.4c-2.41-.65-8.57-1.44-24.2-1.44-6.63,0-12.72.15-15.65.23v7.93c1.5,5.65,4.34,6.84,10.05,7.34l2.84.25-1.34,2.51c-.05.09-4.93,9.35-5.1,14.55l-.06,1.82Zm59.58-54.51,6.4-7.41V149.25l-7.64-8.85c-5.87-.49-22.92-.53-30.82-.53V154.6c1.6.07,4.16.16,7.11.16,10.32,0,17.69-1,20.73-2.83l4.28-2.57-1.52,4.75c-1.22,3.85-.73,16.63,0,18.35l1.85,4.64-4.45-2.25c-3.81-1.93-10.79-3-20.19-3-3.25,0-6.07.13-7.77.23v14.95Z"/><path class="cls-3" d="M171.63,56.32c4.48,6.49,9.25,10.14,16,12.38-.6,6.26-.41,8.46,1.64,13.5H171.63l-7.43-8.27H101.32l-8.23,7.2v33.26l8.23,8,10.37.42c0-12.34.14-14.67-9-17.1,3-6.08,3.64-6.78,4.44-14.35,3,1,17.17,1.43,33.47,1.43,25.49,0,56.29-1,58.42-2.22-.55,7.85,3.88,22.84,6.92,28.41H188.26c-.89-6.13-4.76-10.84-10.93-12H129.4V156.4s3.89.24,9,.24c7.42,0,17.41-.52,21.7-3.1-1.31,4.12-.89,17.43,0,19.63-5.1-2.59-14.1-3.16-21-3.16-5.46,0-9.65.35-9.65.35V189h34.8l7.43-8.6V148.55l-8.6-10c-5.13-.56-23.36-.61-33.63-.61V122.76s12.84.71,24.53.71c7.78,0,15-.31,17.7-1.37,2.43,6.36,11.26,15.7,17.66,18.27-2.15,12.94-1.73,35.13,0,48.59a42.52,42.52,0,0,0-17.66,17.61c-4.44-1.2-15.17-1.5-24.7-1.5-9.34,0-17.53.29-17.53.29v10c1.72,6.77,5.37,8.4,11.77,9,0,0-5.14,9.68-5.33,15.38H105.62c-.1-5.56-5.38-15.38-5.38-15.38,5.79-.28,10.56-3.68,11.45-9v-10s-1.23-.05-3.16-.05a83.7,83.7,0,0,0-15.44,1.26C90.66,201.15,82,191.63,75.43,189c2.25-4.25.8-28.22-1.4-33.36H93.09v24.76l7.43,8.6h11.17V138s-3.46-.18-8.11-.18c-3.18,0-6.92.09-10.49.37-2.52-4.95-10.09-12.85-17.66-16.58,2.34-9,2.57-41.21,0-49.67,7.24-3.45,15.65-10.05,17.66-15.6,3.65,1.53,20.51,2.23,37.75,2.23,18.27,0,37-.79,40.79-2.23m-80.73-5L89.55,55c-1.44,4-8.5,10-15.74,13.48l-2.93,1.4,1,3.1c2.24,7.37,2.21,39,0,47.62l-.77,3L73.76,125c6.6,3.25,13.71,10.47,16,14.91l1.14,2.25,2.51-.2c3-.24,6.4-.36,10.19-.36,1.63,0,3.11,0,4.34.06v43.56h-5.67L96.86,179V151.83H68.32l2.25,5.25c1.91,4.47,3,26.73,1.51,30.15l-1.94,3.67L74,192.45c5.35,2.18,13.48,10.82,15.65,15.66l1.24,2.76,3-.61a79.1,79.1,0,0,1,14.07-1.18V215c-.68,3.18-3.73,5.35-7.86,5.55l-6,.29,2.83,5.26c1.87,3.49,4.87,10.28,4.93,13.65l.06,3.71h37.58l.12-3.65c.12-3.52,3.06-10.29,4.89-13.73l2.67-5-5.67-.5c-5.53-.49-7.19-1.57-8.33-5.7V209c3.25-.08,8.32-.18,13.76-.18,16.24,0,21.83.86,23.71,1.37l3,.8,1.39-2.73a39,39,0,0,1,16-15.94l2.42-1.18-.34-2.68c-1.66-12.92-2.14-34.75,0-47.49l.5-3-2.82-1.13c-5.28-2.12-13.41-10.55-15.54-16.12l-1.37-3.56-3.55,1.41c-.65.26-3.74,1.1-16.3,1.1-7.78,0-16.15-.32-20.76-.53v-8.48H177c4.15.91,6.9,4.09,7.58,8.78l.47,3.22h27.32l-3-5.57c-2.85-5.21-7-19.38-6.47-26.33l.51-7.06-5.84,3.35c-3.83.86-30.28,1.89-56.85,1.89-27.79,0-31.9-1.1-32.28-1.23l-4.45-1.5-.49,4.68c-.66,6.29-1,7-3.4,11.72L99.35,104l-2.07,4.14,4.47,1.19c4.36,1.16,5.07,2,5.41,2.7.58,1.2.71,3.57.75,6.83l-5-.2-6-5.84V82.84l5.87-5.14h59.79l6.3,7L170,86h25l-2.12-5.19c-1.76-4.33-1.94-5.86-1.37-11.72l.29-3-2.86-.95c-6-2-10.12-5.17-14.11-10.94l-1.68-2.43-2.75,1c-2.6,1-18.06,2-39.46,2-23.23,0-34.43-1.16-36.29-1.94L90.9,51.31Zm42.27,101.48v-11c14.33,0,23.73.18,28,.46l3.57,4.13-6.6,4c-1.28.77-5.78,2.56-19.76,2.56-2,0-3.78,0-5.22-.08Zm30.44,19c-.61-2.12-1-13.83.07-17.14l2.22-7,2,2.26v29l-.93,1.08-3.32-8.22Zm-30.44,2.09c1.59-.07,3.63-.13,5.88-.13,9,0,15.84,1,19.33,2.75l8.05,4.08-4,4.58H133.17V173.91Z"/></svg>