<svg id="Layer_1" data-name="Layer 1" xmlns="http://www.w3.org/2000/svg" viewBox="0 0 280 300"><defs><style>.cls-1{fill:#1d3665;}.cls-2,.cls-3{fill:#fff;}.cls-3{stroke:#fff;stroke-width:0.16px;}</style></defs><title>san diego padres logo</title><g id="g5061"><g id="g5063"><path id="path5065" class="cls-1" d="M216.76,150a76.79,76.79,0,1,1-5.85-29.37A76.88,76.88,0,0,1,216.76,150Z"/><path id="path5067" class="cls-1" d="M192.46,216.1v-3h-1.07v-.61h2.86v.61h-1.06v3Z"/><path id="path5069" class="cls-1" d="M195,216.1v-3.6h1.09l.65,2.45.65-2.45h1.08v3.6h-.67v-2.84l-.71,2.84h-.7l-.71-2.84v2.84Z"/><path id="path5071" class="cls-2" d="M139.89,95.66A53.89,53.89,0,0,0,86,149.55h0a53.88,53.88,0,0,0,74.5,49.78l0,0a53.85,53.85,0,0,0,33.21-49.77h0a53.89,53.89,0,0,0-33.25-49.78l-.07,0a53.88,53.88,0,0,0-20.55-4.08Zm0,2.37a51.43,51.43,0,0,1,36.41,15.09h0a51.53,51.53,0,0,1,15.08,36.42h0A51.49,51.49,0,0,1,103.47,186l0-.05a51.76,51.76,0,0,1-11.07-16.56l0-.1a51.87,51.87,0,0,1-3.91-19.72h0A51.5,51.5,0,0,1,139.89,98Z"/><path id="path5073" class="cls-2" d="M139.94,76.78A72.73,72.73,0,1,0,191.29,201l.06-.06A72.72,72.72,0,0,0,139.94,76.78Zm0,2.38a70.34,70.34,0,0,1,65,97.25l0,.06a70.35,70.35,0,0,1-130-53.84l0,0a70.37,70.37,0,0,1,65-43.43Z"/><g id="g5075"><path id="path5077" class="cls-3" d="M124.62,110a14.06,14.06,0,0,0-10.3,4.53,14.52,14.52,0,0,0-3.66,9.58V138a9.53,9.53,0,0,0,9.73,9.38H143.7a1.63,1.63,0,0,1,1.19.55,1.62,1.62,0,0,1,.42,1v12.95a5.71,5.71,0,0,1-5.76,5.66H136V150.35h-7.94v17.22h-7.87a1.57,1.57,0,0,1-1.17-.5,1.64,1.64,0,0,1-.46-1.14c0-.52,0-7.55,0-7.55a3.6,3.6,0,0,1,.22-1.26,3.89,3.89,0,0,1,.64-1.05,3.39,3.39,0,0,1,1.22-.86,7.32,7.32,0,0,1,1.75-.27v-.53H110.66v11.52a9.6,9.6,0,0,0,2.74,6.74,9.29,9.29,0,0,0,6.81,2.84h7.87V186a3.2,3.2,0,0,1-1,2.28,4.41,4.41,0,0,1-2,1,8.67,8.67,0,0,1-1.17.2v.45h28.29a17.72,17.72,0,0,0,12.61-5.34,16.91,16.91,0,0,0,4.87-12.08c0-3.08-.13-23.59,0-29.92.11-5.77-3.4-10.51-5.63-12.5a17.34,17.34,0,0,0-11.72-4.58l-28.1,0v.5l.87,0a2.69,2.69,0,0,1,2.11,1,2.44,2.44,0,0,1,.86,2.28v10.17h-7.87a1.59,1.59,0,0,1-1.24-.57,1.55,1.55,0,0,1-.39-1.13V123.51a5.55,5.55,0,0,1,5.51-5.61H143a1.65,1.65,0,0,1,1.26.49,1.48,1.48,0,0,1,.51,1.1,1.6,1.6,0,0,1-.73,1.38,3,3,0,0,1-1.59.47v.54h10.81V118a7.32,7.32,0,0,0-2.42-5.67c-1.72-1.56-3.43-2.32-7.56-2.32H124.62ZM136,133.48h17.22a8,8,0,0,1,6.13,2.53,8.5,8.5,0,0,1,2.38,5.54v32.12a8.37,8.37,0,0,1-2.43,5.88A8.79,8.79,0,0,1,153.4,182H136v-6.47h4.59a12.54,12.54,0,0,0,8.88-3.56,12.69,12.69,0,0,0,3.75-9v-13.7a9.53,9.53,0,0,0-2.77-7,9.63,9.63,0,0,0-6.82-2.79H136v-6Z"/></g><path id="path5079" class="cls-2" d="M77.94,134.81a2.23,2.23,0,0,1-.39.82c-.16.17-.44.21-.85.1a.74.74,0,0,1-.61-.43,2.77,2.77,0,0,1,.13-1.46,3,3,0,0,1,.45-1.19q.27-.33,1-.12l.7-2.72-.44-.12a3.21,3.21,0,0,0-2.23.07,2.61,2.61,0,0,0-1.18,1.36,12.89,12.89,0,0,0-.68,2.12,13.13,13.13,0,0,0-.45,2.45,2.56,2.56,0,0,0,.49,1.77,4.9,4.9,0,0,0,4.34,1.17,2.25,2.25,0,0,0,1.19-1.2,16.85,16.85,0,0,0,.82-2.19l.2-.61a3.81,3.81,0,0,1,.5-1.2c.15-.16.44-.17.88,0s.67.3.72.59a3.76,3.76,0,0,1-.2,1.43,3.09,3.09,0,0,1-.56,1.37c-.21.22-.59.25-1.12.1l-.7,2.73a4.43,4.43,0,0,0,2.62.07A2.46,2.46,0,0,0,84,138.35a12.5,12.5,0,0,0,.76-2.33,8.3,8.3,0,0,0,.33-3.41,2.13,2.13,0,0,0-1-1.51,5.77,5.77,0,0,0-1.65-.59,2.7,2.7,0,0,0-2.56.18,6.62,6.62,0,0,0-1.52,3l-.38,1.16Z"/><path id="path5081" class="cls-2" d="M87.5,123.07l2,.29,1.28-2.7L79.37,119l-1.91,4L86,130.68l1.31-2.75-1.47-1.3Zm-2.19-.39-1.17,2.46-3.73-3.25,0,0,4.89.81Z"/><path id="path5083" class="cls-2" d="M86.3,112.42l.07-.09L95,115l3-4-8.71-6.71-1.79,2.32,6.8,5-.07.09-8.61-2.66-3,3.93,8.71,6.71,1.79-2.33-6.79-5Z"/><path id="path5085" class="cls-2" d="M103.6,105.9l4.92-3.37a3.91,3.91,0,0,0,2-2.68,5,5,0,0,0-1.17-3.25l-1.3-1.9a4.27,4.27,0,0,0-2.74-2.12,4.79,4.79,0,0,0-3.32,1.1L97.4,96.82l6.2,9.08Zm-2.35-8.63,2.12-1.44a1.48,1.48,0,0,1,1.11-.37c.33.06.69.37,1.08,1l1.3,1.9a2.3,2.3,0,0,1,.5,1.32,1.3,1.3,0,0,1-.66,1.06l-2.12,1.45-3.33-4.87Z"/><path id="path5087" class="cls-2" d="M111.39,88.39l-2.63,1.29,4.82,9.87,2.63-1.28Z"/><path id="path5089" class="cls-2" d="M118.25,88.22,123,86.65l-.75-2.28-7.53,2.48,3.45,10.44,7.63-2.52L125,92.49l-4.84,1.6-.67-2L124,90.58l-.64-1.93-4.45,1.47-.63-1.9Z"/><path id="path5091" class="cls-2" d="M136.53,85.47a3.82,3.82,0,0,0-.94-2.35,2.65,2.65,0,0,0-1.81-.69,14.7,14.7,0,0,0-2.52.19,10.57,10.57,0,0,0-2.73.63,3.05,3.05,0,0,0-1.63,1.42,4.84,4.84,0,0,0-.28,2.76l.36,2.82a5,5,0,0,0,.92,2.56,2.85,2.85,0,0,0,1.88,1,10.74,10.74,0,0,0,2.9-.08,10.2,10.2,0,0,0,2.95-.7,2.25,2.25,0,0,0,1.29-1.46,7.11,7.11,0,0,0,0-2.81l-.25-1.9-4.95.63.26,2,2-.26a2,2,0,0,1-.19,1.54,2.07,2.07,0,0,1-1.44.55,2.58,2.58,0,0,1-1.7-.13c-.39-.21-.64-.79-.76-1.73l-.22-1.77a3.44,3.44,0,0,1,.07-1.9q.28-.6,1.8-.78a3.84,3.84,0,0,1,1.26,0c.38.07.63.36.75.88l2.95-.38Z"/><path id="path5093" class="cls-2" d="M144,93.41a6.75,6.75,0,0,0,3.7-.48c1-.47,1.52-1.53,1.67-3.17l.23-3.1c.09-1.65-.3-2.77-1.19-3.38a9.31,9.31,0,0,0-7.29-.53c-1,.47-1.52,1.52-1.67,3.17L139.18,89c-.1,1.65.29,2.78,1.18,3.38A6.79,6.79,0,0,0,144,93.41Zm.19-2.55a2.68,2.68,0,0,1-1.57-.4c-.29-.24-.41-.75-.36-1.55l.18-2.47c.07-.78.26-1.27.59-1.46a2.73,2.73,0,0,1,1.6-.17,2.77,2.77,0,0,1,1.58.4c.3.24.42.75.35,1.54l-.18,2.47q-.08,1.19-.57,1.47A2.72,2.72,0,0,1,144.14,90.86Z"/><path id="path5095" class="cls-2" d="M158.85,96.41l1-2.62,2.43.92c1.39.55,2.44.63,3.15.23a5,5,0,0,0,1.83-2.76,4.5,4.5,0,0,0,.31-3.2,3.75,3.75,0,0,0-2.38-1.91l-5.16-2-3.92,10.27,2.74,1Zm1.91-5,1.1-2.87,1.88.72c.52.19.82.41.9.68a1.83,1.83,0,0,1-.2,1.17c-.23.64-.45,1-.68,1.15a1.48,1.48,0,0,1-1.12-.13l-1.88-.72Z"/><path id="path5097" class="cls-2" d="M172.62,101.21l-.52,1.9,2.54,1.58,3-11.09-3.78-2.36-8.61,7.59,2.59,1.61,1.46-1.31Zm.63-2.13-2.31-1.44,3.64-3.34,0,0-1.36,4.76Z"/><path id="path5099" class="cls-2" d="M175.34,105.31l4.34,4.09a3.89,3.89,0,0,0,3,1.38,5,5,0,0,0,2.92-1.83l1.58-1.68a4.29,4.29,0,0,0,1.49-3.13,4.76,4.76,0,0,0-1.79-3l-4.05-3.82-7.54,8Zm7.92-4.13,1.87,1.76a1.47,1.47,0,0,1,.59,1,1.9,1.9,0,0,1-.69,1.25l-1.58,1.68a2.36,2.36,0,0,1-1.18.77,1.32,1.32,0,0,1-1.18-.42l-1.87-1.76Z"/><path id="path5101" class="cls-2" d="M189.91,112.79l2.43-1.71,1.31,1.85a1.3,1.3,0,0,1,.34.95,1.4,1.4,0,0,1-.67.78,3.42,3.42,0,0,1-1.16.65c-.29,0-.6-.16-.94-.66l-1.31-1.86Zm-6.16.76,1.69,2.4,2.39-1.68,1.3,1.85a1.14,1.14,0,0,1,.24,1,1.55,1.55,0,0,1-.67.79l-1.26.88,1.7,2.4,1.8-1.28a1.87,1.87,0,0,0,.86-1.26,2.14,2.14,0,0,0-.41-1.48l.1-.06a2.38,2.38,0,0,0,2,.8,5.43,5.43,0,0,0,2-1.06c1.09-.77,1.63-1.54,1.64-2.31a4.83,4.83,0,0,0-1.11-2.69l-3.26-4.63-9,6.34Z"/><path id="path5103" class="cls-2" d="M199.1,122.05l2.06,4.55,2.19-1-3.28-7.22-10,4.55,3.32,7.31,2.19-1-2.11-4.64,1.95-.89,1.93,4.27,1.86-.84-1.94-4.27,1.83-.83Z"/><path id="path5105" class="cls-2" d="M201.62,134.38a2,2,0,0,1,0-.9c0-.23.28-.39.69-.49a.74.74,0,0,1,.74.09,2.57,2.57,0,0,1,.58,1.35,3.07,3.07,0,0,1,.17,1.26c-.06.27-.35.48-.87.6l.67,2.73.44-.11a3.08,3.08,0,0,0,1.93-1.11,2.6,2.6,0,0,0,.4-1.76,14.21,14.21,0,0,0-.4-2.19,13.53,13.53,0,0,0-.76-2.37,2.55,2.55,0,0,0-1.27-1.33,3.68,3.68,0,0,0-2.34,0,3.79,3.79,0,0,0-2,1,2.32,2.32,0,0,0-.48,1.63,17.06,17.06,0,0,0,.31,2.31l.11.63a3.68,3.68,0,0,1,.13,1.3c-.06.21-.31.35-.76.44a.8.8,0,0,1-.92-.18,3.68,3.68,0,0,1-.49-1.36,3.08,3.08,0,0,1-.16-1.46c.09-.3.4-.51.94-.63l-.67-2.73a4.46,4.46,0,0,0-2.34,1.17,2.49,2.49,0,0,0-.55,1.81,13.3,13.3,0,0,0,.44,2.42,8.33,8.33,0,0,0,1.32,3.16,2.14,2.14,0,0,0,1.59.86,5.91,5.91,0,0,0,1.73-.26c1.19-.26,1.92-.71,2.17-1.37a6.53,6.53,0,0,0-.07-3.33l-.2-1.2Z"/><path id="path5107" class="cls-2" d="M87.52,190.69l2.7,3a3.22,3.22,0,0,0,1.5,1.11c.47.13,1-.1,1.71-.71a2.26,2.26,0,0,0,.71-1A1.25,1.25,0,0,0,93.8,192l.06,0a1.25,1.25,0,0,0,1.07.33,2.36,2.36,0,0,0,1-.63c.59-.54.84-1,.74-1.53a3.18,3.18,0,0,0-.92-1.53l-2.67-2.92Zm5.71-2.48,1.14,1.25c.17.21.25.37.23.5a.72.72,0,0,1-.28.4.71.71,0,0,1-.55.27,1.13,1.13,0,0,1-.58-.43l-1-1.07Zm-2,1.87,1,1.15a1.29,1.29,0,0,1,.37.59c0,.16-.08.34-.31.54a.69.69,0,0,1-.59.25,1.09,1.09,0,0,1-.59-.42l-1-1.12Z"/><path id="path5109" class="cls-2" d="M99,199.93l-.52,1.25,1.58,1.3,3-7.27-2.36-1.94-6.53,4.38L95.8,199l1.11-.77Zm.62-1.39-1.44-1.19,2.78-1.94v0l-1.35,3.12Z"/><path id="path5111" class="cls-2" d="M107.53,201.87a1.44,1.44,0,0,1-.45-.43c-.09-.13,0-.32.1-.57a.51.51,0,0,1,.41-.31,1.89,1.89,0,0,1,.93.39,2,2,0,0,1,.68.53c.11.16.07.4-.13.72l1.64,1,.16-.26a2.16,2.16,0,0,0,.41-1.47,1.78,1.78,0,0,0-.64-1.06,10.08,10.08,0,0,0-1.25-.88,8.53,8.53,0,0,0-1.51-.79,1.73,1.73,0,0,0-1.26-.05,3.43,3.43,0,0,0-1.66,2.6,1.62,1.62,0,0,0,.55,1,10.13,10.13,0,0,0,1.26,1l.36.26a2.64,2.64,0,0,1,.68.57c.07.13,0,.33-.16.58s-.33.38-.54.35a2.46,2.46,0,0,1-.89-.42,2.1,2.1,0,0,1-.78-.65c-.1-.18,0-.44.16-.75l-1.64-1a3,3,0,0,0-.58,1.7,1.64,1.64,0,0,0,.59,1.14,8.66,8.66,0,0,0,1.38,1,5.75,5.75,0,0,0,2.16.92,1.45,1.45,0,0,0,1.19-.34,4.19,4.19,0,0,0,.73-1,1.89,1.89,0,0,0,.41-1.71,4.51,4.51,0,0,0-1.63-1.6l-.68-.49Z"/><path id="path5113" class="cls-2" d="M115.88,205l3.13,1.39.67-1.5-5-2.21-3.06,6.89,5,2.23.67-1.5-3.2-1.42.6-1.34,2.94,1.3.56-1.28-2.94-1.3.56-1.26Z"/><path id="path5115" class="cls-2" d="M120.63,213.23l3.86,1.05a3.18,3.18,0,0,0,1.86.14c.47-.15.83-.65,1.07-1.51a2.2,2.2,0,0,0,.08-1.2q-.12-.5-.9-.78l0-.07a1.28,1.28,0,0,0,1.08-.3,2.43,2.43,0,0,0,.52-1.07,1.75,1.75,0,0,0-.19-1.69,3.2,3.2,0,0,0-1.6-.8l-3.82-1-2,7.27Zm3.5-5.15,1.62.44c.26.08.42.18.47.3a.71.71,0,0,1,0,.49c-.07.29-.17.46-.32.52a1.13,1.13,0,0,1-.71-.05l-1.4-.38Zm-.73,2.66,1.5.42a1.23,1.23,0,0,1,.63.29.66.66,0,0,1,0,.63.7.7,0,0,1-.37.53,1.22,1.22,0,0,1-.72,0l-1.46-.4.39-1.43Z"/><path id="path5117" class="cls-2" d="M135.25,214.81l.26,1.33,2,.21-1.49-7.73-3-.32-3,7.26,2.08.22.5-1.25Zm-.24-1.5-1.86-.2L134.4,210h0l.59,3.35Z"/><path id="path5119" class="cls-2" d="M142.59,208.73l-2,.09.35,7.53,5.15-.25-.08-1.74-3.14.15-.28-5.78Z"/><path id="path5121" class="cls-2" d="M150.26,207.85l-2,.39,1.44,7.39,5.06-1-.33-1.72-3.09.6-1.11-5.68Z"/><path id="path5123" class="cls-2" d="M167.15,207l.1.2c.18.39.21.67.07.86a1.81,1.81,0,0,1-.78.53c-.52.25-.89.3-1.13.14a2.34,2.34,0,0,1-.67-1l-.51-1.06a1.83,1.83,0,0,1-.3-1.1c0-.26.31-.5.81-.73a2.26,2.26,0,0,1,.81-.27.66.66,0,0,1,.61.39l.13.26,1.87-.89-.13-.26a3.33,3.33,0,0,0-1-1.34,1.57,1.57,0,0,0-1.21-.18,7.25,7.25,0,0,0-1.6.62,6.81,6.81,0,0,0-1.63,1,2.09,2.09,0,0,0-.75,1.27,3.37,3.37,0,0,0,.41,1.85l.85,1.76a3.35,3.35,0,0,0,1.26,1.57,2,2,0,0,0,1.46.14,8.56,8.56,0,0,0,1.71-.67,7.37,7.37,0,0,0,1.11-.61,2.25,2.25,0,0,0,.8-.92,1.71,1.71,0,0,0,.13-1.14,5.08,5.08,0,0,0-.42-1.09l-.1-.2-1.87.89Z"/><path id="path5125" class="cls-2" d="M171.1,199.31l-1.68,1.11,4.15,6.29,4.3-2.84-1-1.46-2.63,1.73-3.18-4.83Z"/><path id="path5127" class="cls-2" d="M179.31,193l3.2,3.7c.29.32.4.58.34.77a1.61,1.61,0,0,1-.58.7,2.46,2.46,0,0,1-.81.55c-.24.09-.49,0-.76-.34l-3.26-3.76-1.52,1.31,3.29,3.8a3.86,3.86,0,0,0,1.11,1,1.43,1.43,0,0,0,1.25,0,6.75,6.75,0,0,0,1.85-1.24,4,4,0,0,0,1.47-2,2.36,2.36,0,0,0-.77-2l-3.29-3.8L179.31,193Z"/><path id="path5129" class="cls-2" d="M188.72,194.45l2.6-3a3.16,3.16,0,0,0,.92-1.62c.08-.49-.23-1-.91-1.62a2.15,2.15,0,0,0-1-.58,1.25,1.25,0,0,0-1.09.47l-.06,0a1.26,1.26,0,0,0,.2-1.1,2.32,2.32,0,0,0-.75-.93,1.72,1.72,0,0,0-1.61-.55,3.2,3.2,0,0,0-1.4,1.1l-2.58,3,5.72,4.9Zm-3.16-5.36,1.1-1.28c.18-.2.34-.3.46-.29a.72.72,0,0,1,.44.23q.34.28.33.51a1.12,1.12,0,0,1-.35.63L186.6,190l-1-.89Zm2.1,1.8,1-1.18a1.17,1.17,0,0,1,.54-.44c.16,0,.35,0,.58.24a.71.71,0,0,1,.32.56,1.23,1.23,0,0,1-.34.63l-1,1.15-1.12-1Z"/></g></g></svg>