<svg id="Layer_1" data-name="Layer 1" xmlns="http://www.w3.org/2000/svg" viewBox="0 0 280 300"><defs><style>.cls-1{fill:#004666;}.cls-2{fill:#fff;}.cls-3{fill:#037062;}.cls-4{fill:#bccbd2;}.cls-5{fill:#e63248;}</style></defs><title>mariners logo</title><g id="g8"><path id="path10" class="cls-1" d="M140.09,219.68c37.55,0,68.22-31.18,68.22-69.77s-30.67-69.77-68.22-69.77c-37.73,0-68.4,31.19-68.4,69.77S102.36,219.68,140.09,219.68Z"/></g><g id="g12"><path id="path14" class="cls-2" d="M166.36,189.38l1,1.76L165,192.72l1.93,3.35,2.47-1.41,1.06,1.76-2.64,1.41,2.82,4.76,2.46-1.41,1.06,1.76-4.76,2.82L161.6,192.2Z"/></g><g id="g16"><path id="path18" class="cls-2" d="M109.24,185.68l-9.52,12.51L98,196.25l1.94-2.65L98.31,192l-2.47,2.11-1.76-1.93,12-9.7Zm-9.35,4.93L101.3,192l4.41-5.64-.35-.17Z"/></g><g id="g20"><path id="path22" class="cls-2" d="M189.1,165.59l-.88,2.47-2.12-.88c-.35-.18-.53-.18-.7,0,0,0-.53,1.41-.53,1.58s.17.36.53.53l2.11.88a1.07,1.07,0,0,0,1.23-.17l1.77-2.12a2.63,2.63,0,0,1,2.64-.7l3,1.23c2.29,1.06,2.64,1.41,1.76,3.88,0,0-.53,1.41-.53,1.58-1.06,2.47-1.58,2.65-3.88,1.59l-2.29-.88,1.06-2.47,2.47,1.06c.35.17.7.17.7-.18.18,0,.53-1.41.53-1.58s-.17-.18-.53-.36l-3-1.23c-.36-.18-1.06,1.06-1.59,1.59l-1.41,1.23a2.42,2.42,0,0,1-2.64.18l-2.12-.89c-2.29-1.05-2.64-1.58-1.59-4.05,0,0,.53-1.41.53-1.58.88-2.29,1.59-2.29,3.88-1.41Z"/></g><g id="g24"><path id="path26" class="cls-2" d="M135.86,197.48,134.09,213l-2.64-.35,1.76-15.5Z"/></g><g id="g28"><path id="path30" class="cls-2" d="M97.07,168.23l-5.81,4.94v.17l7.22-1.76,1.41,3.17-13.75,6.52-1-2.11,8.28-3.88-.18-.35-8.81,2.29-.7-1.23,7.4-5.64v-.18L83,174.05l-1.06-2.12,13.75-6.51Z"/></g><g id="g32"><path id="path34" class="cls-2" d="M121.58,193.78c2.29,1.06,2.29,1.94,1.41,4.23l-.88,1.76c-.53,1.23-1.06,1.94-2.12,1.94.71.7.53,1.59,0,2.64l-2.11,4.93-2.47-1.23,2.47-5.11c.17-.35.17-.53,0-.7,0-.18-1.59-.88-1.77-1.06l-2.64,6L111,205.94l6.52-14.1ZM117,199.07a8.58,8.58,0,0,0,1.77.88c.35,0,.53-.18.7-.53l1.24-2.82c.17-.53.35-.71,0-.88a8.1,8.1,0,0,0-1.77-.88Z"/></g><g id="g36"><path id="path38" class="cls-2" d="M148,196.78,151.9,204l-1.41-7.75,2.12-.36,3,15.33-2.29.36-3.88-7.23L151,212.1l-2.29.53-3-15.33Z"/></g><g id="g40"><path id="path42" class="cls-2" d="M175.52,180.74c1.59-1.94,2.65-2.11,4.41-.35l1.41,1.23c1.06.88,1.59,1.59,1.23,2.65,1.06-.53,1.59-.18,2.65.7l3.88,3.53-1.77,1.93-4.23-3.7c-.17-.35-.35-.35-.53-.35-.17.18-1.23,1.23-1.41,1.41l4.76,4.23-1.58,2.11L172.7,183.91Zm3.88,5.64c.18-.17,1.24-1.41,1.24-1.41.17-.35,0-.53-.36-.88l-2.11-1.94c-.53-.35-.71-.53-1.06-.35a9.12,9.12,0,0,1-1.23,1.41Z"/></g><g id="g44"><path id="path46" class="cls-2" d="M143.79,87v2.11h-2.11V102.7H139l.18-13.57h-2.12V87Z"/></g><g id="g48"><path id="path50" class="cls-2" d="M89.85,122.43l-1.06,2.46L86.67,124a1.36,1.36,0,0,0-.7-.17,12.58,12.58,0,0,1-.53,1.41c-.18.35,0,.52.35.7L88.08,127c.35.17.71-.18,1.24-.53l1.76-2.11a2.42,2.42,0,0,1,2.64-.18l3,1.41c2.29,1.06,2.65,1.58,1.59,3.87,0,0-.53,1.41-.71,1.41-1.06,2.47-1.58,2.65-3.88,1.59l-2.64-1.06L92.31,129l2.82,1.23c.36.18.53.18.71-.18l.53-1.41c0-.17-.18-.35-.53-.35L93,126.83c-.53-.17-1.06.71-1.59,1.06L89.85,129a2.77,2.77,0,0,1-2.83.52l-1.93-.88c-2.3-1-2.65-1.76-1.59-4.22.18,0,.7-1.41.7-1.41,1.06-2.29,1.59-2.29,3.88-1.24Z"/></g><g id="g52"><path id="path54" class="cls-2" d="M99.89,102.17l1.41,1.41-2.11,2.11,2.64,2.82,2.12-1.94,1.41,1.41-2.12,2.11L107,114l2.11-2.11,1.41,1.58-4,3.88L95.84,106Z"/></g><g id="g56"><path id="path58" class="cls-2" d="M120,90.36l7.41,13.75-2.3,1-1.58-3-2.12.88.88,3.17-2.46,1.06L115.94,92Zm.88,10.75,1.59-.71-3.17-6.34-.36.18Z"/></g><g id="g60"><path id="path62" class="cls-2" d="M165.83,92.65l-.71,1.94-1.76-.7-4.94,12.51-2.47-.89,4.94-12.68L159,92.12l.71-1.93Z"/></g><g id="g64"><path id="path66" class="cls-2" d="M182.4,103.93l-9,10.22,2.11,1.94-1.23,1.58-4.06-3.88,10.23-11.62Z"/></g><g id="g68"><path id="path70" class="cls-2" d="M197,125.07l-1.76.88-1.41-2.64-3.53,1.76,1.41,2.64L190,128.77l-1.41-2.64-4.76,2.46,1.41,2.65-1.94.88L180.81,127l13.75-6.87Z"/></g><g id="g72"><path id="path74" class="cls-2" d="M140.09,191.49c22.39,0,40.55-18.5,40.55-41.58,0-22.9-18.16-41.58-40.55-41.58-22.57,0-40.72,18.68-40.72,41.58C99.37,173,117.52,191.49,140.09,191.49Z"/></g><g id="g76"><path class="cls-3" d="M140.09,192.11a40.67,40.67,0,0,1-29.27-12.32,42.39,42.39,0,0,1-12.07-29.88c0-23.27,18.54-42.2,41.34-42.2s41.17,18.93,41.17,42.2a42.5,42.5,0,0,1-12.06,29.88A40.43,40.43,0,0,1,140.09,192.11Zm0-83.16c-22.11,0-40.1,18.38-40.1,41s18,41,40.1,41S180,172.5,180,149.91,162.1,109,140.09,109Z"/></g><g id="g80"><path id="path82" class="cls-4" d="M120.7,136.7c-1.59-3.7-6.88-17.09-6.7-17.27,0,0,13.4,7.23,16,9C126.87,129.3,121.4,134.76,120.7,136.7Z"/></g><g id="g84"><path id="path86" class="cls-3" d="M124.58,131.94c-1.77,1.94-3.53,3.88-3.88,4.76-1.59-3.7-6.88-17.09-6.7-17.27Z"/></g><g id="g88"><path id="path90" class="cls-4" d="M159.3,136.87c1.59-3.87,6.88-17.26,6.7-17.26,0,0-13.39,7.22-16,9C153.13,129.3,158.6,134.76,159.3,136.87Z"/></g><g id="g92"><path id="path94" class="cls-3" d="M155.25,131.77c-1.94-1.59-4.05-3-5.11-3.18,3.35-2.11,15.86-9.16,15.86-9.16Z"/></g><g id="g96"><path id="path98" class="cls-4" d="M120.7,163c-1.59,3.7-6.88,17.26-6.7,17.44,0,0,13.4-7.4,16-9.16C126.87,170.35,121.4,164.89,120.7,163Z"/></g><g id="g100"><path id="path102" class="cls-3" d="M124.75,167.88c2.12,1.76,4.23,3.17,5.29,3.35-3.53,2.11-16,9.16-16.22,9Z"/></g><g id="g104"><path id="path106" class="cls-4" d="M159.48,163c1.59,3.7,6.52,17.44,6.35,17.62,0,0-12.87-7.58-15.52-9.34C153.31,170.35,158.77,164.89,159.48,163Z"/></g><g id="g108"><path id="path110" class="cls-3" d="M155.6,167.71c1.94-1.77,3.53-3.7,3.88-4.76,1.59,3.7,6.52,17.44,6.35,17.62Z"/></g><g id="g112"><path id="path114" class="cls-5" d="M124.75,133.53l-.35-.18-1.76.53.35.35Z"/></g><g id="g116"><path class="cls-5" d="M123,134.3l-.45-.45,1.88-.57.5.25Zm-.22-.39.25.25,1.6-.64-.21-.1Z"/></g><g id="g120"><path id="path122" class="cls-5" d="M125.28,132.12l.35.17-.53,1.59-.35-.35Z"/></g><g id="g124"><path class="cls-5" d="M125.13,134l-.45-.45.57-1.51.46.23Zm-.31-.48.26.25.48-1.43-.25-.13Z"/></g><g id="g128"><path id="path130" class="cls-5" d="M126.34,134.76l-.53-.35-1.76.53.35.35Z"/></g><g id="g132"><path class="cls-5" d="M124.38,135.36l-.45-.45,1.89-.57.67.44Zm-.22-.39.26.25,1.77-.48-.39-.26Z"/></g><g id="g136"><path id="path138" class="cls-5" d="M126.69,133.17l.53.18-.53,1.59-.35-.18Z"/></g><g id="g140"><path class="cls-5" d="M126.73,135l-.46-.23.38-1.7.65.22Zm-.32-.29.24.12.49-1.46-.4-.13Z"/></g><g id="g144"><path id="path146" class="cls-5" d="M128.1,135.82l-.53-.35-1.76.7.53.18Z"/></g><g id="g148"><path class="cls-5" d="M126.34,136.41l-.71-.23,2-.78.66.44Zm-.35-.25.35.12,1.62-.48-.4-.27Z"/></g><g id="g152"><path id="path154" class="cls-5" d="M128.45,134.23l.53.18-.35,1.58-.53-.17Z"/></g><g id="g156"><path class="cls-5" d="M128.67,136.07l-.64-.21.38-1.71.64.22Zm-.5-.29.41.13.33-1.46-.41-.14Z"/></g><g id="g160"><path id="path162" class="cls-5" d="M130.22,136.7l-.53-.18-1.77.71.53.35Z"/></g><g id="g164"><path class="cls-5" d="M128.45,137.65l-.66-.44,1.9-.75.69.23Zm-.39-.41.4.27,1.59-.8-.36-.12Z"/></g><g id="g168"><path id="path170" class="cls-5" d="M130.39,135.11l.53.18-.18,1.76-.52-.35Z"/></g><g id="g172"><path class="cls-5" d="M130.8,137.16l-.65-.43.19-1.7.65.22Zm-.52-.49.41.27.16-1.61-.4-.13Z"/></g><g id="g176"><path id="path178" class="cls-5" d="M132.33,137.58l-.7-.18-1.59.88.7.18Z"/></g><g id="g180"><path class="cls-5" d="M130.75,138.53l-.88-.22,1.75-1,.88.22Zm-.54-.27.53.13,1.42-.79-.52-.13Z"/></g><g id="g184"><path id="path186" class="cls-5" d="M132.16,135.82l.52.17.18,1.77-.53-.18Z"/></g><g id="g188"><path class="cls-5" d="M132.93,137.84l-.66-.21-.19-1.9.66.22Zm-.54-.31.4.14-.16-1.63-.4-.13Z"/></g><g id="g192"><path id="path194" class="cls-5" d="M134.8,138.11h-.53l-1.59.88.71.17Z"/></g><g id="g196"><path class="cls-5" d="M133.4,139.23l-.88-.22,1.73-1H135Zm-.55-.26.53.13,1.23-.93h-.32Z"/></g><g id="g200"><path id="path202" class="cls-5" d="M134.45,136.52l.7.18.35,1.58-.52-.17Z"/></g><g id="g204"><path class="cls-5" d="M135.59,138.38l-.66-.22-.58-1.73.85.22Zm-.56-.32.39.13-.32-1.44-.56-.14Z"/></g><g id="g208"><path id="path210" class="cls-5" d="M137.27,138.46h-.71l-1.23,1.23h.7Z"/></g><g id="g212"><path class="cls-5" d="M136.06,139.76h-.88l1.36-1.36h.88Zm-.58-.13H136l1.11-1.11h-.53Z"/></g><g id="g216"><path id="path218" class="cls-5" d="M136.39,136.87l.7.18.71,1.41h-.53Z"/></g><g id="g220"><path class="cls-5" d="M137.9,138.52h-.67l-1-1.74.87.22Zm-.6-.12h.4l-.65-1.3-.54-.13Z"/></g><g id="g224"><path id="path226" class="cls-5" d="M139.56,138.64h-.71l-1,1.23h.7Z"/></g><g id="g228"><path class="cls-5" d="M138.53,139.93h-.87l1.17-1.36h.86Zm-.6-.12h.54l.95-1.11h-.54Z"/></g><g id="g232"><path id="path234" class="cls-5" d="M138.68,137.23h.7l.88,1.41h-.7Z"/></g><g id="g236"><path class="cls-5" d="M140.38,138.7h-.85l-1-1.53h.85Zm-.79-.13h.56l-.8-1.28h-.56Z"/></g><g id="g240"><path id="path242" class="cls-5" d="M142,138.64h-.71l-.7,1.41.7-.18Z"/></g><g id="g244"><path class="cls-5" d="M140.5,140.14l.78-1.57h.85l-.77,1.35Zm.86-1.44-.63,1.25.55-.13.64-1.12Z"/></g><g id="g248"><path id="path250" class="cls-5" d="M141,137.23h.53l1.23,1.41H142Z"/></g><g id="g252"><path class="cls-5" d="M142.87,138.7H142l-1.15-1.53h.68l0,0Zm-.81-.13h.54l-1.13-1.28h-.38Z"/></g><g id="g256"><path id="path258" class="cls-5" d="M144.85,138.28h-.71l-.53,1.41h.53Z"/></g><g id="g260"><path class="cls-5" d="M144.18,139.76h-.66l.58-1.54H145Zm-.48-.13h.4l.65-1.28h-.56Z"/></g><g id="g264"><path id="path266" class="cls-5" d="M143.61,136.87h.53l1.24,1.24-.53.17Z"/></g><g id="g268"><path class="cls-5" d="M144.83,138.36l-1.35-1.55h.69l0,0,1.3,1.3Zm-1.08-1.42,1.12,1.27.39-.13-1.14-1.14Z"/></g><g id="g272"><path id="path274" class="cls-5" d="M147.14,137.76l-.7.17-.18,1.41.7-.18Z"/></g><g id="g276"><path class="cls-5" d="M146.19,139.42l.19-1.54.83-.21-.19,1.54Zm.3-1.44-.16,1.28.58-.15.16-1.27Z"/></g><g id="g280"><path id="path282" class="cls-5" d="M145.73,136.52l.53-.17,1.59,1.23-.71.18Z"/></g><g id="g284"><path class="cls-5" d="M147.12,137.82l-1.51-1.32.66-.22,1.72,1.33Zm-1.27-1.27,1.31,1.14.55-.14-1.46-1.13Z"/></g><g id="g288"><path id="path290" class="cls-5" d="M149.61,136.87l-.53.18-.35,1.41.7-.18Z"/></g><g id="g292"><path class="cls-5" d="M148.64,138.55,149,137l.65-.22-.19,1.55Zm.49-1.45-.32,1.27.57-.14.15-1.26Z"/></g><g id="g296"><path id="path298" class="cls-5" d="M148,135.82l.53-.18,1.59,1.06-.53.17Z"/></g><g id="g300"><path class="cls-5" d="M149.6,136.94l-1.72-1.14.68-.23,1.72,1.15Zm-1.44-1.1,1.46,1,.38-.13-1.46-1Z"/></g><g id="g304"><path id="path306" class="cls-5" d="M151.37,136l-.53.36v1.41l.53-.36Z"/></g><g id="g308"><path class="cls-5" d="M150.78,137.87v-1.56l.65-.43v1.56Zm.12-1.49v1.26l.41-.27v-1.26Z"/></g><g id="g312"><path id="path314" class="cls-5" d="M149.78,135.11l.36-.35,1.76,1.06-.53.17Z"/></g><g id="g316"><path class="cls-5" d="M151.36,136.06l-1.68-.93.45-.45,1.92,1.15Zm-1.47-1,1.49.83.37-.13-1.6-1Z"/></g><g id="g320"><path id="path322" class="cls-5" d="M153.13,135.11l-.52.36.17,1.4.35-.35Z"/></g><g id="g324"><path class="cls-5" d="M152.73,137l-.19-1.58.66-.43v1.55Zm-.06-1.51.16,1.24.24-.24v-1.27Z"/></g><g id="g328"><path id="path330" class="cls-5" d="M151.37,134.23l.53-.17,1.59.88-.36.17Z"/></g><g id="g332"><path class="cls-5" d="M153.13,135.18l-1.92-1,.7-.23,1.71.95Zm-1.6-.94,1.6.8.22-.11-1.46-.81Z"/></g><g id="g336"><path id="path338" class="cls-5" d="M154.54,134.06l-.35.35.53,1.23.35-.35Z"/></g><g id="g340"><path class="cls-5" d="M154.7,135.75l-.58-1.36.44-.44.59,1.35Zm-.43-1.33.47,1.11.26-.26-.48-1.11Z"/></g><g id="g344"><path id="path346" class="cls-5" d="M153,133.35l.35-.35,1.76.7-.35.36Z"/></g><g id="g348"><path class="cls-5" d="M154.74,134.13l-1.89-.76.45-.44,1.88.75Zm-1.67-.8,1.64.65.25-.25-1.63-.66Z"/></g><g id="g352"><path id="path354" class="cls-5" d="M156.13,132.82l-.53.35.53,1.24.35-.35Z"/></g><g id="g356"><path class="cls-5" d="M156.11,134.52l-.58-1.37.64-.43.38,1.35Zm-.43-1.32.47,1.1.26-.26-.32-1.12Z"/></g><g id="g360"><path id="path362" class="cls-5" d="M154.37,132.12l.35-.35.71.35.52.53.18.17Z"/></g><g id="g364"><path class="cls-5" d="M156.11,132.88l-1.85-.74.45-.45.76.38.7.71Zm-1.63-.78,1.39.55-.48-.48-.66-.33Z"/></g><g id="g368"><path id="path370" class="cls-5" d="M155.43,166.3l.35.35,1.76-.53-.35-.35Z"/></g><g id="g372"><path class="cls-5" d="M155.76,166.72l-.45-.45,1.9-.57.45.45Zm-.22-.39.26.25,1.62-.49-.25-.25Z"/></g><g id="g376"><path id="path378" class="cls-5" d="M154.9,167.88l-.36-.35.53-1.59.36.36Z"/></g><g id="g380"><path class="cls-5" d="M154.92,168l-.45-.45.58-1.72.45.45Zm-.31-.49.26.26.48-1.46-.25-.25Z"/></g><g id="g384"><path id="path386" class="cls-5" d="M153.84,165.24l.53.18,1.76-.53-.35-.18Z"/></g><g id="g388"><path class="cls-5" d="M154.37,165.48h0l-.73-.24,2.16-.58.52.25Zm-.32-.23.32.1,1.59-.48-.19-.09Z"/></g><g id="g392"><path id="path394" class="cls-5" d="M153.49,166.83l-.53-.36.53-1.58.35.35Z"/></g><g id="g396"><path class="cls-5" d="M153.53,166.93l-.65-.43.58-1.73.45.45Zm-.5-.48.42.27.32-1.46-.26-.26Z"/></g><g id="g400"><path id="path402" class="cls-5" d="M152.08,164.18l.53.18,1.76-.71-.53-.17Z"/></g><g id="g404"><path class="cls-5" d="M152.61,164.43l-.71-.24,1.94-.78.71.24Zm-.35-.25.34.11,1.59-.63-.35-.12Z"/></g><g id="g408"><path id="path410" class="cls-5" d="M151.72,165.77l-.52-.18.35-1.76.53.35Z"/></g><g id="g412"><path class="cls-5" d="M151.77,165.85l-.65-.22.38-1.9.65.42Zm-.5-.3.41.14.33-1.48-.42-.28Z"/></g><g id="g416"><path id="path418" class="cls-5" d="M150,163.12l.53.18,1.76-.7-.53-.18Z"/></g><g id="g420"><path class="cls-5" d="M150.49,163.37l-.71-.24,1.94-.78.71.24Zm-.35-.25.35.12,1.58-.64-.34-.11Z"/></g><g id="g424"><path id="path426" class="cls-5" d="M149.78,164.71l-.52-.18.17-1.58.53.17Z"/></g><g id="g428"><path class="cls-5" d="M149.84,164.79l-.65-.21.19-1.71.65.21Zm-.52-.3.41.14.16-1.46-.4-.14Z"/></g><g id="g432"><path id="path434" class="cls-5" d="M147.85,162.42l.7.18,1.59-1.06-.71-.18Z"/></g><g id="g436"><path class="cls-5" d="M148.56,162.66l-.87-.21,1.73-1.15.87.21Zm-.56-.27.54.14,1.45-1-.55-.14Z"/></g><g id="g440"><path id="path442" class="cls-5" d="M148,164l-.53-.18-.17-1.58.53.17Z"/></g><g id="g444"><path class="cls-5" d="M148.09,164.1l-.66-.22-.19-1.72.66.21Zm-.54-.32.4.14-.16-1.45-.4-.14Z"/></g><g id="g448"><path id="path450" class="cls-5" d="M145.38,161.72l.53.17,1.58-1-.7-.18Z"/></g><g id="g452"><path class="cls-5" d="M145.91,162l-.67-.22,1.53-1.15.87.22Zm-.4-.27.39.13,1.44-1-.54-.13Z"/></g><g id="g456"><path id="path458" class="cls-5" d="M145.73,163.3H145l-.35-1.76.53.18Z"/></g><g id="g460"><path class="cls-5" d="M145.82,163.36H145l-.38-1.91.66.22Zm-.74-.12h.56l-.49-1.47-.4-.14Z"/></g><g id="g464"><path id="path466" class="cls-5" d="M142.91,161.36h.7l1.06-1.23h-.53Z"/></g><g id="g468"><path class="cls-5" d="M143.64,161.43h-.88l1.36-1.36h.69Zm-.58-.13h.53l.95-1.11h-.37Z"/></g><g id="g472"><path id="path474" class="cls-5" d="M143.79,163h-.71l-.7-1.59h.53Z"/></g><g id="g476"><path class="cls-5" d="M143.9,163H143l-.76-1.71H143Zm-.77-.12h.56l-.82-1.46h-.39Z"/></g><g id="g480"><path id="path482" class="cls-5" d="M140.62,161.19h.7l1.06-1.24h-.7Z"/></g><g id="g484"><path class="cls-5" d="M141.35,161.25h-.87l1.17-1.36h.87Zm-.6-.12h.54l1-1.11h-.55Z"/></g><g id="g488"><path id="path490" class="cls-5" d="M141.5,162.77h-.71l-.88-1.58h.71Z"/></g><g id="g492"><path class="cls-5" d="M141.6,162.83h-.84l-.95-1.7h.84Zm-.77-.12h.56l-.81-1.46H140Z"/></g><g id="g496"><path id="path498" class="cls-5" d="M138.15,161.36l.7-.17.71-1.24h-.71Z"/></g><g id="g500"><path class="cls-5" d="M138,161.46l.79-1.57h.85l-.77,1.35Zm.86-1.44-.62,1.25.54-.14.64-1.11Z"/></g><g id="g504"><path id="path506" class="cls-5" d="M139.21,162.6l-.53.17-1.24-1.41.71-.17Z"/></g><g id="g508"><path class="cls-5" d="M138.66,162.84l-1.33-1.51.84-.21,1.14,1.51Zm-1.1-1.44,1.14,1.3.41-.14-1-1.3Z"/></g><g id="g512"><path id="path514" class="cls-5" d="M135.33,161.72l.7-.18.53-1.41-.53.18Z"/></g><g id="g516"><path class="cls-5" d="M135.21,161.81l.78-1.55.68-.23-.59,1.56Zm.87-1.45-.64,1.26.55-.13.47-1.26Z"/></g><g id="g520"><path id="path522" class="cls-5" d="M136.56,163l-.53.17-1.23-1.4h.53Z"/></g><g id="g524"><path class="cls-5" d="M136,163.2l-1.35-1.55h.69l0,0,1.31,1.31Zm-1.07-1.42,1.11,1.27.4-.13-1.15-1.14Z"/></g><g id="g528"><path id="path530" class="cls-5" d="M133,162.25l.7-.18.18-1.41-.71.18Z"/></g><g id="g532"><path class="cls-5" d="M133,162.33l.2-1.54.83-.21-.19,1.54Zm.31-1.44-.16,1.27.58-.14.15-1.28Z"/></g><g id="g536"><path id="path538" class="cls-5" d="M134.45,163.3l-.53.18-1.59-1.06.71-.17Z"/></g><g id="g540"><path class="cls-5" d="M133.91,163.55l0,0-1.7-1.14.87-.21,1.53,1.14Zm-1.43-1.1,1.45,1,.38-.13-1.29-1Z"/></g><g id="g544"><path id="path546" class="cls-5" d="M130.57,163l.53-.18.35-1.41-.71.18Z"/></g><g id="g548"><path class="cls-5" d="M130.49,163l.2-1.55.84-.21-.38,1.54Zm.31-1.45-.16,1.27.41-.14.31-1.27Z"/></g><g id="g552"><path id="path554" class="cls-5" d="M132.16,164l-.53.35L130,163.3l.53-.35Z"/></g><g id="g556"><path class="cls-5" d="M131.63,164.43l-1.7-1.13.64-.43,0,0,1.67,1.11Zm-1.48-1.13,1.48,1L132,164l-1.47-1Z"/></g><g id="g560"><path id="path562" class="cls-5" d="M128.81,163.83l.53-.35v-1.23l-.53.17Z"/></g><g id="g564"><path class="cls-5" d="M128.74,164v-1.57l.66-.22v1.35Zm.13-1.48v1.24l.4-.27v-1.11Z"/></g><g id="g568"><path id="path570" class="cls-5" d="M130.39,164.89l-.35.17L128.28,164l.53-.18Z"/></g><g id="g572"><path class="cls-5" d="M130,165.13,128.13,164l.68-.23,0,0,1.68,1.11ZM128.42,164l1.62,1,.23-.11-1.47-1Z"/></g><g id="g576"><path id="path578" class="cls-5" d="M127,164.71l.53-.18-.17-1.41-.36.18Z"/></g><g id="g580"><path class="cls-5" d="M127,164.8v-1.54l.47-.23.19,1.55Zm.13-1.46v1.29l.39-.14-.15-1.27Z"/></g><g id="g584"><path id="path586" class="cls-5" d="M128.81,165.59l-.53.35-1.59-.88.35-.35Z"/></g><g id="g588"><path class="cls-5" d="M128.28,166l-1.69-.94.44-.44,0,0,1.86.92Zm-1.49-1,1.48.82.41-.27-1.62-.81Z"/></g><g id="g592"><path id="path594" class="cls-5" d="M125.63,165.77l.35-.18-.52-1.41-.36.35Z"/></g><g id="g596"><path class="cls-5" d="M125.6,165.85l-.57-1.33.45-.45.58,1.55Zm-.42-1.3.48,1.13.25-.12-.48-1.27Z"/></g><g id="g600"><path id="path602" class="cls-5" d="M127.22,166.47l-.35.36-1.77-.71.36-.18Z"/></g><g id="g604"><path class="cls-5" d="M126.88,166.9l0,0-1.89-.75.5-.25h0l1.87.55Zm-1.62-.79,1.59.64.25-.25-1.64-.49Z"/></g><g id="g608"><path id="path610" class="cls-5" d="M124.05,167l.53-.35-.53-1.23-.36.35Z"/></g><g id="g612"><path class="cls-5" d="M124,167.1l-.39-1.35.45-.44.58,1.36Zm-.25-1.31.32,1.11.42-.28-.48-1.1Z"/></g><g id="g616"><path id="path618" class="cls-5" d="M125.81,167.71l-.35.35-.71-.35-.53-.36-.17-.35Z"/></g><g id="g620"><path class="cls-5" d="M125.47,168.13l-.75-.37-.55-.36-.25-.52,2,.8Zm-1.2-.82.52.34.65.33.26-.25-1.53-.61Z"/></g><g id="g624"><path class="cls-3" d="M140.09,173.94c-13,0-23.51-10.78-23.51-24s10.54-24,23.51-24,23.51,10.77,23.51,24S153.05,173.94,140.09,173.94Zm0-47.57c-12.7,0-23,10.56-23,23.54s10.33,23.54,23,23.54,23-10.56,23-23.54S152.79,126.37,140.09,126.37Z"/></g><g id="g628"><path id="path630" class="cls-4" d="M140.09,149.91c-.88-.53-6-5.81-7.93-7.75.35-4,7.58-38.94,7.93-38.94.17,0,7.4,34.89,7.76,38.94C146.08,144.1,140.79,149.38,140.09,149.91Z"/></g><g id="g632"><path id="path634" class="cls-3" d="M140.09,149.91c-.88-.53-6-5.81-7.93-7.75.35-4,7.58-38.94,7.93-38.94Z"/></g><g id="g636"><path id="path638" class="cls-4" d="M140.09,149.91c-.88.71-6,5.82-7.93,7.75.35,4.06,7.58,38.94,7.93,38.94.17.18,7.4-34.88,7.76-38.94C146.08,155.73,140.79,150.62,140.09,149.91Z"/></g><g id="g640"><path id="path642" class="cls-3" d="M140.09,149.91c.7.71,6,5.82,7.76,7.75-.36,4.06-7.59,38.94-7.76,38.94Z"/></g><g id="g644"><path id="path646" class="cls-4" d="M140.09,149.91c-.71.71-5.82,6.17-7.76,7.93-3.88-.35-59.59-7.75-59.59-7.93-.17-.35,55.71-7.57,59.59-7.93C134.27,143.75,139.38,149.21,140.09,149.91Z"/></g><g id="g648"><path id="path650" class="cls-3" d="M140.09,149.91c-.71.71-5.82,6.17-7.76,7.93-3.88-.35-59.59-7.75-59.59-7.93Z"/></g><g id="g652"><path id="path654" class="cls-4" d="M140.09,149.91c.53.71,5.64,6.17,7.58,7.93,3.88-.35,59.94-7.75,59.94-7.93.17-.35-56.06-7.57-59.94-7.93C145.73,143.75,140.62,149.21,140.09,149.91Z"/></g><g id="g656"><path id="path658" class="cls-3" d="M140.09,149.91c.53-.7,5.64-6.16,7.58-7.93,3.88.36,59.94,7.58,59.94,7.76Z"/></g><g id="g660"><path id="path662" class="cls-1" d="M198.44,216h-1.59v4.23h-1V216h-1.41v-1.06h4.05Zm6.88,4.23h-.88V216h-.18l-1.41,4.23h-1.06L200.38,216v4.23h-1.06v-5.29h1.76l1.24,3.53,1.23-3.53h1.77Z"/></g><g id="g668"><path class="cls-4" d="M140.09,228c-42.2,0-76.54-35-76.54-78.08S97.89,72,140.09,72s76.36,34.95,76.36,77.9S182.19,228,140.09,228Zm0-153.81c-41,0-74.37,34-74.37,75.73s33.36,75.91,74.37,75.91,74.19-34,74.19-75.91S181,74.18,140.09,74.18Zm0,146.58c-38.32,0-69.49-31.78-69.49-70.85s31.17-70.85,69.49-70.85,69.31,31.78,69.31,70.85S178.31,220.76,140.09,220.76Zm0-139.53C103,81.23,72.77,112,72.77,149.91s30.2,68.68,67.32,68.68,67.14-30.81,67.14-68.68S177.11,81.23,140.09,81.23Z"/></g></svg>