<?xml version="1.0" encoding="utf-8"?>
<!-- Generator: Adobe Illustrator 24.2.0, SVG Export Plug-In . SVG Version: 6.00 Build 0)  -->
<svg version="1.1" id="katman_1" xmlns="http://www.w3.org/2000/svg" xmlns:xlink="http://www.w3.org/1999/xlink" x="0px" y="0px"
	 viewBox="0 0 1000 1000" style="enable-background:new 0 0 1000 1000;" xml:space="preserve">
<style type="text/css">
	.st0{fill:#FFFFFF;}
	.st1{fill:#CD1141;}
	.st2{fill:#004784;}
</style>
<g id="XMLID_1_">
	<path id="XMLID_72_" class="st0" d="M500,114.9c-212.3,0-385.1,172.7-385.1,385.1S287.7,885.1,500,885.1S885.1,712.3,885.1,500
		S712.3,114.9,500,114.9"/>
	<path id="XMLID_71_" class="st0" d="M855.1,500c0-2.2-0.2-4.4-0.2-6.6H744.2c-1.8-59.8-25.3-119.3-70.9-165
		c-95.1-95.1-249.1-95.1-344.1,0c-45.8,45.8-69.3,105.4-71.1,165.5l-112.9-0.2c0,2.2,0,4.2-0.2,6.2c0,0.7,0,1.1,0,1.8
		c0,1.5,0,3.3,0.2,4.8H258c1.5,60.3,25.1,120.1,71.1,166.1c95.1,95.1,249.1,95.1,344.1,0c46.2-46.2,69.8-106.3,71.1-166.6h110.7
		c0-1.5,0.2-3.1,0.2-4.8C855.1,500.9,855.1,500.4,855.1,500"/>
	<path id="XMLID_70_" class="st1" d="M500,144.9c-193.6,0-351.6,156-354.9,349l0,0l112.9,0.2C259.5,434,283,374.4,329,328.6
		c95.1-95.1,249.1-95.1,344.1,0c45.8,45.8,69.1,105.2,70.9,165h110.7c0,2.2,0.2,4.4,0.2,6.6l0,0C855.1,304.2,695.8,144.9,500,144.9"
		/>
	<path class="st2" d="M500,127.9c-205.5,0-372.1,166.6-372.1,372.1S294.5,872.1,500,872.1S872.1,705.5,872.1,500
		S705.5,127.9,500,127.9 M404.7,723.8c2.2,0.2,4.2,0,6.6-0.4c2.6,2.9,4.8,4.6,7.3,5.9C414,727.5,409.3,725.8,404.7,723.8z
		 M855.1,501.1c0,1.5,0,3.3-0.2,4.8H744.2c-1.3,60.5-24.9,120.6-71.1,166.6c-66.7,66.7-162.6,86.5-246.7,59.4l1.8-2.6
		c-5.3-1.3-12.1-5.7-16.1-9.7c-8.8,2.2-13.6-1.8-19.6-3.5l-0.7,1.8c-22.7-11.4-44.2-26.4-63.1-45.5c-9-9-16.9-18.7-24.2-28.6
		c2.4,1.3,5.1,3.1,7.5,3.7l-2.2-3.7c0,0-6.2-4.2-11.2-8.1c-4-5.9-7.7-12.1-11.2-18.5c7.3,6.6,12.1,7.7,17.6,10.3l-1.5-7.7
		c-4.6-1.5-13.9-5.5-20.7-12.1c-15.6-31.9-24.2-66.4-24.9-101.2H145.1c0-1.5-0.2-3.1-0.2-4.8c0-0.7,0-1.1,0-1.8l0,0
		c0-2,0.2-4.2,0.2-6.2c3.3-192.7,161.3-348.7,354.9-348.7c195.8,0,355.1,159.3,355.1,355.1l0,0C855.1,500.4,855.1,500.9,855.1,501.1
		z"/>
	<path class="st0" d="M243,610.7c4.2-1.5,7.3-4.6,8.8-8.8c2.2-5.9,2-14.5-1.1-22.7l-8.6-23.3l-1.3,1.3c0,0-4.6,4.6-4.8,4.6l-5.7,2
		l-11.4,4.2c0-0.2-6.8-3.1-6.8-3.1l-1.1-0.4c0,0-3.3,7.5-3.7,8.4c-0.9,0.2-18.9,7-18.9,7l-6.2-0.4h-1.8l7.7,21.3l5.9-6.4
		c0,0,15.4-5.7,19.6-7.3c0.2,0.4,1.1,3.1,1.3,4c-0.9,0.9-21.8,24-21.8,24l6.2,17.4c0,0,5.5-8.1,5.5-8.6c0.4-0.4,17.6-18.5,18.9-19.8
		C229.1,610.2,236.6,613.1,243,610.7 M242.8,589.1c-0.9,2.4-2.9,4.2-5.7,5.3c-3.1,1.1-6.4,0.9-8.8-0.4l0,0c-2-1.1-3.3-2.6-4.2-4.8
		c0,0-1.3-3.7-2-5.5c2-0.7,16.9-5.7,18.7-6.4c0.4,1.5,1.8,4.8,1.8,4.8c0.7,1.5,0.9,2.9,0.9,4.2C243.2,587.4,243.2,588.2,242.8,589.1
		z"/>
	<path class="st0" d="M298.9,670.7c0,0-25.1,8.8-25.3,8.8c0-0.2-7.5-2-7.5-2l-0.9-0.2c0,0-3.1,6.4-3.3,7c-0.9,0.2-21.1,7-21.1,7h0.2
		c-0.9,0-2.6,0.2-6.4,0.9l-3.1,0.4l12.8,14.7c0,0,3.1-6.4,3.3-7c0.7-0.2,8.1-3.3,9.2-3.7c0.9,1.1,12.8,14.5,13.6,15.6
		c-0.7,1.1-4.4,7.9-4.8,8.6c-0.9,0.2-7.5,2.2-7.5,2.2l16.7,19.1c0,0,2.2-9.7,2.2-9.9c0,0.2,4.4-7,4.4-7s6.8-11.2,6.8-11.4
		c0,0.2,6.6-2.4,6.6-2.4l0.9-0.4c0,0-1.3-9-1.3-9.2c0.2,0,11.7-23.5,11.7-23.5l0.4-0.7l-6.6-7.5 M284.8,686.8
		c-2.2,3.7-8.1,14.3-9.5,16.3c-1.5-1.8-7-7.9-8.6-9.9C269.2,692.3,280.6,688.1,284.8,686.8z"/>
	<path id="XMLID_62_" class="st0" d="M401.2,753.5c-0.2,0-8.6,17.2-8.6,17.2s-2.4,5.1-4.2,8.4c-1.1-6.2-8.1-44.7-8.1-44.7l-16.5-8.1
		l0.2,2l0.4,7.7c0-0.2-4.4,8.8-4.4,8.8s-2.6,5.7-3.1,6.4c-0.9,0.2-7.9,3.1-7.9,3.1l2.2,8.6c-0.2,0-5.9,11.4-5.9,11.4L342,781
		l-5.3,3.7l-1.5,1.1l18.7,9.2l-1.1-9.5c0.2,0,11.9-23.5,16.1-32.1c1.1,6.2,9.2,53.7,9.2,53.7l7.7,4c0,0,12.5-25.5,12.5-25.7
		c0.2,0.2,6.4-2.6,6.4-2.6l0.9-0.4l-2-7.9c0.2,0,5.1-9.7,5.1-9.7l3.1-6.4c0.2,0,5.1-4,5.1-4l1.5-1.1l-18-9.2
		C400.5,744.2,401.2,753.5,401.2,753.5"/>
	<path id="XMLID_61_" class="st0" d="M517.6,805.6l-0.2,5.9V823c-1.3,0.4-2.9,1.5-7.5,1.5c-11.4,0-18.3-10.3-19.8-20.5l5.1-5.1
		l0.7-0.7c0,0-4.6-5.5-5.3-6.4c0-0.2,0.4-2,0.4-2c2.4-8.1,8.8-16.7,19.6-16.5c7.7,0.2,13.6,2,16.3,5.3l0.9,1.1l2,2.4l0.4-12.3
		l-0.9-0.4c-5.5-3.7-10.3-5.1-18.9-5.3c-16.5-0.2-31.5,9.9-36.5,24.6l-0.9,3.1c0-0.2-4.8,4.8-4.8,4.8l-0.7,0.7l5.3,6.8
		c2.9,16.5,18.7,29,36.7,29.3c12.8,0,16.5-1.8,20.7-4l2.4-1.3c0,0,0.2-23.1,0.2-23.3c0.2,0,3.3-5.5,3.3-5.5l1.1-1.8l-24-0.2
		C513.4,797.7,517.6,805.6,517.6,805.6"/>
	<path id="XMLID_60_" class="st0" d="M649,788c0-0.2-10.1,4.2-10.1,4.2s-4,1.8-5.5,2.4c-0.4-1.1-7.5-17.8-8.1-19.8
		c1.8-0.7,10.8-4.6,10.8-4.6l6.6-0.2h1.8l-5.7-13.9c0,0-6.2,5.7-6.4,5.7l-10.3,4.4h-0.2c-0.9-1.8-6.2-14.1-6.8-16.1
		c1.5-0.7,15.4-6.6,16.1-6.8c0.7,0,11.7,0.7,11.7,0.7l-5.7-13.4l-1.5,0.7l-42.2,18.3l7.5,5.5c0,0.2,6.8,16.3,7.5,17.8
		c-0.4,0.9-3.7,7.7-3.7,7.7s7.5,2.6,8.4,3.1c0.4,0.9,7.5,18.5,7.5,18.5l-0.7,6.4l-0.2,2l43.1-18.9l-5.5-13
		C656.9,778.8,649,788,649,788"/>
	<path class="st0" d="M734.3,687.7c0.9-2.6,1.5-5.3,1.5-7.7c0-5.1-1.8-9.5-5.3-12.5c-3.5-2.9-7.5-4.2-12.1-3.3
		c-6.4,0.9-13.4,5.5-19.1,12.1l-16.1,18.9l8.1,2.4l0,0c0,0.2,13.4,11.9,13.6,12.1c0,0,0,0.2,0,0.4c0,1.5,0.7,7,0.7,7l0.2,1.1
		c0,0,8.1-0.7,9-0.9c0.7,0.7,15.4,13.2,15.4,13.2c0,0.2,2.6,5.5,2.6,5.5l0.9,1.5l15-17.2l-8.4-2.2c0,0-12.5-10.8-15.8-13.6
		c0.7-0.7,2.2-2.6,2.9-3.3c1.3,0.2,31.7,7.3,31.7,7.3l12.1-13.9c0,0-9.9-0.7-10.1-0.7C760.7,694.5,736.3,688.1,734.3,687.7
		 M723.3,688.8c0,2.2-0.7,4.2-2.2,5.9c0,0-2.4,3.1-3.7,4.6c-1.5-1.3-13.2-12.1-14.7-13.4c0.9-1.1,3.3-3.7,3.3-3.7
		c2-2.2,4-3.5,6.2-3.7c2.4-0.4,5.1,0.4,7.3,2.4C721.8,682.8,723.3,685.7,723.3,688.8L723.3,688.8z"/>
	<path id="XMLID_57_" class="st0" d="M816.2,584.7c-2.4-5.5-7-9.5-13-11.2c-2.6-0.9-5.9-0.7-7.9-0.2l0,0c-3.3,0.9-6.4,3.1-7.7,4.2
		l-4.2,4c0,0.2-1.3,1.8-2,2.2c-0.9,0-5.9,0-5.9,0s-2,7.7-2,7.9c-0.2,0-0.7,0.7-0.7,0.7c-4.6,4.8-7.7,4.8-9,4.4
		c-2.9-1.1-7.9-5.7-5.5-12.3c2-5.5,4.2-8.4,7.7-10.6l0.9-0.4V572l-2.6-5.7l-1.5,0.9c-4.4,2.4-8.4,8.1-11,16.1
		c-3.5,10.8-1.5,24.6,9.7,29c1.8,0.7,4.4,1.3,6.8,0.9c3.1-0.7,6.2-2.2,9-4.6l1.8-1.8c0,0,0.7-0.7,0.9-0.7c0,0.2,5.1,0.2,5.1,0.2h0.9
		l2.4-8.6l5.9-6.6c2.2-2.2,5.5-3.3,7.5-2.9c3.5,0.9,5.7,3.1,7.3,5.7c1.8,3.5,2,7.7,0.7,12.3c-2.9,7.9-8.4,10.6-12.5,11.2l-1.5,0.2
		l-0.2,1.5l2.4,5.9l1.3-0.2c4.8-0.4,13.6-6.4,17.2-18C818.8,598.8,818.8,590.9,816.2,584.7"/>
	<path id="XMLID_56_" class="st0" d="M299.3,320.5c0-0.2-15.6-13.4-15.8-13.6c0,0,0,0,0-0.2c0-1.1-1.1-6.8-1.1-6.8l-0.2-1.1
		c0,0-7,0.7-7.9,0.9c-0.7-0.7-11.4-9.7-13-11c1.1-1.5,6.4-7.7,6.4-7.9l8.4-3.7l1.8-0.9l-11.2-8.8l-0.7,0.9l-34.3,41.6l11,9l2.6-10.6
		c0,0,5.1-5.9,6.8-7.9c1.5,1.3,12.3,10.1,13,10.8c0,0.9,0.9,7.9,0.9,7.9s7.3-0.2,7.9-0.4c0.7,0.7,15.8,13.2,15.8,13.2
		c0,0.2,2.6,5.9,2.6,5.9l0.9,1.8l14.7-17.6C307.7,321.8,299.3,320.5,299.3,320.5"/>
	<path id="XMLID_55_" class="st0" d="M348.4,237.5c-0.4,0.9-3.1,7.9-3.1,7.9s7.5,2.2,8.4,2.4c0.4,0.9,9,18.5,9.2,18.5
		c-0.2,0-0.2,5.7-0.2,5.7v2l40.9-21.6l-6.2-12.5l-6.8,9.2c0,0-13.2,6.8-15.8,8.4c-0.9-1.8-9-17.6-9.9-19.4
		c1.8-0.9,11.2-5.9,11.2-5.9l5.9-0.7l1.8-0.2l-6.2-12.1l-5.5,5.7c0,0-8.6,4.4-11,5.7c-0.9-1.8-7.3-13.9-8.1-15.6
		c1.8-0.9,16.5-8.6,16.5-8.6h9h2l-6.6-13l-1.1,0.7l-40.5,21.3l7.3,4.6C339.6,220.1,347.3,235.1,348.4,237.5"/>
	<path class="st0" d="M602.1,247.6c0.7-0.7,6.6-6.6,7.5-7.5c1.3,0.7,18.5,8.6,19.8,9.2c-0.2,1.3-1.1,9.7-1.1,10.3
		c-0.7,0.4-5.7,4.8-5.7,4.8l21.6,10.1l-1.8-9c0,0,2.9-20.7,2.9-20.9c0.2,0.2,5.9-5.1,5.9-5.1l0.9-0.7l-5.9-7.5
		c0.2,0,1.5-27.3,1.5-27.3v-0.9l-8.4-4l-0.7,0.4L617.9,219c0-0.2-7.9,1.1-7.9,1.1l-1.1,0.2c0,0,0,7,0,7.9
		c-0.7,0.7-16.3,14.7-16.3,14.7c0.2-0.2-5.5,3.5-5.5,3.5l-1.8,1.1l16.3,7.7C601.9,255.1,602.1,248.5,602.1,247.6 M616.6,233.3
		c2-1.8,12.5-11.9,16.1-15c-0.4,4.6-2.2,18.9-2.4,21.3C628.1,238.8,619,234.4,616.6,233.3z"/>
	<path id="XMLID_52_" class="st0" d="M715,338.7c5.3,1.5,10.6,1.1,15.6-1.8c2.4-1.3,4.6-3.7,5.5-5.3c1.8-3.1,2.4-7,2.4-8.1v-5.7
		c0,0-0.2-2.4-0.2-3.1c0.7-0.7,4.2-4.2,4.2-4.2s-4-6.6-4-6.8c0,0,0-0.2,0-0.4s0-1.1,0-1.3c0-5.1,1.3-8.6,4-9.7
		c3.1-1.3,10.1-1.1,13.2,5.3c2.6,5.5,3.1,9.2,2,13.4l-0.2,1.1l5.9,2.2l0.4-1.1c2-6.4-1.3-14.5-3.3-18.9
		c-4.8-10.1-15.8-18.3-26.6-13.6c-1.5,0.7-4,2-5.3,4c-1.8,2.4-2.9,5.9-3.1,9.5l-0.2,2.4c0-0.2,0,1.1-0.2,1.3
		c-0.2-0.2-3.7,3.1-3.7,3.1l-0.7,0.7l4.2,7.7c0,0,0,0,0,0.2c0,1.5,0.4,8.8,0.4,8.8c0,3.3-1.5,6.6-3.5,7.9c-2.4,1.5-5.7,2-8.8,1.3
		c-2.9-0.7-7-2.9-10.3-9c-3.7-8.1-1.3-14.1,1.1-17.6l0.9-1.1l-6.4-2.6l-0.7,0.7c-3.5,4.4-4.6,14.5,0.4,24.4
		C702.4,330.8,708.4,336.5,715,338.7"/>
	<path id="XMLID_51_" class="st0" d="M483.9,230.5c0.7-0.9,11.7-15,13.2-17.2c1.5,2.4,11.9,17.6,11.9,17.6l0,0
		c0,0.7,0.4,4.8,0.4,4.8v1.1h22.7l-8.4-8.1c0,0-12.5-18.7-14.7-22c0.7-0.9,2.9-4.6,2.9-4.6s-2.9-3.3-3.7-4.2
		c1.1-1.5,15.2-20.5,15.2-20.5l6.6-7.5h-20.5l0.7,1.5c0,0,1.5,3.7,2,4.8c-0.7,0.9-10.8,14.3-12.3,16.5c-1.5-2.4-11-16.7-11-16.7
		s0,0,0-0.2c0-0.7-0.4-4.8-0.4-4.8l-0.2-1.1H467l6.8,7.7c0,0,11.7,17.8,13.9,20.9c-0.7,0.9-2.9,4.6-2.9,4.6s3.3,3.3,4.4,4.2
		c-1.1,1.5-16.3,21.6-16.3,21.6l-5.7,5.5l-2.2,2l20.2-0.2C485.5,236.6,484.2,231.3,483.9,230.5"/>
	<polyline id="XMLID_50_" class="st0" points="785.2,381.6 794,408.5 822.1,408.5 799.2,425 808,451.8 785.2,435.1 762.5,451.8 
		771.1,425 748.4,408.5 776.6,408.5 	"/>
	<polyline id="XMLID_49_" class="st0" points="212.4,381.6 221.2,408.5 249.4,408.5 226.5,425 235.3,451.8 212.4,435.1 189.5,451.8 
		198.3,425 175.5,408.5 203.6,408.5 	"/>
	<path class="st2" d="M723.8,836.6h-7.7v20.9h-5.3v-20.9h-7.7v-4.4h20.5 M758.8,857.8h-5.3v-20.2h-0.2l-7.3,20.2h-5.1l-7-20.2h-0.2
		v20.2h-5.3v-25.5h9l5.9,16.7l0,0l6.2-16.7h8.8L758.8,857.8L758.8,857.8z"/>
	<path id="XMLID_46_" class="st2" d="M483.7,262.8c0,0-3.5-2.9-5.9-4.6c-1.8,0.2-3.5,0.4-5.3,0.7c1.5,0.7,7.7,3.1,8.4,4.4"/>
	<path id="XMLID_45_" class="st2" d="M472.7,266.1c0,0-3.7-3.3-9-6.2c-2.2,0.2-4.4,0.7-6.4,1.1c4,1.1,7.7,3.5,11.7,5.3"/>
	<path id="XMLID_44_" class="st2" d="M451.4,272l6.4-2c0,0-8.4-4.2-11.4-4.2c-1.5-0.7-2.4-1.3-3.5-1.5c-2.9,0.7-5.7,1.5-8.6,2.4
		c1.8,0.2,5.7,1.1,7.3,2.6C445.7,268.5,448.7,270.5,451.4,272"/>
	<path id="XMLID_43_" class="st2" d="M434.7,279.5l6.6-2.2c-0.7-1.1-9.2-4.8-13.9-4.8c-1.8-1.3-3.5-1.8-5.1-2
		c-2.4,0.9-5.1,1.8-7.5,2.6c0.9,0.2,5.5,1.3,7.7,3.1C426.9,275.3,431.6,277.5,434.7,279.5"/>
	<path id="XMLID_42_" class="st2" d="M404.5,282.4c4.8-0.4,10.1,2.4,13.2,4.4l7-1.8c-3.7-3.3-10.6-5.9-14.5-5.7
		c-1.5-2.4-5.1-1.1-7.3-1.5l-8.6,4C395.5,281.7,403.6,280.2,404.5,282.4"/>
	<path id="XMLID_41_" class="st2" d="M401.2,297.6l6.2-4.6c-4.8-2.6-12.1-4-16.1-3.7c-2-0.7-1.8-1.3-4-1.5l-8.4,4.6
		c1.1,0,8.1,0.2,9,2.2C392.8,294.1,398.1,295.8,401.2,297.6"/>
	<path id="XMLID_40_" class="st2" d="M365.8,311.2c5.7-1.1,14.1-3.3,22.2-1.5l6.2-5.5c-9.2-1.5-18.9-1.1-23.8,0.2
		c-1.1-1.8-4-3.7-4-3.7l-5.7,4.8C363.4,306.4,364.2,308.8,365.8,311.2"/>
	<path id="XMLID_39_" class="st2" d="M349.5,329.5c4.6-2.2,15-4,25.5-2.6l5.3-6.8c-15.8-1.1-22.2,0.9-27.3,3.3
		c-1.8-2.9-4.2-4.6-4.2-4.6l-4.8,4.4C346.9,324,348,327.1,349.5,329.5"/>
	<path id="XMLID_38_" class="st2" d="M338.7,342.9c-1.5-2.9-4.6-5.7-4.6-5.7l-3.7,5.9c3.5,2,3.1,4.2,4.8,6.6
		c4.6-2.4,14.3-6.8,24.9-5.5l5.3-6.8C349.1,337.6,340,339.2,338.7,342.9"/>
	<path id="XMLID_37_" class="st2" d="M327.3,363.6c-1.8-4-6.2-8.6-6.2-8.6l-2.9,6.8c2.4,2,4.2,6.6,5.7,9c4.6-2.4,10.8-7,21.1-5.5
		l4.8-8.1C337,357.2,328.4,359.8,327.3,363.6"/>
	<path id="XMLID_36_" class="st2" d="M317.4,383.8c-2.2-5.3-6.8-9.7-6.8-9.7l-2.9,7.5c3.5,2,4.2,6.6,5.7,8.8
		c4.6-2.2,11.7-6.6,22.2-5.3l4.4-7.9C327.5,377.2,318.7,380.1,317.4,383.8"/>
	<path id="XMLID_35_" class="st2" d="M307.9,408c-2.4-4.6-7.5-10.6-7.5-10.6l-2.4,7.9c3.5,2,5.1,6.6,6.8,9
		c4.6-2.4,10.6-6.4,20.9-4.8l3.3-7.5C313.2,403,309,404.3,307.9,408"/>
	<path id="XMLID_34_" class="st2" d="M298.2,429.6c-1.8-2.9-7.5-10.1-7.5-10.1l-1.5,7.9c3.5,2,5.1,6.6,6.8,9
		c4.6-2.4,12.5-6.6,22.9-5.3l2.6-7.7C306.2,424.3,299.6,425.8,298.2,429.6"/>
	<path id="XMLID_33_" class="st2" d="M292.5,455.8c-1.8-2.9-8.8-13-8.8-13l-1.5,8.4c3.5,3.3,6.2,9.2,7.7,11.7
		c4.6-2.4,12.1-9,22.4-7.5l1.5-7C298.7,449.6,296.3,451.2,292.5,455.8"/>
	<path id="XMLID_32_" class="st2" d="M286.3,489.4c2-4,9.7-7.7,20.2-7l1.3-7.7c-12.5,0.7-18,2.6-19.8,6.4c-1.8-2.9-11-12.5-11-12.5
		l-1.3,8.1C281.9,482.2,284.4,487.2,286.3,489.4"/>
	<path id="XMLID_31_" class="st2" d="M282.6,517.4c0.4-0.4,0.9-1.8,2-3.1c2-2.2,7.3-5.5,18.9-5.1l0.7-7c-13.4,0.2-17.6,3.5-18.7,4.6
		c-1.1,0.9-1.5,2.6-1.8,3.7c-2-5.5-10.8-14.3-10.8-14.3l-0.4,7.7C275.3,505.5,281.1,515,282.6,517.4"/>
	<path id="XMLID_30_" class="st2" d="M301.8,562l-0.2-7.7c-10.1-4.4-15.2-3.7-18.9-1.5c-1.8-2.9-11.9-6.6-11.9-6.6l0.4,7.7
		c4.2,0.9,9,3.5,10.8,5.9C286.8,557.4,293.6,557.6,301.8,562"/>
	<path id="XMLID_29_" class="st2" d="M281.5,539.4c2.2-3.7,4.6-5.5,20.2-2.2v-7.5c-18.5-0.9-18,0.7-18.7,3.1
		c-1.5-2.9-12.1-12.1-12.1-12.1l0.2,8.6C274.5,531.5,280,537,281.5,539.4"/>
	<path id="XMLID_28_" class="st2" d="M283.9,581.2c0.9-2.4,3.7-1.1,7.7,0.7c3.3,1.5,5.9,3.3,9.7,5.5l-0.2-7.7
		c-8.4-5.5-16.7-9.7-18-5.7c-1.8-2.9-10.6-6.8-10.6-6.8l2,8.6C279.3,576.6,282.2,578.8,283.9,581.2"/>
	<path id="XMLID_27_" class="st2" d="M285.9,600.6c4-0.4,7.5,1.1,16.1,7.3l-0.7-7.3c-8.8-7.3-13-6.8-16.1-6.8c-1.8-3.1-8.6-7-8.6-7
		l1.1,7.7C281.3,595.7,284.1,597.9,285.9,600.6"/>
	<path id="XMLID_26_" class="st2" d="M644.1,534.3c-2.6-2-7.5-4.6-16.1-14.1l-6.4,4c2.9,2.2,16.1,17.4,22,15c0,0-2.6,18.7-2.2,28.4
		l7-4.6c-0.2-5.1,0-26.4,1.3-31.5C650.1,531.2,645.9,535.4,644.1,534.3"/>
	<path id="XMLID_25_" class="st2" d="M662.8,521.6c-6.6-9.7-11-13.9-14.7-16.5l-4.6,3.5c2,0.7,7.3,5.9,14.7,17.2l4.4-3.7
		c0.7,12.3,1.5,24.2,0.2,29.9l5.5-4.2c1.1-9,0.9-19.6-0.4-29.3"/>
	<path id="XMLID_24_" class="st2" d="M418.6,707.7c-8.8,2.2-16.9-1.8-22.9-3.5l-1.8,5.1c8.6,4.4,16.7,3.7,22.9,2.4
		c3.5,4.8,6.4,7.5,13.9,10.3l2.6-4C425.2,717.4,422.1,713.2,418.6,707.7"/>
	<path id="XMLID_23_" class="st2" d="M424.7,693.6c-8.8,2.2-18-0.9-24.2-2.9l-2.6,5.7c9.2,3.1,17.8,3.7,24,2.4
		c3.1,5.3,6.6,10.1,14.1,13l2.9-5.1C432.7,704.6,426.7,701.3,424.7,693.6"/>
	<path id="XMLID_22_" class="st2" d="M434.7,675.1l-0.9,1.5c-8.8,2.2-19.4,0.2-25.5-1.5l-3.1,5.5c8.6,2.6,15.8,3.1,25.3,2l0.4-0.9
		c3.5,6.4,4.4,10.1,13.2,15.2l4.4-5.1C442.8,689.7,436,680.9,434.7,675.1"/>
	<path id="XMLID_21_" class="st2" d="M443.2,663.7l-0.4,0.7c-8.4,1.5-18.5-2.9-24.6-4.6l-3.5,5.3c8.6,4.4,16.7,4.8,24.2,4.8l0.4-0.7
		c3.1,6.8,6.2,14.1,13.6,16.9l4.4-5.1C451.8,678.9,444.6,669.4,443.2,663.7"/>
	<path id="XMLID_20_" class="st2" d="M427.2,647.6c0.9,0.4,1.5,0.7,2.4,1.1v-4"/>
	<path id="XMLID_19_" class="st2" d="M572.6,606.7c-4.6-4.8-4.4-18.9-4-26.6l-2,1.3c-8.6-1.3-17.8-9.9-22-15.6L544,566
		c0-17.4,0-36.7,0-44.7c0-16.1,22.2-22.2,22.2-22.2s-6.2-2.4-11.9-6.8l-9,2.6c-0.2,0-19.8,5.7-19.8,19.1v78.6c0,5.3,2.2,8.8,13,8.8
		h5.5c0-0.4,0-1.1,0-1.5c0,0,0-10.3,0-23.8c5.5,4.8,11.4,8.8,15.8,9.5l2-1.1c0,9.7-0.7,15.2,1.5,22l-4.6-4.4v47.7H430.3l20.2,19.1
		h8.8c1.3,2.2,2.9,3.7,4.6,4.2l4.2-4.2h106.3v-52.4l-7.7-7"/>
	<path id="XMLID_18_" class="st2" d="M597.9,566l-2.2,1.3c-8.6-1.3-17.8-9.9-22-15.6l-7.9,3.3c7.3,7.5,16.7,15.8,23.3,16.5l2-1.1
		c0,11.2-1.3,16.9,2.9,25.5l7.9-3.3C597.3,587.8,597.5,573.5,597.9,566"/>
	<path id="XMLID_17_" class="st2" d="M627.8,551.3l-0.2-0.4c-2.9,0.9-6.4,0.2-9.7-2.6c-3.1-2.6-13.9-15.2-13.9-15.2l-8.8,4.8
		c5.1,5.3,21.6,18.3,25.1,18.5l0.4-0.4c0,11-1.3,16.7,2.9,25.3l7.9-3.3C627.2,573.1,627.4,558.7,627.8,551.3"/>
	<path id="XMLID_16_" class="st2" d="M678,509.5c-3.3-5.7-9.9-13.2-15-16.7l-4.6,4c4.6,2.6,13.9,11.4,16.7,18l3.1-3.3
		c0.9,10.8,0.9,22.9-0.4,28.6l5.5-4.4c0.9-9.7,0.2-21.1-1.3-29.3"/>
	<path id="XMLID_15_" class="st2" d="M691.9,498.5c1.3,3.7,2.4,8.1,1.3,29.9l5.3-5.1c0.2-16.5-0.7-20.9-2.4-29"/>
	<path id="XMLID_14_" class="st2" d="M705.3,484.6c2.4,8.4,4,22.4,2.6,30.6l4.8-6.4c0.9-9.2-2-20.7-3.7-29"/>
	<path id="XMLID_13_" class="st2" d="M715.6,469.4l-2,3.3c5.3,6.8,7.5,14.5,7.9,24.9l3.7-5.7C725.3,481.1,718.3,467,715.6,469.4"/>
	<path id="XMLID_12_" class="st2" d="M722.2,458.4l-1.1,1.3l0.9-1.3c-2.9-5.7-6.4-11.9-11.9-15.8l-2.9,4c4.4,2.9,9.2,9.5,12.1,16.3
		l1.5-2.4c2.4,2.2,6.8,5.3,9.9,22.2l2.2-5.7C730.2,460.8,722.9,454.9,722.2,458.4"/>
	<path id="XMLID_11_" class="st2" d="M728.2,445.9l-0.4,1.3c-2.9-5.7-4.6-9.5-11-15.4l-2.2,3.5c5.9,5.3,8.6,8.4,11.4,16.1l1.3-2.9
		l-0.2,0.4c3.3,2.9,7,7.3,9.5,19.4l1.8-6.8C737.6,452.7,729.5,442.8,728.2,445.9"/>
	<path id="XMLID_10_" class="st2" d="M675.8,480l-4.6,4c4.6,2.6,13.9,11.4,16.7,18l3.7-4C688.8,492.5,681.3,483.7,675.8,480"/>
	<path id="XMLID_9_" class="st2" d="M689.4,467l-4.4,3.5c3.1,2,14.1,11.2,16.7,18l3.3-4.6C702.4,478.2,695.2,471,689.4,467"/>
	<path id="XMLID_8_" class="st2" d="M711.7,475.6l2.6-4c-2.9-5.7-7.7-13-13-16.9l-3.7,4C702,461.3,708.8,468.8,711.7,475.6"/>
	<path id="XMLID_7_" class="st2" d="M730.6,438.8l1.8-3.5c-2.9-5.7-4.4-7.3-10.8-13.9l-1.1,3.5C724.7,428.9,727.7,432,730.6,438.8"
		/>
	<path id="XMLID_6_" class="st2" d="M731.7,437.1c2,1.3,4,3.5,5.9,6.6c-0.7-2.6-1.3-5.3-2-7.7l-2.4-2.6"/>
	<path id="XMLID_5_" class="st2" d="M729.5,416.4c-0.9-1.1-2.2-2.6-4-4.4l-0.9,3.3c3.3,3.5,6.6,7.5,9.2,13.2
		C732.4,424.5,731,420.3,729.5,416.4"/>
	<polyline id="XMLID_4_" class="st2" points="586.9,459.5 606.3,477.8 638,477.8 638,373.3 620.6,357 620.6,459.5 	"/>
	<path id="XMLID_3_" class="st2" d="M525.7,468.3c0,12.3,20,20.2,20,20.5l8.1,3.3c-5.1-4-9.9-9.5-9.9-16.3c0-14.7,0-66.9,0-66.9
		l3.1,0.2c12.3,1.1,21.1,4.4,27.3,9c-10.1-10.1-26.6-15.8-49.1-15.8C525.7,408.7,525.7,468.3,525.7,468.3"/>
	<path id="XMLID_2_" class="st2" d="M462.2,402.1c-40.9,0-57.4,14.1-57.6,49.3v7.9H364l18.5,17.4H421v-6.4
		c0-36.1,3.5-58.7,41.6-62.5c0-2.6,0-4.8,0-5.7H462.2"/>
	<path id="XMLID_73_" class="st1" d="M519.1,592.6v-78.6c0-12.3,10.6-19.1,17.8-22.4c-7.3-4-17.8-11.7-17.8-23.1v-72.8l3.5,0.2
		c0,0,3.1,0.2,2.9,0.2c42.9,0,67.5,19.4,67.5,53.2c0,0,0,2,0,3.7c4.4,0,16.5,0,20.9,0c0-5.9,0-84.1,0-90c-6.4,0-237.2,0-243.6,0
		c0,5.9,0,84.1,0,90c4.8,0,23.5,0,27.9,0c0.2-1.8,0.2-3.7,0.2-3.7l-0.7,1.8c0-38.3,19.8-55.4,64-55.4h7v72.8
		c0,12.5-9,19.6-15.6,23.3c6.6,3.3,15.6,9.9,15.6,22.4v77.9c0,10.1-7,16.1-18.7,16.1c0,0-10.1,0-14.3,0c0,5.1,0,29.9,0,35
		c5.9,0,109.8,0,115.7,0c0-5.1,0-29.9,0-35c-4.2,0-13.6,0-13.6,0C525.7,608,519.1,603,519.1,592.6"/>
</g>
</svg>
