<?xml version="1.0" encoding="utf-8"?>
<!-- Generator: Adobe Illustrator 24.2.0, SVG Export Plug-In . SVG Version: 6.00 Build 0)  -->
<svg version="1.1" id="katman_1" xmlns="http://www.w3.org/2000/svg" xmlns:xlink="http://www.w3.org/1999/xlink" x="0px" y="0px"
	 viewBox="0 0 1000 1000" style="enable-background:new 0 0 1000 1000;" xml:space="preserve">
<style type="text/css">
	.st0{clip-path:url(#SVGID_2_);fill:#144A8D;}
	.st1{fill:#FFFFFF;}
	.st2{fill:#144A8D;}
	.st3{fill:#212F5B;}
	.st4{fill:#E52D21;}
</style>
<g>
	<g>
		<defs>
			<rect id="SVGID_1_" x="134.1" y="131.7" width="731.7" height="736.5"/>
		</defs>
		<clipPath id="SVGID_2_">
			<use xlink:href="#SVGID_1_"  style="overflow:visible;"/>
		</clipPath>
		<path class="st0" d="M561.2,139.4c-48.7-8.4-97.7-7-145.5,4.2c-49.6,11.6-95.5,33.2-136.4,64.1c-77.7,58.7-128,144.1-141.5,240.6
			c-13.5,96.5,11.4,192.4,70.1,270.2c56,74.2,137.3,123.8,228.8,139.6c48.7,8.4,97.6,7,145.5-4.2c49.6-11.6,95.5-33.1,136.4-64
			c77.7-58.7,128-144.1,141.5-240.6c13.5-96.5-11.5-192.4-70.1-270.2C734,204.8,652.7,155.2,561.2,139.4"/>
	</g>
	<path class="st1" d="M846.8,547.3c-13,92.9-61.4,175.3-136.3,231.8c-39.5,29.8-83.7,50.6-131.5,61.8c-5.8,1.3-11.5,2.6-17.3,3.6
		c-40.6,7.4-81.8,7.5-122.8,0.5c-66.1-11.5-126.7-41.2-175.7-85.5c-16.3-14.8-31.3-31.2-44.8-49c-46-60.8-70.4-133.3-71-208.2
		c-0.1-17.3,1-34.7,3.5-52.1c10.6-75.9,44.8-144.8,97.9-198.3c11.9-12,24.7-23.2,38.4-33.5c26.6-20.1,55.3-36,85.8-47.7
		c14.8-5.7,30.1-10.4,45.7-14c46.2-10.8,93.3-12.2,140.2-4c88.2,15.2,166.5,63,220.4,134.5C835.9,361.9,859.9,454.4,846.8,547.3"/>
	<path class="st2" d="M819.5,626.9c10.2-25.6,17.4-52.5,21.3-80.5c4-28.5,4.5-57,1.5-84.9v-0.1c-0.1-0.6-0.2-1.2-0.3-1.8
		c-6.8-60.8-29.8-118.9-67.6-169c-42-55.5-98.9-96.5-163.7-118.6c-17.1-5.8-34.8-10.4-52.9-13.5c-2.9-0.5-5.8-1-8.8-1.4
		c-17.6-2.6-35.4-3.7-53-3.6c-9.7,0.1-19.3,0.6-29,1.5c-4.1,0.4-8.3,0.9-12.4,1.4c-1.7,0.2-3.4,0.4-5.1,0.7
		c-57.1,8.3-111.9,30.7-158.6,66c-24.1,18.2-45.3,39.1-63.5,62.1C189.9,332.8,165.6,389.5,157,451c-4,28.5-4.5,57-1.4,85
		c3.3,31.4,11,62,22.8,91.2c11.3,28,26.3,54.8,45,79.5c21.6,28.5,47,53.2,75.5,73.5c10.4,7.4,21.2,14.2,32.3,20.4
		c33.5,18.6,70.2,31.6,108.8,38.2v0.1c8.8,1.5,17.6,2.6,26.4,3.5c14.6,1.4,29.2,1.8,43.7,1.3c3.8-0.1,7.5-0.3,11.3-0.6
		c66.6-4.5,131.5-28.1,185.4-68.9c5.3-4,10.6-8.2,15.7-12.5C765.8,724.9,798.9,678.8,819.5,626.9"/>
	<path class="st1" d="M698.8,763.5c-74,55.9-165.1,78-256.5,62.1c-83.3-14.4-157.2-59.5-208.2-127c-53.4-70.8-76-158.1-63.8-245.8
		c12.3-87.8,58-165.5,128.7-218.9c74-55.9,165.1-77.9,256.5-62.1c74.2,12.8,141,50,190.7,105.7c0.2,0.2,0.3,0.3,0.4,0.5
		c6,6.7,11.7,13.6,17.1,20.9c53.4,70.7,76.1,158.1,63.8,245.8C815.2,632.4,769.5,710.2,698.8,763.5"/>
	<path class="st3" d="M336.8,412.1c-10.5,4.5-16,9.7-23.9,22.3c-86.4,14.3-116,28.1-123.8,36.7c-1.1,1.6-0.6,2.3,0.4,2.6
		c28.7-1.2,69-2.6,139.5-0.3c5.8,0.1,11.5,0.2,17.1,0.3c3.6-4.7,10-8.8,22.3-8.8h3.6c22.8,0.3,27.1,23.7,51.3,23.7
		c24,0,28.4-23,50.7-23.7c0.8,0,1.5,0,2.2,0h83.6l-1.1-13.9H475c-23.2,0-27.3-23.8-51.7-23.8c-24.1,0-28.3,23.6-51,23.6H372
		C348.2,449.3,338.8,429.1,336.8,412.1L336.8,412.1z M191.4,477c-2.9,0-3.7,1.1-0.5,3.6c13.7,10,60.3,28,117.4,38.6
		c27.5,5.1,40,12.7,59.7,26.4c42.9,30,101.4,114.7,137.1,219.4c67.6-131.4,146.2-194.3,152.4-199.1l-40.2,3.3l-19.3,1.6l12.4-14.9
		l6.7-8.1l-26-22.5c-14.1,21.6-27.9,45-34.4,63.1l28.6-0.1c-14.7,18.2-43,48.3-62.1,81.6c-19-46.8-63.6-106.9-144.2-140
		c-23.3-9.6-45.4-22.3-42.5-40.8c-40.5-5.8-84.8-10.5-135-12.1C197.7,477.1,194.4,477,191.4,477L191.4,477z M191.4,477"/>
	<path class="st1" d="M414,438c-5,3.4-8.7,9.7-8.5,15.8h8.1C413.3,450.8,412.3,444.9,414,438"/>
	<path class="st2" d="M507.4,191.7l-16.1,1c1.2,1.4,1.6,3.2,1.9,6l1.5,25.9l-38.6-30.2l3.2,54.6c0.1,2.6-0.1,5.2-2,7.3l17-1
		c-1.6-1.7-1.8-3.6-2.1-7v-0.1l-1.4-25l38.5,30.2l-3.2-55.3C506,196,506.2,193.5,507.4,191.7L507.4,191.7z M537.3,194.4l-5.4,13.4
		c3.2-1.4,5.6-1.3,9-0.7l9,1.8l-8.4,41.8c-0.6,3.2-1.8,5.2-4,6.5l18.4,3.7c-1.3-1.9-2-4.6-1.4-7.6l8.4-41.7l10,2
		c3.5,0.7,6.1,2.7,7.8,4.3l0.2-14.7L537.3,194.4z M404.6,209c-10.2-0.4-20.4,4.1-26.9,12.9c-10.5,14.1-7.6,34.1,6.4,44.5
		c14,10.4,33.9,7.4,44.4-6.7c10.5-14.1,7.6-34.1-6.4-44.4C416.8,211.3,410.7,209.3,404.6,209L404.6,209z M621.6,220.2
		c-10.2-0.4-20.4,4.1-27,12.9c-10.5,14.1-7.6,34.1,6.4,44.5c14,10.4,34,7.4,44.4-6.8c10.5-14.1,7.6-34-6.4-44.4
		C633.8,222.5,627.7,220.5,621.6,220.2L621.6,220.2z M404,222c3.7,0.1,7.3,1.3,10.4,3.6c8.2,6.1,10,18.3,3.9,26.5
		c-6.1,8.3-18.3,10.1-26.5,4c-8.2-6.1-10-18.3-3.9-26.5C391.7,224.4,397.9,221.7,404,222L404,222z M620.9,233.2
		c3.7,0.1,7.3,1.3,10.4,3.6c8.2,6.1,10,18.3,3.9,26.5c-6.1,8.2-18.3,10-26.5,3.9c-8.2-6.2-10-18.3-3.9-26.5
		C608.6,235.5,614.8,232.9,620.9,233.2L620.9,233.2z M329.8,249.4c-2.5,0.1-5.2,0.6-7.9,1.7c-0.7,0.3-4.2,1.8-6.9,3.8l-0.2,0.2
		L298,267.2c2.1,0.5,4.6,1.3,6.3,3.7l29.1,40.5c0.7,1.5,1.2,3.4,0.8,5.5l14.9-10.8c-2.9-0.3-4.5-1.9-6.3-4.2l-12.6-17.4l32.7,11.6
		l14-10.2c-2.3-0.1-5.1-0.6-8.2-1.5l-21.6-7.4l0.4-1.1c2.6-6.6,1.4-11.5,1.1-12.4c-0.6-2.2-1.7-4.2-3.1-6.2c-1.9-2.6-4.2-4.6-6.9-6
		l-0.4-0.2c-2.1-1-4-1.6-6-1.8C331.5,249.4,330.6,249.4,329.8,249.4L329.8,249.4z M329.3,262.3c1.2,0,2.4,0.4,3.6,1.1
		c2.2,1.2,3.1,4.1,3.2,4.7c0.1,0.5,0.6,4.9-4.7,8.8l-4.5,3.3l-8.8-12l4.2-3.1C325.1,263.2,327.3,262.3,329.3,262.3L329.3,262.3z
		 M689.5,278.1C626,351.8,448.8,350.9,402.9,366c-30.1,9.9-45.6,26.3-56.2,42.5c-1.1,16.7,11.1,32.7,25.4,32.7c0,0-3.8-9.5,1.1-19.1
		c1.9-3.7,5.3-7.1,10-10c35.4-24.2,111.1,0.4,111.1,0.4c-17.8-1.6-32.5-1.3-44.9,0.4c21,6.5,43.4,15.4,58.6,19.1
		c18.7,4.6,31.1,6.9,49.8,8l-0.6-7.3l10.3,1.8l27.6,4.7l4.1-10.4l4.5-11.4l8.8,8.5c0.2,0.2,13.8,13.4,20.9,20.3
		c-1.2-13-4.5-46.1-4.5-46.5l-1.3-13.4l12.5,5l13.6,5.5l20.4-33.4l6.9-11.3l6.9,11.3l16.4,26.9c5.7-23.3,9.9-48,21.9-59.5
		c-12,0.4-20.5,3.9-33.6,13.1c7.5-20.2,18.5-35.1,33.4-52.2c-14.5,2.2-28.3,6.4-41.9,14.1C689.1,293.4,689.5,278.1,689.5,278.1
		L689.5,278.1z M280,302.6c-10.2-0.4-20.4,4.1-27,12.9c-10.4,14.1-7.5,34,6.4,44.5c14,10.4,33.9,7.3,44.4-6.8
		c10.5-14.1,7.6-34.1-6.4-44.4C292.2,304.9,286.2,302.9,280,302.6L280,302.6z M279.4,315.5c3.7,0.2,7.3,1.3,10.4,3.6
		c8.3,6.2,10,18.3,3.9,26.5c-6.1,8.3-18.3,10.1-26.5,3.9c-8.2-6.1-10-18.2-3.9-26.5C267.1,317.9,273.3,315.3,279.4,315.5
		L279.4,315.5z M224.7,361.7l-16.9,41.2l12.1,7.8c-0.7-3.4-0.2-5.8,1-9l3.4-8.5l39.4,16.1c3.2,1.3,4.8,3.1,5.5,5.3l7.2-17.6
		c-2.2,0.9-4.9,1.1-7.7,0L229.4,381l3.9-9.4c1.3-3.3,3.8-5.5,5.7-6.9L224.7,361.7L224.7,361.7z M274.6,570.2c0,3.7-1.7,7.3-6.3,9.3
		l-55.7,26.4c-5.2,2.4-9.3,1.8-12.7-1.6l13.6,28.7c11,23.1,29.1,22,37.2,18.2v0c6.2-2.9,10.8-8,12.4-15.5c0,0,5.9,2.7,14.5-1.3h0v0
		c12.6-6,17.2-21.9,10.3-36.2L274.6,570.2z M273.5,585.8l7.5,15.7c4.8,10.1,1.7,21.2-7,25.3c-5.2,2.4-10.4,1.6-16.1-2.6l-0.6-0.5
		l0.1,0.8c1.1,8.1-2.8,15.3-10.4,19c-10.2,4.8-20.1-0.2-26.5-13.7l-7.3-15.3L273.5,585.8z M271.8,590.5l-23.4,11.1l5.9,12.5
		c4.1,8.7,11.6,12.5,18.2,9.4c6.9-3.3,9.2-12.3,5.3-20.5L271.8,590.5z M726.7,593.6l-1.9,0.2c-8.1,1.1-17.1,7.5-21.5,15.3
		c-3.3,5.9-4.8,11.8-4.5,17.3c0.4,7.5,3.9,13.9,10.1,18.3c0.9,0.6,1.8,1.2,2.8,1.8c14.6,8.2,23.9-0.1,31.3-6.7l0.6-0.6
		c6.1-5.4,10.3-8.1,14.4-5.8c2.5,1.4,3.7,6.1,1.6,10.3c-1.8,3.4-4.4,4.7-5.2,5.1c-4.3,2.3-11.1-0.7-11.2-0.7l-0.1-0.1l3,10.3h0.1
		c2.7,0.3,7.4-0.8,7.4-0.8h0c5.4-1.2,9.6-4.4,12.5-9.5c0.1-0.2,0.2-0.4,0.3-0.5l0.2-0.3c4.4-8.1,2.6-17.1-4.3-21
		c-5.4-3.1-10.2-3.2-14.6-0.2c-3.8,2.5-8.5,6.5-8.5,6.5c-7.7,6.8-14.3,11.6-23.4,6.6c-4.4-2.4-7.4-6-8.7-10.3
		c-1.4-5-0.5-10.6,2.6-16c1.7-2.8,8-12,19.7-11.8h0.1L726.7,593.6L726.7,593.6L726.7,593.6z M268.2,601l2.5,5.3
		c1.9,4,1.4,7.9-1.9,9.4c-4.1,1.9-7.3-1.9-8.5-4.5l-2.5-5.4L268.2,601z M245.1,603.2L218,616.1l5.7,12.1c3.2,6.8,10.3,17.4,21.7,12
		c12.8-6.1,8.1-19.3,5.4-24.9L245.1,603.2z M730.8,604.8c-3.5-0.1-12.2,0.7-18,10.4c-5,8.2-2.9,16.6,5.1,21.1
		c7.6,4.3,13.3-0.8,18.2-5.3l0.3-0.2l2.3-1.8c0.4-0.3,0.8-0.7,1.2-1.1c4.6-3.9,8.9-7.7,15.3-7.4c0.5,0,4.7,0.3,8.7,2.7
		c4.1,2.4,6.7,5.7,7.8,9.8c1.5,5.4,0.7,11.4-2.4,16.9c-3.2,5.7-8.4,9.7-14.5,11.1c-2.6,0.6-4.1,0.7-7.6,0.9h-0.1l2.5,8.6h0.1
		c15.9-0.8,23.6-12.4,25.6-16c0.4-0.7,0.6-1.1,0.6-1.1c3.1-5.6,4.6-11.6,4.3-17.3c-0.5-8.5-5-15.8-12.3-19.9
		c-17.2-9.7-29.2,1.7-35,7.2l-0.2,0.2c-5.6,5.3-8.3,6.6-11,5.4c-0.6-0.3-0.9-0.5-1.4-0.8c-2.9-2.1-3.2-5.7-0.7-9.7
		c0.5-0.9,5.6-8.1,14.8-3.5l0.2,0.1L730.8,604.8L730.8,604.8z M242.5,613.1l2.4,5c3.1,6.7,2.1,10.4-0.1,12.5
		c-0.8,0.8-2.4,1.8-3.6,1.9c-3.4,0.4-6.6,0.7-10.4-7.7l-2.4-5L242.5,613.1z M305.8,633.1c1.1,3.4,0.4,7-3.6,10.7
		c0,0-0.2,0.2-0.4,0.4c-0.1,0.1-40.9,36.5-45.7,40.7c-4.2,3.5-7.9,3.5-12.5,1.9l34.7,39l6.6-4.2l-25.7-28.9l55.7-49.6L305.8,633.1z
		 M689.2,639.1l-10,9.6l17.7,53l22,22.9l0.1,0l10.6-10.2c-4.6,1.6-8,0.8-11.2-1.9h0L704,697.8l-15.6-46.3
		C688,649.8,686.7,647,689.2,639.1L689.2,639.1z M317.1,645.9l-52.9,47.2l23.7,26.6l11.2-6.9c0,0-7.3-0.4-13.2-6.8l-0.3-0.3
		c0,0-6.5-7.3-10.4-11.7c5.3-4.7,34.7-30.9,39.5-35.2c0,0,0,0,0.1,0c0.1-0.1,0.2-0.2,0.3-0.3c0,0,6.7-5,11-2.4L317.1,645.9
		L317.1,645.9z M676.3,651.6l-12.5,12c3.2-1.4,5.1-1.2,6-1c0.6,0.4,1.9,0.8,3.4,5l7.2,19.6l-19.2-7.9c-3-1.5-4.2-3.5-4.2-3.5
		c-1.2-2.1-0.2-4.4,0.4-6.2l-12.4,11.9l-0.3,0.3l47.7,18L676.3,651.6z M342.7,676c2.2,3.9,2.4,6.6-0.5,11.3c0,0-25.5,40.2-25.5,40.2
		c-8.6,13.8-4.4,28.2,11.2,38.2c15.3,9.8,31.3,8,40-5.7l25.5-40.2c2.8-4.2,6.2-5.8,9.9-5.4l-11.3-7.2l-30,47.3
		c-0.4,0.6-1.1,1.8-1.1,1.8c-5.2,8.3-18,9.6-28.4,3c-3.6-2.3-6.4-5.2-8.4-8.4c-0.1-0.1-0.2-0.2-0.2-0.3c-3.6-6-4.2-13-0.8-18.3
		c0,0,0.2-0.4,1.1-1.7l30-47.3L342.7,676z M642,684.6l-9.8,9.4c5.5-1.8,7.5-1.4,12-0.1l45.8,17.4l13.1,13.7c4.1,4,3.9,8.9,2.6,12.4
		l10.6-10.3l-22-22.9L642,684.6L642,684.6z M357.1,685.1l-30.5,48.1c-4.7,7.4-1.2,17.7,7.5,23.2c8.8,5.5,19.3,4.6,24.2-2.9
		l30.6-48.2l-11.4-7.3c2.5,4.1,2,7.3-0.5,11.3c0,0-16.2,25.6-24.8,39.1c-2.7,3.9-8.9,4.6-13.8,1.5c-4.9-3.1-6.9-9.1-4.5-13.2
		c2.7-4.4,24.2-38.2,24.3-38.3c0.3-0.5,0.4-0.7,0.4-0.7c2.4-3.7,5.4-5.5,10-5.3L357.1,685.1z M605,699.5l4.6,83.8
		c-0.1,8-1.3,12.5-3.5,15.4l12-6.3l-5.2-77.7l61.1,48.2l11.5-6.1c-4.7-0.1-9.3-3-14-6.2L605,699.5L605,699.5z M415.8,719.2
		c2.9,2.7,4.7,6.6,3.6,11c-14.4,60.6-14.3,60.1-14.4,60.4c-0.9,3.2-3.4,7.6-9.2,8.3l54.3,12.9l3.1-7.2l-41.1-9.7l15.4-65l38.9,9.3
		l0.5-7.8L415.8,719.2z M617,722.2l2.5,36.5l26.2-13.8L617,722.2z M573.6,722.5l-13.1,3.2l13.5,54.5c0,0,2.7,7.9-1.5,14.4
		c-3,4.6-7.6,8-14,9.6c-5.9,1.5-13,0.8-18.3-2.7c-2.3-1.6-3.5-2.6-6-5l-4.6,7.7c13.8,13.4,30.8,7.5,30.8,7.5
		c6.3-1.6,11.8-4.6,15.8-8.9c5.3-5.6,7.4-12.8,6.4-20.2c0-0.2-0.4-2.4-0.6-3l-11.5-46.4C569.3,727.6,573.6,722.5,573.6,722.5
		L573.6,722.5z M557.1,726.6l-13.1,3.2c2.8,0.5,6.7,3.5,7.8,8.2l11.4,46c1.1,4.3-2.4,8.2-6.7,9.3c-4.3,1.2-7.6-0.1-7.7-0.1
		c-4.7-1.6-7.1-9-7.1-9l-5.5,9.3c2.2,2.5,6.9,5.5,6.9,5.5c6.2,3.8,12.9,2.3,15,1.8c8.2-2,15.2-9.3,13-18.4
		C570.9,782.5,557.1,726.6,557.1,726.6L557.1,726.6z M430.2,734.3l-6.1,25.6l31.3,7.4l2.6-11.1c0,0-3.6,4-10.2,2.5l-14.5-3.5
		l2.8-11.6l17.5,4.1c9.5,2.3,11.8,7.4,11.8,7.4l0.8-12.4L430.2,734.3z M624.8,737l8.6,6.9l-7.8,4.1L624.8,737z M648.7,747.4
		l-28.8,15.2l1.8,27.9l0.3-0.1l13.4-7.1c-3.2-0.5-6-3.3-6.7-7.7l-0.7-9.8l18.8-9.9l8.2,6.4c2.1,1.7,5.3,5,2,9.7l13.6-7.1l0.3-0.1
		L648.7,747.4z M423.7,763.4l-6.9,28.9l37.9,9l5.3-12.2c-3.1,1.8-6.5,3.8-13.8,2.3c-0.1,0-19.8-4.7-19.8-4.7l3.5-14.9l13.9,3.3
		l0.2,0c6.5,1.8,8,6.6,8,6.6l2.6-10.9L423.7,763.4z M423.7,763.4"/>
	<path class="st4" d="M496.9,280.7c-57.5,0.5-114.6,23.6-157,68.9c-20.6,22-35.8,47.2-45.6,73.8c4.4-0.8,9-1.6,13.6-2.4
		c5.8-14.3,13.3-28.1,22.5-41.2c0,0,0,0.1,0,0.1c0,0.1,0.1,0.2,0.2,0.3c0.4-0.3,0.7-0.7,1.1-1c1-0.9,2-1.8,3-2.7
		c-0.1-0.2-0.2-0.4-0.3-0.6c-0.2-0.3-0.3-0.6-0.5-1c1.7-2.1,3.3-4.3,5-6.3c0.3,0.4,0.6,0.8,0.8,1.1c0.4,0.6,0.8,1.2,1.1,1.8
		c1.5-1.2,3-2.3,4.5-3.5c-0.7-1.4-1.5-2.7-2.5-4c0.8-1,1.7-1.9,2.6-2.8c1.1-1.2,2.1-2.5,3.2-3.6h0c0,0,0,0,0,0
		c1.7,1.9,2.7,3.9,3.4,5.6c1.3-0.9,2.7-1.8,4-2.6c0.3-0.2,0.5-0.4,0.8-0.5c-0.8-1.8-1.7-3.5-2.9-5.2c-0.4-0.5-0.8-1.1-1.2-1.6
		c1.8-1.8,3.7-3.6,5.5-5.4c0.5-0.4,0.9-0.9,1.4-1.3c3,2.9,4.4,6.1,5.2,8.6c1.9-1.1,3.8-2.1,5.7-3.1c-0.6-1.6-1.3-3.2-2.2-4.7
		c-0.7-1.2-1.6-2.3-2.5-3.4c-0.4-0.5-0.9-1.1-1.4-1.6c2.2-1.9,4.4-3.8,6.7-5.5c0.7,0.6,1.3,1.3,1.9,1.9c1.3,1.5,2.3,3,3,4.4
		c0.8,1.7,1.3,3.3,1.5,4.7c0,0.3,0.1,0.5,0.1,0.8c0.1-0.1,0.2-0.1,0.2-0.1c2-0.9,4-1.8,6-2.6c0.1,0,0.2-0.1,0.2-0.1
		c-0.1-0.7-0.3-1.4-0.5-2.1c-1.1-4.1-3.4-8.1-6.8-11.2v0c1.4-1,2.8-2,4.2-3c1.5-1.1,3-2.1,4.6-3.1c-0.3,0.6-0.6,1.2-0.9,1.6
		c6.3,5.8,7.4,11.3,7.3,14.9c2.4-0.8,4.8-1.6,7.3-2.3c-0.1-2.3-0.6-4.7-1.5-7.1c-0.9-2.4-2.2-4.8-4-6.9c-0.4-0.5-0.9-1-1.3-1.4
		c0.3-0.7,0.6-1.7,0.9-2.9c0.1-0.3,0.2-0.7,0.3-1.1c4-2.4,8-4.6,12.1-6.6c-1.1,3.2-2.4,6.1-3.7,7.5c6.2,7.1,6.4,12.4,5.6,15.9
		l-0.1,0.3v0.1c2.5-0.6,5-1.1,7.6-1.5c0.8-5.4-0.8-11.6-5.1-16.7c0.1-0.1,0.1-0.3,0.2-0.4c0.1-0.1,0.1-0.2,0.2-0.4
		c0.9-2,2.1-5.2,3-8.4c3.4-1.6,6.9-3,10.4-4.3c1.1-0.4,2.3-0.9,3.4-1.3c-1.4,4.2-3.4,8.9-5.5,11.5c-0.3,0.3-0.6,0.7-0.9,1
		c3.8,4.1,5.5,8.9,6,12.8v0.3c0.2,1.8,0.2,3.3,0,4.4c2.2-0.2,4.5-0.3,6.8-0.4c0.2,0,0.4,0,0.7,0c0.4-2,0.4-4.1,0.2-6.3
		c-0.2-1.8-0.6-3.7-1.2-5.5c-1-2.3-2.4-4.3-4.3-6c1.7-3,4.5-9.8,5.8-14.5c40.9-13.3,85.2-13.6,126.4-0.6c0.2,0.1,0.4,0.1,0.5,0.2
		c0.4,0.1,0.7,0.2,1.1,0.3c11.2,3.6,22.2,8.3,32.8,13.9c5.1-1.6,10.1-3.2,15-5C575.7,290.5,536.2,280.3,496.9,280.7L496.9,280.7z
		 M451.3,302.4c-2.5,5.1-6.4,12.3-9.4,14.4c5.3,7.4,5.4,14.6,4.2,18c2.4,0.1,4.9,0.3,7.4,0.4c1.7-5.6,1.3-12.9-2.9-18
		c2.1-2.7,5.6-9.5,7.6-14.1C455.8,302.8,453.5,302.6,451.3,302.4L451.3,302.4z M473.5,305.7c-3,4.5-7.8,10.4-10.8,12.6
		c0.6,0.9,1.2,1.7,1.7,2.7c3.4,6.3,3.7,12.7,2.8,16.1c2.4,0.4,4.7,0.8,7.1,1.2c1.6-5.8,0.6-13.5-3.8-18.6c2.1-2.7,7.5-8.4,9.9-12.7
		C478.1,306.6,475.8,306.1,473.5,305.7L473.5,305.7z M493,309.8c-2.7,4.4-7,10.2-9.9,12.5c4,4.8,5.7,11.2,6.1,16
		c2.4-0.4,4.9-0.7,7.4-1.1c-0.3-4.9-1.8-10.1-5.2-13.4c1.9-2.8,6-8.2,8.1-12.4C497.4,310.9,495.2,310.4,493,309.8L493,309.8z
		 M513.3,315.1c-2.4,4.1-6.3,9.2-9.1,11.8c2.2,2.4,3.6,5.4,4.6,8.5c2.3-0.4,4.5-0.7,6.8-1.1c-0.8-2-1.9-3.8-3.4-5.1
		c1.7-2.9,5.6-8,7.6-12.3C517.6,316.4,515.5,315.7,513.3,315.1L513.3,315.1z M533.8,321.4c-1.8,2.9-4.4,6.3-6.9,8.9
		c-0.8,0.9-1.7,1.7-2.5,2.3c0,0.1,0.1,0.2,0.2,0.2c3.6-0.6,7.2-1.2,10.7-1.9c1.7-2.3,3.6-4.9,4.7-7.5
		C538,322.8,535.9,322.1,533.8,321.4L533.8,321.4z M680.8,367.7l-16,26.1l-8,13l-19.9-8.1c0.1,0.1,4.4,45.1,5,51
		c0.1,1.2,0.1,2.2,0,3.1c-0.1,1.5-0.4,2.7-0.9,3.6c-0.8,1.4-2,2-3.5,2c-0.3,0-0.7,0-1-0.1c-0.8-0.1-1.5-0.4-2.3-0.8
		c-0.9-0.5-1.7-1.1-2.5-1.9c-0.1-0.1-0.2-0.2-0.3-0.3c-4-3.8-24.6-23.9-24.6-23.9l-6.5,16.5l-34.1-5.9l3.1,37.5l-7.6,2.6l-5.7,1.9
		l72.5,62.5l-11.9,14.3l4.1-0.4l55-4.5l5.2,10l1.7-3.2l3.5-6.8l10.6,0.9l12,1l36.5,3l-11.9-14.3l72.5-62.5l-6.7-2.3l-6.6-2.3h0
		l3.1-37.5l-34.1,5.9l-6.5-16.5c0,0-20.7,20.1-24.6,23.9c-0.1,0.1-0.2,0.2-0.3,0.3c-1.9,1.8-4,2.8-5.8,2.8c-0.3,0-0.7,0-1-0.1
		c-2.3-0.6-3.9-3.3-3.4-8.7c0.1-1,0.3-3.3,0.6-6.2c1.4-14,4.4-44.8,4.4-44.9l-20,8.1L680.8,367.7L680.8,367.7z M283,527.9
		c6.5,47.9,28.9,94.1,66.9,129.7c33.7,31.5,74.7,50.3,117.1,56.6c-1.9-4.3-3.9-8.6-5.9-12.9c-31.3-5.8-61.5-18.9-88-39.4
		c0.9-4.6,2-8.4,3.4-9.5c0.4-0.3,0.7-0.4,1.1-0.4c-4.1-6.3-3.9-15.4-2.8-19.8c-0.5-0.2-0.9-0.4-1.4-0.6c-1.5-0.7-3-1.4-4.5-2.1
		c-1.9,5.6-1.3,13.7,2,19.5c-1.9,3-2.8,5.5-3.4,8.5c-0.7-0.6-1.3-1.1-2-1.7c-2.2-1.8-4.3-3.7-6.3-5.6c-0.4-0.4-0.8-0.7-1.2-1.1
		c0,0,0,0,0-0.1c0,0-0.1,0-0.1-0.1c0.7-1.8,1.4-3.3,2.2-4.1c0.1-0.1,0.2-0.1,0.2-0.2c0.1,0,0.1-0.1,0.2-0.2c0,0,0.1,0,0.1-0.1
		c0.1,0,0.2-0.1,0.3-0.1c0.2,0,0.3,0,0.4,0c-0.6-1.2-1.1-2.4-1.4-3.7c-1.3-4.5-1.1-9.1-0.4-12.5c0.2-1.2,0.6-2.4,0.9-3.2
		c-1.9-1.1-3.8-2.2-5.6-3.3c-2.7,5.3-3.4,12.6,0.1,18.8c-0.3,0.5-0.6,1-0.8,1.5c-0.1,0.1-0.2,0.2-0.2,0.4c-0.3,0.6-0.6,1.2-0.9,1.9
		c-1.4-1.4-2.8-2.8-4.1-4.2c-1.4-1.4-2.7-2.9-4-4.3c0.1-0.2,0.3-0.3,0.4-0.4c0.3-0.3,0.6-0.4,0.9-0.5c0.2,0,0.3,0,0.4,0.1
		c-2.2-5.7-1.4-11.6-0.1-15.7c0.3-0.8,0.6-1.7,0.9-2.3c-1.2-0.9-2.4-1.7-3.6-2.6c-0.6-0.4-1.2-0.8-1.8-1.2
		c-2.1,3.6-3.4,8.1-2.8,12.8c0.2,1.6,0.6,3.1,1.3,4.7c0,0-0.1,0-0.1,0.1c0,0,0,0,0,0.1c-1.8-2.2-3.7-4.5-5.4-6.7
		c-0.8-1-1.6-2.1-2.5-3.2c0-3.9,0.9-7.7,2.1-10.8c0.3-0.7,0.6-1.4,0.9-2c-1.6-1.3-3.2-2.6-4.7-4c-1.6,2.9-2.8,6.3-3.2,9.7
		c-1.6-2.4-3.2-4.9-4.7-7.3c0.2-1,0.6-2,0.9-3c0.5-1.5,1.1-2.9,1.7-4.2c-1.5-1.4-3-2.8-4.4-4.3c-0.7,1.2-1.2,2.5-1.8,3.9
		c-0.1,0.3-0.3,0.6-0.4,0.9c-0.5-1-1-1.9-1.5-2.9c-0.6-1.1-1.2-2.2-1.8-3.2c0.5-0.9,1-1.8,1.5-2.5c-1.3-1.6-2.6-3.2-3.9-4.8
		c-0.1,0.1-0.2,0.3-0.3,0.4c-0.2,0.3-0.3,0.4-0.4,0.7c-8.6-18.2-14.5-37.3-17.5-56.9C291.1,529.8,287,528.9,283,527.9L283,527.9z
		 M694.1,565.2c-1.9,5.6-4.1,11.2-6.5,16.8c-3,6.9-6.5,13.6-10.3,20.2c-1.7-3.6-2.2-7.1-2.4-9.8c-1.9,0.1-3.9,0.2-5.8,0.3
		c0.4,3.1,1.1,6,2.1,8.8c0.8,2,1.8,4,3,5.9c-7.1,11.3-15.3,22.2-24.8,32.3c-24.4,26.1-54.1,44.4-85.8,54.8
		c-3.2,4.9-6.5,9.9-9.7,15.1c38.5-10,74.8-30.6,104.1-61.9c22.6-24.1,38.7-52,48.3-81.5L694.1,565.2z M660.7,593.4
		c-1.9,0.2-3.9,0.5-5.9,0.7c1,5.9,3.3,9.7,6.1,14.7c-2.2,3.9-4.8,9.7-6.5,14.2c2.1-0.4,4.2-0.8,6.3-1c1.9-4.8,4.4-10.1,6.4-13.9
		C662.6,602.7,661.3,597.1,660.7,593.4L660.7,593.4z M642.8,596.5c-1.8,1.8-3.8,3.7-5.8,5.8c1.4,3.6,3.6,6.5,7,9.3
		c-0.4,0.9-0.9,2-1.4,3.1c-1.5,3.5-3.2,8-4.4,11.8c2.5-0.6,4.9-1.2,7.3-1.7c2-5.3,4.5-11.3,6.1-14.7
		C645.3,606.1,643.5,600.2,642.8,596.5L642.8,596.5z M628.1,611.5c-1.2,1.3-2.4,2.7-3.7,4.1c0.4,0.3,0.9,0.5,1.3,0.7
		c-1.5,4.3-3.5,9.6-4.7,15c2.3-0.6,4.6-1.3,7-2c1.7-5.6,3.8-11.8,5.5-15.1C631.4,613.5,629.6,612.6,628.1,611.5L628.1,611.5z
		 M385.7,636.5c-1.7,6.4-1.4,15.9,4.1,20.2c-2.3,3.5-3,7.3-3.4,14c2.1,0.7,4.2,1.3,6.3,1.8c0.8-8.7,2-14,4.5-13.6
		c-5.6-4-5.8-15-4.9-20.2C390.2,638.1,387.9,637.4,385.7,636.5L385.7,636.5z M403.2,641.6c-1,5.7,0,13.9,4.4,18.4
		c0.6,0.6,1.3,1.2,2.1,1.7c-1.7,3.5-2,8.2-1.6,14.3c2.2,0.4,4.5,0.7,6.7,0.9c-0.2-7.5,0.3-14.2,2.9-14.2c-6.8-4.8-7.8-14.9-7.4-19.7
		C407.9,642.5,405.5,642.1,403.2,641.6L403.2,641.6z M423.1,644.5c-0.1,6.7,2.6,16.2,9.1,19c-1.1,4.4-1.1,9.4-0.1,15.1
		c2.3,0,4.5-0.1,6.8-0.2c-0.8-6.6-1-14.9,1.4-15.2c-7.1-4-9.7-13.5-9.9-18.3C428,644.9,425.5,644.7,423.1,644.5L423.1,644.5z
		 M423.1,644.5"/>
</g>
</svg>
