<?xml version="1.0" encoding="utf-8"?>
<!-- Generator: Adobe Illustrator 24.2.0, SVG Export Plug-In . SVG Version: 6.00 Build 0)  -->
<svg version="1.1" id="katman_1" xmlns="http://www.w3.org/2000/svg" xmlns:xlink="http://www.w3.org/1999/xlink" x="0px" y="0px"
	 viewBox="0 0 1000 1000" style="enable-background:new 0 0 1000 1000;" xml:space="preserve">
<style type="text/css">
	.st0{fill:#FFFFFF;}
	.st1{fill:#BA122B;}
	.st2{fill:#14225A;}
	.st3{fill:#BA122F;}
</style>
<g id="XMLID_1_">
	<g id="layer2">
		<path id="path3525" class="st0" d="M892.2,500c0,216.5-175.7,392.2-392.2,392.2S107.8,716.5,107.8,500S283.5,107.8,500,107.8
			S892.2,283.5,892.2,500z"/>
	</g>
	<g id="layer3">
		<g id="XMLID_11_">
			<path id="path4315_1_" class="st1" d="M875.6,500c0,207.5-168.1,375.6-375.6,375.6S124.4,707.5,124.4,500l0,0
				c0-207.5,168.1-375.6,375.6-375.6C707.5,124.4,875.6,292.5,875.6,500L875.6,500z"/>
			<path id="XMLID_8_" d="M500,875.8c-50.6,0-99.9-9.9-146.3-29.6c-44.8-18.8-84.9-45.9-119.4-80.5c-34.5-34.5-61.6-74.6-80.5-119.4
				c-19.5-46.4-29.6-95.5-29.6-146.3l0,0c0-50.6,9.9-99.9,29.6-146.3c18.8-44.8,45.9-84.9,80.5-119.4s74.6-61.6,119.4-80.5
				c46.4-19.5,95.5-29.6,146.3-29.6l0,0c50.6,0,99.9,9.9,146.3,29.6c44.8,18.8,84.9,45.9,119.4,80.5c34.5,34.5,61.6,74.6,80.5,119.4
				c19.5,46.4,29.6,95.5,29.6,146.3l0,0h-0.2h0.2c0,50.6-9.9,99.9-29.6,146.3c-18.8,44.8-45.9,84.9-80.5,119.4
				c-34.5,34.5-74.6,61.6-119.4,80.5C599.9,866,550.6,875.8,500,875.8L500,875.8z M500,124.4L500,124.4
				c-207.1,0-375.6,168.5-375.6,375.6l0,0c0,100.4,39,194.5,110,265.6c70.8,70.8,165.2,110,265.6,110l0,0
				c207.1,0,375.6-168.5,375.4-375.6l0,0c0-100.4-39-194.5-110-265.6C694.5,163.6,600.2,124.4,500,124.4z"/>
		</g>
		<path id="path3306" class="st2" d="M783.5,816.2L783.5,816.2l-4.9-13.9h-6.9v21.3h4v-17h0.2l5.6,17h3.8l5.8-17l0,0v17h4v-21.3H788
			L783.5,816.2L783.5,816.2z"/>
		<path id="path3310" class="st2" d="M751.7,806.1h6.1v17.5h4v-17.5h6.1v-3.8h-16.4v3.8H751.7z"/>
	</g>
	<g id="layer4">
		<g id="XMLID_7_">
			<path id="path4318_1_" class="st2" d="M854.5,500.9c0,196.1-158.9,355.2-355.2,355.2c-196.1,0-355.2-158.9-355.2-355.2l0,0
				c0-196.1,158.9-355.2,355.2-355.2C695.4,145.5,854.3,304.6,854.5,500.9C854.5,500.7,854.5,500.7,854.5,500.9z"/>
			<path id="XMLID_4_" d="M499.1,856.3c-48,0-94.6-9.4-138.3-28c-42.4-17.9-80.2-43.5-112.9-76.2s-58.3-70.6-76.2-112.9
				c-18.6-43.7-28-90.3-28-138.3l0,0c0-48,9.4-94.6,28-138.3c17.9-42.4,43.5-80.2,76.2-112.9s70.6-58.3,112.9-76.2
				c43.9-18.6,90.3-28,138.3-28l0,0c48,0,94.6,9.4,138.3,28c42.4,17.9,80.2,43.5,112.9,76.2s58.3,70.6,76.2,112.9
				c18.6,43.9,28,90.3,28,138.3l0,0h-0.2h0.2c0,48-9.4,94.6-28,138.3c-17.9,42.4-43.5,80.2-76.2,112.9s-70.6,58.3-112.9,76.2
				C593.7,846.9,547.3,856.3,499.1,856.3C499.3,856.3,499.1,856.3,499.1,856.3z M499.1,145.7L499.1,145.7c-94.8,0-184,37-251.2,104
				c-67,67-104,156.2-104,251l0,0c0,195.9,159.3,355,355,355l0,0c94.8,0,184-37,251-104s104-156.2,104-251l0,0
				C854.3,305,695,145.7,499.1,145.7z"/>
		</g>
	</g>
	<g id="layer6">
		<path id="XMLID_3_" class="st3" d="M500,755.9c-68.4,0-132.7-26.7-181.1-75.1s-75.1-112.7-75.1-181.1s26.7-132.7,75.1-181.1
			s112.7-75.1,181.1-75.1l0,0c141.2,0,255.9,114.7,255.9,255.9l0,0C755.9,641.2,641.2,755.9,500,755.9L500,755.9z M500,258.6
			L500,258.6c-64.5,0-125,25.1-170.8,70.6c-45.5,45.5-70.6,106.2-70.6,170.5c0,64.5,25.1,125,70.6,170.8
			c45.5,45.5,106.2,70.6,170.5,70.6l0,0c133.1,0,241.4-108.2,241.4-241.4l0,0C741.4,366.9,633.1,258.6,500,258.6z"/>
	</g>
	<g id="layer7">
		<path id="path3796" class="st0" d="M728.8,500c0,126.4-102.4,228.8-228.8,228.8S271.2,626.4,271.2,500S373.6,271.2,500,271.2
			S728.8,373.6,728.8,500z"/>
	</g>
	<g id="layer8">
		<path id="path3799" class="st1" d="M213.8,558.3l-17.9-13L178,558.5l6.7-21.3l-18.2-13h22.2l6.7-21.3l6.9,21.3l22.2-0.2
			l-17.9,13.2L213.8,558.3z"/>
		<path id="path3799-1" class="st1" d="M821.6,558.7l-17.9-13l-17.9,13.2l6.7-21.3l-18.2-13h22.2l6.7-21.3l6.9,21.3l22.2-0.2
			l-17.9,13.2L821.6,558.7z"/>
		<g id="g3384" transform="matrix(0.76972,0,0,0.76847,9.3362,105.86)">
			<path id="path3230" class="st0" d="M300.7,394.2l-38.3-40.3l55.4,0.2l1.3-3.1l-65-58.7l-6.5,15.2l36.5,31.6l-51.8,0.2l-1.3,3.1
				l35.6,37.4l-48.2-3.8l-6.7,15.9l87.6,5.6L300.7,394.2L300.7,394.2z"/>
			<path id="path3234" class="st0" d="M390.4,200.3c3.4,0,7.2-0.4,11.9-1.6l5.8-1.1c2.9-0.7,5.8-1.1,8.3-1.1c3.4,0,5.4,1.1,7.2,3.6
				c1.1,1.6,1.6,3.4,1.3,5.2c-0.4,2.9-2.5,5.8-6.1,8.3c-5.8,4.3-12.1,4.7-18.4,1.8l-1.8-0.9l-7.2,13.9l1.8,0.9
				c4.7,2.2,9.4,3.4,14.3,3.4c6.9,0,13.7-2.2,19.9-6.9c13.9-10.1,17-23.5,8.5-35.4c-4.9-6.9-11.2-10.1-19.5-10.1
				c-3.4,0-7.2,0.4-12.3,1.6l-5.8,1.1c-3.6,0.7-6.3,1.3-8.5,1.3c-2.9,0-4.7-0.9-6.5-3.1c-2.5-3.6-1.8-7.4,2.2-10.3
				c4-2.9,7.8-3.4,12.8-1.1l2,0.9l5.4-14.1l-1.8-0.7c-9.4-4-18.6-2.9-27.1,3.4c-5.4,4-9,9.2-10.1,15c-1.1,5.8,0.4,11.7,4,16.8
				C375.8,197.4,381.8,200.3,390.4,200.3"/>
			<path id="path3238" class="st0" d="M493,186.4l-8.5-22.2l30.9-11.9l8.5,22.2l15.2-5.8l-29.4-76.2l-15.2,5.8l15.5,40.1l-30.9,11.9
				l-15.5-40.1l-15.2,5.8l29.4,76.2L493,186.4L493,186.4z"/>
			<path id="path3242" class="st0" d="M593.2,159.3l-11.7-80.9l-16.1,2.2l11.7,80.9L593.2,159.3z"/>
			<path id="path3246" class="st0" d="M650.8,108.7l43,52.7l3.8,0.2l6.5-82.7l-15.5-1.1l-3.6,47.7l-43.3-52.7l-3.8-0.2l-6.5,82.7
				l15.5,1.1L650.8,108.7z"/>
			<path id="path3250" class="st0" d="M769.1,183.1c6.5,2.5,12.8,3.8,18.8,3.8c4.7,0,9.4-0.9,14.3-2.5l0.9-0.2l11.4-29.4l-33.8-13
				l-5.4,13.9l19.5,7.4l-3.1,8.1c-5.2,0.9-10.8,0.2-17-2.2c-15-5.8-21.3-19.7-15.5-34.5c4.3-11,13.2-17.7,23.8-17.7
				c3.1,0,6.1,0.7,9.2,1.8c10.3,4,13.2,9.6,15.5,15.2l0.7,2l14.6-6.1l-0.7-1.8c-4.3-11.2-11.9-18.6-24.2-23.3
				c-5.2-2-10.3-2.9-15.7-2.9c-17.3,0-32,10.3-38.5,27.1C734.8,150.6,745.8,174.1,769.1,183.1"/>
			<path id="path3254" class="st0" d="M853.1,229.7l39.4-54l18.6,13.7l8.7-12.1l-50.4-36.8l-8.7,12.1l18.6,13.7l-39.4,53.8
				L853.1,229.7L853.1,229.7z"/>
			<path id="path3258" class="st0" d="M905.1,260.6c-1.1,11,2.2,21.7,9.4,30.7c8.3,10.3,20.2,16.1,32.7,16.1
				c9.4,0,18.6-3.4,26.2-9.4c9-7.2,14.6-17.3,15.7-28.5c1.1-11-2.2-21.7-9.4-30.7c-8.3-10.3-20.2-16.1-32.7-16.1
				c-9.4,0-18.6,3.4-26.2,9.4C911.8,239.6,906.2,249.6,905.1,260.6 M931.3,245.4c5.4-4.3,11.4-6.5,17.5-6.5c7.4,0,14.3,3.4,19.3,9.6
				c9.2,11.4,7.2,26.9-4.9,36.5c-5.4,4.3-11.4,6.5-17.5,6.5c-7.4,0-14.3-3.4-19.3-9.6C917.2,270.5,919.2,255,931.3,245.4"/>
			<path id="path3262" class="st0" d="M962,366l44.6-17.7l-28,61l-0.4,0.7l1.3,3.6l77.1-30.5l-5.8-14.3l-44.6,17.7l28.5-61.6
				l-1.3-3.6l-77.1,30.5L962,366L962,366z"/>
			<path id="path3266" class="st0" d="M346.4,721.6l-40.3,26l15.9-66.1l-2-3.4l-69.7,45l8.5,13l40.3-26l-15.9,66.1l2.2,3.1l69.7-45
				L346.4,721.6L346.4,721.6z"/>
			<path id="path3270" class="st0" d="M435.4,827.4l20.4,10.8l-31.1,59.2l14.3,7.6l31.4-58.9l20.4,10.8l6.9-13.2l-55.4-29.4
				L435.4,827.4z"/>
			<path id="path3274" class="st0" d="M506.7,932.3l15.7,4.5l22.9-78.4l-15.7-4.5L506.7,932.3L506.7,932.3z"/>
			<path id="path3278" class="st0" d="M620.3,868.6c-23.8-1.1-43,16.4-43.9,39.9c-1.1,23.5,16.6,42.8,40.1,43.7c0.7,0,1.3,0,2,0
				c22.9,0,40.8-17.3,41.9-40.1C661.5,888.8,643.8,869.7,620.3,868.6 M617.1,937.2c-14.8-0.7-24.9-12.3-24.2-27.8
				c0.7-15,11-25.5,25.3-25.5c0.4,0,0.9,0,1.3,0c7.2,0.2,13.4,3.4,17.9,8.5c4.3,5.2,6.5,12.1,6.3,19.5
				C642.9,927.1,631.9,937.9,617.1,937.2"/>
			<path id="path3282" class="st0" d="M742.6,854.5l11.9,46.6l-56.9-35.4l-0.7-0.4l-3.8,0.9l20.6,80.2l15-3.8l-11.9-46.4l56.9,35.4
				l0.7,0.4l3.8-0.9l-20.6-80.2L742.6,854.5L742.6,854.5z"/>
			<path id="path3286" class="st0" d="M930.7,818.2l-47.1-47.3l-11.7,11.4l57.6,58l35.9-35.6l-10.5-10.5L930.7,818.2z"/>
			<path id="path3290" class="st0" d="M1005.5,707.5c-4.3-2.7-8.5-3.8-12.5-3.8c-6.7,0-13,3.1-20.2,8.1l-4.9,3.4
				c-4.9,3.4-8.1,5.2-10.8,5.2c-1.3,0-2.5-0.4-4-1.3c-3.8-2.2-4.5-6.1-1.8-10.3c2.5-4,5.8-5.8,11-5.8h2.5l-0.4-15.2h-2.5
				c-9.9,0-17.7,4.5-23.3,13.4c-3.6,5.8-4.7,12.1-3.6,17.7c1.1,5.8,4.7,10.8,10.1,14.1c4,2.5,7.8,3.6,12.1,3.6
				c6.1,0,11.9-2.5,19.9-7.8l4.9-3.4c4-2.7,7.4-5.2,10.8-5.2c1.6,0,2.9,0.4,4.5,1.3c1.8,1.1,2.7,2.5,3.1,4.3
				c0.7,2.7-0.2,6.3-2.5,9.9c-3.8,6.1-9.2,9-16.4,8.5l-2-0.2l-1.3,15.5l2,0.2c0.9,0,1.6,0,2.5,0c11.7,0,21.7-5.8,28-16.4
				c4.9-7.8,6.5-15.5,4.9-22.4C1014.7,715.5,1011.1,710.8,1005.5,707.5"/>
			<path id="path3294" class="st0" d="M319.5,818.4l12.5,11l13-6.5l22.6,19.7l-4.7,13.9l13,11.4l27.8-86.5l-2.5-2L319.5,818.4
				L319.5,818.4z M373.5,824.9l-0.9,2.7l-13.2-11.7l2.5-1.1l18.2-9L373.5,824.9L373.5,824.9z"/>
			<path id="path3298" class="st0" d="M814.4,820.7l11.7,90.1l14.3-8.5l-2-14.3l25.8-15.2l11.7,8.7l14.8-8.7L817,819.1L814.4,820.7
				L814.4,820.7z M849.1,861.2l2.2,1.6l-15.2,9l-0.4-2.7l-2.9-20.2L849.1,861.2z"/>
			<path id="path3302" class="st0" d="M347.6,303.2l-6.7-13l19-23.1l13.9,4.3l11-13.2l-87.4-25.1l-2,2.5l41.7,80.7L347.6,303.2
				L347.6,303.2z M322.5,255.7l19.5,5.8l2.7,0.9l-11.2,13.7L322.5,255.7z"/>
		</g>
	</g>
	<g id="layer5">
		<g id="g3791">
			<path id="path3467" class="st2" d="M626.8,338.9c-32.3-25.8-61.4,6.5-61.4,24.9c32.3,6.9,61,39.2,48.2,122.8
				c-10.5,68.6-50.9,111.2-76.2,112.1c21.1-28.9,35.2-61.4,42.8-93.2c23.1-95-13.9-125.7-43-127.3c-35.4-1.8-71,46.6-81.1,103.8
				c-7.8,45.3-6.7,91.7,20.6,125.5c-24.4,30.7-82.7,40.3-72.6-33.8c8.5-62.1,39.4-130.4,56.5-164l0.4-0.9
				c9.2-18.8,16.4-32,19.5-37.4l-6.9-0.2c-66.3,1.1-119.4,16.6-144.1,50.2c-23.1,31.6-23.8,64.8-4.7,84.5l2.9,2.9
				c5.6,5.6,13,8.5,20.2,8.5l0,0c6.7,0,13.2-2.5,18.4-7.4c5.2-4.9,7.6-11.7,7.6-18.4c0-7.4-2.9-14.6-8.5-20.2
				c-3.1-2.9-6.5-5.2-10.1-6.5l0.2-0.2l1.8-3.6c4.5-7.8,12.3-15,22.4-19.9c8.1-4,17.5-6.7,27.6-7.8l-1.6,3.4
				c-14.1,26.2-34.7,76-41.2,102c-20.2,81.3,12.5,128.9,48,135.6c42.8,8.1,75.5-12.8,92.8-39.4c20.6,13.2,75.1,20.6,116.3-52.4
				C668.5,497.8,670.1,373.6,626.8,338.9 M506.1,579.6c-8.1-19.7-11.9-43-11.9-65c0-26.7,5.4-51.3,14.6-65.9
				c6.1-9.6,13.2-14.1,21.3-13.7c2.9,0.2,6.1,1.1,8.5,6.7c1.8,4.5,2.7,10.5,2.7,17.5C541.5,493.7,520.6,553.1,506.1,579.6"/>
			<path id="path3469" class="st1" d="M621.9,344.9c-10.3-8.3-20.8-10.1-30.7-5.4c-8.3,4-14.6,11.9-17,18.6
				c19.9,6.7,50,27.3,50,90.8c0,11.7-1.1,24.4-3.4,39c-9.9,64.5-45.7,108.5-74.6,117c-8.5,2.5-16.1,1.8-22.4-1.6
				c28.5-35.2,42.1-72.8,48.6-99.7c5.2-20.8,7.2-37.9,7.2-52c0-24.9-6.3-40.1-13-49.1c-10.3-13.7-23.1-16.1-30-16.6
				c-30.3-1.6-63.6,43.3-73.1,97.5c-2.7,15.7-4.3,30.3-4.3,43.5c0,34.1,9,60.5,26.9,80.2c-13.2,20.8-40.3,35.2-61.9,30.3
				c-9.4-2.2-29.4-11-29.4-47.5c0-5.2,0.4-10.8,1.3-17c7.8-56,33.4-117.9,51.5-155.3l0.4-0.9c7.8-16.4,14.6-29.4,19-37.4h-0.9
				c-64.5,2.2-109.6,18.4-130.7,46.8c0,0-17.5,22.4-16.8,45c0.4,13.2,4.9,24.9,15,32.9l1.3,1.1c7.8,6.1,18.8,6.1,25.3-0.7
				c7.2-7.4,6.7-19.5-0.9-27.3c-4-4-9.2-6.1-14.3-6.3h-0.2c4.5-26,34.5-45.9,70.6-45.9l4.7,0.2l-0.7,1.3l-7.4,14.1
				c-13.4,24.9-34.1,74-40.6,100.2c-10.3,41-7.2,77.1,8.3,101.5c8.7,13.4,20.6,22.2,33.6,24.7c28.7,5.4,49.5-3.8,61.9-12.3
				c10.3-7.2,20.6-18.4,27.8-30c8.5,5.6,22.9,11.4,35,11.2c20.4-0.2,50.2-10.5,76.4-56.9c21.7-38.8,34.7-88.5,35.6-136.5
				C651,396,640.5,359.9,621.9,344.9 M530.5,427.4c45.5,2.9-5.8,145.2-25.5,168.1C472.2,536.3,484.5,424.5,530.5,427.4"/>
		</g>
	</g>
</g>
</svg>
